<svg xmlns="http://www.w3.org/2000/svg" viewBox="0 0 34 34"><path d="M5.7 28c0 2.8 5 5 11.3 5 6.2 0 11.3-2.3 11.3-5 0-1.9-2.4-3.6-5.9-4.4-.4.6-.8 1.1-1.1 1.7 3.4.7 5.1 2.1 5.1 2.8 0 .9-3.2 3.2-9.4 3.2s-9.4-2.2-9.4-3.2c0-.7 1.7-2.1 5.1-2.8-.4-.5-.7-1.1-1.1-1.7-3.5.8-5.9 2.5-5.9 4.4z"/><path d="M17 27.9c2.4-3.4 9.4-12.8 9.4-17.5C26.4 5.2 22.2 1 17 1s-9.4 4.2-9.4 9.4c0 5.1 8.6 16.4 9.4 17.5zm-6.3-17.5c0-3.5 2.8-6.3 6.3-6.3s6.3 2.8 6.3 6.3-2.8 6.3-6.3 6.3c-3.5.1-6.3-2.8-6.3-6.3z"/><path d="M21.1 10.4c0-2.3-1.8-4.1-4.1-4.1s-4.1 1.8-4.1 4.1 1.8 4.1 4.1 4.1c2.2 0 4.1-1.8 4.1-4.1z"/></svg>