<svg xmlns="http://www.w3.org/2000/svg" xmlns:xlink="http://www.w3.org/1999/xlink" data-name="Layer 1" viewBox="0 0 340 340"><defs><radialGradient id="a" cx="19064.01" cy="3500.1" r="2.71" gradientTransform="scale(-1 1) rotate(-39 4679.531 29068.256)" gradientUnits="userSpaceOnUse"><stop offset="0" stop-color="#f35733"/><stop offset=".1" stop-color="#f35733" stop-opacity=".98"/><stop offset=".23" stop-color="#f35733" stop-opacity=".91"/><stop offset=".37" stop-color="#f35733" stop-opacity=".81"/><stop offset=".52" stop-color="#f35733" stop-opacity=".66"/><stop offset=".68" stop-color="#f35733" stop-opacity=".47"/><stop offset=".85" stop-color="#f35733" stop-opacity=".24"/><stop offset="1" stop-color="#f35733" stop-opacity="0"/></radialGradient><radialGradient id="c" cx="19053.88" cy="3507.21" r="2.58" xlink:href="#a"/><clipPath id="b"><path fill="none" d="M155.42 34.44c41.21 8.12 62.24 54.79 128.6 96.31S335.76 334.43 231 308c-100-25.23-104.61-23.23-170.09-20.9C-21.07 290 25 8.75 155.42 34.44Z"/></clipPath></defs><path fill="#7e5650" d="M42.15 310.77h262v1.99h-262z"/><path fill="#ffe5dd" d="M155.42 34.44c41.21 8.12 62.24 54.79 128.6 96.31S335.76 334.43 231 308c-100-25.23-104.61-23.23-170.09-20.9C-21.07 290 25 8.75 155.42 34.44ZM267.17 102.85c-19.34-15.39-35.44-42.24-26.28-68.12S269 57 284.17 73.07c22.01 23.21 23.47 61.99-17 29.78Z"/><g clip-path="url(#b)"><path fill="#e5c9c2" d="M188.47 156.96h17.4v10h-17.4z" transform="rotate(180 197.17 161.955)"/><path fill="#ceb4ae" d="M186.32 156.96h17.4v10h-17.4z" transform="rotate(180 195.02 161.955)"/><path fill="#fff9f0" d="M188 159.4h7.57v1.6H188z" transform="rotate(180 191.785 160.195)"/><path fill="#e5c9c2" d="M213.6 151.77h27.56v15.84H213.6z" transform="rotate(180 227.38 159.69)"/><path fill="#ceb4ae" d="M210.2 151.77h27.56v15.84H210.2z" transform="rotate(180 223.975 159.69)"/><path fill="#fff9f0" d="M212.85 155.63h11.99v2.54h-11.99z" transform="rotate(180 218.85 156.9)"/><path fill="#fff9f0" d="M267 105.72v15.91h13.72v-15.91a5.08 5.08 0 0 0-.6-2.4 5.14 5.14 0 0 0-1.66-1.84 2.86 2.86 0 0 1-1.26-2.38v-2h-6.69v2a2.86 2.86 0 0 1-1.26 2.38 5.11 5.11 0 0 0-2.25 4.24Z"/><path fill="#3b51e6" d="M270.48 98.37V99a11.66 11.66 0 0 0 6.69 0v-.67a11.44 11.44 0 0 1-6.69 0Z"/><path fill="#e5c9c2" d="M266.97 107.76h13.72v6.84h-13.72z" transform="rotate(180 273.825 111.185)"/><path fill="#e5c9c2" d="M269.23 99.53h9.19v-4.84h-9.19v4.84z"/><path fill="#fff9f0" d="M251.66 109.8v11.83h10.2V109.8a3.82 3.82 0 0 0-.44-1.79 3.93 3.93 0 0 0-1.23-1.37 2.1 2.1 0 0 1-.94-1.76v-1.49h-5v1.49a2.12 2.12 0 0 1-.93 1.76 3.82 3.82 0 0 0-1.66 3.16Z"/><path fill="#3b51e6" d="M254.27 104.33v.5a8.56 8.56 0 0 0 5 0v-.5a8.56 8.56 0 0 1-5 0Z"/><path fill="#ceb4ae" d="M251.66 111.32h10.2v5.09h-10.2z" transform="rotate(180 256.76 113.865)"/><path fill="#ceb4ae" d="M253.34 105.2h6.84v-3.61h-6.84v3.61z"/><path fill="#fff9f0" d="m210.49 121.17 8.82-15.39v-7.54h4.27l.02 7.54 8.76 15.39h-21.87z"/><path fill="#e5c9c2" d="m223.91 109.62 5.53 9.71h-16.03l5.57-9.71h4.93z"/><path fill="#e5c9c2" d="M218.15 97.61h6.55v1.27h-6.55z" transform="rotate(180 221.425 98.24)"/><path fill="#fff9f0" d="m245.82 256.8 8.82-15.39v-7.54h4.28l.02 7.54 8.76 15.39h-21.88z"/><path fill="#e5c9c2" d="m259.24 245.25 5.53 9.71h-16.02l5.57-9.71h4.92z"/><path fill="#e5c9c2" d="M253.48 233.24h6.55v1.27h-6.55z" transform="rotate(180 256.76 233.87)"/><path fill="#fff9f0" d="m188.03 122.31 7.19-12.54v-6.15h3.49l.01 6.15 7.15 12.54h-17.84z"/><path fill="#e5c9c2" d="m198.97 112.9 4.51 7.92h-13.06l4.54-7.92h4.01z"/><path fill="#e5c9c2" d="M194.28 103.1h5.34v1.03h-5.34z" transform="rotate(180 196.95 103.615)"/><path fill="#fff9f0" d="m234.33 186.75 5.18 5.38 1.39-5.38h-6.57z"/><path fill="#fff9f0" d="M239.2 186.75h20.43v24.16H239.2z" transform="rotate(180 249.415 198.825)"/><path fill="#e5c9c2" d="M240.47 197.61h17.9v11.68h-17.9z" transform="rotate(180 249.415 203.45)"/><path fill="#fff9f0" d="M251.85 153.25v-14.63H257v14.64a7.6 7.6 0 1 1-5.14 0Z"/><path fill="#e5c9c2" d="M253.09 155.36v-12.09h2.63v12.09a5.23 5.23 0 1 1-2.63 0Z"/><path fill="#e5c9c2" d="M250.87 137.69h7.06v1.36h-7.06z" transform="rotate(180 254.405 138.37)"/><path fill="#fff9f0" d="M269.43 157.12v-10.79h3.8v10.8a5.61 5.61 0 1 1-3.8 0Z"/><path fill="#ceb4ae" d="M270.35 158.68v-8.92h1.93v8.92a3.86 3.86 0 1 1-1.93 0Z"/><path fill="#e5c9c2" d="M268.71 145.64h5.21v1.01h-5.21z" transform="rotate(180 271.315 146.145)"/><path fill="#fff9f0" d="M216.21 252a4.14 4.14 0 0 0 4.14-4.15V228.1h-8.29v19.73a4.15 4.15 0 0 0 4.15 4.17Z"/><path fill="#e5c9c2" d="M215.76 232.91h3.08v14.23a2.64 2.64 0 0 1-2.63 2.64 3.42 3.42 0 0 1-.45 0 2.64 2.64 0 0 1-2.19-2.6v-14.27Z"/><path fill="#e5c9c2" d="M210.99 225.67h10.43v3.43h-10.43z" transform="rotate(180 216.205 227.385)"/><path fill="#fff9f0" d="M200.66 252a4.15 4.15 0 0 0 4.14-4.15V228.1h-8.29v19.73a4.15 4.15 0 0 0 4.15 4.17Z"/><path fill="#e5c9c2" d="M200.21 232.91h3.08v14.23a2.64 2.64 0 0 1-2.63 2.64 3.42 3.42 0 0 1-.45 0 2.64 2.64 0 0 1-2.19-2.6v-14.27Z"/><path fill="#e5c9c2" d="M195.44 225.67h10.43v3.43h-10.43z" transform="rotate(180 200.655 227.385)"/><path fill="#ceb4ae" d="M226 256.14h-35.66v-25.47H226Zm-34.38-1.25h33.13v-23h-33.16Z"/><path fill="#ceb4ae" d="M229.37 256.14h-42.43a.63.63 0 1 1 0-1.25h42.43a.63.63 0 1 1 0 1.25ZM229.37 231.92h-42.43a.63.63 0 1 1 0-1.25h42.43a.63.63 0 1 1 0 1.25ZM204.24 190.38l4.6.54-.4 3.51a6.16 6.16 0 0 1-2.54.16 4 4 0 0 1-2.06-.69ZM206.34 174.73l-.46 4 4.07.47.46-4a2 2 0 0 0-1.8-2.27 2 2 0 0 0-2.27 1.8Z"/><rect width="16.53" height="7.11" x="199.18" y="179.29" fill="#e5c9c2" rx=".83" transform="rotate(-83.38 207.455 182.848)"/><path fill="#e5c9c2" d="M206.1 203.92s1.8.08 2.09.08c5.55 0 10.93-4.52 10.93-10.07 0-5-4.47-9.06-9.19-9.88v-2h.15a11.88 11.88 0 0 1 0 23.75 17 17 0 0 1-4.61-.78Z"/><path fill="#ceb4ae" d="M208.39 183a1.94 1.94 0 1 1 1.94 1.93 1.94 1.94 0 0 1-1.94-1.93Z"/><path fill="#e5c9c2" d="M210.81 209.18h9.61l-1.59-5.49a3.24 3.24 0 0 0-3.22-2.83 3.23 3.23 0 0 0-3.21 2.83Z"/><path fill="#e5c9c2" d="M204.86 201.46a1.95 1.95 0 0 1 1.95 1.95v2.39h-3.9v-2.39a1.95 1.95 0 0 1 1.95-1.95Z" transform="rotate(180 204.865 203.63)"/><path fill="#ceb4ae" d="M200 201.78h9.75a1.6 1.6 0 0 0 1.59-1.6h-12.95a1.6 1.6 0 0 0 1.61 1.6Z"/><path fill="#e5c9c2" d="M194.12 208.18h33.38v1.99h-33.38z"/><path fill="#ceb4ae" d="M165.35 77h16.59v181.41h-16.59zM294.2 77h12.15v235.75H294.2z"/><path fill="#e5c9c2" d="M165.35 77v235.75h134.12V77Zm123.2 179.14H176.29V170.6h112.26Zm0-90.17H176.29v-39.84h112.26Zm0-44.49H176.29V81.66h112.26Z"/><path fill="#ceb4ae" d="M176.28 266.85h112.27v32.47H176.28z"/><path fill="#ceb4ae" d="M176.28 266.85h112.27v2.5H176.28z"/><path fill="#e5c9c2" d="M237.24 283.09a4.83 4.83 0 1 0-4.83 4.83 4.83 4.83 0 0 0 4.83-4.83ZM170.29 210.3H294.2v4.22H170.29z"/><path fill="#fff9f0" d="M190.13 170.61h34.24l-1.81-4.65h-34.24l1.81 4.65zM176.28 135.09v-8.96h30.74l-1.81-4.65h-28.93V81.65h13.39L187.86 77H165.35v30.08l10.93 28.01zM279.82 312.75h-34.24l-22.08-56.61h34.23l22.09 56.61zM218.39 312.75h-53.04V177.29l10.94 27.9v50.95h19.94l22.16 56.61z" opacity=".3"/><rect width="109.56" height="82.76" x="27.9" y="83.99" fill="#e5c9c2" rx="1.53"/><rect width="102.68" height="76.41" x="31.34" y="87.17" fill="#ceb4ae" rx="1.18"/><path fill="#e5c9c2" d="m122.8 116.16-12.22 29.63a6.09 6.09 0 0 1-8 3.34 56.35 56.35 0 0 0-41.43-.9 6.09 6.09 0 0 1-7.73-3.41l-12.19-29.65a6.13 6.13 0 0 1 3.47-8 100.77 100.77 0 0 1 74.81 1.06 6.12 6.12 0 0 1 3.29 7.93Z"/><path fill="#ceb4ae" d="M95.17 124.74a4.91 4.91 0 0 0 1.36-2.92c.15-1.57 3-2.64 3.77-5.9 1.22-5.38-7.13-15.76-13.89-10.88s-6.56 12.19-4.69 15.76.81 5.88.44 5.56-1.62-.93-1.56-2.25-1.69-7.75-3.6-7.11-.88 2.25-.31 4.82 1.62 3.94-.63 3.81-1.88 4.13-4.63.78-4.19-7.59-5.94-5.78-3.06 1.75-2.75 3.38 1.25 1.44 2 2.5.13 4 .5 5.32 1.13 7.06 9.26 6.94 16.32-2.69 17.7-8.13a12.93 12.93 0 0 1 2.97-5.9Z"/></g><path fill="#c15c36" d="M171.22 293.75c-.75-.94-8.94-.15-9 .34-.25 1.5-.64 7.28.14 8s7.82 2.35 8 .89c.1-1.22 1.64-8.31.86-9.23Z"/><path fill="#412621" d="M161.76 300.37s-3.78 5.41-1.07 9.66c0 0 19.7.92 25.65 0 0 0 .15-7.27-5-7.88a92.85 92.85 0 0 0-10.84-.53s-5.03 2.77-8.74-1.25Z"/><path fill="#9b452c" d="M162 223.71c.93 11.59.08 35-.85 46.55-.06.78-.06 27.7-.06 27.7l10.9 1c5.93-17.69 17.25-57.37 17.25-75s-1.52-47-8-60.89c-6.16-13.24-30.44 5-33.29 8.29-1.32 1.5 1.17 14.9 4.62 23.78 4 10.35 8.91 22.34 9.43 28.57Z"/><path fill="#773320" d="m161.07 298 6.72.64c-.61-4.23 0-13.66.24-18 .44-7.49 2.3-14.82 4-22.09 2.74-11.53 5.36-23.75 2.09-35.47-1.68-6-5.37-10.21-8.38-15.54a21 21 0 0 1-2.7-11.75c.16-2.25 1.55-5.08.79-7.33-.94-2.83-9.42-12.42-11.59-11-2.62 1.77-1.3 8.58-2.36 11.75 4 10.29 11.56 28.25 12.06 34.48.93 11.59-1 34.86-1.62 46.47s.75 27.84.75 27.84Z"/><path fill="#c15c36" d="M98.9 280.91c-.07-1.22-7.2-5.31-7.55-5-1.08 1.08-4.41 5.55-4.54 6.64-.32 2.65 6.28 9.2 7.26 8.1.84-.9 4.93-8.58 4.83-9.74Z"/><path fill="#9b452c" d="M157.22 170.34c-1 7.09-9.35 36.13-15.46 62.8-3.93 17.17-29.24 43.2-45.13 52.68l-7.54-5.24-1.7-1.16s10.83-15.29 16-21.54c13.34-16.22 12.08-26.67 13.44-38.21 2.83-23.78-2.05-36.08 6.43-53 .38-.78.81-1.57 1.25-2.36a75.33 75.33 0 0 1 5.92-8.92 2.39 2.39 0 0 1 1.49-.86 6.26 6.26 0 0 1 2.68.13c4.4 1.01 22.77 14.53 22.62 15.68Z"/><path fill="#773320" d="M124.7 203.48c-.92-11.72-1-22.59 3.7-33.63.17-.39 1.37-2.33 1.11-2.52 0-.16-.82-.48-1-.58-1.23-.55-2.68-1.13-4.4-1.74-9.88 19-4.46 30.88-7.29 54.66-1.36 11.54-.1 22-13.44 38.21-5.13 6.25-16 21.54-16 21.54l1.7 1.16c7.22-5.25 14.61-10.55 19.44-18.16 5.41-8.57 9.44-18.72 12.67-28.3a74.87 74.87 0 0 0 3.51-30.64Z"/><path fill="#412621" d="M87 281.81s-6 3.49-5.66 9.65c0 0 17.17 12.86 22.94 15.45 0 0 3.67-7.66-.59-11.39a76.74 76.74 0 0 0-8.91-6.61s-6.47-.59-7.78-7.1Z"/><path fill="#c15c36" d="m196.13 141.11.2.5a31.16 31.16 0 0 0 1.45 3.07c.43.75.88 1.51 1.36 2.29.3.46.61.93 1 1.37 3.14 4.38 12.27 14.33 21.91 11.54 7.94-2.3 29.22-20.17 31.79-26.54.85-2.11-5.72-.85-5.72-.85a17 17 0 0 0-3.5 1.41c-7.36 3.38-24.67 8.77-25.65 7.86-.73-.7-1.82-4.77-3.25-10.16v-.09c-.07-.33-.19-.68-.29-1-.14-.56-.29-1.12-.46-1.73v-.12c-2.95-10.86-7.71-22.19-13-26.57s-6.46 22.86-6.46 22.86a27.3 27.3 0 0 0-1.24 5.73c-.49 3.37.08 6 1.86 10.43Z"/><path fill="#605f2a" d="M196.6 145.79c-1.26-2.55-3.37-5.57-5.2-8.48-.69-1.1-1.35-2.2-1.91-3.22a15.91 15.91 0 0 1-1.62-4 4.48 4.48 0 0 1-.12-1.56 68.13 68.13 0 0 1 2.08-7.76c3.08-9.82 8.82-22.64 12.87-19.85 7 4.77 11.06 17.36 14.82 27.41-2.38 8.27-9.33 15.81-20.92 17.46Z"/><path fill="#7e843d" d="M121.68 162.2c-.1 1.65 5 5.64 13.37 8.72a64.9 64.9 0 0 0 16.57 3.73c13.4 1.22 32.06-4 33.47-5.3 2.17-6.38-3.65-21.72.25-30.16a106 106 0 0 1 6.73-10.88c6.16-9.29 13.22-19.38 12.37-26-6.83-7.74-25.65-15.88-38.5-15.44a12.21 12.21 0 0 0-5.56 1.13 7.33 7.33 0 0 0-1 .66 29.06 29.06 0 0 0-4.12 4.34c-4.66 5.76-10.82 15.5-15.94 25.63-6.18 12.26-17.5 41.24-17.64 43.57Z"/><path fill="#c15c36" d="M195.29 90.47 193.38 94s1 3.29-.42 3.29c-4.87 0-6.79-6.48-6.79-6.48l4.26-7Z"/><path fill="#a0390e" d="m188.5 87.1 1.69-2.81s1.43 4.81 4.5 6.9c0 0-4.61-.74-6.19-4.09Z"/><path fill="#c15c36" d="M204.74 78.35a37.6 37.6 0 0 1-2.61 10.17c-1.5 3.45-9.92 5.1-12-2.27s3.41-13.45 3.41-13.45Z"/><path fill="#432725" d="M189.28 77.19a5.07 5.07 0 0 1 .11-.5 3.88 3.88 0 0 1 2.7-3 1 1 0 0 1 1.24.61c1.42.72.43 2.37.08 3.38-.61 1.71-.76 4.1-2.19 5.39A2.26 2.26 0 0 1 188 83c-1.08-1.17-.21-2.3 0-3.58a2.66 2.66 0 0 1 .72-1.87 3.48 3.48 0 0 1 .56-.36Z"/><path fill="#432725" d="M191.45 75.48c-.45 4 3.49 3 6.08 3.27 1.77.15 2.94 3.76 8.14 2.77 1.77-.34 4.06-2.83 3.4-5.06-1.45-4.96-16.85-7.77-17.62-.98Z"/><path fill="#605f2a" d="M121.68 162.2c-.1 1.65 5 5.64 13.37 8.72 3-11.32 6-22.69 9.08-34 3.23-11.74 6.85-23.75 14.33-33.56a1 1 0 0 0 .18-.52 4.35 4.35 0 0 0 2.21-6.05 6.78 6.78 0 0 0-5.59-3.79c-4.66 5.76-10.82 15.5-15.94 25.63-6.18 12.26-17.5 41.24-17.64 43.57Z"/><path fill="#ff814c" d="M246.57 136.56c.73 1.11 1.63.47 2.75.67 1.38.24 4.84 3.13 6.37 2.51 2-.82-2.38-2.17-1.34-3.05.38-.31 6.45 2.65 4.87-.26-.34-.64-3.56-2.31-2.25-2.54 1.45.48 4.57 2 5 .54.23-.68-1.5-1.76-2.42-2.06-4.52-1.52-2.12-1.6.85-.41 1.53.62 2.36-.22 1.1-1.52-2.62-2.7-7.71-2.41-10.9-1.27-1.29.47-5.6 4.91-4.03 7.39Z"/><path fill="#ff814c" d="M252 129.52c.49-.26.91-.73 1.39-1a4 4 0 0 0 1.47-1.39c.48-1-.5-1.11-1.22-.9-1.31.37-3.38 2.8-4.22 3.8a7.64 7.64 0 0 0 2.58-.51Z"/><path fill="#605f2a" d="M184.8 140.59c-2.06-7.41-4.27-17.4-5.66-23.43.54-.45 1.08-.92 1.6-1.41-.44-2.13-3.41-15.68-10.79-22.08-2.62-2.28-8.66-3.84-13.08-2.52-.51.57-1.05 1.19-1.61 1.89-1.45 1.79-3 4-4.7 6.41-1.23 7.13 1.58 17 4.41 25.73.5.07 1 .12 1.5.16l.71 2.24a50.87 50.87 0 0 0 4.93 13.6c.73 1.39 1.5 2.76 2.3 4.13.31.57.64 1.1 1 1.65a76.52 76.52 0 0 0 9.32 12.75 14.42 14.42 0 0 0 3.65 3 29.89 29.89 0 0 0 7.23 2.34c-.15-7.05-3.03-17.5-.81-24.46Z"/><path fill="#6063a3" d="M59 100.94c-7.85-.32-21.52-15.8-22.92-29a19.47 19.47 0 0 1-.1-2.74 25.08 25.08 0 0 1 10.21-19.57A23.45 23.45 0 0 1 60.8 45.1C74.08 45.53 84.47 57 84 70.72s-16.59 30.56-25 30.22Z"/><path fill="#3b4371" d="M84 70.72c-.44 13.72-16.62 30.56-25 30.22 17.69-15.5 20-40.29 1.8-55.84C74.07 45.53 84.47 57 84 70.72Z" opacity=".7"/><path fill="#3b4371" d="M64.14 104.78a9.68 9.68 0 0 0-3.22-4.66c-.49-.38-1.19-1-1.87-1s-.88.47-1.3.78a.67.67 0 0 0-.24.16c-1.39 1.36-3.31 2.72-3.9 4.66a.67.67 0 0 0 .61.86 5.91 5.91 0 0 0 3-1.21 3.92 3.92 0 0 0 1.48 1.69.67.67 0 0 0 .91-.21 8.77 8.77 0 0 0 .61-1.28c1 .79 1.35 2.5 2.86 2.46 1.29-.03 1.34-1.31 1.06-2.25Z"/><path fill="#fff" d="M49.3 64.07c-2.55 6.27-8.29 9.85-12.85 8a3.76 3.76 0 0 1-.37-.16 19.47 19.47 0 0 1-.1-2.74 25.08 25.08 0 0 1 10.21-19.54c4.14 2.13 5.54 8.42 3.11 14.44Z" opacity=".19"/><path fill="#351e1c" d="M73.25 216.1a.27.27 0 0 1-.17-.06c-.23-.17-5.76-4.44-10.46-18.83-3.6-11-.87-20.49 1.77-29.63 2.54-8.8 4.94-17.1.69-25.34-8.56-16.55-6.58-39-6.56-39.2a.27.27 0 0 1 .53 0c0 .22-2 22.49 6.51 38.91 4.35 8.42 1.92 16.83-.65 25.72-2.62 9.07-5.33 18.45-1.78 29.33 4.64 14.19 10.22 18.52 10.28 18.56a.27.27 0 0 1 0 .38.26.26 0 0 1-.16.16ZM87.71 225.61a.28.28 0 0 1-.23-.11c-.14-.19-14-19.39-11.37-37.8a89.94 89.94 0 0 1 4.33-17.12c2.28-6.76 4.08-12.1 2.8-22.05a68.73 68.73 0 0 1 .9-20.09.27.27 0 0 1 .32-.21.27.27 0 0 1 .21.32 67.75 67.75 0 0 0-.89 19.91c1.29 10.07-.53 15.46-2.83 22.29a89.56 89.56 0 0 0-4.31 17C74 206 87.78 225 87.92 225.18a.28.28 0 0 1-.06.38.3.3 0 0 1-.15.05Z"/><path fill="#f35733" d="M85 127.08c-7.73-2.14-17.72-20.72-16-34.19a18.83 18.83 0 0 1 .53-2.75 25.6 25.6 0 0 1 14.71-17A23.85 23.85 0 0 1 99.75 72c13.1 3.51 20.76 17.33 17.12 30.87S93.24 129.37 85 127.08Z"/><path fill="#9d2e1d" d="M116.87 102.87c-3.63 13.53-23.63 26.51-31.87 24.21 21.19-11.29 29.22-35.4 14.79-55.08 13.05 3.51 20.72 17.33 17.08 30.87Z" opacity=".7"/><path fill="#9d2e1d" d="M89.18 132.1a9.82 9.82 0 0 0-2.13-5.38c-.39-.5-.94-1.3-1.62-1.45s-1 .27-1.47.48a.68.68 0 0 0-.28.1c-1.7 1-3.92 1.94-5 3.73a.68.68 0 0 0 .41 1 6 6 0 0 0 3.26-.5 3.86 3.86 0 0 0 1.08 2 .68.68 0 0 0 1 0 7.31 7.31 0 0 0 .9-1.13c.78 1 .77 2.81 2.28 3.11 1.28.27 1.62-.96 1.57-1.96Z"/><path fill="#fff" d="M83.9 88.17c-4 5.64-10.54 7.86-14.64 5a3.92 3.92 0 0 1-.32-.25 18.83 18.83 0 0 1 .53-2.75 25.6 25.6 0 0 1 14.71-17c3.61 3.01 3.54 9.59-.28 15Z" opacity=".19"/><path fill="#351e1c" d="M47.12 232.46c-.09-.2-2-4.84-1.36-13 .15-1.72.52-3.81.94-6.24 1.64-9.24 3.87-21.91-3-30.92a28 28 0 0 1-5.52-23.2l.48.14A27.48 27.48 0 0 0 44.05 182c7.05 9.18 4.8 22 3.15 31.31-.43 2.41-.8 4.5-.94 6.19-.68 8 1.29 12.7 1.31 12.75Z"/><path fill="#ffa13b" d="M37.79 157.34c-8 .87-24.13-12.69-27.54-25.84a20.46 20.46 0 0 1-.52-2.75 25.6 25.6 0 0 1 7.36-21.27 23.87 23.87 0 0 1 14.06-6.78c13.47-1.58 25.7 8.42 27.33 22.35s-12.16 33.36-20.69 34.29Z"/><path fill="#f98921" d="M58.48 123c1.63 13.92-12.15 33.37-20.7 34.3 15.52-18.3 14.06-43.65-6.63-56.61 13.47-1.57 25.7 8.43 27.33 22.31Z" opacity=".7"/><path fill="#f98921" d="M43.56 160.45a9.86 9.86 0 0 0-4-4.22 3.53 3.53 0 0 0-2-.74c-.59.1-.81.61-1.19 1a.67.67 0 0 0-.23.19c-1.19 1.59-2.92 3.26-3.22 5.3a.67.67 0 0 0 .74.77 5.93 5.93 0 0 0 2.84-1.67 4 4 0 0 0 1.75 1.48.69.69 0 0 0 .89-.35 8.35 8.35 0 0 0 .42-1.38c1.1.64 1.75 2.32 3.27 2 1.29-.2 1.17-1.48.73-2.38Z"/><path fill="#fff" d="M22.41 121.59c-1.62 6.71-6.88 11.19-11.76 10a1.82 1.82 0 0 1-.4-.11 20.46 20.46 0 0 1-.52-2.75 25.6 25.6 0 0 1 7.36-21.27c4.5 1.54 6.91 7.68 5.32 14.13Z" opacity=".19"/><path fill="#3b4371" d="M312.52 219.65 328.24 182c3.93-6.25 1.43-16.69 1.43-16.69L305 219.65Z"/><path fill="#6063a3" d="m306.07 219.65 23.6-54.3h-74.71l-22.37 54.3h73.48z"/><path fill="#3b4371" d="m311.73 163.09-.14-.31-2.59-6.25-4.87 5.24h-28.2a5.74 5.74 0 0 0-4.78 3.35l-7.49 17.47-4.54.59 2.59 6.43.08-.05a2.16 2.16 0 0 0 1.86.87h33.73a5.74 5.74 0 0 0 4.78-3.35l9.41-22a2.83 2.83 0 0 0 .16-1.99Z"/><path fill="#6063a3" d="M294.66 184h-33.74c-1.84 0-2.7-1.5-1.91-3.34l9.42-22a5.75 5.75 0 0 1 4.77-3.34h33.74c1.85 0 2.7 1.5 1.91 3.34l-9.41 22a5.75 5.75 0 0 1-4.78 3.34Z"/><path fill="#351e1c" d="M289.09 148.39a4.45 4.45 0 0 0-2.24-1.41c-.36-.46-.75-.93-1.19-1.4a29.72 29.72 0 0 0-5-4.21 61.7 61.7 0 0 0-8.11-4.62 89.43 89.43 0 0 0-10.4-1.07c-2-.08-4.07-.11-6.16 0-6.25.31-11.81 3.86-13.87 7.92a12.85 12.85 0 0 0-1 8.25c.32 2.13.86 4 1.09 5.68.42 3-.19 6.08-3.89 9.27a5 5 0 0 1-.61.49c-.2.18-.43.35-.66.52-1.79 1.34-3.61 2.77-5.42 4.22-.86.69-1.71 1.4-2.56 2.11l-1.81 1.52a7.89 7.89 0 0 0-4.11-2.26c-2-.35-2.29.94-.74 2a12.79 12.79 0 0 1 2.6 2.21l-.33.28a18.5 18.5 0 0 1-2.12-1.45c-.86-.65-3-1.59-3.47-1-1 1.31 2.06 3.15 3.51 4.22l-.6.53a22.82 22.82 0 0 0-3-.9c-2.24.21-.75 1.66.78 2.9l-.8.73c-1 .9-1.88 1.68-2.54 2.31-.21.18-.4.37-.57.52a2.61 2.61 0 0 0-.3.27c-.46.45-.76.73-.86.82 1 1 20.12 20.21 42.14 26.83.49.15 1 .28 1.46.4.29.09.56.16.86.23.51.13 1 .24 1.5.35.7.15 1.41.31 2.14.43h.18c.75.13 1.54.24 2.32.31l.49.06v-5.66c0-1.08-.06-2.18-.06-3.34v-1.95a47.43 47.43 0 0 0 16.5-20.5q1 0 2.1-.09c4.84-11.91 10.76-28.57 4.75-35.52Z" opacity=".15"/><path fill="#45201f" d="M57.48 306.63a4.15 4.15 0 1 1-4.14-4.14 4.14 4.14 0 0 1 4.14 4.14ZM72 306.63a4.15 4.15 0 1 1-4.14-4.14 4.14 4.14 0 0 1 4.14 4.14ZM86.42 306.63a4.15 4.15 0 1 1-4.14-4.14 4.14 4.14 0 0 1 4.14 4.14Z"/><path fill="#bfbfbf" d="M85.21 296.63H71v-72.7h-7.26v72.7H49.56a3.06 3.06 0 0 0-3.05 3.05v2.81h41.75v-2.81a3 3 0 0 0-3.05-3.05Z"/><path fill="#cac1b7" d="M87 296.63H72.78v-72.7H65.5v72.7H51.31a3 3 0 0 0-3 3.05v2.81H90v-2.81a3.06 3.06 0 0 0-3-3.05Z"/><path fill="#301413" d="M58.31 306.63a4.15 4.15 0 1 1-4.14-4.14 4.14 4.14 0 0 1 4.14 4.14ZM72.78 306.63a4.15 4.15 0 1 1-4.14-4.14 4.14 4.14 0 0 1 4.14 4.14ZM87.25 306.63a4.15 4.15 0 1 1-4.14-4.14 4.14 4.14 0 0 1 4.14 4.14Z"/><path fill="#45201f" d="M270.79 306.63a4.15 4.15 0 1 1-4.14-4.14 4.14 4.14 0 0 1 4.14 4.14ZM285.26 306.63a4.15 4.15 0 1 1-4.14-4.14 4.14 4.14 0 0 1 4.14 4.14ZM299.73 306.63a4.15 4.15 0 1 1-4.14-4.14 4.14 4.14 0 0 1 4.14 4.14Z"/><path fill="#bfbfbf" d="M298.52 296.63h-14.18v-72.7h-7.29v72.7h-14.18a3 3 0 0 0-3.05 3.05v2.81h41.75v-2.81a3 3 0 0 0-3.05-3.05Z"/><path fill="#cac1b7" d="M300.28 296.63h-14.19v-72.7h-7.28v72.7h-14.19a3 3 0 0 0-3 3.05v2.81h41.75v-2.81a3.06 3.06 0 0 0-3.09-3.05Z"/><path fill="#301413" d="M271.62 306.63a4.15 4.15 0 1 1-4.14-4.14 4.14 4.14 0 0 1 4.14 4.14ZM286.09 306.63a4.15 4.15 0 1 1-4.14-4.14 4.14 4.14 0 0 1 4.14 4.14ZM300.56 306.63a4.15 4.15 0 1 1-4.14-4.14 4.14 4.14 0 0 1 4.14 4.14Z"/><path fill="#595c96" d="M29.8 215.08h282.65v24.97H29.8z"/><path fill="#3b4371" d="M39.66 233.03h272.79v16.26H39.66z"/><path fill="#ff814c" d="M241.41 156.2a55.86 55.86 0 0 1-8.44 7.05c-7.35 5.05-12.15 8.57-18.5 7.36-6.78-1.29-5.48-20.94-3.87-29.66.2-1.11 2.73-14.91 3.1-14.77.72.35 6 1.42 6 1.42.26 1.09-.55 17.56 2.55 19.55.38.23 10.93-9.15 12.18-9.61 11.95-4.41 9.47 15.59 6.98 18.66Z"/><path fill="#9d2e1d" d="M243.28 164.85C239 163.76 232 157 232 157c-1.13-1-1.74-2.51-3.25-4.7-2.13-3.06-3.18-7-4.25-9.36 1.24-1.83 8.41-8.44 17.88-11.61a36.58 36.58 0 0 1 8.37-1.82 15.85 15.85 0 0 1 3.66.09 6.91 6.91 0 0 1 2.85 1.07 4.87 4.87 0 0 1 1 .91 4.44 4.44 0 0 1 .63 1.06c3.52 8.48-7.29 22.45-15.61 32.21Z"/><path fill="#9d2e1d" d="M262 138.41c.18 0 2.29 1.25 2.37 1.14a21.71 21.71 0 0 0-4.31-3.3c-32.87-9.25-14.09 9.22-35.21 14.68 2.56 6.27 8.31 12.15 8.31 12.15 5-.53 8.36-8.25 12-9.67 7.48-2.9 10.84-9.61 16.84-15Z"/><path fill="#432725" d="M299.33 146.32c-1-2.55-2.92-3.18-4.58-5.09-3.23-3.71-.2-8.06-1.83-12-.89-2.13-2.8-3.4-4.69-4.58-2.2-1.37-4.67-2.46-6.61-4.2-3-2.65-3.13-5.74-3.22-9.35-.1-3.79-1.48-7.66-5.36-7.77.5-.75-.09-2-1.12-1.6a17 17 0 0 0-10.13 9.87c-1.53 4-2.2 7.57-5.45 10.82-2.29 2.28-5 4.16-7.2 6.49-4.7 4.89-4.12 7.58-1.52 13.34 2.38 5.27 4.3 12.59 9.68 15.68s11.16.47 16.71-.66c4.92-1 9.34-.25 14.21.36a12.61 12.61 0 0 0 6.45-.45 8.49 8.49 0 0 0 4.66-10.86Z"/><path fill="#ff814c" d="M109.27 201.24c-1-.71-7.16 0-8.58.26-.06 0-1-.46-1.49-.63-7-2.73.46 12.32 2.28 10.49a41.35 41.35 0 0 0 7.4-.67c.55-.11 1.45-8.69.39-9.45Z"/><path fill="#432725" d="M226.67 211.6c-10.23 6.63-27.18 3.24-41.24 2.2-9-.66-10.74-.84-17.19 0-13 1.79-49.53 1.31-61.5-.47-1.58-1-1.89-3.34-1.69-5.88a37.93 37.93 0 0 1 2-8.65c25.88-2.41 32.72-3.4 50.42-8.5 29.91-8.62 63.21-8.5 63.21-8.5 10.87-3.47 23.93 18.2 5.99 29.8Z"/><path fill="#ffa13b" d="M103.25 211.79s-5.86 5-11.28 2.66c0 0-3.91-21.71-3.66-28.45 0 0 8.58-1.27 10 4.29a78 78 0 0 1 2 11.25s-2.31 6.75 2.94 10.25ZM127.26 212s-5.78 5.11-11.24 2.85c0 0-4.26-21.65-4.12-28.39 0 0 8.56-1.42 10.11 4.12a78.8 78.8 0 0 1 2.16 11.22s-2.25 6.79 3.09 10.2Z"/><path fill="#432725" d="M250.08 214.63c-18.05 5-40.61.85-49.63 1-12.6.16-61-5.07-68.68-1.83-.38-.44-4.51-16.79-4.51-16.79 21.4-1.71 36.65-.71 55.54-4.4 29.19-5.71 65.94-7.46 65.94-7.46 9-1.41 16.89 10.82 9.08 22.93-1.76 2.7-4.1 5.54-7.74 6.55Z"/><path fill="#f35733" d="m261.72 207.55-.49-.06c-.78-.07-1.57-.18-2.32-.31h-.18c-.73-.12-1.44-.28-2.14-.43-.5-.11-1-.22-1.5-.35-.3-.07-.57-.14-.86-.23-.49-.12-1-.25-1.46-.4-22-6.62-41.13-25.86-42.14-26.83.1-.09.4-.37.86-.82a2.61 2.61 0 0 1 .3-.27c.17-.15.36-.34.57-.52.66-.63 1.52-1.41 2.54-2.31l1.12-1 .26-.24 1-.87c2.25-2 4.93-4.32 7.75-6.67.85-.71 1.7-1.42 2.56-2.11 1.81-1.45 3.63-2.88 5.42-4.22.23-.17.46-.34.66-.52a5 5 0 0 0 .61-.49c3.7-3.19 4.31-6.28 3.89-9.27-.23-1.7-.77-3.55-1.09-5.68a12.91 12.91 0 0 1 1-8.25c2.06-4.06 7.62-7.61 13.87-7.92 2.09-.11 4.2-.08 6.16 0a89.43 89.43 0 0 1 10.4 1.07 61.7 61.7 0 0 1 8.11 4.62 29.72 29.72 0 0 1 5 4.21c10.58 11.24-1.6 21.65-10 31.46-1 1.12-1.88 2.23-2.69 3.34-.41.57-.81 1.14-1.17 1.74-.91 1.49-5.54 14.42-5.54 14.42s-.28 2-.33 2.47c-.1 1.1-.18 2.19-.22 3.25 0 .64 0 1.28-.06 1.9V198.65c0 1.16 0 2.26.06 3.34v1.29c.08 1.51.09 2.99.05 4.27Z"/><path fill="#fff9f0" d="M213.09 179.14c5.92 2.72 5.11.46 17.49 9s28.7 3.41 35.34 17.16 6.27 39-10 30-19.5-17-31.41-15.61-18.69 12.68-28.22 5.48-29.36-10.2-36.69-6.2-11.17 12-18.67 6.17-14.66-6.73-26.16-5.45a121.42 121.42 0 0 1-36.17-1.72c-11-2.32-16.17-2.85-21.67-2.85 0 0 9.5-3.65 19.84-6.65S82 186.06 89 185s22.67-3.1 35.67 0 42.5 3.07 54.83-1 24.88-8.85 33.59-4.86Z"/><path fill="#9d2e1d" d="M250.39 166.07c-1 4.55.43 7.51-7.84 27.29.36-.6 26-20.42 26.38-21 .82-1.12 1.73-2.22 2.7-3.35 0-1.93.35-4.64-1.19-7.39-3.53-6.33-1.39 2.32 10.25-16.95-15.46-3.76-29.2 16.59-30.3 21.4Z"/><path fill="#ff814c" d="m265 123-.23 5.3s-2.83 1.78-1.59 2.83c2.72 2.33 9.81 0 9.81 0l1-10.35Z"/><path fill="#e36439" d="m273.36 127.5.48-5.77s-6.44 5.85-9 5.69c-.03 0 4.39 1.93 8.52.08Z"/><path fill="#ff814c" d="M259 110.42a46.74 46.74 0 0 0 .47 13c.9 4.18 10.09 6.82 14-.93s-.81-15.75-.81-15.75Z"/><path fill="#432725" d="M257.26 104a8.8 8.8 0 0 0 3.58-1c3.45-1.74 11.32-3 15.58 1.17 2.53 2.47 2.42 8.84 1.58 12.35-.66 2.76-2.75 5.57-5.29 3.15-1.94-1.86-2.51-4-3.2-6.51a12.14 12.14 0 0 0-.83-2.32 6.25 6.25 0 0 0-5.54-1.09c-.29.61-5.62 4.18-8 2.91-6.14-3.33-.63-8.66 2.12-8.66Z"/><path fill="#ff814c" d="M269.16 113.1s2-2 3.15-.22-.17 3.51-1.22 3.49-2.2-2.26-1.93-3.27ZM262.83 160.41c.48.74-15.78 26.32-16.95 26.7s-15.39-9.36-18.14-10.94c0 0-.43 0-.44-.26.46-1.59 1.23-4.54.8-5.85-.26-.79-1-1.61-1.62-.57a4.65 4.65 0 0 0-.39 2.24c-1.42-2.95-3.85-5.82-7-6.37-2-.35-2.29.94-.74 2 3 2 4.43 4.3.15 1-.86-.65-3-1.59-3.47-1-1.07 1.36 2.32 3.3 3.68 4.35.62 1.36-3-.58-3.81-.5-3.73.36 2.88 4.14 2.82 4.68-.17 1.52-4.22-1.73-3.72.67.37 1.8 5.29 3.21 6.38 4.33.9.93 1.76 1.39 3.45 2.92.12.11 19.87 22.15 27.54 18.63 16.73-7.68 28.09-21.42 29.72-38.32 0 .03-19.57-5.73-18.26-3.71Z"/><path fill="#f35733" d="M255.94 166.54c.62-2.14 5.08-16.29 13.09-22.27 3.65-2.71 12.31-8.23 16.06-3.88 6 7 .09 23.6-4.75 35.48-9.34.63-17.34-1.68-24.4-9.33Z"/><path fill="#f98921" d="M209.24 179.49c1 1.48 3.17 2.69 6 3.54h.1c.88.24 1.84.47 2.83.66a47.49 47.49 0 0 0 9.09.76h.47c6.27-.12 12.76-1.39 17.17-4.07 1.31-.79 2.68-1.66 4-2.58l.05-.05c8.94-6.27 17.15-15.25 12.83-22.51-3.71-6.2-16-9.43-27.16-7.42a29.57 29.57 0 0 0-10.1 3.68 37.76 37.76 0 0 0-10.41 9.43c-5.32 6.97-7.46 14.7-4.87 18.56Z"/><path fill="#ffa13b" d="M209.24 179.49c1 1.48 3.17 2.69 6 3.54h.1l2.42.56.41.1a29 29 0 0 0 9.09.76h.47l5.89-2.51c15.83-15.37 1-34.12 1-34.12a29.57 29.57 0 0 0-10.1 3.68c-12.33 7.5-19.2 22.16-15.28 27.99Z"/><path fill="#f98921" d="M208.36 173.08v.08a8.75 8.75 0 0 0 .9 6.33c1 1.48 3.17 2.69 6 3.54h.1c.88.24 1.84.47 2.83.66a39.69 39.69 0 0 0 4.69.61c1.43.12 2.92.16 4.4.15h.47c6.27-.12 12.76-1.39 17.17-4.07 1.31-.79 2.68-1.66 4-2.58l4.09-3c-13.5-10.7-36.64-13.24-38.88-13.84a28.6 28.6 0 0 0-5.77 12.12Z"/><path fill="#ffa13b" d="M246.46 146a3.06 3.06 0 0 1 2.15.34 1.83 1.83 0 0 1 1.27-.84 2.61 2.61 0 0 1 2.1.69 1.74 1.74 0 0 1 2-.68 3.48 3.48 0 0 1 1.88 1s0 .07.06.11a2.36 2.36 0 0 1 2.14 0 2.61 2.61 0 0 1 1.51 2.21 2.27 2.27 0 0 1 2.7.77 2.73 2.73 0 0 1 .44 2.22 2.56 2.56 0 0 1 1.83 1.1 3 3 0 0 1 .19 3c1.57 1.17 2.21 3.62 1.23 5a2.74 2.74 0 0 1-.31 3.3 1.31 1.31 0 0 1 0 1 1.93 1.93 0 0 1-1.25 1.12 1.75 1.75 0 0 1-.21 1.33 2.34 2.34 0 0 1-1.87 1.08 2.13 2.13 0 0 1-.69 1.58 2.45 2.45 0 0 1-1.91.63 3.31 3.31 0 0 1-3.47 1.77 2.47 2.47 0 0 1-1 .8 2.39 2.39 0 0 1-2.1-.16 2.18 2.18 0 0 1-2 1.13 2.62 2.62 0 0 1-1.74-.84 1.82 1.82 0 0 1-1 .27 2.18 2.18 0 0 1-1.7-.95 1.77 1.77 0 0 1-1.46-.14 1.85 1.85 0 0 1-.37-.31 2 2 0 0 1-2-.05c-1.3-.76-1.19-1.95-.72-3.07a2.46 2.46 0 0 1-1.7-.58 3.92 3.92 0 0 1-1.32-2.06 1.32 1.32 0 0 1 .06-.48 2.18 2.18 0 0 1-1.52-1 1.79 1.79 0 0 1 .55-2.51 2.63 2.63 0 0 1-.94-1.68 2.12 2.12 0 0 1 .58-1.83 2.48 2.48 0 0 1-.55-2.14 2.54 2.54 0 0 1 1.08-1.57c.06 0 .12-.05.17-.08a2.29 2.29 0 0 1 .43-2.1 2.6 2.6 0 0 1 1.37-.82c0-.08.09-.15.13-.22a2 2 0 0 1 0-1.74 2.45 2.45 0 0 1 2.21-1.43 2.67 2.67 0 0 1 .82-1.51 2 2 0 0 1 1.76-.46 1.54 1.54 0 0 1 1.17-1.2Z"/><path fill="#f98921" d="M246.47 149.89a11 11 0 1 1-4.88 14.72 11 11 0 0 1 4.88-14.72Z"/><path fill="#fff9f0" d="M208.34 173.16s-2.92 7.25 6.89 9.87a31.6 31.6 0 0 1-6.89-9.87Z"/><path fill="#ff814c" d="M248.92 149c.84.2 12.62-1.33 14.38 8.49s-11.14 20.1-19.91 12.62-5.34-23.59 5.53-21.11Z"/><path fill="#351e1c" d="M251.21 156.29c-.31-.25-.71-.65-.64-1.09a2 2 0 0 1 .66-.93c.37-.37-.26-.88-.63-.51a1.84 1.84 0 0 0 .1 3.16.41.41 0 0 0 .51-.63ZM252.62 161.68c-.31-.24-.71-.64-.64-1.08a1.91 1.91 0 0 1 .66-.93c.37-.37-.27-.88-.64-.52a2.27 2.27 0 0 0-.84 1.54 2.2 2.2 0 0 0 .94 1.63c.41.32.9-.32.52-.64ZM246.26 162.43a1.06 1.06 0 1 1-1.65-1.33 1.06 1.06 0 1 1 1.65 1.33Z"/><path fill="#432725" d="M263.87 157.18c3.87-.63 2.42-7.29-1.6-6.26-1.83.47-3.68 2.1-3.58 4.11.12 2.43 2.39 3.76 4.33 4.72a.37.37 0 0 0 .63 0 2.68 2.68 0 0 0 .22-2.57Z"/><path fill="url(#a)" d="M244 152.58a2.71 2.71 0 1 0 3.81-.41 2.71 2.71 0 0 0-3.81.41Z"/><path fill="url(#c)" d="M247.48 164.56a2.58 2.58 0 1 0 3.63-.39 2.59 2.59 0 0 0-3.63.39Z"/><path fill="#351e1c" d="M265.91 155.25c.08-.24-.29-.41-.38-.16-.37 1.07-1.21 2-2.41 1.46a4.22 4.22 0 0 1-1.75-1.94 1.78 1.78 0 0 1-.09-1.68c.28-.67.42-.86 1.17-1a1.27 1.27 0 0 1 1.59.68 1.64 1.64 0 0 1 .35 1.14c-.87.94-1.3 1-1.32 0 .22.15.48-.17.26-.31a.52.52 0 0 0-.85.52 1.17 1.17 0 0 0 1.33.88c2.16-.42.41-3.52-1.13-3.64-1-.07-1.53.86-1.83 1.66a2.77 2.77 0 0 0 .72 2.77c.51.65 1.47 1.69 2.39 1.55a2.86 2.86 0 0 0 1.95-1.93Z"/><path fill="#ff814c" d="M241.27 184.76 233 193c-5.07-4.57-9.06-9-9.11-9-1.7-1.53-2.55-2-3.45-2.92-1.09-1.12-6-2.53-6.38-4.33-.51-2.4 3.55.85 3.72-.67.06-.55-6.55-4.32-2.82-4.69.83-.08 4.43 1.86 3.81.51-1.36-1.05-4.75-3-3.68-4.35.5-.64 2.61.29 3.47 1 4.28 3.26 2.85 1-.15-1-1.55-1-1.28-2.33.74-2 3.13.55 5.56 3.42 7 6.37a4.61 4.61 0 0 1 .39-2.23c.6-1 1.36-.23 1.62.56.43 1.32-.34 4.27-.8 5.86 0 .23.43.26.43.26 1.78.85 8.72 5.5 13.48 8.39ZM221.19 123.32c-.32-3.64-1.49-9.24-4.94-11-1.66-.84-2.05.29-.87 1.65 2.26 2.62 1.86 3.89-.69 1.29-.73-.75-3.46-2.34-4-1.87-1.07 1 2.7 3.77 3.71 5.09.35 1.41-3.6-1.84-4.48-1.62-2 .49 3.23 4.77 3.11 5.26-.33 1.37-3.3-3.57-3.86-1.27-.41 1.67 4.69 5.28 5.47 6.6.64 1.08.45 2.23 1.72 2.58 2.88.81 4.97-5.17 4.83-6.71Z"/><path fill="#ff814c" d="M220.06 126.37c-.67.7-1.67-.2-1.33-1a5.14 5.14 0 0 1 1-2.87c.38-.48.88-.86 1.24-1.37a5.41 5.41 0 0 0 .69-2.55c.07-.56.7-1.15 1.27-.72 2.52 1.96-1.44 7.03-2.87 8.51Z"/><path fill="#cac1b7" d="M39.66 244.61h272.79v4.68H39.66z"/><path fill="#3b4371" d="M308.12 215.08h4.33v18.05h-4.33z"/><path fill="#cac1b7" d="M174.06 224.11H57.6a4.21 4.21 0 0 0-3.6 2.11l-18.91 33a3.18 3.18 0 0 0 2.72 4.78h116.46a4.2 4.2 0 0 0 3.64-2.11l18.91-33a3.18 3.18 0 0 0-2.76-4.78ZM59.92 259.32H40.4l17.49-30.52h2Zm26 0H65.4V228.8h20.49Zm26 0H91.37V228.8h20.48Zm5.48-30.52h20.39v30.52h-20.46Zm36.6 30.52h-10.8V228.8h28.29ZM315.49 224.11H199a4.19 4.19 0 0 0-3.64 2.11l-18.92 33a3.19 3.19 0 0 0 2.76 4.77h116.5a4.19 4.19 0 0 0 3.64-2.11l18.92-33a3.19 3.19 0 0 0-2.77-4.77Zm-114.14 35.21h-19.52l17.49-30.52h2Zm26 0h-20.51V228.8h20.48Zm26 0H232.8V228.8h20.48Zm5.49-30.52h20.39v30.52h-20.46Zm36.65 30.52h-10.8V228.8h28.29Z"/><path fill="#c15c36" d="M213.24 160.59c.48 1.24 1.49.79 2.56 1.21 1.29.52 4.1 4.06 5.72 3.76 2.16-.4-1.89-2.61-.69-3.26.43-.23 5.77 3.9 4.82.73-.21-.7-3-3-1.69-2.94 1.33.76 4.07 2.87 4.84 1.55.36-.62-1.12-2-2-2.51-4.13-2.4-1.75-2 .9-.23 1.38.92 2.36.27 1.39-1.26-2-3.18-7.06-3.92-10.41-3.46-1.36.2-6.52 3.66-5.44 6.41Z"/><path fill="#c15c36" d="M220 154.81c.54-.16 1.05-.53 1.58-.74a4 4 0 0 0 1.72-1.07c.66-.83-.27-1.18-1-1.13-1.36.1-3.88 2.06-4.91 2.87a7.73 7.73 0 0 0 2.61.07Z"/><path fill="#c15c36" d="M166.38 137.37c.72 1.39 1.49 2.76 2.29 4.13.31.57.64 1.1 1 1.65A76.52 76.52 0 0 0 179 155.9a14.42 14.42 0 0 0 3.65 3c9.11 4.46 23.24 3.47 29.75 2.72 2.22-.27 3.55-.51 3.55-.51l3.32-6.69s-25.34-7-26.61-8.2c-2.7-2.41-8.2-28.81-10-36.18-1.15-4.68-15.34 1-19.51 3s-2.25 13.96 3.23 24.33Z"/><path fill="#a0390e" d="M159.77 118.52c1.12 6.66 4.51 14.84 6.61 18.85.72 1.39 1.49 2.76 2.29 4.13.31.57.64 1.1 1 1.65A76.52 76.52 0 0 0 179 155.9c.43.18-11.34-22-12.44-45.7-3.56.39-6.92 7.56-6.79 8.32Z"/><path fill="#7e843d" d="M185 111.94c-.44-2.13-3.41-15.68-10.78-22.08-3.36-2.92-12.33-4.67-16.3-.71-6.37 6.35-2.54 20.29 1.31 32.22 9.05 1.29 18.31-2.49 25.77-9.43Z"/></svg>