<svg xmlns="http://www.w3.org/2000/svg" viewBox="0 0 68 68"><path fill="#010101" d="m66.9 31.7-5.3-8.9c.7-.2 1.1-.6 1.4-1 1.3-1.6.7-4 .6-4.3C60.4 5.3 53.2 1 43 1c-2.8 0-11.3 0-17 11.1-2.7 5.3-1.4 12.1.7 17.7h-8.2c-2.2 0-3.9 1.8-3.9 3.9v3.1H3.3C2 36.8 1 37.8 1 39v8.9c0 .4.3.8.7.9h.1v16C1.7 66 2.8 67 4 67h36.7c1.3 0 2.3-1 2.3-2.2v-16h.1c.4-.1.7-.5.7-.9V39c0-1.2-1-2.2-2.3-2.2H30.2v-3.1c0-.4-.1-.7-.2-1.1 0-.1 0-.1-.1-.2-.1-.3-.2-.5-.3-.7v-.1c-2.4-5.4-4.7-13.1-1.9-18.5C33 3 40.5 3 43 3c9.2 0 15.6 3.5 18.6 15 .1.4.3 1.9-.3 2.6-.1.1-.4.5-1.4.5-.3 0-.7.2-.9.5-.2.3-.2.7 0 1l5.2 8.7h-3.9c-.3 0-.5.1-.7.3-.2.2-.3.5-.3.8l.8 8.8c0 .9-.7 1.9-1.8 2.2-1.8.6-3.8-.4-5.3-2.7-.2-.4-.7-.5-1.1-.4-.4.1-.7.5-.7 1v8.5h-5.7c-.6 0-1 .4-1 1s.4 1 1 1h6.7c.6 0 1-.4 1-1V44c2 1.7 4.2 1.9 5.8 1.4 2-.6 3.3-2.4 3.2-4.3l-.7-7.8h4.6c.4 0 .7-.2.9-.5 0-.4 0-.8-.1-1.1zM41 64.8c0 .1-.1.2-.3.2H4c-.2 0-.3-.1-.3-.2V49.5l14.5 5.1v3.2c0 .6.4 1 1 1h6.3c.6 0 1-.4 1-1v-3.2L41 49.5v15.3zm-16.5-7.9h-4.3v-5.3h4.3v5.3zM41.7 39v8.1c-.1 0-.1 0-.2.1l-15 5.3v-1.9c0-.6-.4-1-1-1h-6.3c-.6 0-1 .4-1 1v1.9L3.3 47.2c-.1 0-.2-.1-.3-.1V39c0-.1.1-.2.3-.2h38.2c.1 0 .2.1.2.2zm-25.2-5.3c0-1.1.9-1.9 1.9-1.9h7.8c1.1 0 2 .9 2 1.9v3.1H16.5v-3.1z"/><path fill="#010101" d="M56.1 18.5c0-7.1-5.8-12.9-12.8-12.9s-12.8 5.8-12.8 12.9 5.8 12.9 12.8 12.9 12.8-5.8 12.8-12.9zM43.3 29.4c-6 0-10.8-4.9-10.8-10.9S37.4 7.6 43.3 7.6c6 0 10.8 4.9 10.8 10.9s-4.9 10.9-10.8 10.9z"/><path fill="#010101" d="M43.3 9.8c-4.8 0-8.7 3.9-8.7 8.7 0 4.8 3.9 8.7 8.7 8.7s8.7-3.9 8.7-8.7c0-4.8-3.9-8.7-8.7-8.7zm0 15.4a6.7 6.7 0 1 1 0-13.4 6.7 6.7 0 0 1 0 13.4z"/><path fill="#010101" d="M43.3 13.9c-2.5 0-4.6 2.1-4.6 4.6s2.1 4.6 4.6 4.6 4.6-2.1 4.6-4.6-2.1-4.6-4.6-4.6zm0 7.2c-1.4 0-2.6-1.2-2.6-2.6 0-1.4 1.2-2.6 2.6-2.6 1.4 0 2.6 1.2 2.6 2.6 0 1.4-1.2 2.6-2.6 2.6z"/></svg>