<svg xmlns="http://www.w3.org/2000/svg" enable-background="new 0 0 3439.313 2101.506" viewBox="0 0 3439.313 2101.506"><ellipse cx="1903.135" cy="1821.825" fill="#fcc6c2" rx="1393.955" ry="36.818"/><path fill="#ff867a" d="M2618.627,503.508c0,0,113.786-124.621,138.65-161.935
				c37.605-56.433,107.771-210.326,135.824-190.949c30.902,21.345-68.271,215.821-81.926,239.536
				c-13.654,23.715-117.139,194.167-155.228,190.574C2617.86,577.142,2618.627,503.508,2618.627,503.508z"/><path fill="#434a59" d="M2986.761 1804.532c-9.772-3.952-12.434-11.99-17.712-19.612-.356-.514-3.904-11.463-4.079-12.337-.758-3.777-13.565-13.808-17.168-5.942-7.101 15.506-22.658-8.724-20.857-2.253 5.362 19.263 2.376 50.325 9.948 52.432 16.131 4.489 88.457 9.706 88.397 2.213C3025.254 1814.537 3003.66 1811.367 2986.761 1804.532zM2534.433 1804.532c9.772-3.952 12.434-11.99 17.713-19.612.356-.514 3.904-11.463 4.079-12.337.758-3.777 13.566-13.808 17.168-5.942 7.102 15.506 22.658-8.724 20.857-2.253-5.362 19.263-2.375 50.325-9.948 52.432-16.131 4.489-88.457 9.706-88.397 2.213C2495.941 1814.537 2517.534 1811.367 2534.433 1804.532z"/><path fill="#f27c79" d="M591.452,550.192l-39.306,23.006c0,0-295.041,114.435-286.084,145.175
					c8.645,29.672,273.82-46.037,318.747-65.2c6.832-2.914,38.243-20.355,45.759-24.004
					C604.494,609.532,594.906,571.986,591.452,550.192z"/><path fill="#2f6c70" d="M763.27,449.323L591.452,550.192c3.454,21.794,13.042,59.34,39.116,78.977
					c68.383-33.199,134.966-78.345,139.741-84.265C775.609,538.335,763.27,449.323,763.27,449.323z"/><path fill="#ff867a" d="M2146.517,371.531l-18.056,74.817c-1.638,8.024,9.872,27.092,46.512,20.079
					c4.973-0.952,10.497-21.69,8.455-30.684l-3.018-56.191L2146.517,371.531z"/><path fill="#ff867a" d="M2167.176,334.739l-16.313,34.215c-4.433,11.675,1.641,24.624,13.751,29.166
					c9.677,3.63,16.14,4.328,29.074,4.204c10.777-0.103,17.365-9.264,18.912-22.566c2.007-17.257-1.284-33.694-3.562-42.396
					C2203.847,317.525,2179.52,313.182,2167.176,334.739z"/><path fill="#7f635d" d="M2200.645,335.685c-1.698,5.176,2.979,18.749-5.39,19.49c-0.76,0.067-4.235-3.704-10.834,11.11
					c-5.019,11.268-28.564,28.839-36.32,25.752c-14.705-5.853-9.445-26.234-9.863-32.864c-0.398-6.311-0.962-18.073-0.962-18.073
					S2202.344,330.509,2200.645,335.685z"/><path fill="#ff867a" d="M2194.06,352.657c-0.865-3.866-3.089-9.419-8.468-5.374c-7.823,5.884-7.378,25.724,2.984,25.253
					C2196.271,372.186,2194.515,354.691,2194.06,352.657z"/><path fill="#7f635d" d="M2199.464,350.772c-0.324,1.098,0.643,8.629,4.09,15.569c3.448,6.94,7.95,0.704,11.228,5.818
					c3.278,5.114,2.217,11.132,1.366,15.811c-0.851,4.68,3.115,14.608-3.99,19.296c-5.306,3.5-19.522,1.7-28.272-1.857
					c-4.12-1.675-7.113-4.63-2.697-19.485c1.266-4.258,11.938-27.641,13.045-32.59
					C2195.342,348.386,2199.464,350.772,2199.464,350.772z"/><path fill="#434a59" d="M2491.66 1783.708c-12.692-5.549-24.041-12.841-29.787-43.333-2.78-14.751-14.093-35.165-44.583-17.402-15.754 9.178-12.135 77.269-3.831 84.453 15.879 13.736 130.543 10.974 131.679-1.263C2545.821 1798.819 2513.609 1793.305 2491.66 1783.708zM2061.615 1786.602c12.926-7.009 23.282-10.363 31.495-41.12 4.755-17.807 23.479-38.905 41.235-24.238 12.952 10.7 12.056 72.753 3.381 80.946-16.587 15.664-130.14 25.301-130.52 13.004C2006.977 1807.815 2039.261 1798.724 2061.615 1786.602z"/><path fill="#5cbec6" d="M2404.226,861.497c-4.46-12.311-8.731-22.996-12.832-32.489
				c-115.321,51.674-265.906,18.085-341.748-4.997c-26.136,109.235-52.104,268.603-40.718,456.656
				c12.979,214.393,57.704,485.662,57.704,485.662l99.582-2.489c0,0,6.704-241.208,1.737-313.313
				c-2.089-30.337-0.114-108.396,0.381-147.481c0.302-23.788,5.593-219.146,17.072-260.445
				c8.867,40.315,203.712,710.872,203.712,710.872s94.615-4.958,93.214-17.948c-11.369-105.372-28.838-241.673-47.998-445.631
				C2415.694,1091.502,2414.741,890.523,2404.226,861.497z"/><path fill="#af5546" d="M2265.027,437.458c-56.353-8.505-165.638-4.206-213.812,29.85
				c-58.634,41.451-45.039,434.303-45.039,434.303s-46.167,493.969,0,521.838c28.778,17.372,164.742,12.896,222.791,10.11
				c16.232-0.779,15.294-88.774,15.294-88.774s19.493,86.649,33.115,85.4c55.544-5.094,197.651-19.337,208.689-32.653
				c6.763-8.158-53.789-398.674-77.887-583.704C2385.48,639.549,2326.113,446.677,2265.027,437.458z"/><path fill="#ff867a" d="M2241.11,428.382c0,0,28.566-0.958,39.346,5.315c10.78,6.273,12.934,17.013,9.701,17.572
				c-3.233,0.559-20.211-0.02-26.948,0C2256.471,451.289,2237.067,432.963,2241.11,428.382z"/><path fill="#ffae43" d="M2211.683,336.516c0,0-19.789,21.182-35.221,24.035c-18.327,3.388-35.802,6.266-40.524-3.005
				c-3.118-6.124-1.514-18.238-1.817-21.582c-0.303-3.344,3.706-16.55,3.934-19.356s1.977-17.569,10.669-21.74
				c8.692-4.171,19.682-4.518,23.937-1.214c4.255,3.305,12.619,5.842,18.25,7.82c12.933,4.542,18.221,13.265,21.967,20.683
				S2211.683,336.516,2211.683,336.516z"/><path fill="#ff867a" d="M2129.444,564.581c-8.478-5.177-15.799-16.275-16.864-8.486
				c-1.065,7.789,8.071,12.541,7.872,18.055c-0.199,5.514-33.772,8.385-31.651,14.168c1.408,3.84,19.32-1.737,19.23-0.514
				c-0.089,1.222-18.287,4.922-16.314,9.636c2.419,5.781,8.685,9.91,16.565,10.099c-2.136,1.215-3.701,2.592-3.266,3.898
				c1.171,3.514,61.035-9.823,43.625-33.911C2144.876,572.314,2142.496,572.551,2129.444,564.581z"/><path fill="#d47328" d="M2153.154,343.572c-12.558,0-18.812-3.868-19.17-4.097c-0.93-0.595-1.203-1.832-0.608-2.762
				c0.596-0.93,1.83-1.203,2.763-0.609c0.101,0.063,11.302,6.819,34.229,1.234c22.914-5.582,31.145-27.182,31.225-27.399
				c0.384-1.036,1.533-1.564,2.57-1.182c1.035,0.383,1.564,1.534,1.182,2.57c-0.358,0.97-9.071,23.817-34.029,29.898
				C2164.232,342.95,2158.186,343.572,2153.154,343.572z"/><path fill="#ff867a" d="M1121.997,441.748l-13.475-88.321l-26.027,0.905l-5.658,86.626
					C1076.837,440.958,1111.16,447.823,1121.997,441.748z"/><path fill="#ff867a" d="M1098.735,326.13l11.765,26.487c4.173,12.073,0.98,25.609-9.736,32.56
					c-9.885,6.412-16.392,10.396-29.086,10.081c-10.577-0.263-16.904-9.781-18.219-23.486c-1.706-17.778,1.776-34.637,4.144-43.554
					c2.535-9.545,9.16-15.515,16.694-16.849C1082.809,309.864,1080.991,321.9,1098.735,326.13z"/><path fill="#af5546" d="M2051.216,467.307l-157.263,121.916c0,0-204.944,30.011-204.225,46.155
				c0.719,16.144,15.25,58.805,45.993,58.805c30.744,0,177.76,15.581,215.356-6.44c50.305-29.464,157.419-116.032,161.502-131.649
				C2116.663,540.478,2051.216,467.307,2051.216,467.307z"/><path fill="#725252" d="M1057.603,328.22c0,0-6.528-27.055,6.272-37.622c10.525-8.689,55.233,21.933,55.233,21.933
					s6.603,1.703,10.387,11.801c9.188,24.518-15.582,64.487-15.582,64.487s-5.471,2.202-10.884-2.127
					c-7.19-5.75-21.216-22.442-29.613-32.396c-3.727-4.418-2.946-12.299-2.946-12.299S1058.701,333.388,1057.603,328.22z"/><path fill="#ffae43" d="M1855.735,505.636c0,0,181.099-18.925,219.906-27.126c38.807-8.201,137.456-69.642,168.62-57.19
				c31.164,12.452,32.601,36.886,22.787,50.893c-2.899,4.138-119.394,81.882-184.939,90.915
				c-65.545,9.033-170.319,23.497-192.597,18.576C1867.234,576.782,1855.735,505.636,1855.735,505.636z"/><path fill="#fff" d="M1052.962,364.885c1.317,0.338,6.672,1.55,9.031,0.607c0,0-3.732,10.655-8.493,6.691
					C1052.885,371.671,1052.764,364.835,1052.962,364.885z"/><path fill="#ff867a" d="M1054.552,351.221c0,0-7.358,2.984-5.313,7.048c1.971,3.916,4.773,5.023,5.459,4.229
					C1055.384,361.704,1054.552,351.221,1054.552,351.221z"/><path fill="#725252" d="M1070.47,341.998c0,0-4.002,11.934-3.379,13.084c0.623,1.15,2.798,2.655,4.538,1.867
					c1.74-0.788,8.312-8.737,6.505-11.586C1076.327,342.513,1077.548,337.435,1070.47,341.998z"/><path fill="#ff867a" d="M1071.891,359.087l1.927-6.053c0,0,0.06-0.199,0.177-0.544c0.839-2.47,6.02-14.934,10.658-10.719
					c7.855,7.138-2.272,24.439-8.779,23.099C1069.368,363.529,1071.237,361.259,1071.891,359.087z"/><path fill="#725252" d="M1061.185,337.536c0,0-5.63-3.83-6.059-3.118c-0.429,0.713-1.025,1.429-0.422,1.876
					c0.603,0.447,4.537,3.502,5.424,2.91C1061.016,338.612,1061.185,337.536,1061.185,337.536z"/><path fill="#c66c67" d="M1058.755,388.084c2.656,0.895,7.436,3.398,11.967,2.993
					c13.214-1.178,8.429-13.112,10.909-13.374c1.913-0.202,4.711,11.391-1.131,16.957c-2.635,0.468-5.517,0.68-8.822,0.598
					C1066.191,395.123,1061.848,392.495,1058.755,388.084z"/><path fill="#725252" d="M1055.155,347.127c-0.011,1.195,0.581,2.169,1.322,2.175c0.741,0.007,1.35-0.956,1.36-2.151
					c0.011-1.195-0.581-2.169-1.322-2.175C1055.775,344.969,1055.166,345.932,1055.155,347.127z"/><path fill="#ff867a" d="M863.489,358.328c0,0,7.108,47.008-12.452,54.131c-13.498,4.915-25.885-6.681-36.489-12.824
				c-10.604-6.144-1.364-57.502,15.762-59.545C847.437,338.047,863.489,358.328,863.489,358.328z"/><path fill="#36995e" d="M843.685,381.218l-10.165,70.273c-2.691,6.667-34.292,11.347-41.299-1.396
				c-0.767-1.395,4.332-10.793,8.115-21.801c6.336-18.436,13.165-41.697,13.165-41.697L843.685,381.218z"/><path fill="#ff867a" d="M852.865 382.086c0 0 5.377-16.704-5.137-12.129-6.881 2.994-5.817 20.135-2.159 19.929C849.227 389.681 852.486 386.857 852.865 382.086zM1786.925 1783.39c0 0-28.725-236.332-28.027-237.153 26.876-31.62 85.699 3.773 85.699 3.773s-17.786 215.055-25.272 229.328C1817.547 1782.725 1803.094 1798.482 1786.925 1783.39zM2007.589 1783.354c0 0-2.369-237.655-3.175-238.481-31.036-31.797-85.202 3.794-85.202 3.794s46.081 216.259 55.445 230.612C1976.879 1782.686 1993.405 1798.53 2007.589 1783.354zM1818.544 506.086l-14.087-72.823-25.789 2.92.28 75.973C1778.947 512.156 1808.248 512.963 1818.544 506.086z"/><path fill="#ff867a" d="M1798.36,407.445l11.102,26.666c3.875,12.126,0.377,25.538-10.464,32.212
						c-9.999,6.156-18.343,9.901-30.984,9.29c-10.532-0.509-12.479-8.362-13.645-22.415c-1.686-20.329,0.392-35.807,2.96-44.635
						c2.75-9.451,9.49-15.244,17.028-16.396C1782.874,390.865,1780.781,402.815,1798.36,407.445z"/><path fill="#fff" d="M1753.823,444.831c1.262,0.181,3.776,0.136,6.315-0.494c0,0,0.141,10.213-5.731,7.817
						C1753.743,451.883,1753.66,444.808,1753.823,444.831z"/><path fill="#ff867a" d="M1770.843,439.652l2.062-5.986c0,0,0.064-0.197,0.189-0.538
						c0.894-2.441,6.348-14.738,10.87-10.43c7.659,7.296-2.836,24.296-9.288,22.809
						C1768.225,444.019,1770.141,441.8,1770.843,439.652z"/><path fill="#725252" d="M1761.312 418.491c0 0-5.519-3.948-5.963-3.248-.444.7-1.055 1.4-.464 1.859.59.46 4.438 3.596 5.336 3.027C1761.118 419.559 1761.312 418.491 1761.312 418.491zM1755.647 426.503c-.039 1.19.528 2.174 1.266 2.198.738.024 1.367-.921 1.406-2.112.039-1.19-.528-2.174-1.266-2.198C1756.316 424.367 1755.686 425.312 1755.647 426.503z"/><path fill="#ff867a" d="M1754.109,428.48c0,0-1.872,4.217-3.468,6.738c-1.059,1.673,1.184,2.401,3.116,2.793
						C1755.689,438.404,1754.109,428.48,1754.109,428.48z"/><path fill="#f2c3a7" d="M1990.706,875.289c-3.995-9.448-7.818-17.649-11.487-24.936
								c-102.638,39.424-236.839,13.405-304.438-4.427c-23.092,83.719,2.604,737.241,13.856,800.462
								c1.73,9.722,171.289,15.027,171.289,15.027s60.902-14.91,94.86-5.188c43.145,12.353,141.206-1.58,141.206-1.58
								s-54.631-284.107-70.194-423.838C2008.85,1078.645,2000.124,897.565,1990.706,875.289z"/><path fill="#ce9d84" d="M1842.979,1085.584c74.991,8.57,133.11-3.811,167.821-15.206
					c-2.193-26.633-4.223-52.117-6.141-75.416c-80.045,10.682-329.125,41.754-329.125,41.754S1717.216,1071.211,1842.979,1085.584z"/><path fill="#ffae43" d="M2009.417,979.943c12.265-47.487-9.005-102.849-21.99-162.414
								c-31.523-144.609-98.244-298.243-127.486-309.837c-37.295-14.786-104.734-11.301-127.083,27.912
								c-19.207,33.699-108.051,330.312-82.661,468.054c9.578,25.113,5.599,31.818,18.792,37.567
								c66.91,29.158,254.478,24.236,335.442-21.459C2008.485,1017.479,2005.301,981.751,2009.417,979.943z"/><path fill="#404859" d="M1758.787 1813.696c10.539-4.244 13.491-12.876 19.246-21.062.388-.552 4.323-12.31 4.522-13.249.857-4.056 42.938-15.75 40.93-8.8-5.979 20.687-3.127 54.044-11.283 56.307-17.375 4.82-95.107 10.423-94.956 2.377C1717.335 1824.44 1740.561 1821.036 1758.787 1813.696zM2032.115 1813.696c-10.539-4.244-13.491-12.876-19.246-21.062-.388-.552-4.323-12.31-4.522-13.249-.857-4.056-42.938-15.75-40.93-8.8 5.979 20.687 3.127 54.044 11.283 56.307 17.375 4.82 95.107 10.423 94.956 2.377C2073.567 1824.44 2050.342 1821.036 2032.115 1813.696z"/><path fill="#725252" d="M1764.601,386.501c-4.874,3.09-6.933,9.172-5.307,14.709c1.928,6.565,5.12,17.273,8.568,28.151
					c5.56,17.541,8.883,47.962,7.857,53.854c-1.026,5.892,10.028,160.864,43.171,215.041
					c33.143,54.176,84.677,42.581,124.172,22.195c39.495-20.386,33.441-70.191,20.763-94.07
					c-12.678-23.878-61.334-58.461-76.161-82.172c-14.828-23.71-36.809-118.225-52.753-142.388
					C1821.528,381.541,1781.966,375.492,1764.601,386.501z"/><path fill="#ce9d84" d="M1944.303 1644.02c-2.052 0-3.799-1.571-3.98-3.654-.043-.496-4.375-50.48-9.706-125.106-3-42-9.307-124.309-14.374-190.445-5.113-66.735-7.195-94.059-7.195-95.502 0-2.209 1.791-4 4-4 2.194 0 3.976 1.767 4 3.955.077 2.333 3.365 45.253 7.172 94.935 5.068 66.146 11.376 148.466 14.378 190.486 5.325 74.559 9.652 124.487 9.696 124.983.191 2.201-1.438 4.14-3.639 4.331C1944.537 1644.015 1944.42 1644.02 1944.303 1644.02zM1917.047 1229.313h.01H1917.047zM1859.144 1653.723c-2 0-3.727-1.497-3.968-3.531l-57.408-486.164c-.259-2.194 1.31-4.183 3.504-4.441 2.193-.263 4.182 1.309 4.441 3.503l57.408 486.165c.259 2.194-1.309 4.183-3.504 4.441C1859.459 1653.713 1859.3 1653.723 1859.144 1653.723zM2044.922 1630.007c-1.186 0-2.359-.524-3.148-1.529-31.83-40.512-84.078-287.246-86.287-297.729-.455-2.162.928-4.283 3.09-4.739 2.153-.455 4.283.927 4.738 3.089.537 2.549 54.062 255.379 84.75 294.436 1.364 1.737 1.062 4.251-.674 5.617C2046.657 1629.728 2045.786 1630.007 2044.922 1630.007z"/><path fill="#404859" d="M1319.258 1793.644c-12.631-5.531-14.238-16.777-19.613-27.444-.362-.719-2.44-16.04-2.454-17.263-.065-5.286-15.341-19.323-22.457-8.315-14.027 21.698-29.406-12.208-28.592-3.152 2.423 26.956-9.948 70.421.092 73.37 21.389 6.281 121.221 13.582 123.114 3.097C1370.483 1807.645 1341.103 1803.209 1319.258 1793.644zM1002.682 1793.644c-12.632-5.531-14.238-16.777-19.613-27.444-.362-.719-2.44-16.04-2.454-17.263-.065-5.286-15.341-19.323-22.457-8.315-14.027 21.698-29.405-12.208-28.592-3.152 2.423 26.956-9.948 70.421.092 73.37 21.389 6.281 121.221 13.582 123.113 3.097C1053.907 1807.645 1024.527 1803.209 1002.682 1793.644z"/><path fill="#54678c" d="M942.57,806.059c1.108-3.831,2.315-7.779,3.602-11.82c117.045,40.25,244.012,57.498,297.129,61.87
				c-1.88,7.877,91.26,321.769,100.871,419.706c9.97,101.587-24.59,485.026-24.59,485.026l-84.089,0l-37.58-433.897l-86.302-289.404
				c0,0,13.932,205.073,2.417,288.596c-12.491,90.598-83.717,434.705-83.717,434.705l-112.379-8.842
				c0,0,44.702-358.137,39.888-452.436C951.705,1179.727,909.433,920.627,942.57,806.059z"/><path fill="#434a59" d="M1277.013,985.672c-8.934-33.22-17.07-63.05-23.113-85.704l-307.272,79.114
				c0,0,165.309,34.493,280.292,15.881C1246.482,991.796,1263.022,988.674,1277.013,985.672z"/><path fill="#f2c3a7" d="M1209.18,450.805c-12.338-10.401-122.123-24.441-163.557-25.549
				c-50.451-1.349-101.01,20.05-113.915,68.607c-20.895,78.625-28.842,422.503-13.776,485.639
				c53.117-4.372,260.253,22.248,364.322-56.05C1245.02,806.624,1297.934,525.629,1209.18,450.805z"/><path fill="#ff867a" d="M611.412,943.382c3.511-45.241-7.117-101.499,48.235-217.986
					c112.799,7.784,171.371,12.599,223.969,12.341c12.628,17.891,20.427,85.966,34.061,145.85
					c12.842,56.403-8.606,672.331-15.193,852.308c-1.136,31.039-1.83,49.112-1.83,49.112h-31.8c0,0-32.9-134.819-44.376-238.77
					c-1.982-17.953,4.067-89.162,2.037-107.227c-20.759-184.689-44.754-394.507-54.203-395.108
					c-3.648-0.232-3.639,83.708-20.417,211.924c-7.527,57.525-24.434,198.424-24.434,198.424s-1.557,70.246-2.874,93.424
					c-3.351,58.922-30.428,234.099-30.428,234.099s-26.323,9.167-30.657,1.286C651.283,1760.841,606.308,1009.121,611.412,943.382z"/><path fill="#434a59" d="M597.706,1153.314c-1.892-97.162-15.249-318.605,61.941-427.919
						c112.799,7.784,171.371,12.599,223.969,12.341c12.628,17.891,28.599,76.294,42.234,136.178
						c5.644,24.793,12.362,153.168,9.841,278.462C909.169,1156.403,650.864,1162.321,597.706,1153.314z"/><path fill="#62779b" d="M637.782,1156.585c1.067,0.046,2.142,0.09,3.234,0.134v-10.691h75.858v12.001
					c1.076,0.003,2.154,0.005,3.234,0.006v-12.008h75.859v11.446c1.08-0.016,2.158-0.033,3.234-0.05v-11.396h75.858v9.597
					c1.088-0.036,2.166-0.072,3.234-0.108v-9.49h57.518c0.019-1.078,0.036-2.156,0.054-3.234h-57.572v-75.858h57.798
					c-0.011-1.08-0.021-2.158-0.033-3.234h-57.765v-75.859h56.013c-0.039-1.081-0.078-2.162-0.118-3.234h-55.896v-75.858h51.708
					c-0.089-1.098-0.178-2.176-0.267-3.234h-51.441V829.66h36.923c-0.276-1.084-0.554-2.158-0.831-3.234h-36.092v-75.858h12.188
					c-0.497-1.123-0.99-2.202-1.48-3.234h-10.707v-9.589c-1.074-0.002-2.153-0.006-3.234-0.011v9.6h-75.858v-12.453
					c-1.071-0.063-2.149-0.128-3.234-0.193v12.646h-75.859v-17.718c-1.073-0.075-2.149-0.151-3.234-0.227v17.944h-70.761
					c-0.576,1.066-1.132,2.154-1.695,3.234h72.457v75.858h-75.858v-69.101c-1.102,2.274-2.183,4.571-3.234,6.902v62.199h-21.067
					c-0.269,1.075-0.534,2.154-0.796,3.234h21.863v75.859h-35.1c-0.127,1.077-0.244,2.156-0.367,3.234h35.467v75.858h-41.043
					c-0.042,1.079-0.084,2.158-0.124,3.234h41.167v75.859H595.76c0.011,1.079,0.021,2.162,0.033,3.234h41.989v75.858h-40.31
					c0.027,1.093,0.052,2.166,0.076,3.234h40.234V1156.585z M799.201,750.568h75.858v75.858h-75.858V750.568z M799.201,829.66
					h75.858v75.859h-75.858V829.66z M799.201,908.752h75.858v75.858h-75.858V908.752z M799.201,987.844h75.858v75.859h-75.858
					V987.844z M799.201,1066.936h75.858v75.858h-75.858V1066.936z M720.108,750.568h75.859v75.858h-75.859V750.568z M720.108,829.66
					h75.859v75.859h-75.859V829.66z M720.108,908.752h75.859v75.858h-75.859V908.752z M720.108,987.844h75.859v75.859h-75.859
					V987.844z M720.108,1066.936h75.859v75.858h-75.859V1066.936z M641.016,829.66h75.858v75.859h-75.858V829.66z M641.016,908.752
					h75.858v75.858h-75.858V908.752z M641.016,987.844h75.858v75.859h-75.858V987.844z M641.016,1066.936h75.858v75.858h-75.858
					V1066.936z"/><path fill="#313844" d="M649.744,783.502c0,0,24.827,51.274,146.223,60.976c59.949,4.791,99.071,3.798,123.328,1.565
				c-5.281-21.702-10.762-42.352-16.151-59.965L649.744,783.502z"/><path fill="#36995e" d="M910.082,810.05c-13.084-140.047-1.586-261.214-7.118-281.998
						c-21.722-81.614-86.391-86.964-121.191-84.571c-34.8,2.393-52.38,21.604-60.934,35.639
						C697.702,517.082,681,644.077,630.535,770.946C747.749,854.459,872.657,812.342,910.082,810.05z"/><path fill="#f2c3a7" d="M864.152,340.88c0,0,6.861,11.211,4.702,20.083c-2.159,8.872-5.353,7.745-5.353,7.745
				s-5.351,11.211-5.93,19.078c-0.579,7.867,8.214,7.378,14.173,21.144c5.959,13.766-0.252,27.041-10.786,28.52
				c-10.534,1.479-11.777-4.579-15.203-3.253c-3.426,1.326-4.757,3.181-15.568,2.323c-10.811-0.857-16.688-8.51-22.302-6.73
				c-5.614,1.779-25.134-1.222-32.623-7.541c-7.489-6.319-15.088-14.96-7.774-25.985c7.314-11.025,17.886-18.112,19.818-29.811
				c1.932-11.7,7.689-32.444,22.614-41.924C824.843,315.048,854.626,326.447,864.152,340.88z"/><path fill="#ff867a" d="M2513.435,417.168c0,0-7.108,47.008,12.452,54.131c13.498,4.915,25.885-6.68,36.489-12.824
				c10.604-6.144,1.364-57.502-15.762-59.545C2529.487,396.886,2513.435,417.168,2513.435,417.168z"/><path fill="#ff867a" d="M2533.239,440.058l10.165,70.273c2.691,6.667,34.292,11.347,41.299-1.396
				c0.767-1.395-4.332-10.793-8.115-21.801c-6.336-18.436-13.165-41.697-13.165-41.697L2533.239,440.058z"/><path fill="#e7f2f2" d="M663.501 1783.059c4.334 7.882 30.657-1.285 30.657-1.285s27.077-175.177 30.428-234.099c.572-10.062 1.189-28.996 1.704-47.202-22.46 1.181-64.608 4.917-87.164 6.985C648.958 1654.391 658.728 1774.38 663.501 1783.059zM825.139 1500.991c-.859 19.336-1.529 37.39-.662 45.246 11.477 103.951 44.376 238.77 44.376 238.77h31.8c0 0 .694-18.073 1.83-49.112 1.868-51.026 4.93-137.099 8.066-235.523C889.297 1501.022 856.383 1501.11 825.139 1500.991z"/><path fill="#434a59" d="M1274.085 887.301c-2.632.189-5.186.371-7.634.542-16.215 1.137-25.929 5.599-35.323 9.914-13.224 6.075-25.722 11.81-56.509 9.391-54.884-4.317-68-2.059-134.122 15.623-36.752 9.829-89.301 8.78-128.131 5.999.126 2.256.259 4.461.396 6.615 15.054 1.076 32.112 1.876 49.559 1.876 27.83 0 56.651-2.038 79.848-8.241 65.183-17.43 78.096-19.656 131.943-15.424 32.469 2.553 46.322-3.809 59.717-9.961 9.275-4.261 18.036-8.285 33.076-9.34 2.637-.185 5.399-.382 8.248-.587C1274.781 891.604 1274.425 889.466 1274.085 887.301zM1010.052 811.055c35.755-2.267 53.659-4.738 69.457-6.919 10.398-1.435 20.219-2.791 33.752-3.865 13.599-1.079 26.367-2.951 38.715-4.761 18.342-2.689 34.182-5.015 46.857-3.794 13.46 1.292 31.93-.631 46.771-2.177 8.817-.919 16.513-1.719 21.31-1.684-.051-2.149-.1-4.304-.146-6.468-5.191-.014-12.966.795-21.836 1.719-14.555 1.516-32.666 3.402-45.481 2.171-13.453-1.295-29.654 1.082-48.414 3.833-12.244 1.795-24.904 3.651-38.289 4.713-13.719 1.089-23.631 2.457-34.125 3.905-15.685 2.165-33.466 4.619-68.981 6.871-36.412 2.309-75.151.086-99.375-1.942-.02 2.168-.038 4.331-.053 6.484 17.021 1.414 40.966 2.906 66.258 2.906C987.564 812.047 998.915 811.761 1010.052 811.055zM1230.409 689.387c-8.668 1.026-17.627 2.088-35.915 1.554-17.532-.51-32.246-.247-46.475.008-13.925.249-27.078.485-41.905-.008-16.425-.547-35.693-.365-58-.155-18.463.175-39.392.373-61.915.163-29.803-.26-56.621 5.67-73.557 10.553-.086 2.283-.17 4.568-.252 6.857 16.06-4.752 42.607-10.951 71.84-10.951.633 0 1.273.003 1.907.009 22.584.208 43.543.012 62.037-.163 22.233-.21 41.435-.392 57.724.152 14.991.499 28.225.262 42.235.01 14.155-.254 28.793-.516 46.171-.01 18.761.548 27.963-.542 36.864-1.596 7.636-.904 14.853-1.756 27.864-1.574 2.261.032 4.422.058 6.504.081-.038-2.157-.078-4.314-.121-6.469-2.016-.022-4.107-.047-6.292-.078C1245.673 687.575 1237.917 688.498 1230.409 689.387zM1052.152 620.792c24.404-1.72 53.324-5.255 78.838-8.374 30.891-3.777 57.569-7.039 67.886-6.182 12.523 1.036 30.666-1.146 45.245-2.902 6.838-.823 12.93-1.556 17.285-1.826-.186-2.158-.381-4.305-.584-6.442-4.563.294-10.657 1.026-17.475 1.847-14.288 1.72-32.074 3.859-43.937 2.878-10.971-.909-37.962 2.389-69.205 6.208-25.439 3.109-54.27 6.634-78.509 8.342-35.368 2.492-97.355 3.337-134.793 3.624-.142 2.145-.283 4.299-.421 6.471C953.953 624.15 1016.478 623.305 1052.152 620.792zM937.867 477.686c-1.025 2.025-1.968 4.115-2.835 6.263 21.364 1.687 51.53 4.294 82.654 7.721 62.014 6.827 96.065 8.744 121.195 9.719 2.583.1 5.07.146 7.489.146 11.294 0 21.088-1 32.118-2.125 12.001-1.225 25.602-2.613 43.873-2.87 6.555-.092 12.383-.232 17.57-.399-.887-2.175-1.808-4.303-2.759-6.388-4.498.133-9.446.244-14.901.32-18.555.261-32.305 1.664-44.438 2.902-13.15 1.341-24.505 2.498-38.701 1.951-25.016-.971-58.924-2.88-120.738-9.685C988.313 481.929 959.12 479.38 937.867 477.686z"/><path fill="#404859" d="M667.453,1766.65c-6.66,3.675-6.827,12.069-7.186,18.357c-0.359,6.288-8.983,26.051-6.109,29.285
				c2.875,3.234,48.868,4.312,51.024,0c2.156-4.312-5.39-12.576-7.546-19.763c-2.156-7.186,1.063-19.922-2.702-22.537
				S673.859,1763.114,667.453,1766.65z"/><path fill="#ff867a" d="M1870.168,507.022c0,0-0.776-8.986,2.919-12.729c3.695-3.743,9.755-3.366,11.806-4.455
				s4.854-6.271,10.847-6.155c5.992,0.116,15.365,8.264,19.362,11.682c3.997,3.418-0.463,13.206-5.102,18.307
				C1905.362,518.774,1871.115,512.619,1870.168,507.022z"/><path fill="#404859" d="M874.423,1766.65c-6.66,3.675-8.624,11.171-8.983,17.459c-0.359,6.288-7.186,26.949-4.312,30.183
				c2.875,3.234,68.593,4.59,70.068,0c3.234-10.061-24.434-12.576-26.59-19.763c-2.156-7.186-0.29-13.776-6.468-23.715
				C895.718,1766.92,880.83,1763.114,874.423,1766.65z"/><path fill="#ff867a" d="M1553.926,350.768c0,0,12.578,50.444-7.982,60.212c-14.188,6.741-28.868-4.607-41.045-10.204
					c-12.177-5.596-7.406-62.46,11.029-66.448C1534.362,330.341,1553.926,350.768,1553.926,350.768z"/><path fill="#c66c67" d="M1545.944,410.98c4.57-2.171,7.5-6.355,9.298-11.545c-2.55,1.163-8.293,3.483-15.667,4.602
					c-10.061,1.527-35.618-12.576-37.864-10.69c-0.634,0.532-0.215,2.697,0.942,5.603c0.672,0.821,1.418,1.445,2.246,1.826
					C1517.076,406.373,1531.756,417.721,1545.944,410.98z"/><path fill="#ff867a" d="M1534.723,377.727l-3.83,77.551c-2.243,7.535-36.165,15.884-45.105,2.733
					c-0.978-1.439,1.284-12.405,4.268-24.778c4.999-20.723,12.36-46.541,12.36-46.541L1534.723,377.727z"/><path fill="#ce4949" d="M1551.315,364.448c0,0,2.611-26.795-3.79-33.335c1.281-8.642-25.354-17.186-40.516-8.194
					c-11.928,5.664-19.242,11.748-20.891,33.962c-0.969,13.043,7.226,33.97,10.946,42.69c1.041,2.441,3.439,4.017,6.093,4.017
					h10.591c1.861,0,3.637-0.783,4.893-2.157l25.942-28.386c0,0,0.151,4.858,0.986,4.681
					C1552.399,376.28,1550.876,365.247,1551.315,364.448z"/><path fill="#ff867a" d="M1544.806,377.727c0,0,4.134-18.739-6.841-12.676c-7.183,3.968-4.26,22.519-0.299,21.919
					C1541.628,386.369,1544.885,382.959,1544.806,377.727z"/><path fill="#404859" d="M1377.931 1814.612c11.998-5.253 13.523-15.936 18.629-26.067.344-.683 2.317-15.235 2.331-16.397.061-5.02 14.571-18.353 21.33-7.898 13.323 20.609 27.93-11.595 27.157-2.994-2.301 25.603 9.449 66.888-.087 69.688-20.316 5.966-115.139 12.9-116.937 2.942C1329.276 1827.91 1357.182 1823.696 1377.931 1814.612zM1781.141 1814.612c-11.998-5.253-13.523-15.936-18.629-26.067-.344-.683-2.317-15.235-2.331-16.397-.061-5.02-14.571-18.353-21.33-7.898-13.323 20.609-27.93-11.595-27.157-2.994 2.301 25.603-9.449 66.888.087 69.688 20.316 5.966 115.139 12.9 116.937 2.942C1829.796 1827.91 1801.89 1823.696 1781.141 1814.612z"/><path fill="#b1d5de" d="M1608.205,874.998c-23.959-52.917-206.131-121.571-254.185-132.879
						c-3.516,53.286-28.095,86.481-57.176,143.958c-40.653,80.349,70.659,889.125,70.659,889.125s22.503,4.955,56.528,4.955
						c43.576,0,61.623-11.858,61.623-11.858s-15.959-179.329-13.966-239.197c0.489-14.687,8.409-43.668,7.32-58.323
						c-0.93-12.518-11.477-35.967-13.548-48.347c-16.462-98.395-23.26-398.37-23.26-398.37s100.44,289.229,125.468,388.072
						c4.266,16.846,8.169,51.562,12.67,68.347c20.751,77.384,107.084,302.052,107.084,302.052s0,0,43.188,3.254
						c39.617,2.985,45.918-10.585,45.918-10.585S1635.688,935.698,1608.205,874.998z"/><path fill="#84c0ce" d="M1631.255,967.687c-49.782,11.894-146.278,33.691-191.054,35.252
					c-61.803,2.156-148.76,17.966-148.76,17.966s33.403,48.716,152.266,57.768c-1.024-33.223-1.509-54.613-1.509-54.613
					s7.593,21.866,19.122,55.622c12.466,0.497,25.758,0.582,39.965,0.151c71.303-2.161,118.725-7.875,149.645-13.692
					C1643.841,1029.364,1637.196,995.997,1631.255,967.687z"/><path fill="#ff5f4a" d="M1637.469,765.786c8.058-116.836,18.778-187.445,7.627-227.322
					c-14.297-51.129-89.09-85.981-131.89-91.922c-35.203-4.887-92.605-2.116-140.558,31.067
					c-85.16,58.929-149.039,447.717-103.844,529.643c19.539,35.42,59.165,27.348,174.235,42.018
					c149.923,19.114,198.718-29.565,206.854-50.642C1662.375,966.289,1627.912,904.361,1637.469,765.786z"/><path fill="#434a59" d="M1555.419,351.017c0,0,25.996-15.071,26.265-21.539c0.269-6.468-21.699-11.184-36.114-8.624
					c-14.416,2.56-41.904,26.141-27.486,31.396S1555.419,351.017,1555.419,351.017z"/><path fill="#ff5f4a" d="M1462.361,430.856c-13.147-1.103-26.365,2.671-36.553,11.054
					c-4.611,3.794-8.659,8.52-10.678,14.243c-6.461,18.312,12.673,80.834,47.438,76.522c34.764-4.312,92.975-55.246,103.485-62.522
					c10.51-7.276-0.539-19.943-14.014-28.566c-13.475-8.624-46.892-7.007-61.983-8.354
					C1482.081,432.521,1471.019,431.583,1462.361,430.856z"/><path fill="#434a59" d="M1487.092,374.483c0,0,20.421,3.219,33.776,0.18c17.272-3.93,29.672-17.53,34.269-23.29
					c1.331-1.667,1.996-3.754,1.905-5.885c-0.245-5.775-1.425-17.688-6.89-23.287c-7.366-7.546-19.224-13.295-32.698-13.654
					c-13.475-0.359-27.669,10.542-31.801,18.685C1481.521,335.375,1478.289,357.954,1487.092,374.483z"/><path fill="#ce4949" d="M1461.789,542.805c-20.911,0.002-32.895-16.191-43.306-33.631
						c-14.822-24.828-6.293-52.66-5.922-53.832c0.448-1.42,1.961-2.205,3.381-1.758c1.418,0.448,2.205,1.96,1.759,3.379l0,0
						c-0.083,0.265-8.146,26.742,5.41,49.448c7.819,13.099,15.04,22.825,24.861,27.716c11.388,5.672,25.386,3.807,42.796-5.702
						c39.261-21.445,75.565-62.184,75.927-62.593c0.986-1.114,2.691-1.218,3.804-0.231c1.115,0.986,1.218,2.69,0.232,3.804
						c-0.368,0.416-37.302,41.859-77.38,63.75C1480.901,539.954,1470.558,542.804,1461.789,542.805z"/><path fill="#f2a185" d="M1480.713 590.345l-5.175 3.043 1.366-5.846-13.986-10.969c0 0-22.197 18.296-37.952 44.72-15.756 26.424-24.377 55.839-21.969 57.988 2.409 2.149 8.964 4.187 8.964 4.187s5.105-16.043 6.281-13.446c1.176 2.597-4.052 12.326-1.133 16.306 2.919 3.979 14.691 8 16.808 7.851 2.117-.149 20.275-38.984 25.995-52.704 8.137-19.52 29.371-40.983 27.748-44.813C1486.035 592.832 1480.713 590.345 1480.713 590.345zM1636.218 838.127c-14.265-19.552-29.702-32.284-29.702-32.284l-13.986 10.969 1.366 5.846-5.175-3.043c0 0-5.322 2.486-6.946 6.316-1.624 3.83 19.611 25.293 27.748 44.813 5.719 13.721 23.878 52.556 25.995 52.705 1.151.081 5.157-1.076 9.043-2.784C1641.042 898.375 1637.447 871.284 1636.218 838.127zM1477.436 855.062c8.272-21.387 8.825-42.403 8.825-42.403l-9.75-1.874-5.428 3.407-4.148-5.248-16.127-3.101c0 0 1.061 11.94-6.708 29.916-11.325 26.203-22.164 40.297-22.164 40.297l4.515 4.4 4.15.187.551 4.394 16.344 15.927C1447.495 900.964 1469.164 876.45 1477.436 855.062zM1573.364 1015.705c-1.105-19.551 4.003-30.396 4.003-30.396l-16.209-2.641-5.702 3.499-3.923-5.068-9.799-1.597c0 0-6.717 19.921-6.314 42.849.168 9.534 2.325 20.367 4.787 29.777 13.73-1.298 25.904-3.378 36.661-6.014C1575.494 1038.508 1574.071 1028.22 1573.364 1015.705zM1358.799 773.227c1.001.432 11.198 17.127 12.398 16.766 1.2-.361 9.207-7.156 8.998-9.789-.209-2.633-37.961-78.825-42.512-77.639s-27.835 18.146-27.179 19.335c.655 1.189 33.747 82.372 40.807 81.54 7.06-.832 16.845-8.433 16.004-10.182C1366.474 791.509 1357.797 772.794 1358.799 773.227zM1631.609 621.357c-4.551 1.186-27.835 18.146-27.179 19.335.566 1.027 25.296 61.644 36.594 77.681 2.206-27.555 4.351-52.016 5.979-73.671C1639.69 631.347 1633.316 620.913 1631.609 621.357zM1268.803 1007.252c4.72 8.556 10.618 14.569 18.462 18.983 13.932-25.501 35.115-77.381 35.671-78.39.741-1.345-25.597-20.53-30.745-21.871-3.078-.802-19.586 29.695-32.413 54.983 2.161 9.997 4.939 18.45 8.376 25.062.061-.056.113-.097.15-.114.112-.048.113.122.031.458C1268.492 1006.658 1268.644 1006.964 1268.803 1007.252z"/><g><path fill="#ff867a" d="M721.192,467.189c-1.617-6.419,0.339-16.438,15.431-24.998s38.448-5.776,38.987-1.303
				s-12.339,8.435-12.339,8.435s11.621-1.584,15.933,0.001c4.312,1.585,3.234,4.121,0,4.914s-23.895,14.324-36.651,16.544
				C729.795,473.001,721.85,469.803,721.192,467.189z"/></g><g><path fill="#ff867a" d="M1343.864,657.927c-3.02,2.579-7.47,4.686-14.165,6.847c-12.431,4.012-40.87,1.551-40.32-10.755
				c0.357-8.005,26.578-10.599,27.229-12.646c0.811-2.552-5.81,1.154-10.745-5.849c-3.633-5.156,3.154-5.174,6.359-3.556
				c1.61,0.813,20.204-1.256,29.7,6.453C1348.912,644.095,1350.335,652.402,1343.864,657.927z"/></g><g><path fill="#f2c3a7" d="M980.996,437.611c-28.056,8.657-129.929,96.665-129.929,96.665s-62.882-75.853-91.987-81.423
				c-15.858-3.035-44.992,11.43-46.532,25.339c-5.031,45.417,55.027,115.842,75.458,143.151
				c20.431,27.309,65.819,44.91,107.258,20.476c18.551-10.938,104.563-88.034,111.031-116.062
				C1012.763,497.731,1013.528,427.573,980.996,437.611z"/></g><g><path fill="#434a59" d="M894.379 548.738c-3.527-7.003-10.793-24.838-15.884-37.58-1.806 1.496-3.556 2.949-5.232 4.347 5.062 12.638 11.852 29.219 15.339 36.143 5.048 10.025 20.849 44.881 31.45 70.916 1.681-1.44 3.408-2.935 5.171-4.479-1.796-4.386-3.795-9.158-5.993-14.301C909.255 580.441 897.471 554.878 894.379 548.738zM950.154 509.22c-12.463-13.052-22.596-23.561-30.567-31.099-1.722 1.335-3.443 2.677-5.16 4.023 8.997 8.452 20.436 20.429 31.049 31.543 15.057 15.767 30.546 31.987 42.181 41.907 1.414-1.706 2.77-3.386 4.061-5.033C980.406 540.899 965.066 524.836 950.154 509.22zM810.191 519.251c5.912-3.723 12.659-7.966 18.152-10.664-1.492-1.606-3.033-3.249-4.613-4.915-5.114 2.64-10.857 6.247-16.985 10.106-6.796 4.28-13.823 8.705-19.568 11.385-9.656 4.506-19.952 20.142-29.91 35.263-2.3 3.493-4.705 7.139-7.019 10.479 1.312 1.9 2.628 3.779 3.943 5.633 2.515-3.541 5.303-7.734 8.478-12.555 8.575-13.021 19.248-29.227 27.243-32.959C796.024 528.172 803.226 523.637 810.191 519.251zM781.653 464.801c-7.791 4.043-22.776 12.063-37.342 21.217-13.094 8.229-22.089 14.959-28.229 20.52.685 2.241 1.446 4.501 2.287 6.78 5.479-5.352 14.516-12.478 29.347-21.801 16.308-10.251 33.169-19.072 39.573-22.345C785.388 467.638 783.506 466.177 781.653 464.801zM833.955 646.321c1.218-11.273 3.533-24.629 5.222-34.381.874-5.038 1.628-9.388 2.026-12.255 1.416-10.176 9.108-45.06 13.24-63.801.478-2.169.882-4 1.223-5.55-2.941 2.509-4.6 3.942-4.6 3.942s-.816-.983-2.291-2.72c-.209.95-.426 1.932-.647 2.936-4.444 20.149-11.88 53.874-13.332 64.302-.384 2.76-1.129 7.061-1.992 12.042-2.754 15.89-4.718 28.542-5.61 38.223 2.07.698 4.177 1.322 6.318 1.863C833.631 649.508 833.776 647.981 833.955 646.321z"/></g><g><path fill="#ffae43" d="M1752.543,515.255l-164.648,89.241c0,0-216.707,0.477-234.494,11.992
				c-12.737,8.246-25.332,50.665-2.156,65.217c23.176,14.553,229.311,38.807,274.464,24.793
				c45.154-14.014,132.088-103.905,141.093-124.656C1778.667,554.504,1752.543,515.255,1752.543,515.255z"/></g><g><path fill="#ff5f4a" d="M1625.709,504.742l140.554,91.264c0,0,93.347-107.794,122.529-96.377
				c29.182,11.417,23.022,27.387,22.997,43.175c-0.017,10.682-65.711,176.27-135.263,169.802
				c-69.552-6.468-162.764-71.402-187.521-120.355C1564.25,543.299,1625.709,504.742,1625.709,504.742z"/></g><g><path fill="#ff867a" d="M1600.26,482.943c0,0,13.112-13.458,23.095-10.229c9.982,3.229,10.382,14.23,14.708,19.829
				c4.327,5.599,7.151,17.115,1.664,21.512c-5.487,4.397-25.999,7.753-33.688,0.49
				C1598.349,507.283,1594.649,490.85,1600.26,482.943z"/></g><g><path fill="#ff5f4a" d="M1380.199,472.683l-166.934,99.069c0,0-240.589-37.19-248.652-12.486
				c-8.063,24.703-27.309,51.367,16.529,73.608c43.837,22.241,208.19,62.257,251.526,57.455
				c77.822-8.624,143.008-88.255,163.13-123.469C1415.921,531.646,1380.199,472.683,1380.199,472.683z"/></g><g><path fill="#f2c3a7" d="M1209.18,450.805l208.887,44.273c0,0,152.365-47.652,181.83-25.374
				c29.465,22.278,19.985,57.492,13.226,68.99s-166.36,58.21-210.526,53.18c-44.165-5.031-175.139-7.456-199.573-35.214
				C1178.59,528.902,1209.18,450.805,1209.18,450.805z"/></g><g><path fill="#36995e" d="M980.1,465.384l-131.637-10.531c0,0-22.55,46.465-1.438,71.893
					c12.91,15.551,71.4,13.715,135.174,12.288C991.03,515.962,982.753,476.57,980.1,465.384z"/><path fill="#ff867a" d="M1196.017,437.685c-23.613-17.299-183.255,30.312-183.255,30.312l-32.663-2.613
					c2.653,11.186,10.93,50.578,2.098,73.65c9.035-0.202,18.279-0.556,27.649-1.059
					C1104.749,532.888,1219.631,454.983,1196.017,437.685z"/></g><g><path fill="#ff867a" d="M970.808,555.002c-2.384-11.096,1.047-25.895-6.243-20.647c-7.29,5.248-4.036,16.555-8.76,20.73
				c-4.724,4.175-33.524-21.375-36.645-15.066c-2.073,4.189,16.643,14.636,15.561,15.524c-1.083,0.888-18.47-11.274-20.821-5.93
				c-2.884,6.554-1.373,14.994,4.672,21.669c-2.688-0.813-5.06-1.026-5.799,0.363c-1.989,3.735,56.172,42.826,62.423,9.447
				C976.547,573.872,974.478,572.086,970.808,555.002z"/></g><g><path fill="#ff867a" d="M1169.068,436.107c0,0,9.881-6.648,14.014-6.648s13.115,3.414,14.373,3.324
				c1.258-0.09,11.319,5.969,17.248,11.474c5.929,5.504,6.804,9.16,5.808,8.949c-0.996-0.211-22.696-4.703-32.398-0.75
				C1178.411,456.409,1158.522,441.902,1169.068,436.107z"/></g><g><path fill="#c66c67" d="M1025.34,490.389c-0.707,0-1.393-0.376-1.756-1.04c-0.064-0.118-6.529-11.888-12.451-20.191
				c-0.641-0.899-0.432-2.148,0.468-2.79c0.899-0.642,2.148-0.432,2.79,0.467c6.06,8.499,12.433,20.102,12.701,20.592
				c0.531,0.969,0.176,2.184-0.793,2.715C1025.995,490.31,1025.665,490.389,1025.34,490.389z"/></g><g><path fill="#f27c79" d="M283.84,694.745c0,0-18.45-0.134-24.8-1.312s-20.974-6.365-13.84,3.232
				c7.133,9.597,19.067,6.392,16.384,14.904c-2.683,8.512-22.854,20.462-30.293,25.697c-15.2,10.697-0.07,13.562,19.685,13.602
				c19.755,0.04,47.917-11.37,49.679-35.934C302.416,690.37,283.84,694.745,283.84,694.745z"/></g><g><path fill="#434a59" d="M1533.523 568.27c.708-13.798-.049-32.388-2.28-55.674l-.068-.717c-.607-6.37-1.456-28.133-2.017-43.893-2.133.352-4.28.723-6.434 1.107.562 15.739 1.396 36.923 2.013 43.399l.068.72c2.63 27.454 2.854 45.305 2.094 56.903C1529.123 569.504 1531.33 568.888 1533.523 568.27zM1285.215 513.489c5.996-13.621 7.118-28.992 3.403-45.847l-6.993-1.482c4.196 16.639 3.429 31.642-2.331 44.723-7.725 17.548-8.92 45.988-8.245 68.703 2.141.326 4.302.641 6.482.946C1276.835 557.953 1278.009 529.857 1285.215 513.489zM1376.971 528.828c.865 14.328-4.176 41-8.964 60.172 2.247.161 4.444.32 6.587.477.698-2.824 1.39-5.757 2.059-8.76 4.893-21.961 7.426-41.504 6.774-52.28-.771-12.754-1.217-28.058-1.316-40.981l-6.467-1.371C1375.729 500.155 1376.245 516.816 1376.971 528.828zM1464.734 540.555c-2.86-20.058-5.062-41.899-6.47-56.901-2.169.572-4.278 1.136-6.324 1.688 4.896 51.163 9.792 83.26 15.242 99.247 2.078-.426 4.17-.863 6.282-1.316C1471.15 576.591 1468.087 564.068 1464.734 540.555z"/></g><g><path fill="#ce4949" d="M1234.468,621.168c-1.688,0-3.305-0.953-4.072-2.58l-21.2-44.915
				c-1.061-2.248-0.099-4.93,2.148-5.99c2.246-1.062,4.93-0.099,5.99,2.148l21.2,44.915c1.061,2.248,0.099,4.93-2.148,5.99
				C1235.766,621.029,1235.112,621.168,1234.468,621.168z"/></g><g><path fill="#ce4949" d="M1810.822,617.484c-10.413,0-40.552-14.504-46.538-17.437c-2.232-1.093-3.155-3.789-2.062-6.021
				c1.093-2.231,3.789-3.155,6.021-2.062c14.085,6.898,36.441,16.52,42.474,16.52c0.051,0,0.099-0.001,0.147-0.002
				c0.043-0.001,0.086-0.002,0.128-0.002c2.428,0,4.428,1.933,4.496,4.374c0.069,2.484-1.888,4.555-4.372,4.624
				C1811.02,617.482,1810.921,617.484,1810.822,617.484z"/></g><g><path fill="#ff867a" d="M2706.488,712.041l-238.032,10.349c0.369,26.679,0.995,52.292,1.631,73.824
				c38.128,0.742,137.816,1.727,252.309-10.087C2720.073,776.681,2709.46,729.602,2706.488,712.041z"/></g><g><path fill="#e7f2f2" d="M2639.011,480.993c0,0-146.138,8.466-162.317,58.737c-8.302,25.794-9.037,123.041-8.009,197.336
				l237.802-25.025C2694.1,638.851,2639.011,480.993,2639.011,480.993z"/></g><g><path fill="#ff5f4a" d="M2511.731,417.693c0,0,7.985,23.303,13.156,24.909c5.171,1.606,7.833-1.739,9.479-1.384
				c1.646,0.355,13.361,23.935,21.95,27.255s14.803-4.841,22.376-23.286c7.573-18.445,9.004-36.45,2.172-46.1
				c-6.833-9.65-14.371-16.709-34.617-13.874S2499.903,390.191,2511.731,417.693z"/></g><g><path fill="#434a59" d="M2775.443,936.425c-7.886-31.494-38.45-99.908-49.115-135.777c-1.43-4.81-4.954-19.11-6.15-23.978
				c-114.492,11.814-211.963,20.287-250.091,19.545c0.303,10.274,0.609,19.627,0.89,27.716
				c0.759,21.867-66.984,833.313-73.147,964.287c-0.446,9.474,222.096,11.874,221.885,5.741
				c-5.393-156.398,15.035-732.808,15.035-732.808s88.356,403.768,141.545,732.808c0,0,40.452,9.375,112.676-0.921
				c65.938-9.399,94.323-20.966,94.323-20.966S2776.593,941.018,2775.443,936.425z"/></g><g><path fill="#ff867a" d="M2524.059,440.926c0,0-5.377-16.704,5.137-12.129c6.881,2.994,5.817,20.135,2.159,19.929
				C2527.697,448.521,2524.438,445.696,2524.059,440.926z"/></g><g><path fill="#ff867a" d="M2591.902,485.349c0,0,11.319-5.929,22.997-3.952s18.325,8.803,18.865,17.786
				c0.539,8.983-10.241,12.576-14.014,14.553C2615.976,515.712,2577.529,490.559,2591.902,485.349z"/></g><g><path fill="#ff867a" d="M2492.059,519.94l-158.471,70.48c0,0-189.496-33.221-208.361-11.661
				c-18.865,21.56,139.058,104.024,223.14,85.699c84.082-18.326,154.063-58.21,163.808-84.082
				C2521.921,554.504,2492.059,519.94,2492.059,519.94z"/></g><g><path fill="#ff5f4a" d="M2550.655,390.26c0,0-6.133-11.379-0.042-22.245c6.092-10.866,22.494-13.811,32.699-3.128
				s-1.42,31.453-9.467,33.405C2565.798,400.245,2552.719,396.149,2550.655,390.26z"/></g><g><path fill="#af5546" d="M2290.156,451.269c0,0,145.706,89.401,162.235,88.683c16.529-0.719,129.263-61.441,129.263-61.441
				s36.935,9.328,42.135,32.244c5.2,22.916-102.656,126.466-174.228,122.981c-58.844-2.866-140.36-45.274-164.794-74.47
				S2290.156,451.269,2290.156,451.269z"/></g><g><path fill="#d47328" d="M2077.44,496.497c-0.125,0-0.252-0.012-0.38-0.037c-1.085-0.209-1.795-1.257-1.586-2.342
				l3.326-17.277c0.21-1.084,1.255-1.797,2.342-1.586c1.085,0.209,1.795,1.257,1.586,2.342l-3.326,17.277
				C2079.217,495.832,2078.379,496.497,2077.44,496.497z"/></g><g><path fill="#d47328" d="M1590.913,642.024c-0.872,0-1.674-0.575-1.924-1.456c-0.206-0.73-5.043-18.1-3.082-36.288
				c0.118-1.099,1.124-1.89,2.202-1.774c1.099,0.118,1.893,1.105,1.775,2.203c-1.878,17.424,2.906,34.598,2.955,34.769
				c0.301,1.063-0.317,2.168-1.38,2.469C1591.277,641.999,1591.093,642.024,1590.913,642.024z"/></g><g><path fill="#434a59" d="M1160.984,1046.287c-0.39,0-0.785-0.057-1.178-0.178c-27.017-8.313-121.055-2.585-122.002-2.526
				c-2.177,0.138-4.104-1.538-4.24-3.744c-0.137-2.205,1.539-4.103,3.744-4.24c3.925-0.244,96.454-5.874,124.851,2.864
				c2.111,0.65,3.296,2.888,2.646,5C1164.277,1045.182,1162.694,1046.287,1160.984,1046.287z"/></g><g><path fill="#d47328" d="M1782.873,1033.656c-73.548,0-120.21-10.443-120.878-10.597c-1.883-0.433-3.06-2.31-2.627-4.194
				c0.433-1.884,2.313-3.062,4.194-2.628c0.954,0.218,96.987,21.668,231.201,2.4c76.839-11.032,105.068-33.795,105.344-34.023
				c1.489-1.233,3.695-1.025,4.929,0.464c1.232,1.489,1.024,3.695-0.464,4.928c-1.19,0.985-30.041,24.251-108.814,35.561
				C1853.907,1031.574,1815.709,1033.656,1782.873,1033.656z"/></g><g><path fill="#77453e" d="M2459.462,586.919c-1.812,0-3.347-1.398-3.486-3.236c-0.019-0.251-2.026-25.351-11.975-41.931
				c-0.995-1.658-0.457-3.808,1.2-4.802c1.656-0.994,3.807-0.458,4.802,1.2c10.813,18.021,12.871,43.913,12.953,45.006
				c0.145,1.927-1.3,3.606-3.227,3.752C2459.639,586.916,2459.55,586.919,2459.462,586.919z"/></g><g><path fill="#ff867a" d="M2874.539,167.071c0,0-1.597-12.057,7.832-20.726c9.429-8.669,22.612-28.236,27.472-25.318
				s-7.642,16.296-7.289,19.654c0.354,3.357,38.591-12.584,41.165-8.108c2.574,4.476-14.604,11.298-14.604,11.298
				s14.285-4.132,17.374-1.937c3.088,2.196-3.811,6.971-3.811,6.971s4.104,4.373,1.979,6.841s-14.015,6.216-14.015,6.216
				s8.002,4.172,2.144,7.411c-5.859,3.239-33.75,17.183-48.659,11.013C2877.954,177.833,2874.539,167.071,2874.539,167.071z"/></g><g><path fill="#313844" d="M2576.536,1003.911c-2.552,0-4.917-1.64-5.723-4.204c-0.992-3.162,0.766-6.529,3.927-7.522
				c1.227-0.386,122.976-38.616,146.258-45.316c3.18-0.914,6.509,0.922,7.425,4.107c0.917,3.184-0.922,6.509-4.106,7.425
				c-23.144,6.661-144.755,44.848-145.98,45.232C2577.737,1003.821,2577.132,1003.911,2576.536,1003.911z"/></g><g><path fill="#313844" d="M2634.745,1067.15c-3.208,0-5.868-2.537-5.992-5.771l-3.081-80.498
				c-0.126-3.311,2.455-6.098,5.767-6.225c3.303-0.14,6.099,2.455,6.226,5.766l3.081,80.498c0.126,3.312-2.455,6.098-5.767,6.225
				C2634.9,1067.149,2634.822,1067.15,2634.745,1067.15z"/></g><g><path fill="#77453e" d="M2244.259,1348.285c-1.849,0-3.394-1.447-3.492-3.315c-0.051-0.95-5.073-95.541-8.136-144.544
				c-0.12-1.929,1.346-3.591,3.274-3.711c1.921-0.137,3.592,1.346,3.712,3.275c3.064,49.036,8.089,143.66,8.14,144.609
				c0.102,1.93-1.38,3.578-3.31,3.681C2244.384,1348.284,2244.321,1348.285,2244.259,1348.285z"/></g><g><path fill="#c66c67" d="M537.376,599.264c-0.356,0-0.718-0.096-1.044-0.296c-0.941-0.578-1.236-1.809-0.659-2.75
				l14.769-24.065c0.579-0.941,1.81-1.235,2.751-0.659c0.941,0.578,1.236,1.809,0.659,2.75l-14.768,24.065
				C538.705,598.925,538.048,599.264,537.376,599.264z"/></g><g><path fill="#ce9d84" d="M1430.473,549.039c-1.795,0-3.427-1.216-3.879-3.037l-12.409-49.96
				c-0.533-2.144,0.774-4.314,2.918-4.846c2.14-0.535,4.312,0.773,4.846,2.918l12.409,49.96c0.533,2.144-0.774,4.314-2.918,4.846
				C1431.117,549,1430.793,549.039,1430.473,549.039z"/></g><g><path fill="#ce9d84" d="M851.064,613.75c-2.137,0-3.91-1.689-3.994-3.844l-2.939-75.258
				c-0.086-2.207,1.634-4.067,3.841-4.153c2.234-0.073,4.067,1.633,4.153,3.841l2.939,75.258c0.086,2.208-1.634,4.067-3.841,4.153
				C851.17,613.749,851.117,613.75,851.064,613.75z"/></g></svg>