<svg xmlns="http://www.w3.org/2000/svg" xmlns:xlink="http://www.w3.org/1999/xlink" viewBox="0 0 4680 3120"><defs><linearGradient id="b" x1="3251.77" x2="3320.13" y1="1705.78" y2="2188.86" gradientUnits="userSpaceOnUse"><stop offset="0" stop-color="#f4e9d5" stop-opacity=".5"/><stop offset="1" stop-color="#f4cbae"/></linearGradient><linearGradient id="a" x1="3340.61" x2="3344.49" y1="1987.6" y2="2228.14" gradientUnits="userSpaceOnUse"><stop offset=".08" stop-color="#70e0ff" stop-opacity=".5"/><stop offset="1" stop-color="#3b95e0"/></linearGradient><linearGradient id="c" x1="2261.59" x2="2264.21" y1="2031.81" y2="2194.8" xlink:href="#a"/></defs><g data-name="10"><rect width="4680" height="3120" fill="#fff" data-name="10" opacity="0"/><path fill="#d2f1ff" d="M2565.87,807.91c-1.43-1.38-2.86-2.81-4.38-4.15C2142.3,391.45,1416.82,462.25,1050.28,869.23c-68.6,76.16-124.6,164.08-163.62,262.81a880.86,880.86,0,0,0-56.14,225.88c-37.23,358,172.57,683.11,488.91,839.27,226.6,114.24,494.68,139.31,740.63,79.6.09,0,.14,0,.18,0a1075.31,1075.31,0,0,0,137.61-43c535,272.28,1376.54,47.2,1544.28-493.47,19.35-62.17,29.72-128.58,29.68-198.89,0-10.41-.18-20.92-.67-31.46C3748.25,1032,3130.18,705.65,2565.87,807.91Z"/><path fill="#ace5f9" d="M1882.64,1458.9c-302.88-253.64-736.49-345.19-996-326.86a880.86,880.86,0,0,0-56.14,225.88c-37.23,358,172.57,683.11,488.91,839.27,226.6,114.24,494.68,139.31,740.63,79.6.09,0,.14,0,.18,0a1075.31,1075.31,0,0,0,137.61-43c535,272.28,1376.54,47.2,1544.28-493.47C3191.9,1856.71,2266.6,1780.44,1882.64,1458.9Z"/><path fill="#ff9d45" d="M2065.42,1460.24s-40.48-1.55-52.52,12.43-26.26,152.22-18.6,203.48h116S2122.32,1475.78,2065.42,1460.24Z"/><path fill="#ffca6c" d="M1225.3 2184.08c15.32 201.93-43.77 332.41-43.77 332.41h783.23c85.35-130.48 41.58-593.36 32.82-832.57-7.27-198.69 44.34-221.63 62-223.7l-801.49-3.08C1157.46 1618.68 1210 1982.15 1225.3 2184.08zM2059.62 1460.22l5.8 0A20.41 20.41 0 002059.62 1460.22z"/><rect width="679.64" height="24.85" x="1256.28" y="1741.9" fill="#fff8ee" rx="10.43"/><rect width="556.92" height="24.47" x="1320.24" y="1779.18" fill="#fff8ee" rx="9.25"/><polygon fill="#fff8ee" points="1256.28 1874.45 1265.03 2009.89 1944.67 2009.89 1935.92 1874.45 1256.28 1874.45"/><polygon fill="#fff8ee" points="1265.03 2229.43 1944.67 2229.43 1949.05 2093.98 1265.03 2093.98 1265.03 2229.43"/><path fill="#fff8ee" d="M1334.29,2279.62a49.6,49.6,0,1,0,49.6,49.6A49.6,49.6,0,0,0,1334.29,2279.62Z"/><path fill="#ff9d45" d="M1964.76 2516.49h-18.19A106.91 106.91 0 001964.76 2516.49zM1866.77 2419.09H1121s3.49 97.4 60.53 97.4h765C1916.87 2514.2 1861.7 2499.22 1866.77 2419.09z"/><polygon fill="#e5373a" points="1159.64 1607.05 1160.04 1786.09 1208.89 1746.88 1257.92 1785.87 1257.52 1606.83 1159.64 1607.05"/><polygon fill="#e6e7e8" points="1159.64 1607.05 1160.04 1786.09 1166.03 1781.29 1165.64 1607.03 1159.64 1607.05"/><polygon fill="#e5373a" points="980.05 1653.53 1041.22 1667.02 1041.56 1729.66 1180.83 1617.14 1119.31 1541 980.05 1653.53"/><polygon fill="#e6e7e8" points="1041.52 1721.98 1041.56 1729.66 1180.83 1617.14 1177.06 1612.47 1041.52 1721.98"/><circle cx="1221.18" cy="1505.12" r="117.57" fill="#f4e9d5" transform="rotate(-45 1221.19 1505.117)"/><circle cx="1221.18" cy="1505.12" r="104.63" fill="#e5373a" transform="rotate(-66.26 1221.312 1505.162)"/><path fill="#dbbc8f" d="M1171.9,1608.59a114.55,114.55,0,0,1,8-210.33,114.56,114.56,0,1,0,76.57,215.84A114.19,114.19,0,0,1,1171.9,1608.59Z"/><path fill="#e5d0ae" d="M1266.17,1410.65a104.47,104.47,0,0,0-92,1,104.63,104.63,0,0,1,87.65,189.89,104.62,104.62,0,0,0,4.35-190.88Z"/><polygon fill="#1d1d3a" points="2532.91 689.81 2686.55 901.61 3339.39 1205.26 3655.03 1110.97 3292.47 489.83 2532.91 689.81"/><polygon fill="#195193" points="2532.91 689.81 3292.47 489.83 3296.99 460 2557.68 658.18 2532.91 689.81"/><polygon fill="#003472" points="3292.47 489.83 3655.03 1110.97 3663.65 1085.93 3296.99 460 3292.47 489.83"/><path fill="#ffb600" d="M3570.58,1231.94s-.32,1.42-.8,3.66c-20.16,39.59-76.53,226.1-61.62,374,.29,2.68,2.26,4.63,4.26,4.61,2.17-.37,4-3,3.67-5.92-11-108.9,19.18-246.51,43.11-321.24-19.83,101.1-55.46,310.18-21.41,355.73,2.15,2.87,8.42,3.86,16.4,3.83-.15-37.15.71-82.79,7.27-104.26.14,40,0,75,4,103.55,29.16-3.05,71-15.6,77.43-24.59,21.42-30,17.6-123.17,8.1-211,12.58,43.69,22.14,102.93,24.82,199.49.09,2.88,1.94,5.19,4.1,5.13s3.87-2.54,3.9-5.42c1.49-154-59.16-378.17-59.16-378.17Z"/><path d="M3601.23,1171.6a33.34,33.34,0,0,0-35,31.53l-2,43.25,66.32,3.08,2-43A33.14,33.14,0,0,0,3601.23,1171.6Z"/><path d="M3601.9,1091.16a7.14,7.14,0,0,0-7.15,7.14v75.3a7.15,7.15,0,0,0,14.29,0v-75.3A7.14,7.14,0,0,0,3601.9,1091.16Z"/><path fill="#195193" d="M2948.57,732.24c-15.29-3-28.7-5.09-39.78-6.64a46.3,46.3,0,0,0-48.25,26.26l-152.86,319.59,474.47,248.83,126.73-249,28.45-55.88a66.51,66.51,0,0,0-6.46-70.3C3220.33,798.57,3046.71,751.35,2948.57,732.24Z"/><path fill="#114789" d="M2948.57,732.24c39.2,77.17,133.55,192,360.31,339l28.45-55.88a66.51,66.51,0,0,0-6.46-70.3C3220.33,798.57,3046.71,751.35,2948.57,732.24Z"/><path fill="#1ddbd6" d="M3507.53,1617.59c-19.73-320.77-236.36-588.24-530.51-683.14-3.08-1-6.2-2-9.31-3a760.32,760.32,0,0,0-122.27-27,768.79,768.79,0,0,0-852.32,938c66.64,282.83,289.59,505.3,572.7,571.25h0a769,769,0,0,0,175,20c424.25,0,768.18-343.92,768.18-768.18,0-1,0-2,0-3.08C3509,1647.42,3508.47,1632.47,3507.53,1617.59Z"/><path d="M3123.67,1054.29q-8.68-6.42-17.46-12.36c-119.6-81.4-253.5-102.61-336.88-59a151.72,151.72,0,0,0-30.27,20.67,140.92,140.92,0,0,0-20.14,21.93,145.68,145.68,0,0,0-26.14,61.73,177.65,177.65,0,0,0-2.74,28.32c-.91,53.61,20.45,114.15,60.28,171.63,29,41.85,67.71,82.09,114.75,116.86a532.61,532.61,0,0,0,66.86,42.22c112.64,59.82,229.94,68.06,301.23,21.08a142.09,142.09,0,0,0,36.66-34.51C3341.24,1336.27,3275.8,1166.77,3123.67,1054.29Z" style="mix-blend-mode:overlay" fill="#1ddbd6" opacity=".79"/><path fill="#0d9161" d="M2973.87,934.45l-2.73,3.62s7.86,29.89-17.31,47.19-58.21,3.15-59.78,42.48,6.29,48.77-9.44,56.63-21.49,3.15-35.14,17.31-4.19,10.76-12,25.83,9.44-22.68-59.78,29.23-44,89.42-44,89.42l34.61,24s34.61-6.33,39.33,31.37-16.27,51,11.54,65.57,40.37-8.5,54.53,14.06,20.45,38.2,20.45,38.2-4.72,17,9.44,36.06,22,12.8,26.74,36.4,20.46,28.32-4.71,51.91-45.63,47.2-45.63,47.2,3.15,25.17,6.3,36.18-55.07,14.16-18.88,44.05,73.94,38,83.38,39.46-1.58-31.94,29.89,8.33,39.33,52.83,47.19,52.08,14.16-19.1,29.89-20.17,88.1-23.06,88.1-23.06,3.15-39.68,67.65-8.85,59.78-2.17,94.39,16.71,59.78,55.16,59.78,55.16,42.47-9.6,53.49-19.79,33-22.78,37.75-32.22,44-62.93,44-62.93l3-13.37c0-15.1-.53-30-1.48-44.93C3484.65,1296.82,3268,1029.35,2973.87,934.45Z"/><path fill="#057047" d="M2515.3,933.55c10.29,7.42,20.8,14.69,32.13,46.41,15.73,44-34.61,48.76,0,92.81s92.81,23.6,108.54,0,23.6-29.89,69.48-51.91,32.78-37.76,32.78-37.76,3.15-28.32,53.49-45.62c21.55-7.39,32.72-20,38.45-32a773.18,773.18,0,0,0-334.87,28.07Z"/><path fill="#0d9161" d="M2510.56 932.56c10.29 7.43 20.8 14.7 32.12 46.41 15.74 44-34.61 48.77 0 92.82s92.82 23.6 108.55 0 23.6-29.89 69.47-51.92 32.79-37.75 32.79-37.75 3.15-28.32 53.49-45.62c21.55-7.4 32.72-20 38.45-32a773.33 773.33 0 00-334.87 28.06zM2834.32 2116.38c-12.59-70.79 2.61-90.55-23.09-110.56s-35.18 4.65-58.75-25.77-35.05-45.56-44.23-60-13.94-22.31-59.57-33.32-84.95-13.66-99.11-52.45-10.54-61.17-33.57-61-30.42-1.45-40.11-10.89-.7-67.64-43.74-78.65-63.49 4.72-91.81-29.89-29.89-36.19-37.75-51.92 4.71-9.44-23.6-58.21-36.19-62.92-53.49-67.64-22 0-44.05 0-34.61-1.95-53.49-10.42-22-29.35-34.61-10.25-29.89 45.84-36.18 63.14 0 38.23 0 38.23l15.73 32.57s-20.45 18.87-29.89 26.74-40.9-14.16-17.3 34.61 52.89 59.78 54.74 81.8a65.35 65.35 0 01-9.12 38.52l-29.89 19.88-39.33 29.7-9 21.87c66.64 282.83 289.59 505.3 572.7 571.25h0l56.1-7.9s119.56 20.46 141.59-25.17 15.73-58.2 29.89-75.51 102.25-22 88.09-81.8S2846.9 2187.17 2834.32 2116.38zM2483.7 1033c-6.7-22.72-23.28-30-26.61-32-4.6-2.67-10.17-4.19-14-7.71-4.75-4.4-8.91-10.16-13.16-15.07-1.73-2-3.36-2.93-4.43-5.47a18.34 18.34 0 01-1.07-7.4 771.14 771.14 0 00-360.95 337.51c6.48 2.45 13.37 4.19 19.76 6.33a42.15 42.15 0 0011.07 2.57 80.34 80.34 0 0116.52 3.5c6.32 2 11.11 4.62 17.59 4.84 4.15.16 5.38-.15 8.84 2.3a112.22 112.22 0 0011.26 11.92 48.72 48.72 0 0022.25 14.38c9.44 3.37 22 4.44 32.41 3.81 7.67-.47 13.56-4.53 21.23-4.84 24.77-1 51.1 1 73.91-11.4 9.5-5.12 14.6-14.47 23.44-20.35 8.31-5.57 19.82-10.76 25.71-19.1 3-4.25 1.82-5.85 2.11-10.67.34-6.13 4.21-12.71 6.92-18.18 5.82-11.74 16-20.58 21.17-32.57 3.24-7.42 2.87-15.63 6-23 3.33-8 10.1-14.94 14.85-22s7.87-15.7 13.31-22.15c3.74-4.44 8.65-7.8 12.43-12.18 6.51-7.55 12.14-16.86 14.22-26.68.88-4.25-.57-9 .19-12.9.78-4.12-.47-2.55 5.5-5 8.85-3.59 17.44-6.77 25.93-11.14 6.42-3.27 19-9.94 23.54-17.46 3.39-5.57 1.19-13.94-.1-19.73C2491.22 1052.88 2485.53 1043.38 2483.7 1033z"/><path d="M2805,1857.09h0c-283.11-65.95-506.06-288.43-572.7-571.25A769,769,0,0,1,2211.76,1109v-.29a769.43,769.43,0,0,0-218.64,733.83c66.64,282.83,289.59,505.3,572.7,571.25h0a769,769,0,0,0,175,20c424.16,0,768-343.77,768.18-767.9-137.75,130.92-324,211.25-529.06,211.25A769.11,769.11,0,0,1,2805,1857.09Z" style="mix-blend-mode:multiply" fill="#1ddbd6" opacity=".54"/><path fill="#1561bc" d="M3868,2496H864.27c-44,0-79.65,30.62-79.65,68.34v27.36c0,37.72,35.67,68.29,79.65,68.29H3868c44,0,79.6-30.57,79.6-68.29v-27.36C3947.59,2526.63,3912,2496,3868,2496Z"/><path fill="#04519e" d="M3868,2496H933.81v21.41c0,37.68,35.67,68.3,79.65,68.3H3947.59v-21.37C3947.59,2526.63,3912,2496,3868,2496Z"/><path fill="#edd9b7" d="M2715.47,2268.23c7.58,199.6-1.26,287.33-1.26,287.33h990.17s12.63-52.64,12.63-138.18-12.63-149.15-12.63-149.15Z"/><polygon fill="#edcc9a" points="2756.57 2276.74 2734.42 2312.76 2858.69 2312.76 2849.55 2276.74 2756.57 2276.74"/><path fill="#ffa63b" d="M2852.93,2252.62H2703.05v31.22H2833.7c6.75,0,12.76,5.65,15.08,14.12,13.66,49.83,27.31,135.9-.23,233.62-2.35,8.34-8.35,13.85-15,13.85H2703.05v31.23H3816.83c70.73-173.84,0-324,0-324Z"/><path fill="#ffc145" d="M3848.13,2267.13c-3.29-8.89-10.07-14.51-17.5-14.51h-963c-4,0-6.64,5.72-4.78,10.51,6.11,15.82,17.1,48.63,23,92.47,7.6,56.22,6.85,130.6-23.29,210.58-1.81,4.81.77,10.48,4.8,10.48h962.94c7.44,0,14.27-5.64,17.55-14.58A426.65,426.65,0,0,0,3873.65,2410C3872.83,2343.08,3857,2291.12,3848.13,2267.13Z"/><path fill="#ffa63b" d="M3830.63,2252.62h-963c-4,0-6.64,5.72-4.78,10.51,6.11,15.82,17.1,48.63,23,92.47,541.65-63.29,910,31.61,987.76,54.35-.82-66.87-16.66-118.83-25.52-142.82C3844.84,2258.24,3838.06,2252.62,3830.63,2252.62Z"/><path fill="#f73" d="M3732.9 2252.62s70.73 150.2 0 324h37.35c70.73-173.84 0-324 0-324zM2949.86 2252.62s70.73 150.2 0 324h37.35c70.72-173.84 0-324 0-324z"/><rect width="845.41" height="137.83" x="2787.67" y="1936.46" fill="#edd9b7"/><rect width="62.31" height="30.93" x="2802.82" y="1936.72" fill="#edcc9a"/><path fill="#ef5816" d="M2774.65,1924.59a11.86,11.86,0,0,0,11.87,11.87h843.59a16,16,0,0,0,16-16v-16.64H2774.65Z"/><rect width="871.45" height="32.63" x="2775.46" y="2074.29" fill="#ef5816" rx="14.11"/><rect width="845.41" height="137.83" x="2865.13" y="1936.46" fill="#f4e9d5"/><path fill="#f73" d="M2852.92,1924.59a11.87,11.87,0,0,0,11.87,11.87h843.6a16,16,0,0,0,16-16v-16.64H2852.92Z"/><rect width="871.45" height="32.63" x="2852.92" y="2074.29" fill="#f73" rx="14.11"/><path fill="url(#b)" d="M3709.35,1936.72H2863.94v31c610.33-5,854.35,111.31,845.41,106.88Z"/><path fill="#edd9b7" d="M2735.68,2106.92c7.58,102.38-1.26,147.39-1.26,147.39h990.17s12.63-27,12.63-70.88-12.63-76.51-12.63-76.51Z"/><polygon fill="#edcc9a" points="2756.57 2132.41 2734.42 2168.44 2858.69 2168.44 2849.55 2132.41 2756.57 2132.41"/><path fill="#1781c9" d="M2723.26 2119.66V2124a13.87 13.87 0 0013.87 13.87H2868.5v-32.07H2737.13A13.87 13.87 0 002723.26 2119.66zM2723.26 2236.11v4.33a13.87 13.87 0 0013.87 13.87H2868.5v-32.07H2737.13A13.87 13.87 0 002723.26 2236.11z"/><path fill="#1781c9" d="M2812.84,2106.92c7.58,102.38-1.26,147.39-1.26,147.39h990.17s12.63-27,12.63-70.88-12.63-76.51-12.63-76.51Z"/><path fill="#3b95e0" d="M3817.86,2106.92H2842.37c1.1,14.85,1.85,28.49,2.33,41,2.87,73.54-3.59,106.43-3.59,106.43h977.41c8.43,0,15.9-7.09,18.73-17.69a183.77,183.77,0,0,0,3.85-18.06,217.29,217.29,0,0,0,2.81-35.13,245.64,245.64,0,0,0-7.18-58.3C3834,2114.26,3826.44,2106.92,3817.86,2106.92Z"/><path fill="url(#a)" d="M3817.86,2106.92H2842.37c1.1,14.85,1.85,28.49,2.33,41,490.9,29,910.48,54.5,996.4,70.68a217.29,217.29,0,0,0,2.81-35.13,245.64,245.64,0,0,0-7.18-58.3C3834,2114.26,3826.44,2106.92,3817.86,2106.92Z"/><g opacity=".59"><path fill="#9fd8ff" d="M3817.84 2135.06c-.09-.07-.15 0-.19 0S3817.79 2135 3817.84 2135.06zM2861.86 2135.06a8.88 8.88 0 011.71 0c.55.11 1.1.19 1.66.25-.07-1.49-.14-3-.22-4.47z"/><path fill="#9fd8ff" d="M3822.78,2131.52c-1.07-3-2.53-4.47-5-4.9a16.35,16.35,0,0,0-2.71,0H2861.86c-1.62,0-3.28,1.94-3.16,4.22,1.71,33.11,2.3,66.47,0,99.55-.16,2.28,1.56,4.22,3.15,4.22.53,0,1.07,0,1.6,0,12.37.73,24.88,0,37.26,0h917.1c-2.7-.72-3.44-6.87-.14-8.29a.73.73,0,0,0,.18-.14c-.31,0-.62,0-.93,0-12.37-.73-24.89,0-37.27,0H2865.29c-.09,1.41-.17,2.81-.27,4.22l-3.16-4.22h3.43c1.87-30.21,1.41-60.63-.06-90.86-.56-.06-1.11-.14-1.66-.25a8.88,8.88,0,0,0-1.71,0l3.15-4.22c.08,1.49.15,3,.22,4.47,3.88.41,8.1-.25,11.88-.25h926.53c3.85,0,9.1-1.26,12.86,0,.26.09.88-.2,1.1,0h.05c0-.06.1-.08.19,0s-.13,0-.19,0c-.43.6.82,6.54,1,7.47a206.82,206.82,0,0,1,4.18,39.32,185.41,185.41,0,0,1-1.41,24.62c-.28,2.21-1.91,17.93-3.57,19.7h.66c3.51,0,4,6.29,1.43,8,3-1.59,3.59-4.64,4.58-8.86a170.67,170.67,0,0,0,3.5-21,201.53,201.53,0,0,0,.32-38.91C3827.4,2154.55,3826.31,2141.49,3822.78,2131.52Z"/><path fill="#9fd8ff" d="M2865 2230.39c.1-1.41.18-2.81.27-4.22h-3.43zM3818.52 2226.17h-.66a.73.73 0 01-.18.14c-3.3 1.42-2.56 7.57.14 8.29h.7a2.85 2.85 0 00.67-.09l.17-.06c.21-.09.4-.19.59-.29C3822.51 2232.46 3822 2226.17 3818.52 2226.17z"/><path fill="#9fd8ff" d="M3817.82 2234.61a2.26 2.26 0 001.37-.09 2.85 2.85 0 01-.67.09zM3819.19 2234.52a2.29 2.29 0 00.76-.35c-.19.1-.38.2-.59.29z"/></g><path fill="#3ab1db" d="M2637.16,2279.43H1959.84a8.66,8.66,0,0,0-8.65,8.66v5.11s4.56,13,6.9,33.75c.24,2.2.45,4.52.64,6.91.45,5.56.71,11.59.69,18,0,2.13-.05,4.31-.15,6.51-.14,4.28-.45,8.7-.89,13.24-.15,1.37-.29,2.75-.48,4.14a194.54,194.54,0,0,1-6.71,32.31v2.67a8.64,8.64,0,0,0,8.65,8.64h677.32a30.1,30.1,0,0,0,30.11-30.09v-79.71A30.12,30.12,0,0,0,2637.16,2279.43Z"/><path fill="#229ac4" d="M2120.1,2279.43H1959.85a8.66,8.66,0,0,0-8.66,8.66v5.11s4.57,13,6.91,33.75c.24,2.2.45,4.52.64,6.91.45,5.56.71,11.59.68,18,0,2.13,0,4.31-.14,6.51-.14,4.28-.45,8.7-.9,13.24-.14,1.37-.28,2.75-.47,4.14a193.59,193.59,0,0,1-6.72,32.31v2.67a8.65,8.65,0,0,0,8.66,8.64H2120.1a30.1,30.1,0,0,0,30.11-30.09v-79.71A30.12,30.12,0,0,0,2120.1,2279.43Z"/><path fill="#fff" d="M2113.85,2293.2H1951.19s4.57,13,6.91,33.75c.24,2.2.45,4.52.64,6.91.45,5.56.71,11.59.68,18,0,2.13,0,4.31-.14,6.51-.14,4.28-.45,8.7-.9,13.24-.14,1.37-.28,2.75-.47,4.14a193.59,193.59,0,0,1-6.72,32.31h162.66a21.21,21.21,0,0,0,21.22-21.19v-72.42A21.23,21.23,0,0,0,2113.85,2293.2Z"/><path fill="#dff1f7" d="M1958.74 2333.86H2098.1s-110.51-4.5-140-6.91C1958.34 2329.15 1958.55 2331.47 1958.74 2333.86zM1959.42 2351.83c0 2.13 0 4.31-.14 6.51h148.63s-139.9-5.7-146.92-7.74zM1957.91 2375.72h92.79s-50.48-2.06-92.32-4.14C1958.24 2373 1958.1 2374.33 1957.91 2375.72z"/><path fill="#51cced" d="M2213.1 2279.43c14.69 48.54 6.15 109.63.26 139.91h26.3c15.85-72.38 6.13-119.66-.28-139.91zM2262.46 2279.43c14.69 48.54 6.15 109.63.26 139.91H2289c15.85-72.38 6.13-119.66-.28-139.91z"/><path fill="#44c0e2" d="M2637.16,2279.43H2333.62c31,29.73,76.61,56.58,130.61,74.2,80.28,26.18,157.65,24.95,203,1.16v-45.25A30.12,30.12,0,0,0,2637.16,2279.43Z"/><path fill="#3ab1db" d="M1780.47,2399H1103.15c-16.63,0-30.11,17.25-30.11,38.53v102c0,21.27,13.48,38.49,30.11,38.49h677.32c4.77,0,8.65-4.93,8.65-11v-3.42a310.88,310.88,0,0,1-6.71-41.34c-.19-1.79-.34-3.55-.48-5.3-.45-5.81-.75-11.47-.9-17-.09-2.81-.11-5.6-.14-8.32,0-8.17.24-15.89.69-23,.19-3.06.4-6,.64-8.84,2.34-26.51,6.9-43.18,6.9-43.18v-6.54C1789.12,2404,1785.24,2399,1780.47,2399Z"/><path fill="#229ac4" d="M1780.46,2399H1620.21c-16.63,0-30.11,17.25-30.11,38.53v102c0,21.27,13.48,38.49,30.11,38.49h160.25c4.78,0,8.66-4.93,8.66-11v-3.42a309.33,309.33,0,0,1-6.72-41.34c-.19-1.79-.33-3.55-.48-5.3-.44-5.81-.75-11.47-.89-17-.1-2.81-.12-5.6-.15-8.32,0-8.17.24-15.89.69-23,.19-3.06.4-6,.64-8.84,2.34-26.51,6.91-43.18,6.91-43.18v-6.54C1789.12,2404,1785.24,2399,1780.46,2399Z"/><path fill="#fff" d="M1782.21,2459.81c2.34-26.51,6.91-43.18,6.91-43.18H1626.46c-11.71,0-21.22,12.16-21.22,27.14v92.67c0,15,9.51,27.12,21.22,27.12h162.66a309.33,309.33,0,0,1-6.72-41.34c-.19-1.79-.33-3.55-.48-5.3-.44-5.81-.75-11.47-.89-17-.1-2.81-.12-5.6-.15-8.32,0-8.17.24-15.89.69-23C1781.76,2465.59,1782,2462.63,1782.21,2459.81Z"/><path fill="#dff1f7" d="M1781.57 2468.65c.19-3.06.4-6 .64-8.84-29.5 3.09-140 8.84-140 8.84zM1779.32 2490.08c-7 2.6-146.93 9.89-146.93 9.89H1781c-.1-2.81-.12-5.6-.15-8.32zM1689.61 2522.22h92.79c-.19-1.79-.33-3.55-.48-5.3C1740.08 2519.58 1689.61 2522.22 1689.61 2522.22z"/><path fill="#51cced" d="M1500.93 2399c-6.41 25.91-16.13 86.41-.28 179H1527c-5.89-38.74-14.43-116.91.26-179zM1451.57 2399c-6.41 25.91-16.13 86.41-.28 179h26.3c-5.89-38.74-14.43-116.91.26-179z"/><path fill="#44c0e2" d="M1073,2437.54v57.89c45.39,30.45,122.76,32,203-1.48,54-22.55,99.64-56.9,130.61-94.94H1103.15C1086.52,2399,1073,2416.26,1073,2437.54Z"/><path fill="#e02f2f" d="M2676.23,2419.34h-816a9.28,9.28,0,0,0-6.7,2.86,9.89,9.89,0,0,0-2.79,6.88v5.75s5,14.64,7.57,37.94c.26,2.48.47,5.08.69,7.78.49,6.24.78,13,.75,20.2,0,2.39,0,4.85-.16,7.31q-.22,7.23-1,14.9c-.17,1.54-.31,3.1-.52,4.66a226.23,226.23,0,0,1-7.36,36.33v3a9.4,9.4,0,0,0,.43,2.89,9.57,9.57,0,0,0,9.06,6.81h815.4a22.66,22.66,0,0,0,20.77-13.36,171.59,171.59,0,0,0,8.49-23.56,156.3,156.3,0,0,0-7.9-107.08A22.81,22.81,0,0,0,2676.23,2419.34Z"/><path fill="#ff7171" d="M2124,2419.35H1860.23a9.61,9.61,0,0,0-9.48,9.73v5.75s5,14.65,7.56,38c.26,2.47.49,5.08.7,7.76.49,6.25.78,13,.75,20.22,0,2.39,0,4.84-.15,7.31-.16,4.81-.5,9.79-1,14.89-.15,1.54-.31,3.09-.52,4.66a223.47,223.47,0,0,1-7.35,36.32v3a9.6,9.6,0,0,0,9.48,9.71H2124c18.2,0,32.95-15.14,32.95-33.83V2453.2C2157,2434.51,2142.2,2419.35,2124,2419.35Z"/><path fill="#fff" d="M2117.17,2434.83H1850.75s5,14.65,7.56,38c.26,2.47.49,5.08.7,7.76.49,6.25.78,13,.75,20.22,0,2.39,0,4.84-.15,7.31-.16,4.81-.5,9.79-1,14.89-.15,1.54-.31,3.09-.52,4.66a223.47,223.47,0,0,1-7.35,36.32h266.42c12.81,0,23.22-10.66,23.22-23.82v-81.44C2140.39,2445.52,2130,2434.83,2117.17,2434.83Z"/><path fill="#dff1f7" d="M1859 2480.54h240.92s-209.34-5.05-241.62-7.76C1858.57 2475.25 1858.8 2477.86 1859 2480.54zM1859.76 2500.76c0 2.39 0 4.84-.15 7.31h251.06s-241.51-6.41-249.2-8.7zM1858.1 2527.62h190s-143.65-2.32-189.44-4.66C1858.47 2524.5 1858.31 2526.05 1858.1 2527.62z"/><path fill="#ff7171" d="M2225.78 2419.35c16.07 54.57 6.73 123.27.28 157.31h28.79c17.34-81.38 6.7-134.55-.31-157.31zM2279.8 2419.35c16.07 54.57 6.73 123.27.28 157.31h28.79c17.34-81.38 6.7-134.55-.31-157.31z"/><path fill="#ed4747" d="M2676.23,2419.34H2311.06c25,40.33,116.7,84.3,231,107.07,60.27,12,117,16.13,162.83,13.32a156.3,156.3,0,0,0-7.9-107.08A22.81,22.81,0,0,0,2676.23,2419.34Z"/><path fill="#edd9b7" d="M2659.17,2112.17H2014.84s-8.23,25.37-8.23,59.49,8.23,55.12,8.23,55.12H2660S2654.23,2191.78,2659.17,2112.17Z"/><polygon fill="#edcc9a" points="2584.97 2132 2579.02 2160.01 2659.99 2160.01 2645.56 2132 2584.97 2132"/><path fill="#1781c9" d="M2657.42 2111.3h-84.79v24.93h84.79a9.85 9.85 0 009.85-9.85v-5.23A9.85 9.85 0 002657.42 2111.3zM2657.42 2201.85h-84.79v24.93h84.79a9.85 9.85 0 009.85-9.85v-5.23A9.84 9.84 0 002657.42 2201.85z"/><path fill="#1781c9" d="M2608.9,2112.17H1964.56s-8.23,25.37-8.23,59.49,8.23,55.12,8.23,55.12h645.16S2604,2191.78,2608.9,2112.17Z"/><path fill="#3b95e0" d="M2588.14,2144q.46-14.55,1.52-31.85h-635.6c-5.59,0-10.53,5.71-12.29,14.16a226.11,226.11,0,0,0-4.68,45.32,201.16,201.16,0,0,0,1.83,27.32c.74,5.41,1.63,10.12,2.51,14.05,1.84,8.24,6.71,13.75,12.2,13.75h636.85S2586.27,2201.2,2588.14,2144Z"/><path fill="url(#c)" d="M1941.77,2126.34a226.11,226.11,0,0,0-4.68,45.32,201.16,201.16,0,0,0,1.83,27.32c56-12.58,329.36-32.37,649.22-54.95q.46-14.55,1.52-31.85h-635.6C1948.47,2112.18,1943.53,2117.89,1941.77,2126.34Z"/><g opacity=".59"><path fill="#9fd8ff" d="M2577 2134.06l-2.06-3.28c-.05 1.15-.09 2.31-.13 3.47.36-.05.72-.11 1.07-.19A4.66 4.66 0 012577 2134.06zM2577 2204.9h-2.21c.05 1.09.09 2.19.16 3.28zM1954.08 2134.06s.08 0 .12 0S1954.13 2134 1954.08 2134.06zM1954.18 2205a.4.4 0 01-.12-.11h-.43c-2.24 0-2.58 4.7-1 6.14a4.22 4.22 0 00.47.3 1 1 0 00.16.06 1.59 1.59 0 00.38.06h.43C1955.84 2211 1956.34 2206.13 1954.18 2205z"/><path fill="#9fd8ff" d="M1952.62,2211a1.42,1.42,0,0,0,.63.36,1,1,0,0,1-.16-.06A4.22,4.22,0,0,1,1952.62,2211Z"/><path fill="#9fd8ff" d="M2577 2127.5H1955.9a8.72 8.72 0 00-1.77 0c-1.62.33-2.58 1.45-3.27 3.81-2.3 7.75-3 17.9-3.63 26.3a187.55 187.55 0 00.21 30.26 156.31 156.31 0 002.28 16.36c.63 3.22 1.06 5.55 2.9 6.81-1.57-1.44-1.23-6.14 1-6.14h.43c-1.08-1.38-2.14-13.6-2.32-15.32a171.85 171.85 0 01-.92-19.15 191.11 191.11 0 012.72-30.57c.13-.73 1-5.41.66-5.81 0 0-.09 0-.12 0s.09 0 .12 0 0 0 0 0 .54.06.71 0c2.45-1 5.87 0 8.38 0H2567c2.47 0 5.22.51 7.75.19 0-1.16.08-2.32.13-3.47l2.06 3.28a4.66 4.66 0 00-1.12 0c-.35.08-.71.14-1.07.19-1 23.51-1.25 47.16 0 70.65H2577l-2 3.28c-.07-1.09-.11-2.19-.16-3.28H1979c-8.06 0-16.22-.57-24.28 0h-.61a.4.4 0 00.12.11c2.16 1.11 1.66 5.93-.12 6.44h597.58c8.06 0 16.22.57 24.28 0 .34 0 .69 0 1 0 1 0 2.16-1.51 2.06-3.28-1.49-25.72-1.1-51.66 0-77.4C2579.09 2129 2578 2127.5 2577 2127.5zM1953.25 2211.4a1.28 1.28 0 00.81.06h-.43A1.59 1.59 0 011953.25 2211.4z"/></g><path fill="#859b29" d="M1926.78,2233.65v.1a46.1,46.1,0,0,1,0,37.86,7.81,7.81,0,0,0,7.82,7.82h534.29v-52.65H1933.65A6.87,6.87,0,0,0,1926.78,2233.65Z"/><rect width="542.11" height="52.65" x="2114.08" y="2226.78" fill="#a0b647"/><path fill="#b5c64f" d="M2434.82,2266.31c91,0,171.64-9.27,221.37-23.55v-16h-481.7C2210,2249.73,2313.13,2266.31,2434.82,2266.31Z"/><path fill="#fff" d="M2103.82,2233.75h-177a42.85,42.85,0,0,1,3.55,12.15,7.48,7.48,0,0,1,.12.88,44.57,44.57,0,0,1,.13,11.08c-.07.57-.13,1.16-.22,1.76a44.12,44.12,0,0,1-3.58,12h177a3,3,0,0,0,3-3v-32A3,3,0,0,0,2103.82,2233.75Z"/><path fill="#dff1f7" d="M1930.33 2245.9a7.48 7.48 0 01.12.88c26.62 4.27 144.2 1.1 144.2 1.1C1979.49 2242.35 1940.25 2245 1930.33 2245.9zM1930.58 2257.86c-.07.57-.13 1.16-.22 1.76 32.65 3.48 140.18.53 140.18.53C1985.77 2255.22 1945.4 2256.79 1930.58 2257.86z"/><path fill="#859b29" d="M2114.09,2279.44c8.22-30.76,0-52.67,0-52.67Z"/><path fill="#ffdc48" d="M2994.18,1533.18a150.59,150.59,0,0,0,82.57,109.06l45.62,22.13c0,125.11-48.66,201.58-48.66,201.58h166.84s-48.66-76.47-48.66-201.58l45.62-22.13a150.6,150.6,0,0,0,82.56-109.06l38.64-216.39H2955.54Z"/><path fill="#ffc145" d="M2994.18,1533.18a150.59,150.59,0,0,0,82.57,109.06l45.62,22.13c0,125.11-48.66,201.58-48.66,201.58h126.78s-40.86-76.47-40.86-201.58l37.82-22.13A150.59,150.59,0,0,0,3280,1533.18l38.64-216.39H2955.54Z"/><path fill="#e88f00" d="M3277.07,1848.44a27.11,27.11,0,0,0-7.08-.93H3046.5a27.45,27.45,0,0,0-27.45,27.45,27.39,27.39,0,0,0,27.45,27.44H3270a27.44,27.44,0,0,0,7.08-54Z"/><path fill="#f4a20f" d="M3270,1847.51H3046.5a27.45,27.45,0,0,0-27.45,27.45,27.69,27.69,0,0,0,.33,4.29,26.78,26.78,0,0,0,7.09.94H3250a27.45,27.45,0,0,0,27.45-27.45,26.63,26.63,0,0,0-.34-4.3A27.11,27.11,0,0,0,3270,1847.51Z"/><path fill="#e28b00" d="M3359.69,1289.34H2942.94a27.45,27.45,0,0,0,0,54.9h416.75a27.45,27.45,0,0,0,0-54.9Z"/><path fill="#f4a20f" d="M2923.53 1297.38a27.36 27.36 0 00-8 19.41h397.68a27.45 27.45 0 0027.46-27.45H2942.94A27.36 27.36 0 002923.53 1297.38zM2889.35 1449.6v-.16c0-.1 0-.21-.05-.31C2888.94 1447.19 2889.53 1451.56 2889.35 1449.6zM2889.19 1433.05c-.08.73-.05.66 0 .25C2889.28 1432.46 2889.32 1431.89 2889.19 1433.05zM2893.12 1418.52l.26-.72C2892.74 1419.46 2892.81 1419.24 2893.12 1418.52zM2898.73 1408.78c1.27-2-1.27 1.35 0 0zM2956.4 1525.27l-1.13-.41C2956.22 1525.23 2956.5 1525.33 2956.4 1525.27zM2894.56 1468.15c-.11-.26-.24-.51-.36-.77C2894.57 1468.22 2894.64 1468.36 2894.56 1468.15zM2944.25 1391.41c1.44.13-2.22-.47 0 0zM2988.59 1576.4c-.5-.69-.35-.46-.08-.05C2988.64 1576.49 2988.68 1576.53 2988.59 1576.4zM2979.08 1567.11c-.68-.53-.36-.28.09.09C2979.42 1567.38 2979.49 1567.42 2979.08 1567.11zM2905.85 1401.6c1.33-1.26-1.42.73 0 0zM2991.58 1581.54v0l.12.23C2991.66 1581.72 2991.62 1581.63 2991.58 1581.54z"/><path fill="#f4a20f" d="M2968.6 1530.31c-3.81-1.71-7.66-3.34-11.57-4.81l-.63-.23c.1.06-.18 0-1.13-.41l1.13.41c-.16-.09-1.16-.55-2.11-1q-3.16-1.52-6.26-3.15c-13.4-7.08-24.16-14.53-34.44-25.06-2.19-2.25-4.3-4.58-6.3-7a46.87 46.87 0 01-4.44-6 98.68 98.68 0 01-8.29-14.91c.08.21 0 .07-.36-.77.12.26.25.51.36.77-.13-.36-.72-1.79-.91-2.31-.45-1.22-.88-2.45-1.28-3.68-.83-2.58-1.53-5.2-2.12-7.85-.26-1.2-.48-2.42-.71-3.63-.08-.41-.14-.83-.2-1.24v.16c.18 2-.41-2.41-.06-.47 0 .1 0 .21.05.31-.23-2.48-.45-4.94-.49-7.43 0-2.3 0-4.6.19-6.89 0-.25.1-1.13.16-1.82-.06.41-.09.48 0-.25.13-1.16.09-.59 0 .25.11-.67.33-2.24.42-2.7a72.29 72.29 0 013.5-12.08c-.31.72-.38.94.26-.72l-.26.72c.15-.34.35-.78.55-1.19.47-.92.93-1.85 1.43-2.75 1.05-1.91 2.29-3.68 3.46-5.52l.17-.28c-1.27 1.35 1.27-2 0 0a.6.6 0 00.08-.08c.67-.72 1.28-1.51 2-2.24a62.59 62.59 0 014.55-4.37c.24-.21.41-.36.54-.49-1.42.73 1.33-1.26 0 0l.4-.22c1.54-.87 3-2 4.52-2.84a56.32 56.32 0 0113-5.58 43.18 43.18 0 0111.27-1.9 63.77 63.77 0 016.77.11c.71 0 1.43.12 2.14.2l.34 0c-2.22-.47 1.44.13 0 0l.89.17a70.39 70.39 0 019.58 2.54c1 .33 3.63 1.47 2.51.94l-.76-.35.76.35c.85.39 1.7.78 2.54 1.21a43.89 43.89 0 016.62 4c5.77 4.33 14.94.92 18.28-4.8 4-6.83 1-13.93-4.79-18.28-21.52-16.16-52.7-15.83-76.18-5a70.78 70.78 0 00-39.94 51.82c-10.37 56.75 34.41 107.32 84.69 126.77 1.12.43 2.25.82 3.36 1.26.81.32 1.61.68 2.42 1-4-1.53-.15 0 .88.41a143.07 143.07 0 0116.4 8.62c1.35.83 2.69 1.7 4 2.59.67.45 1.33.91 2 1.38 0 0 1.17.87 1.66 1.22-.45-.37-.77-.62-.09-.09.41.31.34.27.09.09l.94.76c.77.65 1.54 1.3 2.29 2q1.77 1.61 3.44 3.34c.54.58 2.21 2.55 2.67 3.07-.27-.41-.42-.64.08.05.09.13 0 .09-.08-.05.25.37.61.89.7 1 .5.81 1 1.6 1.48 2.43.32.58.61 1.17.9 1.76v0c-.36-.8-.28-1 0 0 0 .09.08.18.13.27l-.12-.23a.65.65 0 010 .13 53.86 53.86 0 011.3 5.37c1.13 7.13 10 11.09 16.44 9.33 7.6-2.09 10.46-9.28 9.33-16.44C3014.85 1555.62 2989.25 1539.59 2968.6 1530.31zM2957.23 1395.06l-.76-.35zM3425.61 1449.13c0 .1 0 .21-.05.31s0 .11 0 .16C3425.37 1451.56 3426 1447.19 3425.61 1449.13zM3416.16 1408.78c1.27 1.35-1.27-2 0 0zM3425.7 1433.05c-.13-1.16-.08-.59 0 .25C3425.76 1433.71 3425.78 1433.78 3425.7 1433.05zM3357.66 1395.06l.77-.35zM3370.64 1391.41c2.22-.47-1.43.13 0 0zM3409 1401.6c1.42.73-1.33-1.26 0 0zM3421.51 1417.8l.26.72C3422.09 1419.24 3422.15 1419.46 3421.51 1417.8zM3326.3 1576.4c-.09.13-.05.09.08-.05C3326.66 1575.94 3326.8 1575.71 3326.3 1576.4zM3335.81 1567.11c-.4.31-.34.27-.09.09C3336.18 1566.83 3336.49 1566.58 3335.81 1567.11z"/><path fill="#f4a20f" d="M3411.2,1372.14c-23.48-10.82-54.67-11.15-76.19,5-5.78,4.35-8.79,11.45-4.79,18.28,3.35,5.72,12.51,9.13,18.28,4.8a44,44,0,0,1,6.63-4c.83-.43,1.68-.82,2.53-1.21l.77-.35-.77.35c-1.12.53,1.56-.61,2.51-.94a70.14,70.14,0,0,1,9.59-2.54l.88-.17c-1.43.13,2.22-.47,0,0l.34,0c.72-.08,1.43-.15,2.15-.2a63.68,63.68,0,0,1,6.77-.11,43.11,43.11,0,0,1,11.26,1.9,56.32,56.32,0,0,1,13,5.58c1.54.89,3,2,4.52,2.84l.4.22c-1.33-1.26,1.42.73,0,0l.54.49a62.59,62.59,0,0,1,4.55,4.37c.67.73,1.28,1.52,1.95,2.24l.08.08c-1.27-2,1.27,1.35,0,0l.17.28c1.17,1.84,2.41,3.61,3.47,5.52.5.9.95,1.83,1.42,2.75.21.41.41.85.55,1.19l-.26-.72c.64,1.66.58,1.44.26.72a72.29,72.29,0,0,1,3.5,12.08c.09.46.31,2,.42,2.7-.07-.84-.12-1.41,0-.25.08.73.06.66,0,.25.06.69.15,1.57.16,1.82q.26,3.44.2,6.89c-.05,2.49-.27,5-.49,7.43,0-.1,0-.21.05-.31.34-1.94-.24,2.43-.07.47,0,0,0-.11,0-.16-.07.41-.13.83-.21,1.24-.23,1.21-.45,2.43-.71,3.63q-.87,4-2.12,7.85c-.4,1.23-.82,2.46-1.27,3.68-.2.52-.78,1.94-.92,2.31.12-.26.25-.51.36-.77-.37.84-.44,1-.36.77a99.51,99.51,0,0,1-8.28,14.91,47.83,47.83,0,0,1-4.44,6q-3,3.63-6.31,7c-10.28,10.53-21,18-34.43,25.06q-3.1,1.64-6.27,3.15c-.95.46-1.95.92-2.1,1l1.12-.41a5.84,5.84,0,0,1-1.12.41l-.64.23c-3.9,1.47-7.76,3.1-11.56,4.81-20.65,9.28-46.26,25.31-50.11,49.66-1.13,7.16,1.73,14.35,9.34,16.44,6.4,1.76,15.31-2.2,16.43-9.33.3-1.87.83-3.56,1.3-5.37a.65.65,0,0,0,0-.13l-.12.23c.05-.09.09-.18.13-.27.28-1,.37-.8,0,0v0c.3-.59.59-1.18.91-1.76.46-.83,1-1.62,1.47-2.43.09-.15.45-.67.7-1-.13.14-.17.18-.08.05.5-.69.36-.46.08-.05.47-.52,2.13-2.49,2.68-3.07q1.65-1.74,3.44-3.34c.75-.68,1.52-1.33,2.29-2,.11-.1.57-.47.93-.76-.25.18-.31.22.09-.09.68-.53.37-.28-.09.09.49-.35,1.7-1.25,1.66-1.22.66-.47,1.32-.93,2-1.38,1.32-.89,2.66-1.76,4-2.59a142.93,142.93,0,0,1,16.39-8.62c1-.46,4.89-1.94.88-.41.82-.31,1.61-.67,2.42-1,1.12-.44,2.25-.83,3.36-1.26,50.29-19.45,95.06-70,84.69-126.77A70.8,70.8,0,0,0,3411.2,1372.14Z"/><path fill="#f4a20f" d="M3359.62 1524.86l-1.12.41A5.84 5.84 0 003359.62 1524.86zM3323.18 1581.81l.12-.23v0C3323.27 1581.63 3323.23 1581.72 3323.18 1581.81zM3420.69 1467.38c-.11.26-.24.51-.36.77S3420.32 1468.22 3420.69 1467.38z"/><rect width="320.58" height="320.58" x="1194.81" y="480.86" fill="#d31c1c" rx="53.74"/><path fill="#ed4747" d="M1504.28,480.84H1291.16a16.29,16.29,0,0,0-1.71.06h-.06a48,48,0,0,0-9.27,1.12,52.24,52.24,0,0,0-13.1,4.54,53.72,53.72,0,0,0-29.63,48V747.72a53.77,53.77,0,0,0,53.77,53.71H1505a53.76,53.76,0,0,0,53-53.71V534.6A53.76,53.76,0,0,0,1504.28,480.84Z"/><polygon fill="#f46262" points="1289.41 480.86 1457.5 801.44 1505.01 801.44 1336.92 480.86 1289.41 480.86"/><polygon fill="#f46262" points="1237.39 607.38 1339.14 801.43 1370.71 801.43 1237.39 547.12 1237.39 607.38"/><path fill="#f46262" d="M1383.76 480.84l159.35 304A53.5 53.5 0 001558 747.72v-25.2L1431.27 480.84zM1267 486.56L1432.1 801.43h15.52L1280.12 482A52.24 52.24 0 001267 486.56z"/><path fill="#ffc05a" d="M1395.29,517.43a87.54,87.54,0,0,0-70.17,139.86l0,0,54.3,75.28h31.67l2.25-3.09,15.23-21.14,36.81-51,0,0a87.53,87.53,0,0,0-70.17-139.86Z"/><path fill="#f4aa40" d="M1400.64,706.77c-11.78-2.21-61.05-53.7-67-111.13-5.35-51,61.69-78.21,61.69-78.21a87.54,87.54,0,0,0-70.17,139.86l0,0,54.3,75.28h7.27l26.65-3.09,15.23-21.14C1422.34,708.5,1409.32,708.42,1400.64,706.77Z"/><path fill="#fff" d="M1410.89,652.26a.53.53,0,0,0,.24-.29,1.75,1.75,0,0,1-.16.19Z"/><path fill="#fff" d="M1418.73,639.82a16.17,16.17,0,0,0-15,5.83c-3.57,4.42-4.94,9.75-5.48,15.29a1.46,1.46,0,0,0-.07.19h-8.62a1.46,1.46,0,0,0-.07-.19c-.59-6-2.15-12.23-6.62-16.54-3.92-3.79-9.94-6-15.31-4.23a16.23,16.23,0,0,0-7.85,5.66,15.66,15.66,0,0,0-2.74,8c-.56,5.83,3.68,11.26,8.48,14.1,4.48,2.66,9.66,3,14.72,2.53v45.32c0,6.28,9.76,6.27,9.76,0V670.89h7.88v44.86c0,6.28,9.75,6.27,9.75,0V670.42c5.63.48,11.44,0,16.13-3.46a19.27,19.27,0,0,0,5.47-6.07,13.58,13.58,0,0,0,1.22-9.73A14.92,14.92,0,0,0,1418.73,639.82Zm-40.39,15a2.24,2.24,0,0,1-.12-.27A1,1,0,0,1,1378.34,654.84Zm-11.54.82c0,.11.1.21.09.2S1366.83,655.76,1366.8,655.66Zm7.94,5.16h-.3a3.36,3.36,0,0,1-.78-.14,13.72,13.72,0,0,1-1.56-.4l-.7-.24c-.43-.25-.88-.46-1.31-.73-.21-.13-.41-.27-.61-.41l-.79-.7c-.32-.32-.61-.66-.91-1l-.07-.07-.18-.3c-.25-.37-.46-.77-.68-1.16-.06-.1-.06-.09-.09-.15s-.08-.33-.09-.39v0c0-.22,0-.55,0-.55s0-.23,0-.38,0-.14,0-.26c.1-.45.19-.9.33-1.34,0,0,0-.18.1-.33l.06-.07a8.52,8.52,0,0,0,.64-1c.11-.11.21-.22.32-.32s.33-.3.51-.44l.11-.07c.43-.25.84-.51,1.28-.76l-.08,0,.1,0h0c.48-.26.25-.1.06,0l.31-.1.5-.12c.41,0,.82,0,1.23,0-.14,0-.26,0-.25,0l.25,0h.06c.52,0,.21,0-.06,0l.39.08c.37.1.73.23,1.09.34l.25.12a15,15,0,0,1,1.45.87l0,0,.18.17a10.87,10.87,0,0,1,1,1s0,0,0,.06,0-.07.18.19l0,0s.07.09.08.09l-.05,0a26.23,26.23,0,0,1,1.5,2.63s0,0,0,0,.09.28.11.34c.16.46.31.94.45,1.41a27.43,27.43,0,0,1,.65,2.93c0,.17.07.39.1.59s0,.34,0,.5A30.79,30.79,0,0,1,1374.74,660.82Zm45.94-8.34-.14-.39A.67.67,0,0,1,1420.68,652.48Zm.39,2.75c0,.1-.07.21-.08.27s0,0,0,0c-.08.18-.22.42-.23.44-.19.34-.4.68-.62,1l-.14.21v0a16.72,16.72,0,0,1-1.16,1.22l-.63.52-.67.45c-.34.21-.69.38-1,.57l-.09.06-.56.19a14,14,0,0,1-1.54.42l-.59.12-.23,0a11.83,11.83,0,0,1-1.27.07,35.19,35.19,0,0,1-4.23-.16c0-.16,0-.3,0-.44,0,0,.06-.09.12-.47s.09-.5.13-.74A26.83,26.83,0,0,1,1409,656c.11-.35.24-.7.36-1.05s.08-.29,0-.28c.16-.34.45-.76.53-.91.27-.49.56-1,.87-1.42l0,0,0,0s.07-.08.12-.13.17-.21.16-.19.14-.17.17-.19c.34-.37.71-.68,1.07-1l.27-.19a10.35,10.35,0,0,1,1.16-.68l.23-.13.15,0,1.29-.36h0l.29,0c.31,0,.71,0,1,0l.58.16a.5.5,0,0,0,.18,0l.36.21a5.85,5.85,0,0,1,1.2.75h0c.17.16.35.3.51.47s.23.26.35.37h0c.14.19.31.43.46.67,0,.06,0,.12.06.23s.15.43.21.65c.11.39.17.79.26,1.18,0,.22,0,.44,0,.66S1421.08,655.07,1421.07,655.23Zm0-.09.06-.38A1,1,0,0,1,1421.1,655.14Z"/><path fill="#fff" d="M1376.62,652a.67.67,0,0,0,.23.28l0,0Z"/><polygon fill="#fff" points="1372.22 649.35 1372.22 649.35 1372.22 649.35 1372.22 649.35"/><path fill="#fff" d="M1370.09,649.6l.09,0-.07,0Z"/><rect width="69.2" height="25.4" x="1360.69" y="714.04" fill="#bfbfbf" rx="1.27"/><rect width="69.2" height="25.4" x="1360.69" y="739.44" fill="#cecece" rx="1.27"/><polygon fill="#afaeae" points="1360.69 724.91 1422.49 720.54 1360.69 720.54 1360.69 724.91"/><polygon fill="#afaeae" points="1360.69 734.8 1422.49 730.42 1360.69 730.42 1360.69 734.8"/><polygon fill="#afaeae" points="1429.89 749.38 1429.89 745.01 1368.1 745.01 1429.89 749.38"/><polygon fill="#afaeae" points="1429.89 759.27 1429.89 754.9 1368.1 754.9 1429.89 759.27"/><path fill="#ffcc83" d="M1449.44 561.1c-15.59-3.12-.64 18.69 3.79 33 4.9 15.82.89 34.31 6.9 33s11.74-13 7.8-34.08C1463.25 568 1449.44 561.1 1449.44 561.1zM1456.12 633.54c-4.9 2.23-13.82 22.26-11.16 24.73 3.59 3.34 13.39-5.13 16.73-22.28C1461.69 636 1461 631.31 1456.12 633.54z"/><path fill="#1f1e2b" d="M1459.43,2044.27s81.24,21.72,132.88-12.61l14.37-200.17-123.86,46Z"/><path fill="#ffaa85" d="M1872.65,1725.34l-13.88-.25a33.24,33.24,0,0,0-9,1.07l-10.87,2.82-6.2-.85-40.88,34,24.13-3L1874,1734.7a3.13,3.13,0,0,0,1.91-3.06l-.18-3.33A3.14,3.14,0,0,0,1872.65,1725.34Z"/><polygon fill="#ffba94" points="1722.93 1768.63 1791.78 1762.16 1791.78 1726.48 1730 1716.05 1722.93 1768.63"/><path fill="#ffba94" d="M1887.05,1689.67l-58.64,10a8.74,8.74,0,0,0-3.87,1.68l-32.76,25.18-7,8.79,7,26.88,31.2-15.7,18.43-20.29a24.2,24.2,0,0,1,12.45-7.3l14.69-3.39,12.45-6.73a4.23,4.23,0,0,0,2.2-3.37l.4-4.79,5.51-2.24a3.61,3.61,0,0,0,2.26-3.55l-.09-1.76A3.63,3.63,0,0,0,1887.05,1689.67Z"/><path fill="#4e1413" d="M1776.26,2364l-39.49-9.76a31.76,31.76,0,0,1-12-5.84l-39.45-30.93-8.56-21.82-64.73,3.8,5.46,85.11a17.79,17.79,0,0,0,19.83,16.53l134.86-15.82a9,9,0,0,0,7.43-12.1Z"/><path fill="#934869" d="M1567,1876.25c-48.68-1.29-78.46,96.6-84.52,118.59-.77,2.78-1.16,4.35-1.16,4.35s76.24,120.19,80.93,146.83c3.36,19,21.71,97.39,31.92,140.64,4.09,17.31,6.88,29,6.88,29l81.84-12.2s-17.14-173.61-19.52-231.7S1567,1876.25,1567,1876.25Z"/><path fill="#7c3959" d="M1556.54,1893.57l-74.09,101.27c-.77,2.78-1.16,4.35-1.16,4.35s76.24,120.19,80.93,146.83c3.36,19,21.71,97.39,31.92,140.64l6.88,9s13.22-150.06-3.89-232.68S1556.54,1893.57,1556.54,1893.57Z"/><path fill="#4e1413" d="M1312.25,2370.16l-25.61-17.45-21.73-68.42,8-11.86-68-35.63-39,51.52a12.68,12.68,0,0,0,.51,15.92l64.69,75,85.43,15.31,1.77-9.85A14.5,14.5,0,0,0,1312.25,2370.16Z"/><path fill="#934869" d="M1402.88,1905.4l-22.8,0-2,3.77-78.84,145.28-108.15,166c15.2,24.07,45.8,38.67,69.18,46.74a228,228,0,0,0,30.86,8.45l186.61-183.3,61.52-161.53s0,0,0,0l0,0v0l9.71-25.49h-6.66Z"/><path fill="#7c3959" d="M1378,1909.2l-78.84,145.28-108.15,166c15.2,24.07,45.8,38.67,69.18,46.74,46.88-37.19,178.48-164.76,178.48-164.76,31-58.19,98.41-168.19,100.51-171.62,0,0,0,0,0,0l0,0v0l3-25.48-139.43.12Z"/><path fill="#1c1b28" d="M1410.48,1666.62c-23,72.16,39.16,106.65,39.16,106.65l147-253.33S1433.44,1594.47,1410.48,1666.62Z"/><polygon fill="#ffb38d" points="1630.73 1501.24 1658.44 1543.43 1683.2 1501.24 1645.16 1491.63 1630.73 1501.24"/><path fill="#ffba94" d="M1712.06,1436.78l-9-19,4.64-4.91c-40-20.31-64.51,2.11-73.64,27.13a66.22,66.22,0,0,0-4,20.48,41.79,41.79,0,0,0,1.26,12.11c4.21,15.38,12.16,22.75,18.64,26.29a30.13,30.13,0,0,0,5.3,2.27,20.42,20.42,0,0,0,4.88,1s29.21,19.11,50.49,10.94a14.41,14.41,0,0,0,2.71-1.39s.06,0,.08-.06c4.95-3.34,7.24-9.66,8-16.93.2-2.08.29-4.21.29-6.39-.07-16.54-5.76-34.93-5.76-34.93Z"/><path fill="#352d29" d="M1651.83,1481.63l-1.78-.23-11.69-1.52,3.25,26.74.11,0c1.38.72,16.53,8.09,22.52,1.18l0,0c6.14-7.29-9.53-25.77-9.53-25.77Z"/><path fill="#352d29" d="M1653.63,1397a30.06,30.06,0,0,0-14.18,12.3s-33.38,6.09-32.84,47.56c.45,34.19,26.05,46.53,35,49.78,0,0,.1,0,.12,0a29.83,29.83,0,0,0,3,.95l-1-20.87,0-.75a54.94,54.94,0,0,0,8.24-4.35c19.26-12.45,21.86-32.79,22.71-43.65-8.18.42-6.75-4-6.75-4l8-11,7.45.61-1.88-3Z"/><path fill="#ffba94" d="M1713.7,1467.61a4.25,4.25,0,0,0-3.72-.25l4.73,5.34S1716.2,1469.35,1713.7,1467.61Z"/><path fill="#fca286" d="M1682.76,1457c-7,4.84-8.37,15-3.06,22.68s15.29,10,22.29,5.16,8.38-15,3.07-22.68S1689.77,1452.19,1682.76,1457Z"/><path fill="#352d29" d="M1707.2,1452.83c-1.68.48-2.56,2.58-2,4.7s2.45,3.45,4.13,3,2.55-2.58,1.95-4.7S1708.88,1452.35,1707.2,1452.83Z"/><path fill="#ffba94" d="M1648.23,1462.07c-7.64,7.75.15,23,10.75,26.89s14.23-7.56,14.23-7.56l-7.49-17.38S1655.87,1454.32,1648.23,1462.07Z"/><path fill="#ff806d" d="M1652.38,1469.17a1.51,1.51,0,0,0,.77,1.89l7.95,3.73-1.73,4.6a1.53,1.53,0,0,0,.78,1.89,1.34,1.34,0,0,0,1.11,0,1.32,1.32,0,0,0,.65-.72l2.7-7.19-10.48-4.91A1.26,1.26,0,0,0,1652.38,1469.17Z"/><path fill="#ffba94" d="M1714.65,1456.72l6.32,20.84,5.58-4.65a1.52,1.52,0,0,0,.37-2.13Z"/><path fill="#1c1b1a" d="M1709.05,1442.53c-1.23-.73-3.86-1-6.78,0s-4.66,3-5.08,4.4.2,2.15,1.08,2.17a7.65,7.65,0,0,0,2.9-.86c1-.44,2-.85,2.86-1.18s1.91-.67,2.94-1a7.76,7.76,0,0,0,2.75-1.26C1710.36,1444.26,1710.34,1443.27,1709.05,1442.53Z"/><path fill="#ff806d" d="M1712.39,1496.72c4.27-1,6.74-10.24,6.74-10.24l-8.49.83S1708.12,1497.73,1712.39,1496.72Z"/><path fill="#352d29" d="M1685.55,1404.3c-13.73-10.09-24.36-10.24-31.92-7.32l27.79,23.55,1.88,3-7.45-.61-8,11s-1.43,4.46,6.75,4a28.53,28.53,0,0,0,4.13-.49c6.37-1.12,9.62-4.42,11.29-7.43a12.46,12.46,0,0,0,1.07-2.48c.43-.08.87-.16,1.34-.27C1699.05,1425.75,1707.84,1420.67,1685.55,1404.3Z"/><path fill="#352d29" d="M1708.9,1397s1.44-19.09-18-16.49l-38.9,15.17,1.59,1.33c7.56-2.92,18.19-2.77,31.92,7.32,22.29,16.37,13.5,21.45,6.83,23-.47.11-.91.19-1.34.27a12.46,12.46,0,0,1-1.07,2.48c6.89,3.86,20.46,9.12,29.09-2.75C1731,1410.85,1708.9,1397,1708.9,1397Z"/><path fill="#191823" d="M1627.78,1495.26l-15.19,15.51,54.75,115.06C1683.38,1537.93,1627.78,1495.26,1627.78,1495.26Z"/><path fill="#ea2a2a" d="M1612.6,1510.77s-5.4,2.15-15.95,9.17c-14,9.29-36.94,27.1-68.42,59.68-55.28,57.21-75.64,192-180.37,281.23s-147.44,203.08-147.44,203.08,52.4,7.35,122.22,41.29c43.31,21,89.95,14.51,119.16,6.5a190.79,190.79,0,0,0,29.21-10.38c3.88-87.28,58.19-172.61,122.19-249.22q4.21-5,8.11-10.38a235.2,235.2,0,0,0,14.08-21.72c32.31-55.92,44.92-124.42,49.34-157.18,1.65-12,2.17-19.22,2.17-19.22C1673.69,1559.25,1612.6,1510.77,1612.6,1510.77Z"/><path fill="#2a2838" d="M1528.23,1579.62c-55.28,57.21-75.64,192-180.37,281.23s-147.44,203.08-147.44,203.08,52.4,7.35,122.22,41.29c43.31,21,89.95,14.51,119.16,6.5,1.83-102.31,63.68-185.32,125.76-259.6q4.21-5,8.11-10.38a235.2,235.2,0,0,0,14.08-21.72c32.31-55.92,44.92-124.42,49.34-157.18,1.65-12,2.17-19.22,2.17-19.22,5.06-62.95-27.68-105.93-44.61-123.68C1582.69,1529.23,1559.71,1547,1528.23,1579.62Z"/><path fill="#2a2838" d="M1685.32,1701.81l-2.91-7.75c-2.91-7.76-10.66-4.85-10.66-4.85s-3.33-49.28-33.39-78.37-45.16-23.46-45.16-23.46l-47.52,117.34s30.06,90.19,77.58,120.25,103.76,7.76,103.76,7.76c49.46-40.73,33-114.43,33-114.43Z"/><path fill="#191823" d="M1545.7 1704.8c.39 2.85 13.21 91 55.6 137a233.75 233.75 0 0014.08-21.72C1600.3 1809.14 1566.94 1778 1545.7 1704.8zM1618.93 1587.52c20.78 17.69 38.5 57.39 45.79 75.33 1.65-12 2.18-19.22 2.18-19.22C1650.57 1611.88 1621.61 1589.54 1618.93 1587.52z"/><polygon fill="#195193" points="1563.62 1418.26 1577.68 1464.63 1677.67 1356.27 1625.11 1352.74 1563.62 1418.26"/><polygon fill="#1d1d3a" points="1577.68 1464.63 1582.1 1469.18 1681.96 1360.84 1677.67 1356.27 1577.68 1464.63"/><path fill="#003472" d="M1597.66,1452.3l9.91,14.73c62.85-38.64,70.1-81.38,70.1-81.38l-10.77-8.47Z"/><path d="M1607.46,1396.25c-11.57,15.24-23.33,30.34-34.71,45.72-3.31,4.48-4.22,9.65-6.07,14.93-6.15,17.52-13.85,35.2-25.68,49.68-1.18,1.44.87,3.51,2,2.06,10.45-12.79,17.64-27.86,23.57-43.19,2.68-6.94,4.33-15.67,8.1-21.3,10.77-16.05,23.56-31,35.25-46.43C1611.1,1396.23,1608.58,1394.78,1607.46,1396.25Z"/><path fill="#ffb600" d="M1538.29,1508.12c-3.67,2-17.94,13.47-24.64,25.72a.46.46,0,0,0,.09.59.51.51,0,0,0,.6-.27c4.93-9,14.57-18.09,20.4-22.61-6.91,6.78-20.77,21.1-20.55,26.44,0,.33.45.75,1.07,1.17,2-2.89,4.45-6.38,6.1-7.7a74.6,74.6,0,0,0-5.19,8.24c2.42,1.31,6.33,2.56,7.3,2.2,3.26-1.18,7.91-8.61,11.83-15.92-1.34,4.06-3.75,9.16-8.67,16.79a.45.45,0,0,0,0,.61.47.47,0,0,0,.59-.21c8.29-11.86,15.5-32.46,15.5-32.46l-4.22-2.83Z"/><path d="M1544.13,1504.83a3.15,3.15,0,0,0-4.39.59l-2.45,3.24,5,3.77,2.43-3.23A3.11,3.11,0,0,0,1544.13,1504.83Z"/><path fill="#2d71d3" fill-rule="evenodd" d="M1831.48 1092.84a3.4 3.4 0 00-2.23-1.36l-15.76-2.33a1.82 1.82 0 01-1.54-1.55h0a52.91 52.91 0 00-9.33-23.58 1.83 1.83 0 01.14-2.28l9.83-12.39a3.47 3.47 0 00-.56-4.81l-.09-.07-15.22-12.07h0a3.44 3.44 0 00-2.52-.71 3.4 3.4 0 00-2.29 1.26h0l-9.91 12.49a1.8 1.8 0 01-2.17.53 53 53 0 00-12.28-3.38 52 52 0 00-12.73-.32 1.83 1.83 0 01-1.88-1.14l-5.86-14.82a3.41 3.41 0 00-1.82-1.87 3.37 3.37 0 00-2.61 0l-18.17 7.18a3.44 3.44 0 00-1.93 4.43l5.86 14.82a1.81 1.81 0 01-.65 2.16 52.32 52.32 0 00-15.67 19.82 1.83 1.83 0 01-1.93 1l-15.77-2.33-.09 0a3.48 3.48 0 00-2.44.66 3.4 3.4 0 00-1.35 2.24l0 .11-2.85 19.22a3.45 3.45 0 002.89 3.89l.11 0 15.64 2.31a1.83 1.83 0 011.54 1.56h0a53.13 53.13 0 009.33 23.58 1.82 1.82 0 01-.14 2.28l-9.82 12.38h0a3.45 3.45 0 00.55 4.81l15.31 12.15h0a3.45 3.45 0 004.8-.56l.07-.09 9.84-12.4a1.84 1.84 0 012.12-.55 52.62 52.62 0 0025.06 3.73 1.81 1.81 0 011.88 1.14l5.86 14.81a3.38 3.38 0 001.82 1.87 3.42 3.42 0 002.61 0l18.17-7.19a3.43 3.43 0 001.93-4.43l-5.86-14.81a1.82 1.82 0 01.65-2.17 52.67 52.67 0 009-8.89 53.42 53.42 0 006.67-10.92 1.82 1.82 0 012-1l15.66 2.32a3.36 3.36 0 002.53-.65 3.4 3.4 0 001.36-2.24v-.11l2.85-19.22h0A3.4 3.4 0 001831.48 1092.84zm-44.33 13.52a29.73 29.73 0 11.36-22.73A29.62 29.62 0 011787.15 1106.36zM1704.45 1019a4.23 4.23 0 00-2.76-1.67l-19.38-2.87a2.23 2.23 0 01-1.9-1.91h0a64.46 64.46 0 00-1.53-7.71 65.56 65.56 0 00-2.45-7.5 64.93 64.93 0 00-7.5-13.81 2.23 2.23 0 01.17-2.8l12.09-15.25a4.23 4.23 0 00-.69-5.91l-.1-.09-18.74-14.86h0a4.2 4.2 0 00-3.1-.88 4.24 4.24 0 00-2.82 1.56h0l-12.2 15.37a2.24 2.24 0 01-2.67.66 64.35 64.35 0 00-30.78-4.56 2.26 2.26 0 01-2.32-1.41l-7.2-18.23a4.23 4.23 0 00-5.46-2.36l-22.36 8.85a4.22 4.22 0 00-2.37 5.45l7.21 18.23a2.25 2.25 0 01-.8 2.67 63.42 63.42 0 00-11.08 10.94 64.36 64.36 0 00-8.21 13.44 2.26 2.26 0 01-2.37 1.29l-19.41-2.88-.1 0a4.28 4.28 0 00-3 .81 4.22 4.22 0 00-1.66 2.76l0 .14-3.5 23.65a4.21 4.21 0 003.55 4.78l.13 0 19.25 2.86a2.23 2.23 0 011.89 1.91h0a66.44 66.44 0 001.52 7.71 65.63 65.63 0 002.46 7.5 64.93 64.93 0 007.5 13.81 2.23 2.23 0 01-.17 2.8l-12.09 15.24h0a4.23 4.23 0 00-.87 3.1 4.18 4.18 0 001.56 2.82l18.83 14.94h0a4.24 4.24 0 005.91-.68l.09-.11 12.11-15.26a2.25 2.25 0 012.61-.68 64.37 64.37 0 0030.84 4.58 2.25 2.25 0 012.31 1.41l7.21 18.22a4.21 4.21 0 005.46 2.36l22.36-8.84a4.21 4.21 0 002.36-5.46l-7.2-18.22a2.25 2.25 0 01.8-2.67 64.48 64.48 0 0011.08-10.94 65.22 65.22 0 008.21-13.44 2.23 2.23 0 012.5-1.26l19.27 2.85a4.26 4.26 0 004.79-3.55l0-.14 3.5-23.66h0A4.19 4.19 0 001704.45 1019zm-54.56 16.64a36.56 36.56 0 11.45-28A36.47 36.47 0 011649.89 1035.61z"/><path fill="#f3fcff" d="M2157.44,676.18a84,84,0,0,0-20.38,2.5c0-.13-.09-.25-.14-.37a124.09,124.09,0,0,0-233.12-.83,84.11,84.11,0,0,0-98.6,76.46q-.24,3.18-.24,6.42a84.17,84.17,0,0,0,78,83.92v.25h274.44a84.18,84.18,0,1,0,0-168.35Z"/><path fill="#fff" d="M2020.22,596.38a124.13,124.13,0,0,0-116.42,81.1,84.11,84.11,0,0,0-98.6,76.46c34.91,32.37,86.39,52.82,143.8,52.82,94.65,0,173.18-55.6,187.92-128.45A124.09,124.09,0,0,0,2020.22,596.38Z"/><path fill="#f3fcff" d="M1092.17,1193.91a85.93,85.93,0,0,0-20.8,2.55l-.14-.38a126.66,126.66,0,0,0-237.93-.84,85.83,85.83,0,0,0-100.64,78q-.25,3.24-.25,6.54a85.91,85.91,0,0,0,79.65,85.66v.26h280.11a85.92,85.92,0,1,0,0-171.83Z"/><path fill="#fff" d="M952.12,1112.47a126.67,126.67,0,0,0-118.82,82.77,85.83,85.83,0,0,0-100.64,78c35.63,33,88.17,53.91,146.76,53.91,96.62,0,176.77-56.75,191.81-131.11A126.65,126.65,0,0,0,952.12,1112.47Z"/><path fill="#f3fcff" d="M2165.48,1178a60,60,0,0,0-14.59,1.79c0-.09-.06-.18-.1-.27A88.8,88.8,0,0,0,1984,1179a60.19,60.19,0,0,0-70.56,54.72c-.12,1.51-.17,3-.17,4.58a60.23,60.23,0,0,0,55.84,60.06v.18h196.39a60.24,60.24,0,1,0,0-120.47Z"/><path fill="#fff" d="M2067.29,1120.92a88.83,88.83,0,0,0-83.31,58,60.19,60.19,0,0,0-70.56,54.72c25,23.16,61.82,37.79,102.9,37.79,67.73,0,123.93-39.79,134.47-91.92A88.79,88.79,0,0,0,2067.29,1120.92Z"/><path fill="#f3fcff" d="M3875.29,1369.4a72.19,72.19,0,0,0-17.5,2.15l-.12-.32a106.58,106.58,0,0,0-200.21-.71,72.21,72.21,0,0,0-84.68,65.67c-.15,1.82-.21,3.66-.21,5.51a72.27,72.27,0,0,0,67,72.07v.22h235.7a72.3,72.3,0,1,0,0-144.59Z"/><path fill="#fff" d="M3757.44,1300.87a106.6,106.6,0,0,0-100,69.65,72.21,72.21,0,0,0-84.68,65.67c30,27.8,74.19,45.36,123.49,45.36,81.3,0,148.74-47.75,161.4-110.32A106.57,106.57,0,0,0,3757.44,1300.87Z"/></g></svg>