<svg xmlns="http://www.w3.org/2000/svg" viewBox="0 0 512 512"><path fill-rule="evenodd" d="M211.83 300.17c-22.025-21.985-41.547-46.321-58.14-72.559-6.059-9.583-5.995-21.096.166-30.61l23.68-36.56c5.052-7.804 6.016-16.708 2.75-25.41L139.554 26.472c-6.378-17.001-26.566-23.728-41.869-13.951L40.86 48.827c-25.933 16.57-37.973 46.356-30.829 76.291 21.987 92.136 69.943 175.052 136.224 240.627 65.575 66.282 148.49 114.238 240.627 136.224 29.934 7.144 59.721-4.896 76.291-30.829l36.306-56.825c9.778-15.303 3.05-35.491-13.951-41.869L376.97 331.714c-8.703-3.266-17.606-2.302-25.41 2.75L315 358.144c-9.514 6.161-21.027 6.225-30.61.166-26.239-16.594-50.575-36.115-72.56-58.14z" clip-rule="evenodd"/></svg>