<svg xmlns="http://www.w3.org/2000/svg" width="100" height="100"><path d="M65.225 66.105a2.62 2.62 0 1 0 .004 5.238 2.62 2.62 0 0 0-.004-5.238zm8.213 0a2.619 2.619 0 1 0 .001 5.237 2.619 2.619 0 0 0-.001-5.237zm8.212 0a2.62 2.62 0 1 0 .001 5.24 2.62 2.62 0 0 0-.001-5.24zM49.271 82.584V88.6a33.522 33.522 0 0 0 12.246-3.058 23.184 23.184 0 0 1-5.916-4.126 27.64 27.64 0 0 1-6.33 1.168zm1.989-29.365h.039c2.215 0 3.873-1.727 3.873-4.031v-5.943c0-7.438 9.92-7.467 9.92-18.982 0-8.605-7.744-16.732-17.703-16.732-9.957 0-17.703 8.127-17.703 16.732 0 11.516 9.75 11.545 9.75 18.982v5.943c0 2.305 1.66 4.031 3.873 4.031h.211c.455 1.342 1.658 2.307 3.869 2.307 2.213-.001 3.418-.965 3.871-2.307zM37.285 34.016c-2.575-2.452-4.799-4.569-4.799-9.754 0-7.422 6.963-13.933 14.902-13.933 7.938 0 14.902 6.511 14.902 13.933 0 5.17-2.262 7.287-4.88 9.737-2.219 2.076-4.714 4.414-5.01 8.441H42.207c-.292-4.014-2.743-6.349-4.922-8.424zm11.322 18.305c-.09.269-.5.404-1.219.404-.717 0-1.127-.137-1.218-.406a2.8 2.8 0 0 0-2.651-1.9h-.211c-.791 0-1.072-.636-1.072-1.231V45.24h10.135v3.947c0 .596-.281 1.231-1.111 1.231a2.805 2.805 0 0 0-2.653 1.903z"/><path d="M54.418 31.318a9.98 9.98 0 0 0 2.627-4.559l-1.902-1.098c.084-.467.139-.947.139-1.439 0-.49-.055-.971-.139-1.438l1.902-1.098a9.99 9.99 0 0 0-2.627-4.557l-1.908 1.102a7.753 7.753 0 0 0-2.49-1.436v-2.201a9.913 9.913 0 0 0-2.631-.363c-.906 0-1.787.133-2.629.363v2.201a7.685 7.685 0 0 0-2.486 1.436l-1.91-1.102a9.984 9.984 0 0 0-2.627 4.557l1.904 1.098a7.93 7.93 0 0 0-.139 1.438c0 .492.053.973.139 1.439l-1.904 1.098a9.986 9.986 0 0 0 2.627 4.559l1.91-1.102a7.755 7.755 0 0 0 2.486 1.438v2.199c.842.23 1.723.361 2.629.361.914 0 1.793-.131 2.631-.361v-2.199a7.748 7.748 0 0 0 2.49-1.438l1.908 1.102zm-5.916-4.195a3.112 3.112 0 0 1-4.014-1.785 3.113 3.113 0 0 1 1.787-4.018 3.114 3.114 0 0 1 4.018 1.791 3.104 3.104 0 0 1-1.791 4.012zm24.936 24.081c-11.489 0-20.837 7.685-20.837 17.13 0 8.875 8.188 16.196 18.829 17.03l1.582 6.06a1.394 1.394 0 0 0 1.353 1.047 1.4 1.4 0 0 0 .942-.364l12.528-11.389.059-.057c4.117-3.261 6.382-7.632 6.382-12.327 0-9.445-9.348-17.13-20.838-17.13zM86.037 78.56c-.07.056-.137.118-.195.187l-10.705 9.732-1.256-4.807a1.397 1.397 0 0 0-1.301-1.045c-9.634-.363-17.18-6.642-17.18-14.293 0-7.901 8.092-14.33 18.037-14.33 9.947 0 18.039 6.429 18.039 14.33.001 3.864-1.931 7.495-5.439 10.226zM74.438 48.438c2.186.078 4.298.395 6.291.941-1.44-8.811-6.28-16.492-13.146-21.623a15.391 15.391 0 0 1-2.326 5.812 27.835 27.835 0 0 1 9.181 14.87zM45.072 69.261h-7.057a1.4 1.4 0 0 0-.961 2.419c.421.396.652.929.652 1.5 0 1.137-.926 2.062-2.063 2.062s-2.063-.925-2.063-2.062c0-.573.23-1.105.649-1.501a1.4 1.4 0 0 0-.96-2.418h-5.748v-3.417a4.866 4.866 0 0 0 5.978-4.73 4.867 4.867 0 0 0-4.861-4.862c-.379 0-.754.045-1.118.132l-.002-4.709a1.4 1.4 0 0 0-1.399-1.399h-9.846c-.062 0-.121.004-.181.012H7.123c-.773 0-1.399.626-1.399 1.399v37.947a1.4 1.4 0 0 0 1.399 1.4h37.949a1.4 1.4 0 0 0 1.399-1.4V70.66a1.397 1.397 0 0 0-1.399-1.399zm-28.449-5.716a3.463 3.463 0 0 0-3.461 3.463c0 1.02.443 1.933 1.143 2.565v.023c.195.145.326.354.326.599a.716.716 0 0 1-.182.458l-5.926-.005V53.086h7.752c.061 0 .121-.004.18-.012h8.268l.001 5.669a1.4 1.4 0 0 0 2.421.957 2.03 2.03 0 0 1 1.496-.649c1.137 0 2.062.925 2.062 2.063a2.064 2.064 0 0 1-2.062 2.062 2.03 2.03 0 0 1-1.496-.646 1.4 1.4 0 0 0-2.421.958v7.16l-5.937.007a.727.727 0 0 1-.182-.458c0-.248.136-.46.334-.604v-.019a3.46 3.46 0 0 0 1.145-2.565 3.464 3.464 0 0 0-3.461-3.464zm27.049 24.688H26.121v-2.589c-.004-.811-.01-2.848-.01-3.092 0-.48-.354-.869-.785-.869a.743.743 0 0 0-.506.215h-.006l-.006.01c-.043.043-.074.094-.109.145a3.311 3.311 0 0 1-2.652 1.326 3.329 3.329 0 0 1 0-6.656 3.32 3.32 0 0 1 2.688 1.387.741.741 0 0 0 .074.084c0 .004.004.006.006.01h.004a.75.75 0 0 0 .508.217c.432 0 .785-.389.785-.869 0-.248.006-2.324.01-3.117V72.06l.002.001h4.787a4.867 4.867 0 0 0 4.734 5.98 4.867 4.867 0 0 0 4.734-5.98h3.293v16.172zM16.275 47.474h4.309a27.86 27.86 0 0 1 8.914-13.886 15.479 15.479 0 0 1-2.303-5.813c-6.364 4.76-11.007 11.698-12.795 19.71h1.559c.105-.007.21-.011.316-.011z"/></svg>