<svg xmlns="http://www.w3.org/2000/svg" enable-background="new 0 0 5000 3685" viewBox="0 0 5000 3685"><path fill="#89c4e6" d="M1550.323 921.995c8.339 23.421 49.673 32.731 42.353 56.49-2.178 7.068-8.551 11.938-12.381 18.265-9.265 15.303 1.074 38.438 18.655 41.743-10.362 26.467-55.79 7.889-69.965-11.32-11.29-15.301-32.966-20.973-49.272-11.191-21.228 12.734-9.729 38.44-15.439 58.627-5.587 19.75-26.211 30.595-44.844 39.203-30.698 14.182-61.396 28.365-92.094 42.547-13.304 6.146-27.008 12.584-36.732 23.547-18.24 20.564-19.15 53.222-39.655 71.529-17.83 15.919-46.638 17.139-61.087 36.18-11.653 15.357-9.686 36.595-12.586 55.653-2.899 19.058-17.289 40.625-36.165 36.71-9.641-2-16.568-10.104-23.747-16.841-46.092-43.245-130.867-32.637-164.882 20.632-22.56 35.329-20.349 87.166 10.979 115.016 31.328 27.851 89.791 19.192 105.715-19.583 13.306 37.679 26.613 75.359 39.919 113.038 8.248 23.355 18.367 48.908 40.536 59.957 31.807 15.852 68.131-6.168 101.095-19.451 41.328-16.653 88.818-19.327 130.6-3.849 56.598 20.966 104.318 73.979 164.485 69.204 7.025 68.168 67.124 126.994 135.427 132.556 17.901 1.458 36.406-.274 53.399 5.541 40.265 13.778 55.75 64.397 49.908 106.551-5.842 42.154-26.576 80.893-34.896 122.629-4.26 21.369-5.377 43.852-15.155 63.324-23.313 46.429-87.297 60.665-111.067 106.862-12.068 23.454-11.599 51.4-20.817 76.114-15.684 42.048-56.333 68.576-85.199 102.938-56.702 67.499-48.005 141.79-.143 211.076 8.344 12.08.091 28.302-14.58 28.862-45.836 1.747-111.85-24.919-140.241-129.085-22.797-83.645-32.192-170.78-35.246-257.422-1.816-51.535-.138-107.141-29.631-149.441-13.566-19.458-32.639-34.237-50.252-50.124-53.726-48.462-97.633-116.443-90.704-188.465 2.916-30.313 14.65-59.212 18.018-89.478 3.368-30.266-4.25-65.09-30.171-81.075-16.692-10.293-38.084-10.962-54.393-21.851-27.168-18.139-30.792-57.079-52.398-81.58-37.352-42.357-108.756-25.406-157.68-53.614-53.815-31.03-62.931-103.372-93.949-157.194-35.099-60.903-103.431-105.318-113.213-174.928-7.289-51.873 20.822-101.12 38.881-150.291 24.766-67.431 23.838-163.006-85.763-165.359-16.474-.354-32.621 3.73-48.217 9.046-43.063 14.676-88.851 21.201-134.293 19.306-7.12-.297-14.546-.894-20.635-4.596-20.387-12.395-8.331-45.862 12.017-58.321 20.348-12.459 46.336-15.779 63.245-32.613 13.804-13.743 18.751-33.76 27.618-51.104 32.949-64.448 116.312-85.164 188.495-79.785 72.182 5.379 143.012 29.459 215.265 25.128 67.438-4.042 132.009-32.716 199.567-33.169 69.829-.468 139.259 29.299 207.923 16.591 50.474-9.342 98.083-41.312 148.864-33.822 22.627 3.338 43.967 14.815 59.226 31.854 18.464 20.617 27.491 51.512 16.411 76.829-7.289 16.655-23.317 26.976-41.329 29.446-28.528 3.913-36.285-15.316-50.092-28.016-32.252-29.665-83.49-15.643-124.398.067-36.198 13.901-72.396 27.802-108.594 41.703-15.406 5.916-31.552 12.358-41.899 25.214-10.347 12.856-12.039 34.242.906 44.479 18.902 14.949 56.871.145 64.853 22.884 3.202 9.122-1.61 18.904-2.68 28.512-5.338 47.915 62.321 49.065 88.685 28.555 35.517-27.629 50.446-81.396 75.908-117.241 5.574-7.846 16.209-28.739 28.218-27.972 18.364 1.173 12.625 25.923 23.736 34.163 19.194 14.236 34.598-7.083 53.837-1.597C1558.036 878.588 1542.122 898.962 1550.323 921.995zM1323.097 608.808c-12.631 14.072-20.729 32.152-22.819 50.946 12.311 10.605 33.014 9.387 43.997-2.589 10.983-11.976 10.408-32.707-1.22-44.056L1323.097 608.808zM1129.501 637.848c21.895 7.023 43.79 14.047 65.685 21.07 11.138 3.573 22.951 7.182 34.341 4.522 12.641-2.951 21.826-13.749 23.205-26.157C1225.029 630.316 1156.94 623.923 1129.501 637.848z"/><path fill="#89c4e6" d="M1152.958 686.949c-5.586-3.276-10.004-8.224-15.376-11.84-13.256-8.926-31.034-8.692-46.08-3.307-15.046 5.385-27.983 15.281-40.649 25.026 44.256 30.345 102.48 39.34 153.83 23.764 7.486-2.271 15.061-5.177 20.652-10.648 5.592-5.471 8.747-14.088 5.826-21.345-3.219-7.998-12.878-11.912-21.441-10.917C1186.787 680.346 1178.912 702.171 1152.958 686.949zM1399.6 611.182c-7.063 12.312-11.433 26.159-12.718 40.294-.293 3.229-.378 6.687 1.279 9.474 2.594 4.362 8.351 5.458 13.416 5.752 10.845.629 22.212-.56 31.464-6.254 9.251-5.694 15.8-16.725 13.698-27.383-3.311-16.788-24.844-23.319-41.59-19.798-3.126.657-5.396 6.268-2.292 5.511L1399.6 611.182zM1274.313 671.144c-8.106 2.777-13.77 11.439-13.064 19.978.231 2.791 1.154 5.657 3.226 7.541 1.45 1.318 3.329 2.045 5.177 2.698 10.846 3.836 22.235 6.132 33.721 6.798-.138-7.801-.277-15.603-.415-23.404-.054-3.053-.296-6.514-2.657-8.45-1.183-.97-2.715-1.377-4.196-1.76-8.463-2.184-16.926-4.368-25.388-6.552L1274.313 671.144zM1181.701 1460.903c2.872.317 5.779.643 8.482 1.664 9.848 3.72 14.096 15.113 21.643 22.452 5.752 5.594 13.725 8.84 21.748 8.855 4.756.009 9.959-1.38 12.615-5.325 2.004-2.976 2.162-6.792 2.091-10.378-.084-4.214-.682-8.985-4.076-11.484-1.824-1.343-4.14-1.764-6.331-2.338-17.609-4.606-30.118-20.423-46.945-27.361-13.672-5.637-29.009-4.968-43.779-4.207-10.314.531-28.216 10.695-15.619 21.691C1139.925 1461.801 1170.552 1459.672 1181.701 1460.903zM1308.518 1512.044c6.867-.008 13.447 2.522 20.173 3.908 9.501 1.958 19.305 1.626 29 1.285 9.801-.344 20.998-1.388 26.805-9.291.646-.879 1.226-1.922 1.073-3.002-.145-1.025-.917-1.843-1.724-2.49-6.009-4.813-14.604-3.594-22.302-3.574-26.93.066-53.61-17.513-79.335-9.544-9.891 3.064-35.734 15.038-21.996 25.115C1273.004 1523.833 1294.981 1512.061 1308.518 1512.044zM1975.272 777.241c.033 3.427.106 7.015 1.756 10.019 1.219 2.219 3.202 3.92 5.285 5.36 15.74 10.885 36.755 8.543 55.687 5.753 3.94-.58 7.88-1.16 11.819-1.741 10.724-1.58 21.617-3.209 31.463-7.741 9.846-4.533 18.679-12.453 21.716-22.859 4.276-14.655-5.564-31.869-20.362-35.621-26.152-6.631-45.211 21.044-70.989 18.616C1989.759 746.965 1975.019 751.076 1975.272 777.241zM1714.284 849.217c3.188 4.776 6.908 9.488 12.078 11.984 10.086 4.869 22.572-.394 30.066-8.717s11.457-19.128 16.571-29.093c29.277-57.05 94.605-84.541 155.857-103.516 34.082-10.559 71.74-22.232 90.254-52.733 7.557-12.449 11.333-27.344 21.308-37.954 8.497-9.038 20.5-13.869 30.163-21.646 9.664-7.778 17.126-21.26 11.6-32.366-3.097-6.224-9.524-10.061-15.938-12.744-63.148-26.414-133.265 29.125-201.093 19.923-27.706-3.759-52.767-18.127-79.722-25.555-36.842-10.152-75.867-7.04-113.949-3.849-32.303 2.707-64.606 5.413-96.909 8.12-44.697 3.745-92.343 8.626-127.224 36.826 23.104 30.937 71.183 21.063 107.181 7.095 35.997-13.968 82.292-26.924 108.682 1.262C1729.842 677.426 1665.947 776.408 1714.284 849.217z"/><path fill="#89c4e6" d="M1651.028 596.753c3.451 1.92 6.721 4.248 9.752 7.081-.073-16.656-.151-33.311-.23-49.967-3.109.26-6.217.521-9.326.781C1651.158 568.683 1651.09 582.718 1651.028 596.753zM4256.702 1747.732c-7.296 8.333-12.536 18.454-15.128 29.223-.924 3.841-1.164 8.671 2.08 10.926 1.311.912 2.95 1.186 4.531 1.408 6.051.85 12.862 1.077 17.548-2.844 3.789-3.171 5.234-8.315 5.99-13.197.884-5.71 1.034-11.845-1.681-16.945s-9.078-8.616-14.44-6.463L4256.702 1747.732zM2942.049 1404.427c16.434 46.272 39.857 99.098 87.677 110.251 31.25 7.288 64.111-6.257 95.827-1.384 14.571 65.176-31.469 127.439-78.145 175.205-46.675 47.766-100.25 98.407-105.936 164.949-2.661 31.138 5.71 63.633-4.513 93.166-12.271 35.449-48.99 59.114-57.995 95.53-4.063 16.43-1.969 33.876-5.754 50.372-3.793 16.53-13.236 31.116-22.511 45.315-38.803 59.407-82.969 122.983-150.84 143.682-30.562 9.321-69.715 5.682-86.196-21.692-10.649-17.687-8.691-39.813-10.692-60.362-2.04-20.957-8.499-41.197-14.917-61.251-13.372-41.777-26.744-83.553-40.116-125.329-5.113-15.973-10.256-32.089-11.945-48.775-2.589-25.586 3.056-51.261 9.835-76.068 15.584-57.028 36.836-120.361 8.865-172.444-7.512-13.989-18.342-26.363-23.109-41.509-10.79-34.288 9.145-80.491-19.203-102.594-31.601 20.21-63.68-38.702-100.965-34.594-13.255 1.46-24.02 10.822-35.285 17.958-46.794 29.644-111.558 21.197-155.63-12.36-44.072-33.558-68.868-87.987-75.957-142.926-7.088-54.938 1.875-110.729 15.023-164.541 2.951-12.078 6.285-24.465 13.857-34.327 14.794-19.269 41.519-24.138 61.53-37.911 38.178-26.278 51.253-84.242 95.485-98.083 10.912-3.415 22.547-3.572 33.797-5.615 15.982-2.902 30.986-9.563 46.255-15.103 39.018-14.157 80.621-21.155 122.124-20.542 8.8.13 17.992.712 25.578 5.173 16.46 9.681 18.361 32.163 19.989 51.189 2.362 27.611 8.811 56.366 27.437 76.884 18.626 20.518 52.409 29.28 74.741 12.873 9.22-6.774 15.69-17.006 25.597-22.729 11.432-6.605 25.521-6.144 38.633-4.596 49.05 5.789 110.129 19.973 130.975 68.092C2902.22 1271.859 2919.499 1340.935 2942.049 1404.427z"/><path fill="#89c4e6" d="M2304.267 919.023c-7.528 25.171-27.485 91.565 11.955 109.574 34.257 15.641 74.149-5.241 102.024-30.561 27.875-25.32 52.861-56.833 88.804-68.068 60.06-18.773 129.01 42.749 117.176 104.552-1.489 7.778-3.725 16.743 1.249 22.905 6.754 8.369 20.608 4.018 28.497-3.29 26.995-25.006 23.714-67.839 18.336-104.241 24.261-2.183 31.754 31.628 32.251 55.982.497 24.354 17.003 57.469 38.987 46.978 19.965-9.527 15.162-46.808 36.59-52.308-5.488 35.197 23.628 71.868 59.153 74.501 20.432 1.515 46.506-4.251 57.021 13.332 5.675 9.49 3.286 21.484 1.562 32.406-15.644 99.092 38.787 194.31 91.133 279.89 18.09 29.574 40.234 62.014 74.415 67.801 19.231 3.256 38.779-2.851 56.791-10.337 38.24-15.894 73.71-38.429 104.345-66.294 20.592-18.73 40.377-46.572 29.754-72.301-8.467-20.506-32.643-29.345-54.62-32.379-21.977-3.034-45.44-2.898-64.408-14.405-18.968-11.507-29.19-40.94-12.779-55.868 50.002 34.656 109.342 55.701 170.006 60.294 18.672 1.414 37.688 1.34 55.67 6.563 62.199 18.068 89.641 89.829 102.761 153.256 13.122 63.428 24.987 135.004 77.564 172.83 33.262-34.894 49.17-85.583 41.811-133.225 30.935-28.54 61.869-57.08 92.803-85.62 12.959-11.956 30.685-24.766 46.576-17.126 9.026 4.34 13.951 14.009 18.727 22.812 20.533 37.844 49.7 70.972 84.639 96.134 8.514 6.131 17.711 12.172 22.635 21.438 5.446 10.246 4.674 22.525 4.107 34.115-3.205 65.541 13.797 144.202 74.993 167.885 21.758-22.525 6.771-59.973-11.219-85.609-17.99-25.636-39.208-56.997-26.221-85.496 26.837 7.867 52.21 20.7 74.451 37.654 29.69-16.95 23.038-61.771 7.727-92.34-15.311-30.568-35.753-65.533-21.063-96.404 38 21.438 88.742 17.63 123.118-9.238 34.375-26.869 50.324-75.19 38.698-117.242-13.455-48.67-58.949-85.06-51.083-141.62 3.463-24.896 25.118-44.93 50.018-41.492 54.98 7.592 38.096 104.46 87.605 110.301 20.923-29.321-16.85-72.166-1.53-104.767 4.063-8.645 11.397-15.209 17.737-22.354 51.829-58.42 22.479-166.686-51.758-190.931-19.99-6.529-45.279-10.556-49.222-33.722-3.305-19.419 11.052-37.841 30.244-42.28 65.175-15.076 131.916-23.371 198.797-24.729 1.596 58.891 33.235 116.186 82.227 148.904 22.316-47.879 9.859-109.623-29.275-145.103 28.533.929 65.912-4.847 70.796-32.975 1.105-6.365.207-13.267 3.221-18.982 11.708-22.198 63.428-3.074 62.386-28.149-152.906-89.798-348.967-49.822-518.081-103.152-26.41-8.328-52.317-18.984-79.726-22.93-24.691-3.555-49.79-1.545-74.734-1.288-131.108 1.353-257.128-45.553-384.633-76.11-37.329-8.946-76.605-16.496-113.748-6.811-24.699 6.441-46.791 20.109-70.174 30.347-115.057 50.378-256.782 16.388-365.845 78.688-16.919 9.665-38.219 21.551-54.109 10.274-7.416-5.264-11.014-14.227-15.294-22.252-28.483-53.402-97.97-73.754-157.582-63.287-60.495 10.622-147.254 64.285-191.317 128.369-12.079 17.567 6.69 39.791 25.669 30.08 9.358-4.788 13.64-7.811 24.25-12.002 31.937-12.613 35.446 45.727 66.906 56.408 13.693 4.649 27.957-2.897 35.449-15.266 10.008-16.521 26.13-55.23 60.284-70.891-9.489 42.664-.28 16.317-9.77 58.981-3.207 14.419-6.689 29.419-16.054 40.842-15.896 19.39-45.449 23.055-69.018 14.504-18.875-6.847-34.179-19.124-47.85-33.567-4.381-4.628-12.148-2.489-13.69 3.694-6.412 25.712-10.661 41.185-31.538 50.587-13.036 5.871-27.973 6.429-41.684 2.378-41.59-12.288-41.854-47.814-56.887-75.448-9.635-17.712-30.972-32.897-49.107-24.084-8.017 3.896-13.38 11.596-18.381 18.975-19.506 28.782-39.012 57.564-58.518 86.347 17.499-25.82 114.013 83.05 116.479 105.463C2417.444 940.28 2315.93 880.025 2304.267 919.023zM4089.071 1668.629c8.042-10.192 20.705-18.321 33.445-15.823 1.593.312 3.205.813 4.436 1.871 1.561 1.343 2.3 3.397 2.799 5.396 5.437 21.748-10.147 43.075-11.915 65.422-1.739 21.981 10.035 43.479 7.701 65.405-2.638 24.775-24.171 45.149-48.545 50.342-40.489 8.623-117.31-31.122-90.393-79.84 10.355-18.741 41.02-23.926 57.204-35.556C4065.793 1710.045 4072.945 1689.066 4089.071 1668.629z"/><path fill="#89c4e6" d="M3893.657 1837.293c10.06 16.399 20.536 33.25 36.194 44.428 15.141 10.808 33.751 15.322 51.853 19.611 28.605 6.777 57.21 13.554 85.815 20.331-2.503-21.509-22.405-37.003-42.746-44.43-20.341-7.428-42.441-9.397-62.43-17.726-19.989-8.328-38.685-25.983-38.292-47.634.102-5.633 1.499-11.22 1.172-16.844-1.362-23.421-28.773-34.25-46.026-50.147-10.446-9.626-55.135-100.196-66.658-44.908C3806.625 1728.354 3878.269 1812.211 3893.657 1837.293zM4156.135 2027.279c-19.5 8.442-19.617 35.99-31.598 53.541-18.407 26.963-58.429 23.998-88.474 36.767-43.459 18.469-62.942 69.092-71.002 115.621-8.059 46.528-10.065 96.356-36.103 135.749 71.979-13.962 143.958-27.925 215.937-41.887 17.599-3.414 36.658-6.659 52.783 1.173 37.706 18.312 31.384 80.039 66.146 103.461 25.722 17.33 60.306 5.152 88.356-8.082 38.622-18.221 77.138-38.074 108.787-66.745 31.648-28.672 56.129-67.401 59.645-109.961 2.757-33.385-7.333-66.347-17.307-98.327-17.9-57.398-35.8-114.796-53.7-172.192-8.767 31.091-26.934 109.378-66.404 114.522-36.63 4.774-60.343-49.08-77.415-73.012-16.461-23.076-26.378-39.516-55.211-25.416-18.02 8.812-22.397 30.668-42.638 36.604C4191.07 2034.041 4173.288 2019.853 4156.135 2027.279zM4398.448 1935.018c26.11 13.688 59.35-6.015 87.092 3.958 27.362 9.836 41.173 45.663 69.954 49.798 3.312.476 6.834.45 9.825-1.05 8.931-4.482 7.124-18.506.268-25.775-6.856-7.269-16.782-11.034-23.686-18.259-10.374-10.858-11.968-27.072-14.625-41.853-2.656-14.78-8.536-31.182-22.49-36.732-5.106-2.03-10.728-2.315-16.033-3.786-22.865-6.345-33.542-32.658-55.697-39.239-14.096-4.187-62.129 2.892-73.684 10.635-30.705 20.575-3.949 20.427 8.471 40.648C4380.082 1893.29 4374.724 1922.58 4398.448 1935.018zM2749.949 1099.557c3.203 1.764 6.973 2.41 9.984 4.484 3.957 2.726 6.021 7.505 9.711 10.582 4.42 3.687 10.507 4.452 16.23 5.068 25.727 2.769 5.636-45.368-8.91-51.946C2757.312 1058.859 2725.452 1086.065 2749.949 1099.557zM4327.254 1203.744c12.137-1.694 26.879-2.12 32.927-12.779 4.895-8.629 1.129-19.366-2.36-28.652-7.581-20.175-13.518-40.968-17.733-62.103-1.042-5.227-1.982-10.603-1.098-15.859 2.808-16.705 23.05-28.276 21.119-45.106-8.981-8.128-22.055-9.568-32.779-15.201-20.884-10.971-29.784-35.542-38.413-57.498-7.437-18.92-16.112-37.691-29.304-53.158-13.192-15.467-31.482-27.458-51.719-29.391 13.239 27.154 32.84 50.613 49.158 76.036 16.317 25.424 29.713 54.421 28.094 84.588-.685 12.761-3.554 27.253 4.733 36.981 2.992 3.512 7.106 5.867 10.427 9.069 8.683 8.371 10.886 21.232 12.631 33.165.997 6.819 1.542 14.932-3.703 19.402-5.656 4.821-15.648 2.952-19.923 9.032-2.224 3.163-2.058 7.553-4.291 10.71-6.015 8.501-20.128.029-29.685 4.165-2.963 1.283-5.252 3.724-7.329 6.196-11.023 13.125-43.62 74.616-6.898 73.829C4273.398 1246.477 4294.114 1208.369 4327.254 1203.744zM4114.267 1386.499c-.364 2.127-.669 4.332-.132 6.422.877 3.412 3.807 5.869 6.721 7.848 9.541 6.48 20.759 10.467 32.249 11.462 2.455-21.356 3.476-42.876 3.054-64.368-.038-1.966-.146-4.092-1.391-5.613-1.097-1.339-2.848-1.921-4.517-2.381C4124.197 1332.684 4117.877 1365.414 4114.267 1386.499zM4153.156 1534.026c3.387 2.386 6.982 4.856 8.798 8.581 2.663 5.464.78 11.913.511 17.986-.862 19.449 15.22 39.239 6.92 56.85-2.766 5.868-7.861 10.244-11.84 15.367-5.957 7.669-9.438 18.138-5.985 27.215 3.453 9.076 15.666 14.646 23.576 9.014 2.105-1.499 3.795-3.638 6.183-4.627 4.927-2.043 10.447 1.692 13.419 6.121 2.973 4.428 4.663 9.761 8.422 13.544 6.453 6.493 17.615 6.362 25.385 1.521 7.77-4.842 12.574-13.343 15.424-22.042 2.361-7.208 3.601-14.945 2.25-22.408-1.52-8.39-6.156-15.824-9.588-23.63-5.476-12.458-7.936-26.231-7.112-39.814.358-5.915 1.131-12.526-2.589-17.139-3.747-4.645-10.46-5.27-15.842-7.85-4.77-2.287-8.546-6.181-12.213-9.994-17.292-17.981-28.438-33.696-27.773-59.265.42-16.162-.838-29.171-20.659-27.466-15.577 1.34-27.846 13.436-29.023 28.928C4119.801 1506.201 4137.211 1522.795 4153.156 1534.026zM4166.544 1747.109c3.341 3.052 5.985 7.043 10.063 9.003 7.706 3.703 16.482-1.239 24.373-4.529 7.891-3.29 19.576-3.347 22.244 4.775 2.271 6.916-4.497 13.63-11.346 16.099-6.848 2.469-14.636 2.906-20.44 7.299-8.454 6.398-9.535 18.708-7.993 29.197 1.542 10.489 4.947 21.111 2.71 31.475-3.239 15.009-17.525 25.193-32.027 30.235-11.842 4.117-27.523 4.56-34.266-6.01-6.279-9.842-.826-22.674 4.59-33.015 6.885-13.146 13.807-26.956 14.059-41.794.139-8.166-1.769-16.241-1.955-24.407C4136.125 1746.529 4149.139 1731.212 4166.544 1747.109zM4204.808 1909.287c4.5-1.219 8.998-2.965 13.651-2.682 4.653.283 9.587 3.407 9.97 8.053.125 1.515-.242 3.035-.806 4.447-5.834 14.615-27.94 14.104-37.993 26.211-2.394 2.883-3.996 6.388-6.601 9.08-6.725 6.951-17.879 6.588-27.387 4.81-18.548-3.469-36.434-10.451-52.426-20.467-26.976-16.895-12.342-34.927 13.635-35.011C4146.214 1903.632 4175.512 1917.228 4204.808 1909.287zM4307.658 1785.398c-1.544-.011-3.208.014-4.456.924-1.251.913-1.786 2.505-2.137 4.015-1.449 6.228-1.018 12.738-1.952 19.063-.934 6.326-3.695 12.961-9.369 15.911-6.318 3.284-13.917 1.017-20.912-.318-10.897-2.079-22.26-1.672-32.98 1.183-3.157.841-6.363 1.951-8.759 4.173-2.395 2.222-3.785 5.814-2.584 8.853 1.845 4.673 8.033 5.414 13.057 5.437 17.833.079 35.937.513 52.992 5.72 21.317 6.509 40.422-1.391 45.877-25.641C4340.754 1805.525 4326.797 1785.537 4307.658 1785.398zM3601.76 1599.968c.063-7.749-.289-15.903-4.305-22.531-4.016-6.628-12.89-10.934-19.778-7.383-8.986 4.633-8.369 17.501-12.815 26.581-2.73 5.575-7.586 9.884-10.345 15.445-7.464 15.047 4.672 38.135 22.878 34.963C3597.403 1643.559 3601.631 1615.913 3601.76 1599.968zM3125.208 474.174c1.038-4.683-5.333-7.133-10.11-7.575-24.462-2.266-49.803-4.434-73.022 3.593-8.028 2.775-15.596 6.711-23.13 10.632-6.316 3.287-12.632 6.574-18.948 9.861-11.703 6.09-23.949 12.667-31.002 23.817-1.104 1.746-2.095 3.721-1.905 5.778.562 6.104 9.074 6.546 15.147 7.383 13.775 1.899 30.354 23.069 44.567 17.68 13.433-5.093 6.63-23.506 9.825-33.841C3045.09 484.141 3103.975 491.996 3125.208 474.174z"/><g><path fill="#9dd17d" d="M1745.314,2515.958c-9.934,29.507-23.686,55.301-41.752,74.749
					c-36.446,39.291-90.341,52.908-166.029,19.797c-50.51-28.02-106.366-68.838-163.197-118.462
					c-114.984-100.367-234.063-236.575-321.386-374.504c-14.766-23.325-28.619-46.653-41.407-69.913
					c-75.429-137.261-121.01-254.027-71.379-378.701c102.172-143.331,306.858-69.269,412.889,34.74
					c30.63,26.328,61.482,54.936,91.961,85.379c106.553,106.484,207.762,234.735,273.124,361.984
					c1.099,2.113,2.199,4.224,3.245,6.331C1765.932,2235.414,1783.456,2403.007,1745.314,2515.958z"/><path fill="#95cc74" d="M1537.533,2610.503c-50.51-28.02-106.366-68.838-163.197-118.462
					c104.141-1.998,204.436-49.04,270.11-132.529c47.388-60.255,72.254-133.776,73.693-208.485c1.099,2.113,2.199,4.224,3.245,6.331
					C1801.01,2296.872,1794.339,2722.86,1537.533,2610.503z"/><path fill="#88bf65" d="M1745.314,2515.958c-9.934,29.507-23.686,55.301-41.752,74.749
					c-56.429-164.385-303.892-575.487-478.132-735.203c90.327,79.503,192.467,181.883,293.261,310.464
					C1615.594,2289.645,1689.356,2409.646,1745.314,2515.958z"/><path fill="#ade08e" d="M1445.014,1789.042c-29.254,6.57-60.726,28.237-90.155,19.973
					c-32.501-9.099-48.123-51.147-81.184-58.164c-9.015-1.894-18.629-0.905-27.202-4.305c-26.401-10.33-30.125-55.038-58.273-58.109
					c-21.731-2.388-35.196,22.795-40.367,43.993c-5.171,21.197-12.161,47.016-33.327,52.315c-7.184,1.806-14.848,0.765-21.898,2.8
					c-9.833,2.896-16.924,11.368-22.379,20.08c-19.327,30.897-24.605,70.331-13.957,105.206
					c6.511,21.359,18.037,46.244,4.465,63.955c-2.976,3.952-7.033,7.029-9.81,11.111c-12.682,18.832,7.12,41.769,15.427,62.904
					c8.082,20.304,4.465,44.793-9.094,61.914c-1.319,1.674-2.791,3.276-4.31,4.819c-14.766-23.325-28.619-46.653-41.407-69.913
					c-75.429-137.261-121.01-254.027-71.379-378.701c102.172-143.331,306.858-69.269,412.889,34.74
					C1383.683,1729.991,1414.535,1758.599,1445.014,1789.042z"/><path fill="#88bf65" d="M1761.081,2921.082c-5.328,28.752-14.258,57.059-26.99,84.184
					c-6.647,14.299-14.429,28.338-23.198,41.898c-51.386,79.419-130.247,130.801-233.314,99.282
					c-5.92-1.815-11.834-3.523-17.883-4.797c-109.371-23.701-232.026-69.802-349.826-131.708
					c-128.022-67.278-250.326-153.129-343.532-248.945c-122.339-125.847-194.557-268.833-163.909-409.607
					c39.931-157.619,147.144-209.097,281.772-197.234c102.435,9.071,220.853,54.816,337.57,118.436
					c123.758,67.402,245.613,154.827,344.801,239.851c33.322,28.523,64.068,56.812,91.494,83.946
					C1745.543,2683.062,1782.484,2805.802,1761.081,2921.082z"/><path fill="#7fb55c" d="M1710.893,3047.164c-51.386,79.419-130.247,130.801-233.314,99.282
					c-5.92-1.815-11.834-3.523-17.883-4.797c-109.371-23.701-232.026-69.802-349.826-131.708
					c89.808-6.157,205.169-35.382,304.173-128.868c101.494-95.811,155.433-230.533,152.528-368.631
					c33.322,28.523,64.068,56.812,91.494,83.946C1778.842,2716.072,1803.272,2904.427,1710.893,3047.164z"/><path fill="#74ab50" d="M1761.081,2921.082c-5.328,28.752-14.258,57.059-26.99,84.184
					c-80.192-72.491-166.917-146.283-260.533-220.128c-196.723-155.292-387.318-282.293-562.277-385.899
					c148.846,68.176,314.332,154.675,488.201,264.748C1534.582,2749.464,1654.928,2836.649,1761.081,2921.082z"/><path fill="#a9d98b" d="M1221.77,2272.591c-20.518,13.556-45.468,18.275-69.55,6.499
					c-17.302-10.809-47.63-35.33-63.086-10.193c-5.719,12.699,5.875,26.595,5.991,40.526
					c-10.414,51.137-97.794,37.083-138.349,49.431c-63.185,13.576-62.46-24.218-88.997-65.498
					c-33.187-34.885-90.794,9.628-65.184,50.531c21.841,25.568-18.908,51.064-38.36,63.601
					c-42.373,15.277-87.537,46.993-82.984,97.424c18.159,94.495,88.518,42.882,113.771,76.222
					c10.71,21.207-21.773,42.568-18.571,66.157c2.063,15.375,18.548,24.893,23.669,39.567c3.46,31.266-10.94,56.185-33.782,74.139
					c-122.339-125.847-194.557-268.833-163.909-409.607c39.931-157.619,147.144-209.097,281.772-197.234
					C986.634,2163.226,1105.053,2208.97,1221.77,2272.591z"/><g><path fill="#9dd17d" d="M4188.65,2019.867c-5.066,78.758-31.354,160.341-68.52,239.206
					c-48.417,102.966-115.391,201.399-177.938,283.197c-15.783,20.636-31.3,40.205-46.124,58.548
					c-136.507,184.603-410.585,391.548-608.571,278.931c-23.888-13.544-46.605-31.728-67.828-55.189
					c-14.504-15.944-28.313-34.286-41.272-55.242c-27.674-39.513-27.621-293.435,63.882-551.73
					c30.287-85.476,70.598-171.379,123.228-250.137c85.423-127.974,203.426-237.179,363.927-294.928
					C4093.362,1581.075,4204.541,1773.517,4188.65,2019.867z"/><path fill="#94c973" d="M3942.192,2542.27c-15.783,20.636-31.3,40.205-46.124,58.548
					c-164.127,221.982-527.147,476.225-717.671,168.5c-27.674-39.513-27.621-293.435,63.882-551.73
					c23.515,92.408,72.731,201.134,174.897,277.704C3555.923,2599.218,3756.256,2616.601,3942.192,2542.27z"/><path fill="#ade08e" d="M4188.65,2019.867c-5.066,78.758-31.354,160.341-68.52,239.206
					c-8.159-1.12-16.05-3.199-23.461-6.879c-17.33-8.531-30.608-28.634-24.742-47.03c-15.198,12.957-40.045-3.466-43.724-23.089
					c-3.679-19.623,5.332-39.032,10.985-58.175c13.01-36.366,4.318-89.849-38.659-99.341c-19.303-3.732-38.766,5.226-58.388,6.186
					c-19.677,0.959-43.672-13.811-38.5-32.794c4.693-17.063,29.594-22.928,32.847-40.365c1.386-7.198-1.493-14.398-3.946-21.329
					c-7.092-19.943-11.198-41.005-12.104-62.228c-0.374-9.651-0.48-20.209-6.772-27.514c-13.012-15.198-37.112-3.52-54.816,5.812
					c-41.859,22.129-90.755,25.435-138.053,28.261c-49.856,6.026-27.354-43.351-86.062-40.738
					c-55.722,2.346-93.902,48.896-120.35,92.941c-17.489,29.167-23.835,38.819-59.721,40.739
					c-32.633,0.426-62.547-1.653-89.155-6.079c85.423-127.974,203.426-237.179,363.927-294.928
					C4093.362,1581.075,4204.541,1773.517,4188.65,2019.867z"/><path fill="#88bf65" d="M3832.401 1903.73c-95.395 107.072-200.921 243.418-299.301 411.278-120.029 204.866-196.28 400.026-245.603 564.741-23.888-13.544-46.605-31.728-67.828-55.189 50.87-144.664 129.042-319.883 250.99-502.406C3593.035 2138.99 3723.996 2001.631 3832.401 1903.73zM4236.459 2862.271c-4.278 6.417-8.713 12.823-13.306 19.163-101.31 140.425-271.556 268.148-468.82 307.492-120.218 15.168-232.422-.987-301.904-54.261-20.636-15.769-37.545-34.894-49.656-57.403-30.727-56.683-31.647-135.087 11.749-237.606 28.833-67.996 76.601-133.933 136.084-192.79 60.757-60.152 133.739-112.918 211.263-152.779 159.065-81.933 337.015-109.729 466.693-36.281C4360.498 2532.546 4343.281 2703.223 4236.459 2862.271z"/><path fill="#7fb55c" d="M4223.154,2881.433c-101.31,140.425-271.556,268.148-468.82,307.492
					c-245.89,31.05-458.479-69.139-339.81-349.27c28.833-67.996,76.601-133.933,136.084-192.79
					c21.292,79.129-5.623,219.349,64.481,295.021C3679.898,3011.867,3837.16,3036.85,4223.154,2881.433z"/><path fill="#a9d98b" d="M4236.459,2862.271c-12.213-16.849-18.937-38.473-18.223-57.991
					c-0.792-27.276,19.747-57.341,8.954-83.174c-3.519-2.991-8.755-1.618-13.333-1.158c-20.371,2.111-38.789-21.138-31.994-40.468
					c3.935-11.148,14.02-23.708,6.521-32.825c-5.985-7.186-17.329-4.239-26.494-2.519c-17.15,3.368-99.814-4.532-65.475-33.242
					c84.123-45.141-74.234-81.916-108.907-66.6c-23.802,10.088-72.402,27.144-76.672-11.516
					c8.969-37.668-52.126-47.269-79.437-43.859c-25.158,8.918-48.756,11.268-69.527,5.167
					c159.065-81.933,337.015-109.729,466.693-36.281C4360.498,2532.546,4343.281,2703.223,4236.459,2862.271z"/><path fill="#74ab50" d="M4059.578,2587.281c-82.308,56.613-169.13,122.085-257.787,197.794
					c-139.15,118.77-254.575,238.46-349.36,349.589c-20.636-15.769-37.545-34.894-49.656-57.403
					c75.216-79.015,167.496-165.253,278.488-250.732C3817.611,2721.613,3948.107,2644.171,4059.578,2587.281z"/></g></g><g><path fill="#38475b" d="M2175.363,1196.974h-466.164v-7.926c0-50.653,41.063-91.716,91.716-91.716h282.731
				c50.654,0,91.716,41.063,91.716,91.716V1196.974z"/><path fill="#a5b4c5" d="M1732.168 1770.973c-12.686 0-22.969-10.284-22.969-22.969v-551.03h45.938v551.03C1755.137 1760.689 1744.853 1770.973 1732.168 1770.973zM2129.431 1196.85h45.875v551.113c0 12.794-10.299 23.093-22.781 23.093-12.796 0-23.094-10.299-23.094-23.093V1196.85z"/><path fill="#38475b" d="M2339.191 3263.805c29.523 0 53.457-23.933 53.457-53.457v-124.715c0-29.523-23.934-53.457-53.457-53.457s-53.457 23.933-53.457 53.457v124.715C2285.734 3239.872 2309.668 3263.805 2339.191 3263.805zM1674.114 3263.805c29.524 0 53.457-23.933 53.457-53.457v-124.715c0-29.523-23.933-53.457-53.457-53.457-29.524 0-53.457 23.933-53.457 53.457v124.715C1620.658 3239.872 1644.591 3263.805 1674.114 3263.805z"/><path fill="#516273" d="M2312.852 3263.805c29.523 0 53.457-23.933 53.457-53.457v-124.715c0-29.523-23.933-53.457-53.457-53.457-29.524 0-53.457 23.933-53.457 53.457v124.715C2259.396 3239.872 2283.329 3263.805 2312.852 3263.805zM1647.775 3263.805c29.524 0 53.457-23.933 53.457-53.457v-124.715c0-29.523-23.933-53.457-53.457-53.457s-53.457 23.933-53.457 53.457v124.715C1594.318 3239.872 1618.252 3263.805 1647.775 3263.805z"/><path fill="#38475b" d="M2169.657 3263.805c29.523 0 53.457-23.933 53.457-53.457v-124.715c0-29.523-23.934-53.457-53.457-53.457s-53.457 23.933-53.457 53.457v124.715C2116.2 3239.872 2140.134 3263.805 2169.657 3263.805zM1504.58 3263.805c29.523 0 53.457-23.933 53.457-53.457v-124.715c0-29.523-23.934-53.457-53.457-53.457-29.523 0-53.457 23.933-53.457 53.457v124.715C1451.124 3239.872 1475.057 3263.805 1504.58 3263.805z"/><path fill="#516273" d="M2143.318 3263.805c29.523 0 53.457-23.933 53.457-53.457v-124.715c0-29.523-23.933-53.457-53.457-53.457s-53.457 23.933-53.457 53.457v124.715C2089.862 3239.872 2113.795 3263.805 2143.318 3263.805zM1478.242 3263.805c29.523 0 53.457-23.933 53.457-53.457v-124.715c0-29.523-23.933-53.457-53.457-53.457-29.524 0-53.457 23.933-53.457 53.457v124.715C1424.785 3239.872 1448.718 3263.805 1478.242 3263.805z"/><g><path fill="#e66e5e" d="M1559.921,1816.034l66.884,1380.145h-230.227c-29.456,0-54.984-22.349-56.83-51.724
				c-0.079-1.296-0.118-1401.824-0.118-1401.824c0-34.482,27.963-62.408,62.407-62.408h886.15c6.716,0,13.353,1.06,19.716,3.181
				l173.279,75.446l-858.854-5.222C1587.845,1753.628,1559.921,1781.59,1559.921,1816.034z"/><path fill="#cc5949" d="M2455.189,3196.165h-831.865c-35.017,0-63.403-28.387-63.403-63.403V1743.609
				c0-35.016,28.387-63.403,63.403-63.403h831.865c35.017,0,63.403,28.387,63.403,63.403v1389.153
				C2518.592,3167.779,2490.205,3196.165,2455.189,3196.165z"/><path fill="#e66e5e" d="M1715.958 2925.028v-464.643h646.598v464.643c0 63.572-51.535 115.107-115.107 115.107h-416.384C1767.493 3040.135 1715.958 2988.6 1715.958 2925.028zM2362.557 2141.719v205.267h-646.598v-205.267c0-34.47 27.944-62.414 62.414-62.414h521.771C2334.613 2079.305 2362.557 2107.249 2362.557 2141.719z"/><path fill="#cc5949" d="M1469.079,1680.223c-0.549,0.786-1.1,1.611-1.571,2.435c-2.514,4.085-4.438,8.562-5.46,13.236
				c-0.707,2.278-0.825,4.714-1.178,7.069c-0.079,2.318-0.274,4.714-0.196,8.169l0.196,75.88l0.354,151.795
				c-0.392,202.381-0.825,404.763-3.652,607.105l-4.36,303.593c-2.552,101.17-4.084,202.379-7.619,303.549
				c-3.495-101.17-5.027-202.379-7.58-303.549l-4.36-303.593c-2.828-202.342-3.259-404.725-3.652-607.105l0.353-151.795l0.198-75.88
				c-0.04-2.867,0.117-6.794,0.353-10.801c0.472-3.887,0.903-7.815,1.964-11.585c0.667-2.907,1.571-5.736,2.631-8.524H1469.079z"/></g></g><g><rect width="799.999" height="390.962" x="2737.047" y="2413.815" fill="#274585"/><path fill="#213d7d" d="M3537.046,2413.815v391.816h-415.383c0.586-0.267,1.173-0.586,1.76-0.854
				c94.594-45.431,150.156-120.723,124.294-219.796c-12.37-47.564-54.176-81.531-103.232-84.89
				c-97.26-6.771-254.083,19.036-407.438-47.724v-38.553H3537.046z"/><path fill="#ffc95e" d="M3563.25,2792.05H2334.199c-4.586,0-8.304,3.718-8.304,8.303v13.926
						c0,4.586,3.718,8.303,8.304,8.303h26.327v174.812h-26.327c-4.586,0-8.304,3.718-8.304,8.303v13.926
						c0,4.586,3.718,8.303,8.304,8.303H3563.25c19.423-7.89,57.928-34.102,57.928-117.939S3582.673,2799.94,3563.25,2792.05z"/><path fill="#ffd582" d="M2935.49 2981.79h371.808c17.624-55.817 9.334-108.108-1.54-143.602h-371.722C2944.551 2873.662 2952.554 2925.928 2935.49 2981.79zM3476.242 3027.927c74.433-104.767 0-235.877 0-235.877h-75.076c0 0 71.57 128.003 0 235.877H3476.242zM2325.896 2800.353v13.926c0 4.586 3.718 8.303 8.304 8.303h26.327v174.812h-26.327c-4.586 0-8.304 3.718-8.304 8.303v13.926c0 4.586 3.718 8.303 8.304 8.303h431.681c19.423-7.89 57.928-34.102 57.928-117.939s-38.505-110.049-57.928-117.939h-431.681C2329.614 2792.05 2325.896 2795.767 2325.896 2800.353z"/><path fill="#f0f0f0" d="M2352.845,2822.583h370.149c0,0,56.948,6.542,56.948,87.406s-56.948,87.406-56.948,87.406
							h-370.149V2822.583z"/><path fill="#dedada" d="M2352.845 2850.262c137.128 5.365 274.457 5.406 411.584 0C2627.302 2844.855 2489.973 2844.897 2352.845 2850.262zM2352.845 2881.526c141.172 4.932 282.523 4.54 423.662-1.299C2635.336 2875.253 2493.985 2875.728 2352.845 2881.526zM2352.845 2940.157c141.156 5.365 282.507 5.406 423.662 0C2635.353 2934.751 2494.001 2934.792 2352.845 2940.157zM2352.845 2970.123c136.729 5.365 273.661 5.406 410.39 0C2626.506 2964.716 2489.575 2964.758 2352.845 2970.123zM2352.845 2910.192c141.491 5.365 283.178 5.406 424.669 0C2636.023 2904.786 2494.337 2904.827 2352.845 2910.192z"/><g><path fill="#60a87e" d="M2383.823,3027.927h1229.051c4.586,0,8.304,3.718,8.304,8.304v13.926
						c0,4.586-3.718,8.304-8.304,8.304h-26.327v174.812h26.327c4.586,0,8.304,3.718,8.304,8.303v13.926
						c0,4.586-3.718,8.303-8.304,8.303H2383.823c-19.423-7.89-57.928-34.102-57.928-117.939S2364.401,3035.818,2383.823,3027.927z"/><path fill="#7aba95" d="M2470.832 3263.805c-74.433-104.767 0-235.878 0-235.878h75.076c0 0-71.57 128.003 0 235.878H2470.832zM2956.46 3263.805c-69.453-117.735 0-235.878 0-235.878h75.076c0 0-67.187 117.939 0 235.878H2956.46z"/><path fill="#90d1ac" d="M3621.178,3036.231v13.926c0,4.586-3.718,8.304-8.304,8.304h-26.327v174.812h26.327
						c4.586,0,8.304,3.718,8.304,8.303v13.926c0,4.586-3.718,8.303-8.304,8.303h-431.681c-19.423-7.89-57.928-34.102-57.928-117.939
						s38.505-110.049,57.928-117.939h431.681C3617.46,3027.927,3621.178,3031.645,3621.178,3036.231z"/><path fill="#f0f0f0" d="M3594.229,3058.46H3224.08c0,0-56.948,6.542-56.948,87.406s56.948,87.406,56.948,87.406
							h370.149V3058.46z"/><path fill="#dedada" d="M3594.229 3086.14c-137.128-5.365-274.457-5.406-411.584 0C3319.771 3091.546 3457.101 3091.505 3594.229 3086.14zM3594.229 3117.403c-141.139-5.798-282.49-6.272-423.662-1.299C3311.705 3121.944 3453.057 3122.336 3594.229 3117.403zM3594.229 3176.035c-141.156-5.365-282.507-5.406-423.662 0C3311.721 3181.442 3453.073 3181.4 3594.229 3176.035zM3594.229 3206c-136.729-5.365-273.661-5.406-410.39 0C3320.568 3211.407 3457.499 3211.365 3594.229 3206zM3594.229 3146.07c-141.491-5.365-283.178-5.407-424.669 0C3311.051 3151.476 3452.737 3151.435 3594.229 3146.07z"/></g><g><rect width="19.379" height="544.789" x="3730.797" y="2410.414" fill="#d19f5e"/><path fill="#ffd46b" d="M3751.958,2947.935c0,0,42.719,43.66,37.252,133.1c0,0-19.8-1.74-29.664-10.588
						c0,0-1.842,17.928-12.967,20.409c-11.125,2.481-10.372-18.204-18.741-16.811c-8.369,1.393-17.327,12.938-32.191,13.846
						c0,0-21.29-57.501,30.114-138.533L3751.958,2947.935z"/><circle cx="3738.149" cy="2935.547" r="18.551" fill="#debd34" transform="rotate(-3.107 3738.5 2935.813)"/><polygon fill="#4369b5" points="2472.44 2402.991 3137.048 2465.678 3137.048 2340.318 2472.439 2355.134"/><polygon fill="#163675" points="3137.048 2340.318 3137.048 2465.678 3801.655 2402.991 3801.655 2355.134"/><polygon fill="#34579e" points="3137.047 2292.46 2472.439 2355.134 3137.047 2417.821 3801.655 2355.134"/></g></g></svg>