<svg xmlns="http://www.w3.org/2000/svg" data-name="9" viewBox="0 0 4680 3120"><defs><linearGradient id="a" x1="2426.4" x2="2426.4" y1="1132.213" y2="2256.713" gradientUnits="userSpaceOnUse"><stop offset="0" stop-color="#a3c2e6"/><stop offset="1" stop-color="#0071bc"/></linearGradient><linearGradient id="b" x1="995.814" x2="1141.026" y1="2024.916" y2="2024.916" gradientUnits="userSpaceOnUse"><stop offset="0" stop-color="#2771ea"/><stop offset="1" stop-color="#4caeed"/></linearGradient><linearGradient id="c" x1="3161.764" x2="3161.764" y1="1429.487" y2="2689.76" gradientUnits="userSpaceOnUse"><stop offset="0" stop-color="#2ad8ff"/><stop offset="1" stop-color="#00a6bc"/></linearGradient></defs><path fill="#dcf1ff" d="M3850.4133,1052.555c-43.0677-47.6178-92.0105-91.7258-150.3256-122.5556-76.6865-40.544-165.3951-56.1297-252.4698-69.2797-323.2146-48.8111-661.0022-75.9269-945.841-226.1266-103.7011-54.6829-199.0014-125.1393-311.3669-162.2884-83.8041-27.7061-173.5755-35.606-262.3645-38.8285-266.1267-9.6581-547.8589,26.2009-757.2426,176.5128-85.23,61.185-157.9706,144.5669-175.1766,243.1115-18.7671,107.4881,30.0646,214.505,46.7737,322.5063,20.483,132.3987-9.0619,270.6135-82.3833,385.3962-91.1861,142.7499-251.1947,260.2707-263.3039,425.9823-7.0124,95.9604,40.0688,190.2723,107.1661,264.4038q12.88785,14.2389,26.6687,27.6738c93.9433,91.8406,220.8201,141.3468,352.1975,141.1551,109.8643-.1603,218.177,29.541,332.4864,56.2631,447.1359,104.527,916.436,54.3875,1373.2774,3.6087,135.4781-15.0589,270.961-30.1181,406.1966-46.8436,99.9037-12.3556,201.6416-26.1706,291.6806-67.5657,112.9026-51.9059,198.3146-143.0396,271.4144-237.7674,78.1076-101.2194,146.4938-210.6931,182.5806-330.5658C4117.0783,1542.5736,4035.0368,1256.678,3850.4133,1052.555Z"/><ellipse cx="2425.248" cy="2474.012" fill="#8cc0fc" rx="1374.333" ry="285.988"/><ellipse cx="2424.285" cy="2413.888" fill="#4492e0" rx="1185.642" ry="222.789"/><ellipse cx="1378.511" cy="970.441" fill="#f9a115" rx="302.389" ry="302.154"/><path fill="#fff7e9" d="M1644.3514,953.7708c9.2131,146.7041-102.3378,273.0959-249.1579,282.302-146.818,9.2071-273.307-102.2567-282.5221-248.9618-9.215-146.7039,102.3379-273.0949,249.158-282.301C1508.6474,695.6031,1635.1384,807.0669,1644.3514,953.7708Z"/><rect width="6.884" height="89.665" x="1158.322" y="924.268" fill="#ffb024" transform="rotate(-90 1161.764 969.1)"/><rect width="6.884" height="89.667" x="1592.37" y="924.267" fill="#ffb024" transform="rotate(-90 1595.812 969.1)"/><rect width="6.89" height="89.597" x="1374.69" y="710.9" fill="#ffb024"/><rect width="6.89" height="89.597" x="1374.69" y="1142.873" fill="#ffb024"/><path fill="#ffb024" d="M1385.9346,970.441a7.42215,7.42215,0,1,1-7.4242-7.4162A7.42065,7.42065,0,0,1,1385.9346,970.441Z"/><path fill="#ffb024" d="M1377.8921,967.4154a3.309,3.309,0,0,1,1.4932-2.0529l160.7652-98.4973a3.31675,3.31675,0,0,1,3.4609,5.6591l-160.7648,98.4953a3.31586,3.31586,0,0,1-4.9545-3.6042Z"/><path fill="#ffb024" d="M1296.3288,1085.331a2.41119,2.41119,0,0,1,.395-1.8031l78.312-112.4945a2.41316,2.41316,0,0,1,3.9592,2.7601l-78.3113,112.494a2.41388,2.41388,0,0,1-4.3549-.9565Z"/><path fill="#003676" d="M2988.7954,2445.4783l-1083.2864,3.0091a32.75721,32.75721,0,0,1-30.0612-45.9792l15.0091-34.0206a45.15946,45.15946,0,0,1,41.3172-26.9313H2988.7954Z"/><rect width="786.658" height="111.988" x="2054.846" y="2275.408" fill="#1868b7" rx="25.236"/><path fill="#003676" d="M1497.8036,1048.9644H3354.997a57.2108,57.2108,0,0,1,57.2108,57.2108V2242.4267a57.2109,57.2109,0,0,1-57.2109,57.2109H1497.8036a57.2108,57.2108,0,0,1-57.2108-57.2108V1106.1752A57.2108,57.2108,0,0,1,1497.8036,1048.9644Z"/><path fill="url(#a)" d="M1567.5953,1119.0089H3285.2052a57.2109,57.2109,0,0,1,57.2109,57.2109V2207.4046a57.2108,57.2108,0,0,1-57.2108,57.2108H1567.5952a57.2108,57.2108,0,0,1-57.2108-57.2108V1176.2198A57.2109,57.2109,0,0,1,1567.5953,1119.0089Z"/><rect width="116.911" height="41.242" x="2367.945" y="1063.941" fill="#28b8eb" rx="15.834"/><rect width="30.026" height="221.762" x="1617.469" y="1244.156" fill="#fff"/><rect width="47.72" height="257.166" x="1560.097" y="1208.752" fill="#ebdebe"/><rect width="106.699" height="245.857" x="2368.114" y="1220.062" fill="#ebdebe"/><rect width="30.026" height="221.762" x="2319.858" y="1244.156" fill="#fff"/><rect width="47.721" height="257.166" x="2262.486" y="1208.752" fill="#70c0fd"/><rect width="61.124" height="307.812" x="2005.298" y="1158.106" fill="#f48e9d"/><rect width="300.364" height="50.511" x="1663.85" y="1415.407" fill="#afdbfe"/><rect width="44.917" height="268.646" x="1817.227" y="1258.625" fill="#f9a115" transform="rotate(-90 1839.686 1392.948)"/><rect width="268.646" height="44.917" x="1663.937" y="1325.572" fill="#70c0fd"/><rect width="48.256" height="255.691" x="2091.454" y="1210.227" fill="#d39b90"/><rect width="88.47" height="230.613" x="2159.549" y="1235.305" fill="#ffc236"/><rect width="61.123" height="307.812" x="3049.693" y="1158.106" fill="#afdbfe"/><rect width="48.255" height="255.691" x="3125.294" y="1210.227" fill="#70c0fd"/><rect width="88.47" height="230.613" x="3193.388" y="1235.305" fill="#fff"/><rect width="106.698" height="245.857" x="2607.612" y="1220.062" fill="#afdbfe"/><rect width="30.026" height="221.762" x="2559.355" y="1244.156" fill="#fff"/><rect width="47.72" height="257.166" x="2501.985" y="1208.752" fill="#70c0fd"/><rect width="97.049" height="221.762" x="2801.172" y="1244.156" fill="#fff"/><rect width="61.125" height="307.812" x="2908.408" y="1158.106" fill="#f48e9d"/><rect width="48.257" height="255.691" x="2984.008" y="1210.227" fill="#70c0fd"/><rect width="56.298" height="273.884" x="2726.644" y="1192.034" fill="#70c0fd"/><rect width="1779.617" height="34.894" x="1529.729" y="1465.613" fill="#5e85bc"/><rect width="30.026" height="221.762" x="3191.579" y="1602.998" fill="#fff"/><rect width="47.72" height="257.166" x="3231.257" y="1567.594" fill="#70c0fd"/><rect width="106.699" height="245.857" x="2353.705" y="1578.904" fill="#f48e9d" transform="rotate(180 2407.055 1701.832)"/><rect width="30.026" height="221.762" x="2489.19" y="1602.998" fill="#f9a115" transform="rotate(180 2504.203 1713.879)"/><rect width="47.721" height="257.166" x="2528.867" y="1567.594" fill="#70c0fd"/><rect width="61.124" height="307.812" x="2762.097" y="1516.948" fill="#ebdebe" transform="rotate(180 2792.659 1670.854)"/><rect width="300.364" height="50.511" x="2874.86" y="1774.249" fill="#afdbfe"/><rect width="268.646" height="44.917" x="2865.065" y="1729.331" fill="#fff"/><rect width="268.646" height="44.917" x="2906.491" y="1684.414" fill="#70c0fd"/><rect width="48.256" height="255.691" x="2699.364" y="1569.07" fill="#70c0fd"/><rect width="88.47" height="230.613" x="2591.055" y="1594.147" fill="#fff"/><rect width="61.123" height="307.812" x="1728.258" y="1516.948" fill="#d39b90" transform="rotate(180 1758.82 1670.854)"/><rect width="48.255" height="255.691" x="1665.525" y="1569.07" fill="#70c0fd"/><rect width="88.47" height="230.613" x="1557.216" y="1594.147" fill="#f9a115" transform="rotate(180 1601.45 1709.454)"/><rect width="106.698" height="245.857" x="2124.764" y="1578.904" fill="#ebdebe" transform="rotate(180 2178.113 1701.832)"/><rect width="30.026" height="221.762" x="2249.693" y="1602.998" fill="#fff"/><rect width="47.72" height="257.166" x="2289.369" y="1567.594" fill="#70c0fd"/><rect width="97.049" height="221.762" x="1940.854" y="1602.998" fill="#ffc236" transform="rotate(180 1989.378 1713.879)"/><rect width="61.125" height="307.812" x="1869.542" y="1516.948" fill="#afdbfe"/><rect width="48.257" height="255.691" x="1806.808" y="1569.07" fill="#70c0fd"/><rect width="56.298" height="273.884" x="2056.132" y="1550.876" fill="#70c0fd"/><rect width="1779.617" height="34.894" x="1529.729" y="1824.455" fill="#5e85bc" transform="rotate(180 2419.537 1841.902)"/><rect width="30.026" height="221.762" x="1606.914" y="1961.84" fill="#f48e9d"/><rect width="47.72" height="257.166" x="1560.097" y="1926.437" fill="#70c0fd"/><rect width="106.699" height="245.857" x="2368.114" y="1937.746" fill="#ebdebe"/><rect width="30.026" height="221.762" x="2319.858" y="1961.84" fill="#fff"/><rect width="47.721" height="257.166" x="2262.486" y="1926.437" fill="#70c0fd"/><rect width="61.124" height="307.812" x="2015.853" y="1875.79" fill="#afdbfe"/><rect width="50.511" height="300.364" x="1788.776" y="2008.165" fill="#d39b90" transform="rotate(-90 1814.032 2158.347)"/><rect width="268.646" height="44.918" x="1705.363" y="2088.173" fill="#fff"/><rect width="268.646" height="44.917" x="1663.937" y="2043.256" fill="#70c0fd"/><rect width="48.256" height="255.691" x="2091.454" y="1927.912" fill="#70c0fd"/><rect width="88.47" height="230.613" x="2159.549" y="1952.989" fill="#ffc236"/><rect width="61.123" height="307.812" x="3049.693" y="1875.79" fill="#afdbfe"/><rect width="48.255" height="255.691" x="3125.294" y="1927.912" fill="#70c0fd"/><rect width="88.47" height="230.613" x="3193.388" y="1952.989" fill="#fff"/><rect width="106.698" height="245.857" x="2607.612" y="1937.746" fill="#d39b90"/><rect width="30.026" height="221.762" x="2559.355" y="1961.84" fill="#f9a115"/><rect width="47.72" height="257.166" x="2501.985" y="1926.437" fill="#70c0fd"/><rect width="97.049" height="221.762" x="2801.172" y="1961.84" fill="#fff"/><rect width="61.125" height="307.812" x="2908.408" y="1875.79" fill="#afdbfe"/><rect width="48.257" height="255.691" x="2984.008" y="1927.912" fill="#70c0fd"/><rect width="56.298" height="273.884" x="2726.644" y="1909.718" fill="#70c0fd"/><rect width="1779.617" height="34.894" x="1529.729" y="2183.297" fill="#5e85bc"/><circle cx="1690.132" cy="558.756" r="28.397" fill="#bf7340" transform="rotate(-76.717 1690.132 558.756)"/><circle cx="1691.827" cy="564.69" r="11.443" fill="#ad6331"/><path fill="#72304e" d="M1905.0661,899.2199c7.3622,14.9251-6.5563,12.8616,8.2845,20.3924,19.2414,9.7639,76.192,5.7453,116.2932,16.6313,17.0508,4.6286,24.6869,8.0456,26.9552,25.5672,1.9065,14.7262-8.7754,28.7651-21.9904,35.5371s-28.51,7.8618-43.3278,8.8249q-66.66945,4.3332-133.339,8.6663-33.4236,2.1723-66.8473,4.3447c-30.3259,1.971-61.4297,3.8591-90.5117-4.9605-15.184-4.6047-29.7281-12.2732-40.5192-23.9054s-17.5029-27.5166-16.1251-43.3235c.9457-10.8496,5.5312-21.052,10.8723-30.543a188.74581,188.74581,0,0,1,250.3778-75.5048c12.0463,6.1561,4.0347,45.3997-.1225,58.2733"/><path fill="#5b213e" d="M1851.0185,1046.4909a410.36727,410.36727,0,0,1-251.0762,56.7681c-20.0628-2.0013-40.5011-5.677-57.7625-16.0845-17.2607-10.4069-30.8825-28.7474-30.8215-48.8955.0604-16.0721,8.697-31.1373,20.1842-42.3817a107.32189,107.32189,0,0,1,11.1716-9.4367c8.9516-6.6353,18.7888-12.1542,28.5412-17.6126q37.24515-20.81475,74.4772-41.6537l.34-1.1526c3.2019,27.6925,23.9926,50.7878,48.2884,64.4582,24.2965,13.6579,52.0619,19.541,79.1841,25.9696,17.4668,4.1489,35.128,8.7095,51.5637,15.757A137.81344,137.81344,0,0,1,1851.0185,1046.4909Z"/><path fill="#6d2b49" d="M1825.1087,1032.2265a410.79,410.79,0,0,1-194.805,28.5294c-20.051-2.0013-40.4899-5.6888-57.7625-16.0963-17.2608-10.3951-30.8826-28.7356-30.8097-48.8955a46.78881,46.78881,0,0,1,.9826-9.3035c8.9516-6.6353,18.7888-12.1542,28.5412-17.6126q37.24515-20.81475,74.4772-41.6537l.34-1.1526c3.2019,27.6925,23.9926,50.7878,48.2884,64.4582,24.2965,13.6579,52.0619,19.541,79.1841,25.9696C1791.0118,1020.6184,1808.673,1025.179,1825.1087,1032.2265Z"/><path fill="#d6c59f" d="M1678.4895,960.1264c67.3142,26.0122,144.3738,26.4066,211.9563,1.0847,6.2849-2.3549,12.9851-5.3572,16.058-11.2709,2.9965-5.7667,3.2464-19.116,2.4269-25.5492-2.2122-17.3655-1.9988-28.7738,3.5284-45.4004.7181-2.1603,1.4653-4.6618.2363-6.5836-1.3653-2.135-4.3713-2.3533-6.9248-2.34-58.9626.3074-119.411,1.1244-174.4479,22.0581-7.9955,3.0411-16.001,6.6025-22.2321,12.4183-7.3676,6.8764-11.6409,16.3051-15.7316,25.4727q-7.36005,16.49415-14.7199,32.9884"/><path fill="#ebdebe" d="M1954.6559,856.0403c-.8855,8.8546-3.6632,18.2677-10.8683,23.4833-4.5973,3.3357-10.3832,4.4883-15.9506,5.5555q-37.40865,7.1874-74.8172,14.3498c-26.4553,5.0823-53.2985,10.1771-80.1542,8.0176-18.1462,24.0898-46.2267,38.2091-73.2885,51.5158-10.7593,5.2884-21.7247,10.6497-33.5632,12.5539-11.839,1.9166-24.9029-.0965-33.8303-8.1024-5.3738-4.8276-8.8546-11.3901-11.8148-17.9886-21.4938-47.7673-21.4819-102.0484-21.0934-154.4253.1694-22.4035.388-45.1955,7.1322-66.5442,9.9829-31.6466,35.1766-57.6293,65.7074-70.3532a108.05018,108.05018,0,0,1,37.2021-8.3819l-2.4502-.3761q27.1101-3.20175,54.2082-6.3924c26.9528-3.1776,54.8154-6.2829,80.8093,1.5162,1.4676.4371,2.9116.9097,4.3426,1.4315,30.7131,10.7712,54.9847,36.1225,70.6321,64.8343,16.3877,30.0457,24.5025,63.8026,31.9866,97.1964C1952.6783,821.058,1956.4144,838.5735,1954.6559,856.0403Z"/><path fill="#d6c59f" d="M1846.9667,663.4428c-1.2609,18.3884-6.5014,37.2383-18.8978,50.8843-12.397,13.6461-33.0663,20.7783-50.0605,13.6343-11.9113-5.0101-20.4141-15.9388-31.9374-21.7733-12.3242-6.2468-27.0257-6.1497-39.6288-11.8142-16.569-7.4722-26.6975-23.2534-34.3272-40.2714a108.05018,108.05018,0,0,1,37.2021-8.3819l-2.4502-.3761q27.1101-3.20175,54.2082-6.3924c26.9528-3.1776,54.8154-6.2829,80.8093,1.5162,1.4676.4371,2.9116.9097,4.3426,1.4315A101.83833,101.83833,0,0,1,1846.9667,663.4428Z"/><path fill="#bf7340" d="M1657.4068 489.8533c.4986.6265.9972 1.2677 1.4812 1.9082-.057 1.7663-.0285 3.5466.0856 5.3268zM1863.5749 563.6984c-2.5925 19.0272-5.3554 38.5954-14.9826 55.2164a77.76164 77.76164 0 01-15.7233 19.1412c-11.5216 10.297-25.8923 17.6176-40.8464 21.8047-22.9862 6.4374-47.3548 6.1092-71.0816 3.5459-12.4618-1.3533-26.4903-4.3436-32.9138-15.1106-6.2094-10.425-2.6913-23.5988-.3985-35.5057 6.6085-34.3659.5695-70.9112-16.1224-101.6171a147.09138 147.09138 0 00-12.6183-19.4117c.9256-30.0794 25.1941-57.0391 54.1629-66.4105 30.6774-9.927 64.7157-3.162 93.7547 10.8526 21.7762 10.5105 42.3993 25.9347 52.5106 47.8812C1870.5958 508.5675 1867.2064 536.98 1863.5749 563.6984z"/><path fill="#ad6331" d="M1657.4068 489.8533c.4986.6265.9972 1.2677 1.4812 1.9082-.057 1.7663-.0285 3.5466.0856 5.3268zM1863.5749 563.6984c-2.5925 19.0272-5.3554 38.5954-14.9826 55.2164a77.76164 77.76164 0 01-15.7233 19.1412c.427-23.5425-.8401-47.3262-10.9096-68.3764-10.7949-22.5167-31.0759-39.7066-54.0057-49.562-22.9438-9.8554-48.4084-12.7893-73.3465-11.6356a147.73807 147.73807 0 00-23.1009 2.6912 147.09138 147.09138 0 00-12.6183-19.4117c.9256-30.0794 25.1941-57.0391 54.1629-66.4105 30.6774-9.927 64.7157-3.162 93.7547 10.8526 21.7762 10.5105 42.3993 25.9347 52.5106 47.8812C1870.5958 508.5675 1867.2064 536.98 1863.5749 563.6984z"/><path fill="#5b3112" d="M1915.9714,518.1239c-4.8136,2.9902-10.9381,4.429-14.7976,8.388-2.1788,2.2219-3.418,5.0418-4.9994,7.6482-9.2712,15.3811-32.2295,22.7587-50.2741,16.1363-17.4034-6.3665-27.8999-24.8811-23.8123-41.2595-2.1085,6.5376-6.2239,7.8046-14.6836,9.0724-9.1864,1.3671-18.5578-.3276-27.829-1.2247a12.9659,12.9659,0,0,0-5.4972.2706c-2.991,1.0257-4.5717,3.8595-6.2671,6.2948-9.9124,14.2706-33.5258,19.0272-49.2915,9.9409-17.119,11.3227-41.715,12.6468-60.2011,3.2476-18.5008-9.4145-29.8652-29.0258-27.8144-47.9959.3845-3.6885,1.2246-7.491-.0431-11.0091-1.0112-2.7775-3.2469-5.0417-5.2414-7.3491-6.0952-7.0355-10.5953-15.4528-11.137-24.3394-.541-8.8867,3.3331-18.2442,11.2942-23.5564a46.49644,46.49644,0,0,1,10.5105-4.8422c5.0848-1.7948,10.2684-3.4179,14.5271-6.4374,4.7135-3.347,7.8331-8.1036,11.5355-12.3477,15.1398-17.3756,41.7581-26.0064,65.7985-21.3346,4.6287.911,9.1864,2.2643,13.9145,2.4778,4.8568.2135,9.6558-.7692,14.4556-1.4096a97.95565,97.95565,0,0,1,58.7199,10.653c4.8713,2.6349,9.6279,5.7677,15.2246,6.7218,4.5716.7838,9.2573.0146,13.9145-.0285,17.2191-.1989,33.9535,10.3971,39.4932,25.0237,1.3671,3.6176,2.2503,7.6336,5.3129,10.297,3.5883,3.1189,9.0863,3.4465,13.7434,5.0842,6.7504,2.3929,11.9486,7.9756,13.3874,14.3421,1.4666,6.5939-.9117,13.4444-.0709,20.1239.7121,5.7677,3.7594,11.08,6.3519,16.4492,1.9937,4.1301,3.7169,8.3172,3.9019,12.7894C1926.3824,507.0008,1922.4374,514.0933,1915.9714,518.1239Z"/><path fill="#49250d" d="M1915.9714,518.1239c-4.8136,2.9902-10.9381,4.429-14.7976,8.388-2.1788,2.2219-3.418,5.0418-4.9994,7.6482-9.2712,15.3811-32.2295,22.7587-50.2741,16.1363-17.4034-6.3665-27.8999-24.8811-23.8123-41.2595-2.1085,6.5376-6.2239,7.8046-14.6836,9.0724-9.1864,1.3671-18.5578-.3276-27.829-1.2247a12.9659,12.9659,0,0,0-5.4972.2706c-2.991,1.0257-4.5717,3.8595-6.2671,6.2948-9.9124,14.2706-33.5258,19.0272-49.2915,9.9409-17.119,11.3227-41.715,12.6468-60.2011,3.2476-18.5008-9.4145-29.8652-29.0258-27.8144-47.9959.3845-3.6885,1.2246-7.491-.0431-11.0091-1.0112-2.7775-3.2469-5.0417-5.2414-7.3491-6.0952-7.0355-10.5953-15.4528-11.137-24.3394-.541-8.8867,3.3331-18.2442,11.2942-23.5564a46.49644,46.49644,0,0,1,10.5105-4.8422,47.64551,47.64551,0,0,0,6.0243,10.6106c8.4597,11.2226,21.5195,18.571,35.3061,21.3485,6.1384,1.2392,12.6753,1.7093,17.8881,5.1412,10.5675,6.9221,11.7211,23.0438,22.1322,30.2073,8.6161,5.9249,20.5939,3.4895,29.7087-1.6516,9.1147-5.1273,16.806-12.619,26.2052-17.176,21.1495-10.2546,49.3916-2.1934,61.9389,17.6746,2.3783,3.7594,4.2295,7.8331,6.8359,11.4214,12.0348,16.5355,37.2435,18.0592,55.7582,9.3999,9.1572-4.2865,17.1328-10.4249,24.5105-17.361,1.9937,4.1301,3.7169,8.3172,3.9019,12.7894C1926.3824,507.0008,1922.4374,514.0933,1915.9714,518.1239Z"/><rect width="289.745" height="14.87" x="1635.259" y="919.728" fill="#c9c3b5" rx="3.715"/><path fill="#f8f1e1" d="M1917.5052,735.088V918.1392a9.7966,9.7966,0,0,1-9.8004,9.8011H1650.1029a9.797,9.797,0,0,1-9.801-9.8011V735.088a9.8049,9.8049,0,0,1,9.801-9.801h257.6019a9.79274,9.79274,0,0,1,9.8004,9.801Z"/><polygon fill="#fff8eb" points="1870.757 725.287 1640.302 915.143 1640.302 852.213 1794.375 725.287 1870.757 725.287"/><path fill="#fff8eb" d="M1917.5052,735.088v14.1673l-216.8934,178.685h-21.9919l238.267-196.2851A9.78582,9.78582,0,0,1,1917.5052,735.088Z"/><polygon fill="#fff8eb" points="1917.505 768.445 1917.505 780.684 1738.76 927.94 1723.901 927.94 1917.505 768.445"/><circle cx="1779.032" cy="821.22" r="22.438" fill="#c9c3b5"/><path fill="#bf7340" d="M1751.2099,934.8221c-.3867-5.7055-5.5929-11.0679-11.2722-10.3999-2.0007.2352-4.1916,1.1046-5.8979.0338a8.84779,8.84779,0,0,1-2.2039-2.7482,9.63591,9.63591,0,0,0-13.2664-2.0641,10.8519,10.8519,0,0,1-2.8382,1.9948c-3.7142,1.2894-6.4695-3.8717-10.2766-4.8531-4.5458-1.1721-8.1178,3.7758-10.2014,7.9821a17.337,17.337,0,0,0-9.9308-6.4244,11.51758,11.51758,0,0,0-10.9488,3.5395c-2.6576,3.2101-2.949,7.8861-1.7289,11.8704a24.78581,24.78581,0,0,0,3.0985,6.3158c1.5749,2.3974,2.8443,4.9719,4.1809,7.5099,1.6209,3.0779,4.9187,4.8043,8.5607,6.3135a56.90649,56.90649,0,0,0,21.0015,3.516,136.02021,136.02021,0,0,0,17.9649-2.2444c5.6148-1.085,11.303-2.5882,15.9708-5.8919C1748.0904,945.9681,1751.5967,940.5281,1751.2099,934.8221Z"/><path fill="#9e7a41" d="M1891.6639,1004.6294c7.9726-6.96,16.0006-13.9784,22.4724-22.3522,4.8153-6.2303,8.7668-13.2055,14.5087-18.594s13.9998-9.037,21.5117-6.6757c8.4305,2.65,13.1005,11.9261,14.0823,20.7086.9808,8.7737-1.1794,18.4427-7.876,24.1956-4.3723,3.7563-10.1089,5.4289-15.6546,7.0015q-5.64885,1.602-11.2979,3.2038c-6.6565,1.8876-13.4968,3.7941-20.3881,3.1746s-13.9497-4.3313-16.5368-10.7484"/><path fill="#682845" d="M2104.5325,1023.8689c-.0368,23.3014-15.5142,44.541-35.2376,56.9499-19.7229,12.4088-43.1943,17.3093-66.3014,20.3175-53.5052,6.9622-108.5136,4.8395-160.4902-9.6435-51.9647-14.4948-100.8111-41.6537-138.1104-80.6393-5.8712-6.1377-25.6426-26.9522-18.8984-31.8651q.18135-.12705.4004-.2547c1.9889-1.104,19.4925,8.6852,21.7366,9.0127,16.63,2.4017,32.7625,7.2412,49.1135,11.014a385.95287,385.95287,0,0,0,112.5654,8.9517c15.9021-1.0673,31.8527-3.1657,47.0269-8.0787,38.8404-12.6031,71.7118-48.0829,110.6849-59.6299a25.75683,25.75683,0,0,1,23.0349,4.3787c11.2083,8.6727,21.7733,19.4077,31.2344,29.3053.4246.4614.8611.9097,1.2858,1.3587C2095.1922,988.2919,2104.5567,1005.5894,2104.5325,1023.8689Z"/><path fill="#7c3553" d="M2083.7174,990.0391c-.0367,23.3014-15.5259,44.5405-35.2494,56.9493-19.7228,12.4088-43.1942,17.3094-66.3014,20.3175-53.4928,6.9629-108.5142,4.8401-160.4783-9.6553-51.1029-14.2401-99.1616-40.744-136.1938-78.6622q.18135-.12705.4004-.2547c1.9889-1.104,19.4925,8.6852,21.7366,9.0127,16.63,2.4017,32.7625,7.2412,49.1135,11.014a385.95287,385.95287,0,0,0,112.5654,8.9517c15.9021-1.0673,31.8527-3.1657,47.0269-8.0787,38.8404-12.6031,71.7118-48.0829,110.6849-59.6299a25.75683,25.75683,0,0,1,23.0349,4.3787c11.2083,8.6727,21.7733,19.4077,31.2344,29.3053A57.27055,57.27055,0,0,1,2083.7174,990.0391Z"/><ellipse cx="1713.022" cy="573.713" fill="#44231b" rx="5.213" ry="13.605" transform="rotate(-3.28 1713.025 573.714)"/><path fill="#44231b" d="M1794.1564 572.4999c.4299 7.5014-1.5517 13.7159-4.4259 13.8806s-5.5528-5.7828-5.9826-13.2841 1.5517-13.716 4.426-13.8807S1793.7266 564.9986 1794.1564 572.4999zM1696.4676 552.1538c2.2433-3.6318 7.5529-3.5792 11.3111-3.4785a22.62669 22.62669 0 0112.0782 3.4392c2.2984 1.5234 4.4406-2.1753 2.1565-3.6893-4.4491-2.949-9.8355-4.0157-15.1089-4.0356-5.2279-.0197-11.1362.7671-14.1262 5.6077-1.449 2.3459 2.2454 4.4941 3.6893 2.1565zM1778.0742 549.9222a54.92064 54.92064 0 016.0238-3.5796 15.98976 15.98976 0 016.6041-2.1117c4.3642-.1253 8.0325 2.9265 11.0239 5.7548 1.9974 1.8885 5.0243-1.1274 3.0212-3.0212-3.7339-3.5303-8.2271-6.9406-13.5992-7.0101-5.4605-.0706-10.8703 3.3105-15.2303 6.2785-2.2598 1.5383-.1247 5.2421 2.1565 3.6893z"/><path fill="#894a1f" d="M1740.7764 567.2147s3.4675 24.0251-8.1735 36.9045 8.1735 18.8238 19.0714 11.8887c0 0-22.0436.2477-11.3933-13.3748S1740.7764 567.2147 1740.7764 567.2147zM1740.5544 631.343s22.1769 5.0402 40.5737-10.8365c0 0 2.5201 5.0402-.7561 7.8123s-19.4048 14.1126-32.7613 8.0644z"/><circle cx="1870.686" cy="558.756" r="28.397" fill="#ad6331" transform="rotate(-22.5 1870.686 558.756)"/><circle cx="1872.381" cy="564.69" r="11.443" fill="#bf7340"/><path fill="#9b95c6" d="M706.18,2426.223c-13.1657-3.3254-24.591-11.568-34.387-20.9718s-18.2804-20.087-27.8646-29.7067c-4.3021-4.3179-9.0551-8.5517-14.9216-10.2059s-13.1001.0458-16.0797,5.3631c-1.6467,2.9386-1.7817,6.4564-1.8769,9.8236-.1344,4.7517-.2502,9.63,1.3311,14.113a38.9002,38.9002,0,0,0,5.1753,9.0608q18.88575,27.091,37.7714,54.1821c3.4936,5.0115,7.1042,10.1403,12.1699,13.5549,11.3149,7.6273,28.7597,3.5271,35.4922-8.3421,2.7827-4.9057,3.8108-10.5832,5.7516-15.8788,1.4235-3.8842,3.3689-7.6679,3.732-11.7888s-1.4023-8.8293-5.2849-10.2572"/><path fill="#123049" d="M1386.4237,2364.3239c-16.4256-15.9323-37.9484-25.4662-59.5139-33.119-84.2983-29.9136-176.0682-35.6108-264.7826-24.178-88.7144,11.4321-174.6433,39.5535-256.5447,75.5148-35.0842,15.4052-69.7757,32.355-106.8754,41.9369-5.6337,9.4978,8.1598,18.4933,18.9517,20.8352a649.7866,649.7866,0,0,0,315.6469-10.4289c20.5663-5.908,41.1474-12.8927,62.5298-13.7349,18.5318-.7297,36.8871,3.1924,55.105,6.6696a1190.11247,1190.11247,0,0,0,146.8168,18.6532c20.7512,1.3327,37.9736,4.51,55.8595,1.0108,10.5565-2.0653,21.3945-2.7892,32.0087-1.0448a19.74868,19.74868,0,0,0,7.5715-.332c8.7663-1.8864,13.9399-11.1508,15.7197-19.939C1413.4588,2403.74,1402.8494,2380.2561,1386.4237,2364.3239Z"/><path fill="#b4b1dd" d="M780.5018,2427.2093c-35.7952,11.4667-74.3574,8.054-111.9437,7.8089-11.5865-.0756-23.8086.3364-33.6907,6.386-2.4423,1.4951-4.9172,3.789-4.7343,6.6468a7.74234,7.74234,0,0,0,1.5266,3.7089c2.9992,4.463,7.2904,7.9112,11.8216,10.8062,13.2817,8.4857,28.9233,12.6655,44.5743,14.5243,5.8256.6918,11.6902,1.0799,17.4809,2.0205,11.4371,1.8578,22.4114,5.8399,33.6874,8.5066,4.031.9534,8.1827,1.7425,12.2968,1.2611a30.72553,30.72553,0,0,0,10.8286-3.7976,48.4307,48.4307,0,0,0,15.9424-13.2378c4.0551-5.3965,6.637-11.7305,9.1748-17.9855,1.4005-3.4518,2.8174-6.9705,3.1194-10.6833a18.82423,18.82423,0,0,0-9.9941-17.8641"/><path fill="#183e5e" d="M1567.4464,2353.0102l-1.2373-4.9005c-12.1298,43.6307-45.1712,80.93-87.0192,98.2394-58.5147,24.1993-125.7626,9.1583-184.6528-14.0951-71.36-28.1652-138.1838-68.0604-196.0553-118.4236a654.604,654.604,0,0,1-313.8837,140.5855,55.3848,55.3848,0,0,0-8.2244-26.6134q14.1375-12.60855,28.5052-24.9148c75.0233-64.3605,154.6195-123.2874,234.0944-182.1297,11.3048-8.3695,22.731-16.8118,35.6006-22.4888a94.85787,94.85787,0,0,1,26.2373-7.2897c38.4756-4.9248,75.4474,13.6703,111.8979,26.916,96.7718,35.1399,204.2785,34.4126,299.3404,73.9554,12.1665,5.0705,24.8176,11.9966,34.9586,20.7665C1559.453,2323.3524,1568.1139,2336.8528,1567.4464,2353.0102Z"/><path fill="#244a77" d="M1547.0081,2312.6174c-13.9861,39.6045-45.2447,72.9005-84.0964,88.9726-58.5147,24.1993-125.7626,9.146-184.6534-14.1069-71.3594-28.1658-138.1832-68.0604-196.0547-118.4236a654.92022,654.92022,0,0,1-277.3247,133.8282c75.0233-64.3605,154.6195-123.2874,234.0944-182.1297,11.3048-8.3695,22.731-16.8118,35.6006-22.4888a94.85787,94.85787,0,0,1,26.2373-7.2897c38.4756-4.9248,75.4474,13.6703,111.8979,26.916,96.7718,35.1399,204.2785,34.4126,299.3404,73.9554C1524.216,2296.9214,1536.8671,2303.8475,1547.0081,2312.6174Z"/><path fill="#ffaea1" d="M1375.7692,2106.2985a845.5887,845.5887,0,0,1-129.8806-47.5185c-14.9071-6.884-29.8852-14.3923-41.62-25.8766-9.83-9.6198-16.9433-21.5998-25.0948-32.6783-4.2141-5.7274-8.8895-11.3771-15.125-14.7957-5.9661-3.2712-12.8815-4.2425-19.6234-5.1576q-18.71445-2.54085-37.4278-5.0811c-2.8667,8.5678,5.18,17.0386,13.4891,20.5864,8.3091,3.5483,17.9087,4.8537,24.6026,10.9216a4.61383,4.61383,0,0,1,1.7088,2.6285,4.387,4.387,0,0,1-1.2278,3.1776c-5.2997,6.5725-14.8549,7.1837-23.2422,8.1533-8.3867.9689-18.1764,4.1655-20.3359,12.3276-1.6441,6.2142,1.9936,12.4758,5.4774,17.8774,3.1663,4.9094,6.4298,9.9248,11.0928,13.4435,14.2336,10.741,34.7122,3.745,52.0944,7.7233,18.6645,4.2721,31.6442,20.513,45.6901,33.5247,32.419,30.0321,75.4989,45.4538,117.8918,57.9343,7.5308,2.2169,15.3169,4.3882,23.1202,3.5282,13.5868-1.4973,25.1274-12.7257,28.4388-25.9874C1389.1085,2127.7674,1384.6694,2116.6734,1375.7692,2106.2985Z"/><path fill="#91c5eb" d="M1146.4196,2128.256l-12.227,7.3869a14.05677,14.05677,0,0,1-19.3106-4.7548L997.8407,1937.2227a14.06767,14.06767,0,0,1,4.7667-19.3107l9.2916-5.616,2.9354-1.7709a14.05246,14.05246,0,0,1,19.3106,4.7548l117.0413,193.6655A14.06764,14.06764,0,0,1,1146.4196,2128.256Z"/><path fill="url(#b)" d="M1134.2412,2131.9193l-9.3041,5.616a14.01533,14.01533,0,0,1-10.0551-6.6472L997.8407,1937.2227a14.06767,14.06767,0,0,1,4.7667-19.3107l9.2916-5.616a14.00278,14.00278,0,0,1,10.0682,6.6472l117.0288,193.6654A14.06745,14.06745,0,0,1,1134.2412,2131.9193Z"/><path fill="#2e2a44" d="M1604.1274,2362.4469c-6.3806,5.1309-15.0415,6.0774-23.1925,6.829-4.9609.449-10.1646.8736-14.7619-1.0548-6.0892-2.5474-9.7892-8.6005-13.6704-13.9375a105.60327,105.60327,0,0,0-10.0432-11.8752c-29.1602-29.7182-73.8832-41.2776-114.3363-54.6933a675.25094,675.25094,0,0,1-75.7145-30.3004c-2.1109-.995-4.294-2.0741-5.7374-3.9061-3.9789-5.0456-.4122-12.2749,2.8139-17.8305,18.3523-31.6105,24.005-69.2255,23.1924-105.7844-.8126-36.5477-7.6907-72.6459-12.7849-108.8536-6.162-43.825-9.0002-91.4347,13.7918-129.3772a60.256,60.256,0,0,1,4.2455-6.1858c11.7898-15.2837,31.21-26.662,47.9129-18.2315l-2.5113,3.0567a197.906,197.906,0,0,1,96.4567,58.308c45.1961,49.8539,61.8137,119.2244,68.4732,186.1815s5.0824,135.1507,21.1059,200.4944C1613.358,2331.5762,1617.1912,2351.9304,1604.1274,2362.4469Z"/><path fill="#403b59" d="M1542.4594,2342.4084c-29.1602-29.7182-73.8832-41.2776-114.3363-54.6933a675.25094,675.25094,0,0,1-75.7145-30.3004c-2.1109-.995-4.294-2.0741-5.7374-3.9061-3.9789-5.0456-.4122-12.2749,2.8139-17.8305,18.3523-31.6105,24.005-69.2255,23.1924-105.7844-.8126-36.5477-7.6907-72.6459-12.7849-108.8536-6.162-43.825-9.0002-91.4347,13.7918-129.3772a60.256,60.256,0,0,1,4.2455-6.1858,197.96949,197.96949,0,0,1,71.3114,49.9142c45.1956,49.8539,61.8256,119.2244,68.4851,186.1809,6.6472,66.957,5.0699,135.1507,21.094,200.5068A125.46437,125.46437,0,0,1,1542.4594,2342.4084Z"/><path fill="#ff9e94" d="M1354.2484,1867.4068a93.578,93.578,0,0,1,28.9628,39.8188c4.3145,11.426,8.2892,25.6824,20.1102,28.7536,10.7709,2.7983,21.2666-6.2833,26.0845-16.3148,6.6724-13.8927,6.7236-30.0019,5.3282-45.3506a271.16232,271.16232,0,0,0-12.4583-60.1371c-1.4056-4.2716-2.9478-8.568-5.5306-12.2492-8.1152-11.5661-25.4405-14.1061-38.1234-7.8789s-20.8888,19.3613-24.3765,33.0532-2.8689,28.0598-1.9496,42.159"/><path fill="#ffaea1" d="M1395.0816,1842.0762c-5.2766,13.3671-14.5807,24.6843-23.7385,35.7469-13.6093,16.46-29.9124,34.2911-51.2486,34.9219a40.21033,40.21033,0,0,1-5.9317-.2671c-26.4914-3.1053-48.5194-30.8222-75.5812-27.8987-9.4492,1.0187-21.3848,4.8762-26.7342-2.9839-4.0755-5.9802-.4365-13.9008.9346-21.0087,3.7722-19.5173-10.6018-37.2146-21.3611-53.9299a173.59909,173.59909,0,0,1-26.8314-106.5117c-1.2248-14.0346,3.8332-27.7654,12.6155-39.1069a73.98864,73.98864,0,0,1,37.554-25.606c30.1304-8.5519,62.6145.0847,90.9497,13.44,28.2019,13.2943,54.9965,32.1684,70.4982,59.2177,10.8079,18.8499,15.5023,40.4893,19.5292,61.838C1400.273,1793.8967,1404.0209,1819.3931,1395.0816,1842.0762Z"/><path fill="#ffc4b7" d="M1113.0139 1724.8412l.3755 8.7456a47.1351 47.1351 0 01-.7036-4.9609C1112.7711 1727.3643 1112.8925 1726.1028 1113.0139 1724.8412zM1343.1779 1870.4723c-5.2766 13.3672-14.5807 24.6844-23.7385 35.7588-1.7105 2.0742-3.4689 4.1726-5.2766 6.2468-26.4914-3.1053-48.5194-30.8222-75.5812-27.8987-9.4492 1.0187-21.3848 4.8762-26.7342-2.9839-4.0755-5.9802-.4365-13.9008.9346-21.0087 3.7722-19.5173-10.6018-37.2146-21.3611-53.9299a173.59909 173.59909 0 01-26.8314-106.5117c-1.2248-14.0346 3.8332-27.7654 12.6155-39.1069 25.885-2.9354 52.7163 4.9733 76.5875 16.242 28.2144 13.2943 55.009 32.156 70.5113 59.2177 10.8073 18.838 15.4899 40.4894 19.5292 61.838C1348.3568 1822.2923 1352.1172 1847.7893 1343.1779 1870.4723z"/><path fill="#592f26" d="M1497.7483,1714.9555a173.868,173.868,0,0,1-62.0316,91.9322c-9.8135,7.4598-25.5699,13.379-32.1205.5337a19.744,19.744,0,0,1-1.9888-8.103,169.18421,169.18421,0,0,0-2.1228-20.0871c-3.8332-22.8886-26.1159-37.8087-48.9079-33.4057-22.3307,4.3308-44.8076,3.9547-67.5754-3.1657a163.13275,163.13275,0,0,1-85.9395-64.1182c-16.6425,13.5489-41.9215,11.0868-60.5528.4365-21.967-12.5546-37.8448-35.9774-39.4706-61.2191a67.99777,67.99777,0,0,1,6.9267-34.0974c5.9678-12.1903,15.4774-22.5617,27.5706-28.7356-4.7549,11.8876,3.6638,25.7641,15.0776,31.5619,11.4262,5.7984,24.8301,5.6284,37.6387,5.3128-6.659-4.6696-13.1362-10.3347-15.9625-17.9644-2.8264-7.6292-.7522-17.5883,6.4286-21.3967a6.93569,6.93569,0,0,1,5.228-.825c1.7591.5461,3.0082,2.0623,4.2697,3.4085a36.60974,36.60974,0,0,0,29.4511,11.3777c-.8363-4.9123-3.4566-9.3035-5.3489-13.9126-4.2093-10.2375-4.743-22.4041.5455-32.1198,5.289-9.7164,17.0914-16.0964,27.8021-13.3067,9.8129,2.5592,16.3872,11.4505,24.3201,17.7701,14.1798,11.2811,33.26,14.4587,51.3576,13.925,18.1101-.5336,35.9774-4.3668,54.0508-5.4217,43.0005-2.4988,89.3001,13.3304,113.2198,49.1378a123.843,123.843,0,0,1,11.3297,21.7976,171.13691,171.13691,0,0,1,10.7469,38.8274A173.50347,173.50347,0,0,1,1497.7483,1714.9555Z"/><path fill="#7a493a" d="M1501.6905,1643.098q-1.25535,6.8052-3.081,13.4767a173.93794,173.93794,0,0,1-62.0317,91.9316c-9.8134,7.4603-25.5698,13.3795-32.1204.5336a19.74018,19.74018,0,0,1-1.9889-8.1023,169.0397,169.0397,0,0,0-2.1227-20.0872c-3.8332-22.8891-26.1159-37.8086-48.908-33.4056-22.3306,4.3301-44.8076,3.9546-67.5753-3.1657a163.20787,163.20787,0,0,1-85.952-64.1189c-16.6424,13.5496-41.9084,11.0869-60.5522.4371a80.69049,80.69049,0,0,1-33.3932-36.9356c5.9678-12.1903,15.4774-22.5617,27.5706-28.7356-4.7549,11.8876,3.6638,25.7641,15.0776,31.5619,11.4262,5.7984,24.8301,5.6284,37.6387,5.3128-6.659-4.6696-13.1362-10.3347-15.9625-17.9644-2.8264-7.6292-.7522-17.5883,6.4286-21.3967a6.93569,6.93569,0,0,1,5.228-.825c1.7591.5461,3.0082,2.0623,4.2697,3.4085a36.60974,36.60974,0,0,0,29.4511,11.3777c-.8363-4.9123-3.4566-9.3035-5.3489-13.9126-4.2093-10.2375-4.743-22.4041.5455-32.1198,5.289-9.7164,17.0914-16.0964,27.8021-13.3067,9.8129,2.5592,16.3872,11.4505,24.3201,17.7701,14.1798,11.2811,33.26,14.4587,51.3576,13.925,18.1101-.5336,35.9774-4.3668,54.0508-5.4217,43.0005-2.4988,89.3001,13.3304,113.2198,49.1378a123.843,123.843,0,0,1,11.3297,21.7976A171.13691,171.13691,0,0,1,1501.6905,1643.098Z"/><circle cx="1394.724" cy="1769.709" r="42.507" fill="#ffc4b7"/><circle cx="1396.766" cy="1771.938" r="20.342" fill="#ff9e94"/><path fill="#ceccff" d="M1482.7921,2093.6249c-5.0699,19.9782-13.6337,38.828-23.6775,56.8771-3.7604,6.7928-7.7506,13.4643-11.8385,20.0504-8.8427,14.2407-18.8622,28.7361-33.7817,36.3534-12.3117,6.2835-26.1035,7.0357-40.0167,5.4827a241.85111,241.85111,0,0,1-28.408-5.398c-42.9639-10.1765-86.1096-20.414-127.0117-37.0079-7.375-2.9963-14.7981-6.2349-22.6949-7.2293-10.0918-1.2734-20.3051,1.1762-30.4579.5461-27.8258-1.7348-48.6041-25.3152-66.0349-47.0885a44.43645,44.43645,0,0,1-6.441-10.2861c-1.7591-4.3059-2.2074-8.7332.2908-12.5545a164.98675,164.98675,0,0,0,82.7502,12.5184c4.4758,9.9946,9.2916,19.5285,18.4619,25.0723,6.0406,3.6632,13.1728,4.9733,20.135,6.0892a622.778,622.778,0,0,0,113.1109,7.6783c4.4516-.0972,9.2799-.4247,13.1853-2.2809q9.75315.0915,19.4807-.1451c6.2953-.1457,13.3552-.7279,17.5035-5.4709,2.9715-3.3961,3.7113-8.1509,4.3302-12.6273.1214-.8731.2428-1.7467.3518-2.6197,3.36-24.4901,6.5624-49.2112,4.7187-73.8588-1.2859-17.2732-7.7997-32.8353-7.2175-49.7929.1575-4.4764-.5094-7.9696-.0847-11.3539,1.1887-9.3764,3.5537-16.1929,7.7511-20.4869a16.30674,16.30674,0,0,1,2.0979-1.8077c6.5749-4.8395,16.1935-4.7666,24.4907-3.845,28.1895,3.1296,52.5949,23.9926,64.2515,49.8414C1489.6945,2036.1296,1489.7549,2066.1391,1482.7921,2093.6249Z"/><path fill="#f0eeff" d="M1450.1268,2096.0391c-5.0705,19.9899-13.6343,38.8398-23.6775,56.877-3.7604,6.8047-7.7512,13.4761-11.8391,20.0504-8.8427,14.2408-18.8617,28.748-33.7811,36.3535a52.13,52.13,0,0,1-7.3514,3.0685,241.85111,241.85111,0,0,1-28.408-5.398c-42.9639-10.1765-86.1096-20.414-127.0117-37.0079-7.375-2.9963-14.7981-6.2349-22.6949-7.2293-10.0918-1.2734-20.3051,1.1762-30.4579.5461-27.8258-1.7348-48.6041-25.3152-66.0349-47.0885a44.43645,44.43645,0,0,1-6.441-10.2861,164.68206,164.68206,0,0,0,58.9631,1.2254v-.4614a164.53772,164.53772,0,0,0,24.0779-.8001c4.4758,9.9946,9.2916,19.5285,18.4619,25.0723,6.0406,3.6632,13.1728,4.9733,20.135,6.0892a622.778,622.778,0,0,0,113.1109,7.6783c4.4516-.0972,9.2799-.4247,13.1853-2.2809q9.75315.0915,19.4807-.1451c6.2953-.1457,13.3552-.7279,17.5035-5.4709,2.9715-3.3961,3.7113-8.1509,4.3302-12.6273.1214-.8731.2428-1.7467.3518-2.6197,3.36-24.4901,6.5624-49.2112,4.7187-73.8588-1.2859-17.2732-7.7997-32.8353-7.2175-49.7929.1575-4.4764-.5094-7.9696-.0847-11.3539,1.1887-9.3764,3.5537-16.1929,7.7511-20.4869a16.30674,16.30674,0,0,1,2.0979-1.8077c24.6844,5.847,45.5598,25.0966,56.0769,48.4105C1457.0286,2038.5437,1457.089,2068.5651,1450.1268,2096.0391Z"/><path fill="#ffc4b7" d="M1459.1146,2150.502c-3.7604,6.7928-7.7506,13.4643-11.8385,20.0504-8.8427,14.2407-18.8622,28.7361-33.7817,36.3534-20.7665,10.6018-45.7298,5.4585-68.4247.0847-42.9639-10.1765-86.1096-20.414-127.0117-37.0079-7.375-2.9963-14.7981-6.2349-22.6949-7.2293-10.0918-1.2734-20.3051,1.1762-30.4579.5461-27.8258-1.7348-48.6041-25.3152-66.0349-47.0885-5.3009-6.5986-10.7836-15.7564-6.1502-22.8406a165.16367,165.16367,0,0,0,91.3382,11.3658q-.03645-10.91685-.0486-21.858c-.0124-3.4572.7279-7.933,4.5363-8.1516a5.11276,5.11276,0,0,1,3.8332,1.5411c14.9805,14.9681,16.1692,41.3624,34.2183,52.2792,6.0406,3.6514,13.1734,4.9616,20.1357,6.0774a620.65738,620.65738,0,0,0,113.1109,7.6783c6.2953-.1457,13.3552-.7279,17.5035-5.4709,2.9715-3.3961,3.7113-8.1509,4.3302-12.6273.1214-.8731.2428-1.7467.3518-2.6197C1399.3271,2124.9565,1437.6812,2133.9449,1459.1146,2150.502Z"/><ellipse cx="1228.802" cy="1800.552" fill="#44231b" rx="8.479" ry="14.76" transform="rotate(-37.919 1228.802 1800.552)"/><path fill="#44231b" d="M1199.0233,1780.1085c2.3636-6.9459,6.3188-14.3933,12.4499-18.4517a20.45837,20.45837,0,0,1,11.3199-3.2533,96.60747,96.60747,0,0,1,15.4134.8828c1.9445.2667,3.9071-.47,4.4763-2.5416.4667-1.6984-.5818-4.2076-2.5416-4.4763a106.38187,106.38187,0,0,0-17.6249-1.1362,27.6491,27.6491,0,0,0-14.7164,4.2403c-7.9482,5.2612-12.7905,13.9732-15.7945,22.8012a3.63986,3.63986,0,1,0,7.0179,1.9348Z"/><path fill="#c4361a" d="M1286.1893,1894.0556c6.9492-6.6782,8.2944-16.6752,9.302-25.785a1.83241,1.83241,0,0,0-1.8194-1.8195,1.85971,1.85971,0,0,0-1.8195,1.8195c-.8986,8.1246-2.0356,17.253-8.2362,23.2118-1.6918,1.6258.8835,4.1969,2.5731,2.5732Z"/><path fill="#344fa8" d="M2917.846,1375.6541h487.8361a73.3147,73.3147,0,0,1,73.3147,73.3147v940.0225a73.3146,73.3146,0,0,1-73.3146,73.3146H2917.846a73.3147,73.3147,0,0,1-73.3147-73.3147V1448.9688A73.3147,73.3147,0,0,1,2917.846,1375.6541Z"/><path fill="url(#c)" d="M2924.1848,1399.8666h475.1585a55.5921,55.5921,0,0,1,55.5921,55.5921v927.0427a55.592,55.592,0,0,1-55.592,55.592H2924.1848a55.5921,55.5921,0,0,1-55.5921-55.5921V1455.4587A55.5921,55.5921,0,0,1,2924.1848,1399.8666Z"/><path fill="#fff" d="M3159.1853,2068.6684a198.22513,198.22513,0,1,1,77.5907-14.6222A197.58757,197.58757,0,0,1,3159.1853,2068.6684Zm5.0076-386.0622c-103.2506-1.3393-188.3408,81.5717-189.68,184.8223s81.5718,188.3406,184.8224,189.6798,188.3407-81.5717,189.6799-184.8222C3350.3545,1769.0354,3267.4434,1683.9454,3164.1929,1682.6062Z"/><polygon fill="#fff" points="3124.388 1777.861 3122.015 1960.854 3264.381 1863.481 3124.388 1777.861"/><path fill="#d63344" d="M2933.5585,1477.8905h456.4113a11.0677,11.0677,0,0,1,11.0677,11.0677v42.3153a11.0678,11.0678,0,0,1-11.0678,11.0678H2933.5585a11.0678,11.0678,0,0,1-11.0678-11.0678v-42.3152A11.0678,11.0678,0,0,1,2933.5585,1477.8905Z"/><rect width="478.547" height="64.451" x="2922.491" y="1566.844" fill="#403b5b" rx="12.074"/><path fill="#70c0fd" d="M2928.5277,2114.9762h466.4729a6.0369,6.0369,0,0,1,6.0369,6.0369v20.1515a6.037,6.037,0,0,1-6.037,6.037H2928.5277a6.037,6.037,0,0,1-6.037-6.037v-20.1514A6.037,6.037,0,0,1,2928.5277,2114.9762Z"/><path fill="#1868b7" d="M2928.0246,2185.6761h467.4791a5.5338,5.5338,0,0,1,5.5338,5.5338v21.1577a5.5339,5.5339,0,0,1-5.5339,5.5339h-467.479a5.5339,5.5339,0,0,1-5.5339-5.5339V2191.21A5.5339,5.5339,0,0,1,2928.0246,2185.6761Z"/><path fill="#003676" d="M2928.0245,2256.3761h467.4792a5.5338,5.5338,0,0,1,5.5338,5.5338v21.1577a5.5338,5.5338,0,0,1-5.5338,5.5338H2928.0246a5.5339,5.5339,0,0,1-5.5339-5.5339v-21.1576A5.5338,5.5338,0,0,1,2928.0245,2256.3761Z"/><rect width="294.865" height="46.32" x="3014.332" y="1384.328" fill="#344fa8" rx="20.035"/><path fill="#c0d1ff" d="M2936.047 2327.5394h65.8113a11.1867 11.1867 0 0111.1867 11.1867v65.8113a11.1867 11.1867 0 01-11.1867 11.1867H2936.047a11.1868 11.1868 0 01-11.1868-11.1868v-65.8111A11.1868 11.1868 0 012936.047 2327.5394zM3065.708 2327.5394h65.8114a11.1867 11.1867 0 0111.1867 11.1867v65.8113a11.1867 11.1867 0 01-11.1867 11.1867h-65.8113a11.1868 11.1868 0 01-11.1868-11.1868v-65.8112A11.1867 11.1867 0 013065.708 2327.5394zM3195.3691 2327.5394h65.8113a11.1868 11.1868 0 0111.1868 11.1868v65.8112a11.1867 11.1867 0 01-11.1867 11.1867h-65.8113a11.1868 11.1868 0 01-11.1868-11.1868v-65.8112A11.1867 11.1867 0 013195.3691 2327.5394z"/><rect width="88.185" height="88.185" x="3313.843" y="2327.539" fill="#c0d1ff" rx="11.187"/><path fill="#4c2936" d="M3545.4373,1357.5009c-1.0306,41.338-24.5144,78.3104-47.2212,112.8805q-51.94575,79.1286-103.9045,158.246c-4.2573,6.489-8.5395,13.0153-11.7532,20.0865a99.63756,99.63756,0,0,0-7.3999,26.1035c-1.3942,8.7699-2.0375,17.7222-2.6321,26.5649-1.2248,17.9395-2.4982,36.3042-9.788,52.7406a65.25351,65.25351,0,0,1-4.0032,7.6172c-8.0058,13.0521-20.7789,23.459-35.8316,24.9024-2.0742.2067-4.4155.1457-5.9317-1.3096-1.3462-1.2858-1.6252-3.2995-1.8313-5.1433-3.1782-28.0686-5.9803-58.1866,7.5083-83.0048,6.0163-11.0863,14.9556-20.3536,21.1544-31.3552,1.3462-2.4017,2.5592-4.8644,3.6632-7.3875,5.022-11.5713,7.5445-24.1987,9.8615-36.6685,14.9686-80.445,25.3761-165.4026,72.403-232.3714a656.5006,656.5006,0,0,1-81.3062.8126c-16.3996-.8488-33.5513-1.2492-48.1433-7.3626a150.15065,150.15065,0,0,0-31.2711-8.7823c-6.9747-1.2734-13.6704-3.6994-21.3001-6.6833-13.379-5.2405-25.8488-14.0583-31.6952-27.6564a32.96342,32.96342,0,0,1-.8126-25.157c5.3252-13.3915,18.4252-19.6139,32.9443-22.416a135.12158,135.12158,0,0,1,23.2896-2.1227c74.4896-1.1283,149.1249,3.4328,222.7036,15.1013,15.3566,2.426,31.9996,5.9198,41.8848,17.9158C3543.7635,1332.4404,3545.7535,1345.3343,3545.4373,1357.5009Z"/><path fill="#5e3643" d="M3545.4373,1357.5009c-1.0306,41.338-24.5144,78.3104-47.2212,112.8805q-51.94575,79.1286-103.9045,158.246c-4.2573,6.489-8.5395,13.0153-11.7532,20.0865a99.63756,99.63756,0,0,0-7.3999,26.1035c-1.3942,8.7699-2.0375,17.7222-2.6321,26.5649-1.2248,17.9395-2.4982,36.3042-9.788,52.7406a65.25351,65.25351,0,0,1-4.0032,7.6172c-.7036.109-1.4072.1943-2.1109.2672-2.0741.2061-4.4154.1451-5.9316-1.3102-1.3463-1.2858-1.6252-3.2995-1.8314-5.1433-3.1781-28.0681-5.9802-58.1866,7.5083-83.0042,6.017-11.0869,14.9557-20.3542,21.1544-31.3558,1.3469-2.4017,2.5599-4.8644,3.6639-7.3875,5.0213-11.5713,7.5444-24.1987,9.8614-36.6679,14.9681-80.4456,25.3756-165.4032,72.4024-232.3721a656.4708,656.4708,0,0,1-81.3055.8127c-16.4002-.8488-33.5514-1.2492-48.1439-7.3627a150.14227,150.14227,0,0,0-31.2711-8.7823c-6.9747-1.2734-13.6698-3.6993-21.2995-6.6832-13.3796-5.2399-25.8488-14.0583-31.6952-27.6564a33.42854,33.42854,0,0,1-1.5897-22.9372,135.12158,135.12158,0,0,1,23.2896-2.1227c74.4896-1.1283,149.1249,3.4328,222.7036,15.1013,15.3566,2.426,31.9996,5.9198,41.8848,17.9158C3543.7635,1332.4404,3545.7535,1345.3343,3545.4373,1357.5009Z"/><path fill="#ead8b7" d="M3375.1585,1674.8174c-1.3942,8.7699-2.0375,17.7222-2.6321,26.5649-1.2248,17.9395-2.4982,36.3042-9.788,52.7406-7.2785,16.4238-21.9433,30.8097-39.8348,32.5196-2.0742.2067-4.4155.1457-5.9317-1.3096-1.3462-1.2858-1.6252-3.2995-1.8313-5.1433-3.1782-28.0686-5.9803-58.1866,7.5083-83.0048,6.0163-11.0863,14.9556-20.3536,21.1544-31.3552,1.3462-2.4017,2.5592-4.8644,3.6632-7.3875C3357.0857,1664.1558,3367.9777,1670.6087,3375.1585,1674.8174Z"/><path fill="#ffa64d" d="M3468.9734,1100.8641c-3.0413-3.777-4.3518-6.2954-8.7286-9.2835a63.12428,63.12428,0,0,1-11.1578,7.3476q-20.55375,10.43175-41.1078,20.8641c-11.1149,5.6415-23.03,11.4412-35.4263,10.1372-10.1412-1.0676-19.3253-6.9134-26.2118-14.4342s-11.7398-16.6526-16.1561-25.8439a392.27061,392.27061,0,0,1-15.9666-38.2937c-3.6554-10.2622-6.9298-20.7799-12.5676-30.1014-7.63-12.6157-19.8622-22.7486-34.189-26.23-14.3262-3.4815-30.6024.3251-40.7778,10.9942-5.5609,5.8298-9.1135,13.3171-11.5078,21.0097l-.0482.1556a40.62855,40.62855,0,0,0,1.4536,27.4319c18.9991,46.1233,39.2861,90.7467,69.1801,130.8726,11.5342,15.4822,26.9706,31.1211,46.2773,31.1169,6.2081-.0012,12.3015-1.6779,18.1273-3.8233a113.00985,113.00985,0,0,0,19.3349-9.2938c12.1258-7.3217,22.7478-16.8431,33.2896-26.3046,23.2847-20.8988,46.6767-41.9092,66.3913-66.2045,1.1031-1.3601,2.2442-2.8534,2.3416-4.602C3471.6388,1104.3083,3470.2745,1102.4801,3468.9734,1100.8641Z"/><path fill="#ffb94a" d="M3138.2141,938.5838q-.63615.3819-1.2734.7646c-.3885.0723-.7883.1451-1.1769.2304Z"/><path fill="#403b59" d="M3277.6956,996.8307c-.0124.3761.6716,14.1381.6598,14.5142-3.4453,76.8185-20.0315,138.614-22.8454,215.4811-.4975,13.4151-.17,27.0007-3.1177,40.1007-2.9472,13.1125-9.6915,26.0188-21.1538,33.0302-6.7449,4.124-14.6044,5.9192-22.089,8.4909-27.3165,9.4006-49.7325,29.2692-69.2616,50.545-10.3341,11.2563-20.2323,23.18-32.8111,31.877-12.5663,8.6852-28.578,13.8522-43.3038,9.74-13.1243-3.6626-23.4832-14.2762-29.6696-26.4185-6.1981-12.1417-8.7213-25.8003-10.5769-39.3006-6.8289-49.8296-5.4223-100.3627-4.015-150.6288.9826-34.9219,1.9894-70.0742,9.1702-104.2682,7.1927-34.194,20.9969-67.7329,44.6744-93.4117,11.8994-12.9063,25.9335-23.4838,40.6836-33.1024,7.5201-4.9005,15.2108-9.5588,22.901-14.1312a242.95141,242.95141,0,0,1,105.0322,1.9403c19.4806,4.7068,20.3776,11.5979,27.1461,30.472C3271.8483,979.378,3278.035,988.7526,3277.6956,996.8307Z"/><path fill="#fca13d" d="M3138.2141,938.5838q-.63615.3819-1.2734.7646c-.3885.0723-.7883.1451-1.1769.2304Z"/><path fill="#2a273f" d="M3272.4177,979.0178c-.0124.3761,4.63,20.0758,4.6182,20.4518-6.6353,24.903-5.3448,48.5618-30.8294,62.4626-55.9673,30.5189-111.3524-66.3742-132.1668-108.4526,7.5201-4.9005,15.2108-9.5588,22.901-14.1312a242.95141,242.95141,0,0,1,105.0322,1.9403c19.4806,4.7068,17.7386-1.5969,24.5072,17.2773C3269.2093,966.1832,3272.7571,970.9397,3272.4177,979.0178Z"/><path fill="#ffac73" d="M3339.5454,819.5536l-1.0548.7522c-2.5113,38.9974-9.595,77.9829-24.4422,114.1178-14.8591,36.1467-37.7719,69.431-68.5822,93.4727-3.469,2.705-7.2169,5.3732-11.5595,6.1254a22.221,22.221,0,0,1-6.9386-.109c-1.043-.1581-2.0741-.34-3.1047-.5342q-12.6093-2.29215-25.2062-4.5849c-5.3494-.9701-10.8197-1.9894-15.5016-4.7429-4.3426-2.5468-7.7269-6.4286-11.0265-10.2375-29.1602-33.6965-59.7632-70.7654-62.772-115.2337-2.0256-29.8999,9.4978-60.1399,29.6696-82.3006,20.1724-22.1618,48.5318-36.3048,78.1529-40.8292,30.8221-4.7063,65.0647,1.8556,86.668,24.3444.0847.0847.1818.1818.2665.2789,5.6166,5.9193,10.3714,12.8702,17.2608,17.2365C3326.7125,820.6938,3334.0023,821.9796,3339.5454,819.5536Z"/><path fill="#ffb882" d="M3343.8519 816.4726a12.31088 12.31088 0 01-4.3065 3.081zM3339.5454 819.5536l-1.0548.7522c-2.5113 38.9974-9.595 77.9829-24.4422 114.1178-14.8591 36.1467-37.7719 69.431-68.5822 93.4727-3.469 2.705-7.2169 5.3732-11.5595 6.1254a22.221 22.221 0 01-6.9386-.109c-27.6801-32.2655-55.2873-67.7335-58.138-109.8362-2.0256-29.9 9.4978-60.1399 29.6696-82.3012 20.1718-22.1607 48.5313-36.3043 78.1523-40.8411a123.44277 123.44277 0 0127.1956-1.1401c.0847.0847.1818.1818.2665.2789 5.6166 5.9193 10.3714 12.8702 17.2608 17.2365C3326.7125 820.6938 3334.0023 821.9796 3339.5454 819.5536z"/><path fill="#ffb882" d="M3339.5454 819.5536l4.3065-3.081A12.31088 12.31088 0 013339.5454 819.5536zM3403.3249 841.9577a12.27931 12.27931 0 01-4.3308 3.0929z"/><path fill="#7a493a" d="M3364.9571,784.7774c-4.2573,7.593-4.8034,18.4252,1.9296,23.9565,2.3289,1.9166,5.3128,3.0082,7.3502,5.228,2.8986,3.1415,3.2871,7.8116,3.1296,12.0689-.5579,15.138-10.7344,32.933-25.7392,30.9311-9.862-1.3095-16.3878-10.5407-24.624-16.1324-10.5526-7.169-24.6719-8.5152-36.0016-3.2753a29.27164,29.27164,0,0,1-15.1013,2.7777c-19.9414-1.9527-40.9993,9.1703-49.7324,27.3775-3.7118,7.7748-5.568,16.8-11.7419,22.8039-9.3764,9.1335-25.1813,7.484-36.559.9944-11.4144-6.5133-21.7733-17.4787-34.9101-16.7993-15.2594.7883-25.1576,18.0366-24.2354,33.2842.449,7.2051,2.5593,14.7009.0486,21.4695-1.5648,4.185-4.7548,7.5812-8.3334,10.25-15.2227,11.4262-37.2631,10.4679-54.0507,1.5043-16.7875-8.9765-29.0263-24.6358-38.4637-41.1692-3.9665-6.9504-7.5687-14.592-9.3763-22.3792-1.601-6.9504-1.7952-13.9979.4489-20.7789,5.0338-15.2228,20.6208-24.1259,35.5284-29.9847q-9.35235-21.3246-18.7042-42.6363c-5.4223-12.3241-10.9535-25.388-9.4373-38.767,1.274-11.2444,7.4722-21.4215,15.0172-29.8638a98.968,98.968,0,0,1,77.7033-32.3988c3.9547-34.4369,37.5179-58.6237,71.2386-66.6295,25.3034-6.004,53.1049-5.1552,75.8845,7.375,22.7802,12.5178,39.1555,38.1972,36.0745,64.0093,13.585-14.9195,35.2494-20.9601,55.0084-17.4912a56.09869,56.09869,0,0,1,27.0256,12.4574c22.9863,19.7596,26.4678,58.308,7.3869,81.8522C3376.2388,771.5803,3369.2274,777.1838,3364.9571,784.7774Z"/><path fill="#91584a" d="M3325.6932 647.055l-3.1657-1.0187a25.73088 25.73088 0 013.3357.9826C3325.8028 647.0307 3325.7542 647.0426 3325.6932 647.055zM3364.9571 784.7774c-4.2573 7.593-4.8034 18.4252 1.9296 23.9565 2.3289 1.9166 5.3128 3.0082 7.3502 5.228 2.8986 3.1415 3.2871 7.8116 3.1296 12.0689-.5579 15.138-10.7344 32.933-25.7392 30.9311-9.862-1.3095-16.3878-10.5407-24.624-16.1324-10.5526-7.169-24.6719-8.5152-36.0016-3.2753a29.27164 29.27164 0 01-15.1013 2.7777c-19.9414-1.9527-40.9993 9.1703-49.7324 27.3775-3.7118 7.7748-5.568 16.8-11.7419 22.8039-9.3764 9.1335-25.1813 7.484-36.559.9944-11.4144-6.5133-21.7733-17.4787-34.9101-16.7993-15.2594.7883-25.1576 18.0366-24.2354 33.2842.449 7.2051 2.5593 14.7009.0486 21.4695-1.5648 4.185-4.7548 7.5812-8.3334 10.25-15.2227 11.4262-37.2631 10.4679-54.0507 1.5043-16.7875-8.9765-29.0263-24.6358-38.4637-41.1692-3.9665-6.9504-7.5687-14.592-9.3763-22.3792a124.17983 124.17983 0 0016.9575 10.7954c18.7165 9.7039 43.5703 12.0932 59.5215-1.698 15.8778-13.7433 19.3107-39.9924 38.3299-48.8713 17.4308-8.1148 37.9425 3.1172 56.9742.3394 23.4228-3.4328 38.8517-27.6926 41.8119-51.1876.8244-6.55 1.1395-13.7071 5.446-18.7048a21.65109 21.65109 0 017.7268-5.3127c15.1256-6.7804 32.5202-4.5244 49.0774-5.5188a121.66442 121.66442 0 0039.7371-9.2431c11.3297-4.743 22.5859-11.9481 27.3893-23.2529 4.0636-9.6067 2.8264-20.536 1.274-30.8464-1.2011-8.0177-2.596-16.1325-5.4833-23.6651a56.09869 56.09869 0 0127.0256 12.4574c22.9863 19.7596 26.4678 58.308 7.3869 81.8522C3376.2388 771.5803 3369.2274 777.1838 3364.9571 784.7774z"/><path fill="#512f3b" d="M3498.1794,1777.57c-5.1907,7.4715-16.1443,7.1926-25.1564,5.9678q-42.44865-5.7135-84.2421-15.2962c-3.5181-.8126-7.169-1.7099-9.9467-4.0145-5.6409-4.7187-5.5793-13.1734-6.3196-20.4875-.9583-9.5102-3.979-18.4862-7.9816-27.1589-5.0817-11.0258-11.7537-21.5666-17.8062-32.1198-16.5578-28.9056-29.1366-59.8853-41.6544-90.7554q-28.92945-71.3781-57.8833-142.7568c-2.208-5.4584-4.5007-11.0377-8.5152-15.356-8.2119-8.8308-21.4333-10.2985-33.4666-11.2201q-28.63815-2.2014-57.3012-4.3787c-36.5352-2.8021-76.1634-6.9385-102.9344-31.7804q12.11805-12.64575,25.3519-24.1751a393.36418,393.36418,0,0,1,65.9016-46.4932c24.0169-13.4767,50.933-24.6725,78.3347-21.7615,10.9773,1.1769,21.5909,4.573,32.0346,8.1758,29.5606,10.2014,60.2613,23.5075,77.7524,49.4292,12.0085,17.7825,16.3511,39.4824,20.4508,60.5521q27.43875,141.2646,54.8752,282.5285c.013.061.0249.109.0367.17.7889,4.0636,1.6856,8.3576,4.4634,11.4262,2.9116,3.2143,7.3265,4.5002,11.5234,5.5917,28.5904,7.3994,61.2806,14.3136,78.0077,37.8454,1.0069,1.4191,1.9522,2.8868,2.8382,4.4273C3500.3637,1762.5527,3502.5468,1771.2865,3498.1794,1777.57Z"/><path fill="#6d3f4c" d="M3493.7041 1751.5026c-2.0623-.109-4.0997-.3275-6.0531-.5946q-42.4485-5.7126-84.242-15.2956c-3.517-.8126-7.169-1.7099-9.9468-4.0151-5.6396-4.7181-5.5792-13.1728-6.3196-20.4869-.9583-9.5102-3.9777-18.4861-7.9803-27.1589-5.0829-11.0264-11.7544-21.5672-17.8074-32.1198-16.5572-28.9055-29.1354-59.8852-41.6538-90.756q-28.92945-71.3781-57.8833-142.7562c-2.208-5.4584-4.5001-11.0382-8.5158-15.356-8.2113-8.8308-21.4334-10.2985-33.4661-11.2201q-28.63815-2.2014-57.3011-4.3793c-31.9262-2.4502-66.2048-5.9192-92.2112-23.3257a393.36418 393.36418 0 0165.9016-46.4932c24.0169-13.4767 50.933-24.6725 78.3347-21.7615 10.9773 1.1769 21.5909 4.573 32.0346 8.1758 29.5606 10.2014 60.2613 23.5075 77.7524 49.4292 12.0085 17.7825 16.3511 39.4824 20.4508 60.5521q27.43875 141.2646 54.8752 282.5285c.013.061.0249.109.0367.17.7889 4.0636 1.6856 8.3576 4.4634 11.4262 2.9116 3.2143 7.3265 4.5002 11.5234 5.5917C3444.2868 1721.0566 3476.977 1727.9708 3493.7041 1751.5026zM3044.2563 1388.9556c.2369-.2494.4809-.4922.719-.7404-.3412-.3168-.69-.6225-1.027-.9458z"/><path fill="#f4e6c9" d="M3498.1794,1777.57c-5.1907,7.4715-16.1443,7.1926-25.1564,5.9678q-42.44865-5.7135-84.2421-15.2962c-3.5181-.8126-7.169-1.7099-9.9467-4.0145-5.6409-4.7187-5.5793-13.1734-6.3196-20.4875-.9583-9.5102-3.979-18.4862-7.9816-27.1589,12.6155-5.0462,25.558-13.2943,35.1399-20.1114.013.061.0249.109.0367.17.7889,4.0636,1.6856,8.3576,4.4634,11.4262,2.9116,3.2143,7.3265,4.5002,11.5234,5.5917,30.3128,7.8483,65.2228,15.1381,80.8459,42.2727C3500.3637,1762.5527,3502.5468,1771.2865,3498.1794,1777.57Z"/><path fill="#efefef" d="M3372.9413,1098.1493s-112.7812,31.5553-152.5176,25.7118l-17.5307,196.3444s118.0404,5.8436,151.9331-28.0492Z"/><path fill="#eaeaea" d="M3372.9413,1098.1493s63.166,10.0202,109.0371-23.1632l-19.5196,188.3644s-45.4446,30.284-107.6327,28.8058Z"/><path fill="#c6c6c6" d="M3384.7473 1121.712a144.48879 144.48879 0 0055.9741-9.4001 147.24871 147.24871 0 0014.6648-6.5485c2.0838-1.0701.245-4.2111-1.8367-3.1421a140.81119 140.81119 0 01-52.9446 15.0816 142.87143 142.87143 0 01-15.8576.3702c-2.3424-.0736-2.3399 3.5654 0 3.6389zM3392.3449 1136.8011a149.17256 149.17256 0 0054.9348-8.7189 152.35043 152.35043 0 0014.5967-6.1518c2.108-1.0186.2648-4.1575-1.8367-3.1422a145.901 145.901 0 01-67.6948 14.374c-2.3424-.0707-2.3402 3.5683 0 3.6389zM3387.233 1170.9466c21.135.339 41.6142-5.7763 61.1927-13.1915 5.6516-2.1406 11.2588-4.3958 16.8625-6.6579 2.144-.8655 1.2073-4.3868-.9674-3.509-19.2293 7.7624-38.7666 15.6122-59.4162 18.5936a111.22648 111.22648 0 01-17.6716 1.1258c-2.3425-.0375-2.3432 3.6014 0 3.639zM3390.45 1180.4485a194.33227 194.33227 0 0056.624-8.9356q7.81245-2.4633 15.3907-5.5909c2.1361-.8783 1.2005-4.4004-.9674-3.5089a190.99859 190.99859 0 01-54.9747 13.5954q-8.0163.74-16.0726.801c-2.3404.0207-2.3461 3.6597 0 3.639zM3389.8196 1194.343a58.99086 58.99086 0 0026.4945-3.6108c2.1661-.8269 1.2262-4.3464-.9674-3.5089a56.51115 56.51115 0 01-25.5271 3.4808c-2.3304-.2191-2.3154 3.4213 0 3.6389zM3392.9791 1205.2382a67.623 67.623 0 0016.3378-2.5431c2.2483-.641 1.2925-4.1533-.9674-3.509a63.43952 63.43952 0 01-15.3704 2.4132c-2.3358.0756-2.3462 3.7149 0 3.6389z"/><path fill="#ffb882" d="M3475.269,1118.03739h5.55132a7.007,7.007,0,0,1,7.007,7.007v21.22139a7.00708,7.00708,0,0,1-7.00708,7.00708h-5.55112a7.00715,7.00715,0,0,1-7.00715-7.00715V1125.0444a7.007,7.007,0,0,1,7.007-7.007Z" transform="rotate(8.011 3478.044 1135.655)"/><path fill="#ffb882" d="M3178.4103,1281.7091a251.4599,251.4599,0,0,1,26.8076-4.8284,8.17167,8.17167,0,0,1,3.9917.1687,2.67932,2.67932,0,0,1,1.7277,3.1504,4.62727,4.62727,0,0,1-2.159,2.2326,44.30675,44.30675,0,0,1-12.0666,5.2607c.8502,3.0442,3.5588,5.0205,6.1786,6.69a124.03649,124.03649,0,0,0,15.4171,8.3506c1.9536.8862,4.2346,2.2103,4.048,4.4358-.2239,2.6707-3.6906,3.8363-6.3473,3.8871-7.5337.1442-14.5842-2.4761-21.4383-5.0613-7.2745-2.7438-14.5613-5.4928-21.493-8.9253-2.7044-1.3391-5.6228-3.1582-6.0245-6.2232-.3533-2.6962,1.4959-5.4835,3.8573-7.0918a23.05841,23.05841,0,0,1,7.8763-2.9279"/><path fill="#f4943d" d="M3176.6743,1299.3442c-1.4694.9393-3.3498.884-5.0982.7857-31.2367-1.8231-61.9546-8.5521-92.5112-15.2595-13.8323-3.0354-27.7586-6.105-40.7876-11.672a113.69922,113.69922,0,0,1-18.8344-10.2794c-5.1463-3.4767-10.0641-7.443-13.6865-12.4813-11.2653-15.6759-7.5796-37.3394-1.7504-55.74,15.1389-47.6967,39.5189-90.2197,65.8885-132.5687a40.64572,40.64572,0,0,1,21.4221-17.1914,1.24432,1.24432,0,0,0,.1551-.056,63.46634,63.46634,0,0,1,13.7015-3.0548,41.65236,41.65236,0,0,1,10.0649.1393c14.6087,2.0374,27.194,13.0286,32.7318,26.6943,5.538,13.6666,4.455,29.5054-1.3405,43.0684-4.2705,10.0265-10.8948,18.8131-17.1,27.7814a394.23152,394.23152,0,0,0-21.7751,35.3089c-4.8791,8.9563-9.4613,18.2306-11.548,28.2092-2.0862,9.979-1.4766,20.8429,3.5759,29.7021,6.1774,10.8335,17.8432,17.1192,28.9134,22.856q20.464,10.5966,40.9447,21.1902a62.03725,62.03725,0,0,0,12.4726,4.7665,27.67975,27.67975,0,0,1-1.7102,10.0286c-.227.7687-.4876,1.5883-.7254,2.482C3179.1134,1296.0586,3178.4238,1298.2273,3176.6743,1299.3442Z"/><path fill="#ffa64d" d="M3180.4027,1291.5717c-26.4533-2.7058-52.5728-8.4205-78.5769-14.1315-13.8421-3.042-27.7754-6.1014-40.7974-11.6786a111.53425,111.53425,0,0,1-18.8241-10.2725c-5.1463-3.4767-10.0641-7.443-13.6865-12.4813-11.2818-15.6727-7.5966-37.3366-1.7508-55.7403,15.1225-47.6928,39.519-90.2189,65.8725-132.5652a17.86193,17.86193,0,0,1,22.5986-12.7362c14.6087,2.0374,27.194,13.0286,32.7318,26.6943,5.538,13.6666,4.455,29.5054-1.3405,43.0684-4.2705,10.0265-10.8948,18.8131-17.1,27.7814a394.23152,394.23152,0,0,0-21.7751,35.3089c-4.8791,8.9563-9.4613,18.2306-11.548,28.2092-2.0862,9.979-1.4766,20.8429,3.5759,29.7021,6.1774,10.8335,17.8432,17.1192,28.9134,22.856q20.464,10.5966,40.9447,21.1902a62.03725,62.03725,0,0,0,12.4726,4.7665A27.67975,27.67975,0,0,1,3180.4027,1291.5717Z"/><circle cx="3126.101" cy="898.598" r="34.419" fill="#ffb882"/><circle cx="3130.764" cy="903.431" r="14.665" fill="#f79e61"/><path fill="#44231b" d="M3250.2875 906.7836c-1.002 6.3203-3.7776 11.1328-6.1993 10.7488s-3.5727-5.8189-2.5706-12.1393 3.7776-11.1328 6.1993-10.7488S3251.2896 900.4632 3250.2875 906.7836zM3314.2633 917.1028c-1.0021 6.3204-3.7776 11.1329-6.1993 10.7489s-3.5727-5.8189-2.5706-12.1393 3.7776-11.1328 6.1993-10.7488S3315.2653 910.7825 3314.2633 917.1028z"/><path fill="#d37637" d="M3288.4564 917.7338s-4.8246 24.494 5.7524 29.3185-11.1337 13.1749-11.1337 13.1749 12.2471-7.9792 4.8246-13.3604S3281.9618 929.4241 3288.4564 917.7338zM3261.3014 984.381s-32.9071-12.9379-37.4073-22.7819C3223.8941 961.5991 3228.6755 985.7873 3261.3014 984.381zM3244.474 988.4594s-13.1584-4.5374-16.3345-8.7723C3228.1395 979.6871 3231.1644 988.7619 3244.474 988.4594z"/><path fill="#7a493a" d="M3236.5378 881.7225s17.8481-17.6738 28.956 3.9109zM3301.6755 892.2579s18.1364-15.307 24.906 7.436z"/><path fill="#892f5a" d="M2435.4288,864.4779h-51.1954a8.732,8.732,0,0,0-8.7319,8.732h0v30.5568h14.0731V879.1924a5.98243,5.98243,0,0,1,5.9825-5.9825h39.8717Z"/><path fill="#934869" d="M2552.2698,901.2726v148.9426H2336.9525V929.7168a28.446,28.446,0,0,1,28.4441-28.4442Z"/><path fill="#892f5a" d="M2552.2698,901.2726v148.9426h-179.401V929.7168a28.436,28.436,0,0,1,28.4323-28.4442Z"/><path fill="#ffad9f" d="M2777.0844,1572.5505c-.6432,3.4814-1.5163,7.0233-3.4814,9.9592-6.4411,9.6067-22.0038,8.2966-30.4947.4608-8.5027-7.8359-11.778-19.6625-14.8223-30.8097-3.251-11.8752-6.6839-23.7747-10.5408-35.5166-8.8066-26.7461-19.8691-52.6434-36.1716-75.4716-8.9274-12.506-19.3953-24.0293-26.3943-37.7121-6.9989-13.6704-10.1528-30.4461-3.5904-44.3344,8.1752-17.2975,29.7904-25.2542,48.6652-22.0884a27.81555,27.81555,0,0,1,11.6199,4.2697c9.7524,6.9504,10.1652,21.033,9.6073,33.0053l-.7646-.4732c12.3845,24.7447,7.7268,55.1665,19.1045,80.3845,1.0797,2.3774,2.2809,4.682,3.5661,6.9504,3.4814,6.1017,7.5812,11.8876,11.354,17.8311C2772.3171,1506.7224,2783.0403,1540.2732,2777.0844,1572.5505Z"/><path fill="#d33333" d="M2777.0844,1572.5505c-.6432,3.4814-1.5163,7.0233-3.4814,9.9592-6.4411,9.6067-22.0038,8.2966-30.4947.4608-8.5027-7.8359-11.778-19.6625-14.8223-30.8097-3.251-11.8752-6.6839-23.7747-10.5408-35.5166,5.276.279,10.5041-.1818,15.0528-2.7292,7.6178-4.2697,11.2568-13.3428,12.3845-22.0156,1.3468-10.2132,0-20.536-1.7952-30.725,3.4814,6.1017,7.5812,11.8876,11.354,17.8311C2772.3171,1506.7224,2783.0403,1540.2732,2777.0844,1572.5505Z"/><path fill="#ffc4b7" d="M2733.3926,1567.3592c-1.5287,3.7847-4.3064,8.0663-8.3695,7.7026-3.9789-.3518-5.9678-4.8762-7.2293-8.6727a328.451,328.451,0,0,0-36.6206-75.5084c-23.4832-36.2444-53.4199-68.6308-86.2428-96.8813a21.04232,21.04232,0,0,1-11.2325-17.6368c-.3394-9.5582,5.5313-18.6195,13.5004-23.9322,7.9572-5.3009,17.7221-7.2898,27.2803-7.6783,9.9461-.388,20.5597,1.104,28.2019,7.4722,5.8831,4.9005,9.2911,12.0688,12.5302,19.0074q6.91365,14.8107,13.8161,29.621a104.92,104.92,0,0,0,5.0942,9.9342,31.53294,31.53294,0,0,0,9.4492,10.3714c8.0177,5.2275,19.1406,5.3128,25.6788,12.2993,7.9087,8.4547,4.9734,21.8094,5.3252,33.3814.5336,16.8971,9.1335,32.3869,12.9057,48.8469A87.25753,87.25753,0,0,1,2733.3926,1567.3592Z"/><path fill="#ed4747" d="M2733.3926,1567.3592c-1.5287,3.7847-4.3064,8.0663-8.3695,7.7026-3.9789-.3518-5.9678-4.8762-7.2293-8.6727a328.451,328.451,0,0,0-36.6206-75.5084,48.35115,48.35115,0,0,0,7.0475-34.3882c-1.4309-7.9816-4.9248-15.4538-6.7442-23.3625-1.7342-7.5201-1.7099-16.0596,2.6445-22.3431a31.53294,31.53294,0,0,0,9.4492,10.3714c8.0177,5.2275,19.1406,5.3128,25.6788,12.2993,7.9087,8.4547,4.9734,21.8094,5.3252,33.3814.5336,16.8971,9.1335,32.3869,12.9057,48.8469A87.25753,87.25753,0,0,1,2733.3926,1567.3592Z"/><path fill="#803426" d="M2923.4552,834.546c-.7883.4489-1.5766.8736-2.3774,1.2858-16.4724,8.6005-35.5651,10.905-54.1597,12.2152-12.3602.873-24.8419,1.3705-37.057-.6065-28.7599-4.6583-54.2326-22.6588-83.1624-26.0792-28.7112-3.3843-57.3982,7.9809-86.2671,6.38-14.6411-.8126-28.9055-4.9491-42.7944-9.6678-19.6382-6.6589-40.4532-15.9506-49.8538-34.4362-8.9274-17.564-5.1185-38.5123-4.8638-58.2115.4122-31.9984-9.0246-62.5895-19.2017-93.1813-8.2001-24.6239-16.8728-49.2473-21.2758-74.6347-5.9678-34.4126-3.954-69.8681,2.6931-104.1474l.7036,1.8319c-5.1433-28.4323,12.3117-57.4107,36.5714-73.1309,24.2473-15.7084,53.9779-20.4025,82.8348-21.7852,22.6464-1.0797,45.8992-.255,67.0536,7.9205,30.5675,11.8024,53.9536,38.2819,67.1507,68.279,13.2096,29.9853,17.0914,63.3057,17.0547,96.0806-.0361,18.4619-1.2373,37.1779,2.8631,55.1908a97.24153,97.24153,0,0,0,56.2214,66.9571c11.7294,4.9248,24.4054,7.484,35.8926,12.9786,11.4866,5.4951,22.185,14.9076,24.4658,27.4378,1.1034,6.0531.1451,12.2874.6669,18.4134,2.3046,27.3525,32.4841,45.9838,35.2133,73.3003C2953.768,806.3926,2940.4489,824.8907,2923.4552,834.546Z"/><path fill="#6d2319" d="M2921.0778,835.8318c-16.4724,8.6005-35.5651,10.905-54.1597,12.2152-12.3602.873-24.8419,1.3705-37.057-.6065-28.7599-4.6583-54.2326-22.6588-83.1624-26.0792-28.7112-3.3843-57.3982,7.9809-86.2671,6.38-14.6411-.8126-28.9055-4.9491-42.7944-9.6678-19.6382-6.6589-40.4532-15.9506-49.8538-34.4362-8.9274-17.564-5.1185-38.5123-4.8638-58.2115.4122-31.9984-9.0246-62.5895-19.2017-93.1813.17-.1214.3394-.2185.5094-.3275a266.287,266.287,0,0,1,49.1987-23.7989c14.7377-5.3495,30.0943-9.4492,43.5461-17.503,16.6667-9.971,29.2816-25.3033,42.2608-39.7496,6.8408-7.6179,14.034-15.199,23.0225-20.0871,9.0002-4.8887,20.2079-6.7443,29.5238-2.5113,10.5894,4.8277,1.7467-20.6326,13.3672-19.7595,16.46,14.1803,20.5117,37.7968,22.028,59.473,1.528,21.6637,1.977,44.7472,14.034,62.8205,13.1367,19.7229,36.8871,28.8327,58.2476,39.0702,21.3729,10.25,43.7036,25.4846,47.8643,48.8227,1.5163,8.527.4247,17.5516,3.4205,25.6788,3.5056,9.5464,11.9965,16.1811,18.838,23.7137,9.9342,10.9535,16.9089,25,17.6001,39.762A57.57557,57.57557,0,0,1,2921.0778,835.8318Z"/><path fill="#ed4747" d="M2943.3966,1315.1192c-46.2995,25.2175-44.9408,103.9283-94.4553,122.0502-22.3674,8.1758-47.5001.0367-68.0847-11.9356-16.1692-9.4006-31.0158-21.1911-47.3064-30.2157a131.77271,131.77271,0,0,0-13.7433-6.6832c-32.423-13.4039-71.19-10.2743-101.0539,8.1633-29.8514,18.4252-50.0232,51.6852-52.5706,86.6799-12.9667-68.8493-26.2491-138.644-56.877-201.647-19.711-40.5378-46.2871-77.5582-64.2515-118.8968-17.9526-41.3381-26.6371-89.7124-8.9274-131.16q1.9278-4.49355,4.1968-8.7699c14.2887-27.086,38.1842-47.7068,62.6868-67.4054,8.0905-6.5138,16.2538-12.9306,24.1625-19.432,34.364-28.2748,67.8064-66.1077,65.5865-110.5392-1.8437-36.96-28.1047-75.3876-10.735-108.0529,11.0868-20.8393,36.0739-29.7667,59.2906-34.0003,23.2167-4.233,46.6152-3.3357,66.2895-16.3753l-.1332-.0118q3.36615-.6006,6.7685-1.1888c17.6244-2.972,35.9164-4.8762,52.2674,1.8557,19.0074,7.8239,31.7804,26.0063,40.3442,44.6862,35.7345,77.9591,14.798,172.1349,46.9303,251.6465,6.8651,17.0061,16.1082,33.1504,20.7298,50.8968,4.6215,17.7577,3.8575,38.2333-7.7512,52.4373-18.9588,23.1925-58.902,21.5548-75.1441,46.7361-7.7873,12.0813-7.9211,27.5954-5.677,41.7994,6.6957,42.5641,33.2843,81.5615,70.4385,103.3709C2886.5439,1276.8249,2924.9472,1285.4129,2943.3966,1315.1192Z"/><path fill="#d33333" d="M2734.3385,957.8097a4.33279,4.33279,0,0,1-1.0187,2.1713c-13.7314,18.5348-36.5596,28.1172-59.1088,32.9692-22.5498,4.8519-45.8388,5.8345-68.1819,11.5719-22.3431,5.7249-44.6139,17.285-56.0644,37.2993-3.9179,6.8532-10.3222,16.011-17.2726,12.2631-3.3239-1.7952-4.5369-5.9559-4.9615-9.7163-1.1645-10.2979.9583-21.6756-4.7549-30.3122-7.484-11.293-24.2958-11.463-36.9474-6.6596-12.6511,4.7915-24.0655,13.2339-37.4208,15.3684a22.62977,22.62977,0,0,1-8.2842-.0604c14.2887-27.086,38.1842-47.7068,62.6868-67.4054,49.7324-5.0462,102.1821,4.5973,152.7514.5212,24.8538-2.0131,50.1571-7.3383,74.4168-1.5405C2732.1068,954.7411,2734.4599,955.8327,2734.3385,957.8097Z"/><path fill="#d33333" d="M2943.3966,1315.1192c-46.2995,25.2175-44.9408,103.9283-94.4553,122.0502-22.3674,8.1758-47.5001.0367-68.0847-11.9356-16.1692-9.4006-31.0158-21.1911-47.3064-30.2157a87.62464,87.62464,0,0,1,6.6589-22.0759c8.6976-19.0442,24.5393-34.7644,29.8153-55.0215,5.5556-21.3244-1.6856-44.0679-12.6149-63.1961-24.9509-43.7042-69.771-78.08-77.534-127.7881-6.0773-38.9488,12.6878-77.3521,34.3759-110.2603,21.6762-32.9087,47.3307-64.4825,57.8353-102.4611,5.4952-19.8929,6.5743-40.7322,6.3078-61.3648-.8861-67.3817-9.622-139.9374-54.8904-188.2021,17.6244-2.9721,26.6518-3.8257,43.0028,2.9062,19.0074,7.8239,31.7804,26.0063,40.3442,44.6862,35.7345,77.9591,14.798,172.1349,46.9303,251.6465,6.8651,17.0061,16.1082,33.1504,20.7298,50.8968,4.6215,17.7577,3.8575,38.2333-7.7512,52.4373-18.9588,23.1925-58.902,21.5548-75.1441,46.7361-7.7873,12.0813-7.9211,27.5954-5.677,41.7994,6.6957,42.5641,33.2843,81.5615,70.4385,103.3709C2886.5439,1276.8249,2924.9472,1285.4129,2943.3966,1315.1192Z"/><path fill="#f99082" d="M2656.6261,685.2828a58.17707,58.17707,0,0,1,6.1745,11.5194c2.0399,5.1169,3.5786,10.8562,7.9101,14.2594,5.6989,4.4778,14.1918,3.0948,20.4444-.5702a34.38541,34.38541,0,0,0,11.8106-11.5413c6.0193-9.7465,6.7706-21.7526,7.0685-33.2041.0825-3.1725.05-6.6351-1.9353-9.111-2.0107-2.5078-5.4589-3.2817-8.6523-3.6474a62.68019,62.68019,0,0,0-20.1862.9749c-6.9206,1.479-14.1365,4.6179-17.411,10.8916a29.99558,29.99558,0,0,0-2.4479,8.2414q-1.3632,6.98715-2.7264,13.9745"/><path fill="#ffad9f" d="M2661.3414,693.4642a78.36783,78.36783,0,0,1-12.0813,1.0791c-88.4028.7036-104.9233-163.0737-104.9233-163.0737,20.1594-34.8372,39.8219-56.4767,58.4295-68.6794,78.3347-51.3819,138.0742,64.1793,138.0742,64.1793S2760.3448,676.9674,2661.3414,693.4642Z"/><path fill="#ffc4b7" d="M2649.2601,694.5433c-88.4028.7036-104.9233-163.0737-104.9233-163.0737,20.1594-34.8372,39.8219-56.4767,58.4295-68.6794,16.8759.9058,32.1667,8.3812,45.2795,18.3539,34.8745,26.5231,53.0551,69.5544,49.1893,113.1979C2694.1071,629.6553,2682.9582,673.0059,2649.2601,694.5433Z"/><path fill="#803426" d="M2783.2464,530.9602c-5.289,11.1354-20.3418,12.7364-32.6173,11.6566a203.70647,203.70647,0,0,1-53.905-12.3116c-12.397-4.682-25.218-10.6984-38.3062-8.5881-5.6645.9098-10.9773,3.3115-16.5086,4.8158-23.3742,6.3315-45.269-3.7965-60.5527-21.9912,8.0787,9.5457,5.4709,26.0791-5.167,32.6653-7.2661,4.4883-17.5279,5.1066-21.8942,12.4455-6.9261,11.6685,7.8359,28.8688-.9222,39.2396a16.28577,16.28577,0,0,1-8.1876,4.7554,32.10563,32.10563,0,0,1-28.7474-6.0288c-3.8818-3.2143-7.0843-7.4236-11.6448-9.5706-4.4154-2.0617-9.4978-1.9284-14.265-2.911a31.35011,31.35011,0,0,1-20.2204-14.5434,28.72138,28.72138,0,0,1-3.081-7.0475,31.2883,31.2883,0,0,1,8.3819-30.6522c5.786-5.4827,13.5247-8.5395,19.4196-13.9008,19.0074-17.2732,13.1125-51.5886,32.4112-68.5218,8.6366-7.5687,20.548-9.91,30.8098-15.077,7.375-3.7,13.9132-8.8795,20.9725-13.1611,33.8546-20.5117,80.2756-17.7097,111.4247,6.7076,11.2201,8.7941,20.4757,19.99,32.1323,28.2019,11.6323,8.1758,25.4602,13.2457,35.7831,23.0106,9.5824,9.0488,15.2955,21.3487,20.7907,33.3204,1.2248,2.6688,2.4497,5.4827,3.4447,8.3458C2785.0416,518.26,2786.0965,524.9681,2783.2464,530.9602Z"/><path fill="#6d2319" d="M2783.2464,530.9602c-5.289,11.1354-20.3418,12.7364-32.6173,11.6566a203.70647,203.70647,0,0,1-53.905-12.3116c-12.397-4.682-25.218-10.6984-38.3062-8.5881-5.6645.9098-10.9773,3.3115-16.5086,4.8158-23.3742,6.3315-45.269-3.7965-60.5527-21.9912,8.0787,9.5457,5.4709,26.0791-5.167,32.6653-7.2661,4.4883-17.5279,5.1066-21.8942,12.4455-6.9261,11.6685,7.8359,28.8688-.9222,39.2396a16.28577,16.28577,0,0,1-8.1876,4.7554,32.10563,32.10563,0,0,1-28.7474-6.0288c-3.8818-3.2143-7.0843-7.4236-11.6448-9.5706-4.4154-2.0617-9.4978-1.9284-14.265-2.911a31.35011,31.35011,0,0,1-20.2204-14.5434,33.77347,33.77347,0,0,0,8.7095,1.807c11.8994.8251,23.8593-2.6682,35.6859-1.1887,5.2038.6551,11.0869,2.1109,15.2595-1.0797,7.4111-5.6764,1.1644-18.7403,6.5742-26.3582,4.3545-6.1496,13.6461-5.4702,20.269-9.0606,7.933-4.2941,11.0015-14.1318,11.887-23.1078.8855-8.9878.4004-18.4009,4.2212-26.5761,7.3632,3.6023,10.5289,12.3478,16.6181,17.8306,6.829,6.1502,16.5571,7.5936,25.667,8.758,12.2506,1.5766,24.5629,3.1539,36.9107,2.7168,10.1896-.3519,20.3543-2.0742,30.5432-1.5767a70.30366,70.30366,0,0,1,26.9528,6.8657c7.7144,3.7236,14.7495,8.8546,22.7921,11.8266,16.9693,6.2586,35.7345,1.322,50.3993-9.631C2785.0416,518.26,2786.0965,524.9681,2783.2464,530.9602Z"/><path fill="#ed4747" d="M2931.1092,915.3066a32.10464,32.10464,0,0,1-4.8158,5.2162c-8.1023,6.999-19.2988,9.364-30.0089,9.3882-27.5226.0853-53.1167-13.3061-80.0085-19.153-26.8924-5.8464-60.6013-.728-72.5612,24.0654-3.845,7.9815-6.9989,18.9351-15.8416,19.5777-10.4312.7522-14.1916-13.5608-13.4033-23.9925a199.68507,199.68507,0,0,1,8.3695-44.0797c2.9478-9.4978,7.2293-19.5292,15.9388-24.345,7.4959-4.1484,16.6181-3.4933,25.1452-2.7411q40.22835,3.60255,80.4574,7.1808a21.98762,21.98762,0,0,0,2.5592-10.4804,32.81015,32.81015,0,0,0-5.0095-16.8118c-5.0095-8.1515-12.5669-14.3497-19.7596-20.6693a384.119,384.119,0,0,1-99.2101-136.8856c-2.6925-6.3071-4.9733-14.3372-.3636-19.4196,24.1868-12.8092,45.2684-12.6273,67.9757-4.3426,23.2528,8.4909,38.318,23.5437,51.6852,43.934,31.319,47.8164,62.1287,94.8919,85.1755,147.196,5.1794,11.7419,10.2014,23.8232,11.1958,36.6081C2939.4544,895.9599,2937.1985,907.0219,2931.1092,915.3066Z"/><path fill="#ffc4b7" d="M2931.1092,915.3066a32.10464,32.10464,0,0,1-4.8158,5.2162c-8.1023,6.999-19.2988,9.364-30.0089,9.3882-27.5226.0853-53.1167-13.3061-80.0085-19.153-26.8924-5.8464-60.6013-.728-72.5612,24.0654-3.845,7.9815-6.9989,18.9351-15.8416,19.5777-10.4312.7522-14.1916-13.5608-13.4033-23.9925a199.68507,199.68507,0,0,1,8.3695-44.0797c2.9478-9.4978,7.2293-19.5292,15.9388-24.345,7.4959-4.1484,16.6181-3.4933,25.1452-2.7411q40.22835,3.60255,80.4574,7.1808a21.98762,21.98762,0,0,0,2.5592-10.4804C2867.9244,861.9596,2916.6506,878.7714,2931.1092,915.3066Z"/><polygon fill="#d6b887" points="2368.324 714.497 2421.069 946.135 2716.904 946.135 2664.159 714.497 2368.324 714.497"/><polygon fill="#efe1c7" points="2368.324 714.497 2421.069 946.135 2705.693 946.135 2652.948 714.497 2368.324 714.497"/><path fill="#f8f1e1" d="M2368.3241,714.4974l52.7447,231.638h42.2303c-.8432-123.2316,99.8192-199.7933,153.6137-231.638Z"/><rect width="374.667" height="23.854" x="2420.794" y="946.14" fill="#e3aa51" rx="9.176" transform="rotate(180 2608.128 958.066)"/><path fill="#44231b" d="M2590.9598 596.0495c1.5207 6.216.8228 11.7274-1.559 12.3101s-5.5453-3.984-7.0661-10.2-.8228-11.7274 1.5589-12.3101S2589.439 589.8335 2590.9598 596.0495zM2666.2712 582.0932c1.5207 6.216.8228 11.7274-1.559 12.3101s-5.5453-3.984-7.0661-10.2-.8228-11.7274 1.5589-12.3101S2664.7504 575.8772 2666.2712 582.0932z"/><path fill="#f99082" d="M2615.3498,596.3146s10.2698,16.8529-.79,27.6493.79,15.5363,13.1664,14.4829c.2633-1.0533-20.5395-1.3166-5.2666-18.1695S2615.3498,596.3146,2615.3498,596.3146Z"/><path fill="#ed4747" d="M2632.5794,658.5513s12.0786,4.2438,34.6035-12.405C2667.1829,646.1463,2654.4515,671.2828,2632.5794,658.5513Z"/><path fill="#803426" d="M2644.4629 560.5899s9.6363-13.4071 37.7075-6.2846C2682.1704 554.3053 2655.3561 535.8705 2644.4629 560.5899zM2556.8978 577.7677s9.6363-13.4071 37.7074-6.2845C2594.6052 571.4832 2567.791 553.0484 2556.8978 577.7677z"/><circle cx="2741.474" cy="561.208" r="23.906" fill="#ffad9f"/><circle cx="2743.329" cy="560.063" r="9.447" fill="#ffc4b7"/></svg>