<svg xmlns="http://www.w3.org/2000/svg" viewBox="0 0 2300 2000"><g data-name="Layer 1"><path fill="#bbe6dd" d="M1992.65 1384.13c187.44-231.4 118.33-388.6 54.12-445.52-44.12-39.13-79.8-65.14-117.83-78.26-24.13-374.47-297-641.59-449.82-674-447.27-94.88-765.36-19.25-973.95 143.2a152.38 152.38 0 0 0-25.05-7.05 147.5 147.5 0 0 0-49.09-.88l3 .07a148.26 148.26 0 0 0-25 5c-10.55 4.12-21.23 8.5-31.82 13.84-2.7 1.3-5.31 2.65-7.94 4.15a1.09 1.09 0 0 0 .11-.1c-.46.29-.92.6-1.38.88a191.05 191.05 0 0 0-21.74 13.8c-3.42 2.62-7.67 6.06-12.34 10.21-2.21 2.08-4.72 4.31-7.18 6.67s-4.84 4.83-7.45 7.38c-1.53 2-9.67 11.73-18.2 23.85-3.9 5.35-7.86 11.18-11.63 16.61.35-.69.61-1.39 1-1.94-2 2.8-3.86 5.82-5.72 8.92a122.17 122.17 0 0 1-7.33 9.9c-2.63 5.12-4.43 8.85-5.09 10.44a244.24 244.24 0 0 0-22 74.65 236.83 236.83 0 0 0 1.6 72.05 343.41 343.41 0 0 0 13.19 34.41q1.15 2.67 2.39 5.39c-118.46 269 4.15 570.95 126.94 825.43-1.54 2.53-3.15 5.22-4.82 8-3.42 5.68-7 11.77-10.38 17.48.36-.68.68-1.34 1-1.9-1.76 3-3.53 6.05-5.3 9.22-2.42 4.12-4.63 7.77-6.4 10.55-2.69 5.06-4.6 8.73-5.36 10.25a644.55 644.55 0 0 0-30.89 68.42 420.68 420.68 0 0 0-17.85 58.33c-1.15 8.6-1.71 16.26-2.05 23.65-.18 3.26-.25 6.5-.36 9.72-.11-1-.24-1.9-.31-2.88a118.3 118.3 0 0 0 0 14.27 4.38 4.38 0 0 1 0 .81 40.78 40.78 0 0 0 1.58 14 18.1 18.1 0 0 0 5.3 8.57c4.31 3.74 9.77 3 9.51 3.88a23.6 23.6 0 0 0 6.38-1.34c-60.77 46-68.59 78.41-41.09 100.83 71.93-27.49 167.61-54.54 178.39-41.06 64.21 18.92 113.8 46.09 174.06 19.15 54.77-24.47 106.71-52.59 170.79-42.72 59.24 9.11 108.53 44.32 167.78 53.5 45.55 7 87.29-18.57 129.11-13.43 13.27 1.63 34.1 16.06 52.51 33.15 27.56-2.94 43.42-4.82 43.42-4.82q35.13-16.23 71.17-36l148.32 36s306.66 116.9 257-68.64c0 0 312.38 25.13 399.67-17.66 51.69-25.33 57-92.5 62.14-151.05 9.76-110.67-28.27-179.57-155.11-197.38ZM296.39 445.3a51 51 0 0 0-2.49 5.43 12.58 12.58 0 0 1-2.54 5.72c.75-1.92 1.68-3.85 2.54-5.72.12-.94.31-1.82.42-2.8.92-7.56 1-16.5 7.53-13.05a18.55 18.55 0 0 1 3.09 2.14 49.45 49.45 0 0 0-8.55 8.28ZM362 389c3.83-3.11 7.66-6 11.62-8.66-3.87 2.66-7.74 5.54-11.62 8.66Zm15.3 1114.87c-.95 1.79-1.86 3.49-2.71 5.28a37.13 37.13 0 0 1-2.81 5.53c.89-1.83 1.88-3.72 2.81-5.53.31-.82.63-1.59.94-2.43 2.45-6.49 4.81-13.82 7.32-13.2a2.19 2.19 0 0 1 1.06.7c-2.22 2.95-4.45 6.18-6.61 9.65Zm31.75-1140.76c1.75-.6 3.6-1.08 5.42-1.58-1.81.47-3.66.96-5.42 1.58Zm91.54-30c-4.59-1.85-9.19-3.64-13.84-5.36 5.33 1.07 10.64 2.33 15.93 3.71Z"/><path fill="#fff" d="M1730.33 714.47c-6 14.7-23.41 47-8.81 60.81 16.09 15.18 68-14.46 83.1-20.61 57.88-23.56 127.38-61.45 184.91-18.67 97.26 55-2.4-84.17-38.46-89.68-36.6-5.58-73.14 22.26-113 14.61-51.88-10-95-48.26-146.88-58.16-56.1-10.73-101.58 19.84-149.52 46.44-52.75 29.29-96.16-.26-152.38-20.83-15.39-23.92-228.88 69.58-226.62 90.88 66.85-11.54 362-38.89 430.07-34.26 48.41 3.29 95.52 22.41 144.2 27.09"/><path fill="#f26a40" d="M1838.59 1545.46c-4.1 32 13.33 71.22 76.76 79 72.65 1.25 99.54-44.27 97.36-79Z"/><path fill="#fdac19" d="M1841.55 926.68h167.74v602.54h-167.74z"/><path fill="#fcd4ca" d="m2010.88 927.61-85.45-156-85.46 156h170.91z"/><path d="m1957.92 830.92-32.49-59.31-32.5 59.31h64.99z" style="mix-blend-mode:multiply" fill="#015288"/><path fill="#fff" d="M1961.11 928.69h6.36v600.53h-6.36zM1883.38 928.69h6.36v600.53h-6.36z"/><path fill="#0986c8" d="M1834.7 1523.04h181.46v23.84H1834.7z"/><path fill="#0a6b68" d="M1803.2 1389.75c-18.22-16.53-46.77-57.25-60.13-91.74a263.58 263.58 0 0 1 15.36-41l68.45 104.78-48.49-140.11a301.44 301.44 0 0 1 42.29-50.73l58.86 126.65-38.24-144.9c15.15-12.24 45.32-33.34 61.66-42.08l46.74 146.71-9.59-157.48a262.14 262.14 0 0 1 40-8.86l-6.85 154.53 28.19-156.52a224.15 224.15 0 0 1 38.28 1.31L2012 1191.85l43.26-99.08c38.59 7.68 81.28 21 107.37 50.69 32.91 37.42 38.59 91.43 34.59 142.15l-148.31 13.3 146.44 2.74a245.73 245.73 0 0 1-11.08 44.45l-145.93-30.73 119.64 85.45a295 295 0 0 1-19.76 27.86l-137.93-69.12 125.54 83.68q-9.55 10.53-20.34 20.4l-157.24-94.09 139.74 109a299.7 299.7 0 0 1-64.15 38.8l-171.45-77.79 111.39 96.6c-71.46 13.38-161.15-33.17-191.43-65.57-25.94-27.76-44.6-88.8-35.14-146.26Z"/><path fill="#095958" d="m1734.22 1524.12-2.91-1.77c15.42-25.23 24-38.46 30.87-49.08 2.6-4 4.93-7.61 7.29-11.32 66.17-104.32 360.52-306.39 398.92-311.51l.45 3.37c-16.32 2.18-95.22 49.88-186.67 117.43-104.88 77.47-181.36 147.65-209.83 192.54-2.36 3.71-4.7 7.32-7.3 11.34-6.87 10.61-15.43 23.81-30.82 49Z"/><g style="mix-blend-mode:multiply" opacity=".2"><path fill="#04797d" d="M2106 1463.08c-2.91-6.77-5.73-13.5-8.34-20.18-3.22-8.25-6.39-16.52-9.59-24.78l-87.86-58.56 80.88 40.53q-14.31-37.12-28.32-74.36l-14.5-10.36 11.56 2.43q-30.64-82-60-164.49l-16.58 92.21 5.48-123.52q-5.15-14.54-10.25-29.09a266.57 266.57 0 0 0-28.42 6.94l9.59 157.48-46.65-146.71c-16.34 8.74-46.51 29.84-61.66 42.08l38.24 144.87-58.86-126.65a301.44 301.44 0 0 0-42.29 50.73l48.49 140.11-68.49-104.76a263.58 263.58 0 0 0-15.36 41c12 31 36.26 67 54.27 85.93l-60.17-59.63c-9.46 57.46 9.2 118.5 35.14 146.26 30.28 32.4 120 79 191.43 65.57l-111.39-96.6 171.45 77.79a299.7 299.7 0 0 0 64.15-38.8l-139.74-109 157.24 94.09c.2-.16.38-.35.55-.53Z"/><path fill="#045d6a" d="m1734.22 1524.12-2.91-1.77c38.44-62.91 72.42-106 113.63-144.19 47.16-43.67 102.59-88 169.45-135.5l2 2.77c-66.75 47.43-122.07 91.66-169.12 135.23-40.99 37.93-74.79 80.83-113.05 143.46Z"/></g><path fill="#0a6b68" d="M1778.74 1384.25c29.81 3.37 90.11-3.27 132.46-18.81a320.93 320.93 0 0 0 25.21-47.13L1785.29 1340l167.4-68.44a368.56 368.56 0 0 0 12.41-79.56l-163.42 48.1 163.5-81.67c-1-23.73-6-68.36-11.13-90.37l-172 75.37 152-118.07a318.87 318.87 0 0 0-24.14-43.82l-136 130.76 120.71-151.88a274.83 274.83 0 0 0-32-34l-70.64 107.23 55.9-119.44c-38.12-29.15-84.72-57.51-132.91-57.51-60.8 0-114.84 38.3-158.08 82.81l107.29 146.57-120.6-131.96a299.74 299.74 0 0 0-31.8 46L1657.49 1109l-174.65-40.75a359.59 359.59 0 0 0-9.6 40.54l174.42 70.67-177.77-47.6q-2 17.25-2.3 35.07l212.84 68.23-212.43-40.22a365.54 365.54 0 0 0 16.13 90l209.37 94.38-178.21-24.22c45.3 76.24 160.18 120.89 214.25 122.53 46.33 1.4 117.27-30.68 162.28-85.63Z"/><path fill="#095958" d="m1714.83 1556.8-3.25-1c10.68-34.42 15.88-52.9 20.06-67.75 1.58-5.6 3-10.64 4.5-15.79 42.59-145.77-7.87-577.29-38.31-607.74l2.41-2.4c15.63 15.63 36 128.59 47.51 262.75 13.23 155 10.11 285.19-8.34 348.35-1.5 5.13-2.92 10.17-4.49 15.76-4.19 14.85-9.4 33.36-20.09 67.82Z"/><path fill="#fff" d="M669.39 449c-6 13.53-23.42 43.26-8.81 55.94 16.1 14 68-13.3 83.1-18.95 57.88-21.69 127.32-56.55 184.91-17.2 97.26 50.61-2.4-77.43-38.44-82.5-36.61-5.14-73.15 20.48-113 13.44-51.87-9.18-95-44.4-146.87-53.51-56.11-9.86-101.57 18.25-149.52 42.73-52.76 26.94-96.17-.24-152.38-19.16-15.4-22-228.89 64-226.63 83.59 66.85-10.61 362-35.76 430.08-31.51 48.4 3 95.52 20.61 144.2 24.93"/><path fill="#015288" d="M605.7 880.1a213.15 213.15 0 0 0-15.62 35.1l3 1a209.71 209.71 0 0 1 15.4-34.58ZM488.23 1243.43a119.71 119.71 0 0 1 23.76-29l-2.12-2.38a123.16 123.16 0 0 0-24.39 29.75ZM471 1277.42a255.72 255.72 0 0 0-8.28 37.49l3.16.45a250.6 250.6 0 0 1 8.17-37ZM583.54 990.76a180 180 0 0 1 1-37.74l-3.16-.42a184.46 184.46 0 0 0-1 38.42ZM655.58 822.56l-2.15-2.35a245.32 245.32 0 0 0-26.28 28l2.48 2a242.54 242.54 0 0 1 25.95-27.65ZM718.58 780.75l-1.34-2.89a252.18 252.18 0 0 0-33.53 18.72l1.76 2.66a245.94 245.94 0 0 1 33.11-18.49ZM602.21 1064.3l2.81-1.49a191.43 191.43 0 0 1-14.47-34.94l-3 .92a195.27 195.27 0 0 0 14.66 35.51ZM791.33 760.46l-.34-3.17a232.86 232.86 0 0 0-37.71 7.29l.86 3.06a229.86 229.86 0 0 1 37.19-7.18ZM1088.69 662.34l-2.42-2.07a189.2 189.2 0 0 0-21.78 31.63l2.79 1.53a185.78 185.78 0 0 1 21.41-31.09ZM463.84 1353.16l-3.18.12c.15 4.07.41 8.15.8 12.14a190.63 190.63 0 0 0 4.33 25.95l3.09-.75a187.64 187.64 0 0 1-4.25-25.5c-.38-3.93-.63-7.95-.79-11.96ZM649.07 1124.81l2.06-2.44-.46-.45a259.81 259.81 0 0 1-24.93-27.43l-2.51 2a266.28 266.28 0 0 0 25.23 27.77ZM592.82 1524l-1.22 2.94a334.37 334.37 0 0 0 34.6 12.11l.89-3a332.71 332.71 0 0 1-34.27-12.05ZM1048.93 727a290.27 290.27 0 0 0-10.14 37l3.11.65a286.68 286.68 0 0 1 10-36.56ZM902.55 777.24a246.14 246.14 0 0 1 33.56 17.59l1.69-2.71a250.82 250.82 0 0 0-34-17.81ZM966.75 817.16a314.27 314.27 0 0 1 27.51 26.15l2.33-2.17a317.69 317.69 0 0 0-27.8-26.41ZM1035 878.15l-3.18.17q.21 3.72.46 7.49c-3.62-5.26-7.33-10.4-11.07-15.34l-2.53 1.93c4.86 6.41 9.66 13.17 14.3 20.1l3.37 5-.46-6.06q-.51-6.71-.89-13.29ZM576.94 1175.25a252.82 252.82 0 0 0-35.33 15.09l1.49 2.82a247.44 247.44 0 0 1 34.9-14.89ZM1034.18 840.11c.19-13.08.88-25.86 2.08-38l-3.17-.32c-1.2 12.2-1.9 25.06-2.09 38.23ZM478.71 1427.55a178.3 178.3 0 0 0 20.46 32.55l2.49-2a175.51 175.51 0 0 1-20.09-31.95ZM1114.42 634.1l1.88 2.57a159.11 159.11 0 0 1 32.86-18.47l-1.22-2.93a161.64 161.64 0 0 0-33.52 18.83ZM651 1154.87l-1.5-2.87c-8.19 4.27-20.94 7.85-35.9 12l1.07 3c14.92-4.09 27.82-7.72 36.33-12.13ZM525.91 1487.68a226.57 226.57 0 0 0 31.33 22.19l1.62-2.74a223.12 223.12 0 0 1-30.86-21.88ZM867.37 762.2a223.13 223.13 0 0 0-38-5.75l-.21 3.18a218.78 218.78 0 0 1 37.43 5.66Z"/><path fill="#0986c8" d="M321 1132q-21.37 46.18-42.75 92.37L385.63 1341q47.89-17.62 95.83-35.16a453.77 453.77 0 0 0 112.24 51.67q17.55 48 35.1 95.73l158.35 6.47q21.51-46.34 42.92-92.67a456.49 456.49 0 0 0 116.08-42.7q46.15 21.4 92.38 42.76L1155 1259.71c-11.74-32-23.4-63.89-35.21-95.81a456.38 456.38 0 0 0 51.83-112.3q47.8-17.53 95.66-35.13l6.41-158.28q-46.37-21.56-92.64-43a458.4 458.4 0 0 0-42.7-116.1c14.33-30.73 28.49-61.55 42.81-92.37l-107.41-116.49q-47.89 17.59-95.81 35.18a459.17 459.17 0 0 0-112.24-51.74q-17.6-47.79-35.16-95.59l-158.3-6.49q-21.48 46.31-42.94 92.72A454.5 454.5 0 0 0 513.24 507q-46.2-21.4-92.37-42.8L304.36 571.58q17.64 47.82 35.13 95.77a460.28 460.28 0 0 0-51.75 112.32q-47.81 17.57-95.67 35.12l-6.46 158.33 92.73 42.88A459.28 459.28 0 0 0 321 1132Zm200.11-24.14c-106.21-115.18-98.88-294.63 16.34-400.81s294.68-98.91 400.89 16.3S1037.18 1018 922 1124.26s-294.79 98.81-400.91-16.36Z"/><path fill="#fff" d="M729.66 1250.71c-184.76 0-335.07-150.31-335.07-335.08S544.9 580.56 729.66 580.56s335.09 150.31 335.09 335.07-150.32 335.08-335.09 335.08Zm0-663.78C548.41 586.93 401 734.38 401 915.63s147.46 328.72 328.71 328.72 328.72-147.46 328.72-328.72-147.51-328.7-328.77-328.7Z"/><path fill="#1693b8" d="M695.82 1604.27a46.2 46.2 0 0 1-46.2-46.17V967.39a46.18 46.18 0 0 1 46.2-46.19h987.53a46.18 46.18 0 0 1 46.16 46.19v590.71a46.2 46.2 0 0 1-46.16 46.17Z"/><path fill="#096666" d="M645.19 1558.1V967.39a50.68 50.68 0 0 1 50.63-50.63h987.53a50.67 50.67 0 0 1 50.6 50.63v590.71a50.67 50.67 0 0 1-50.6 50.61H695.82a50.68 50.68 0 0 1-50.63-50.61Zm1079.89-590.71a41.79 41.79 0 0 0-41.73-41.75H695.82a41.8 41.8 0 0 0-41.76 41.75v590.71a41.8 41.8 0 0 0 41.76 41.74h987.53a41.79 41.79 0 0 0 41.73-41.74Z"/><path fill="#005288" d="M701.23 966.43h977.55v579.7H701.23z"/><path fill="#d8d2d2" d="M700.36 963.41h977.54v35.66H700.36z"/><path d="M649.62 1560.09v15.38H1729.5v-15.38Z" style="mix-blend-mode:multiply" fill="#1693b8"/><path fill="#1693b8" fill-rule="evenodd" d="M1816.84 1566.22H562.3v37.23c14.89 22.18 51.1 38 69.7 38h1115.39c18.44 0 54.42-15.69 69.45-37.71Z"/><path fill="#015288" fill-rule="evenodd" d="M563 1604.58c15.35 21.59 50.65 36.89 68.92 36.89h1115.36c18.22 0 53.53-15.3 68.88-36.89Z"/><path fill="#f2f2f2" d="M1083.87 1567.18a28 28 0 0 0 27.87 25.67h155.66a28 28 0 0 0 27.87-25.67Z"/><path fill="#fff" d="M971.94 1274.57h59.71v6.37h-59.71zM907.63 1129.57h73.49v6.36h-73.49zM1291.17 1129.57h59.71v6.36h-59.71zM1387.62 1129.57h59.71v6.36h-59.71zM1001.79 1129.57h250.33v6.36h-250.33z"/><path fill="#fe6a3c" d="M870.89 1066.84h59.71v6.36h-59.71zM870.89 1361.01h59.71v6.36h-59.71z"/><path fill="#fff" d="M1036.24 1305.93h415.69v6.37h-415.69zM1036.24 1337.3h107.94v6.37h-107.94zM1171.74 1337.3h107.94v6.37h-107.94z"/><path fill="#fe6a3c" d="M1307.24 1337.3h107.94v6.37h-107.94z"/><path fill="#fdac19" d="M861.7 1098.21h114.83v6.36H861.7z"/><path fill="#fff" d="M997.2 1098.21h238.84v6.36H997.2z"/><path fill="#fdac19" d="M861.7 1392.38h59.71v6.36H861.7z"/><path fill="#fff" d="M1279.68 1392.38h149.28v6.36h-149.28zM960.45 1392.38h275.59v6.36H960.45zM944.38 1423.75h424.87v6.37H944.38zM944.38 1455.13h89.08v6.36h-89.08zM1075.54 1455.13h301.44v6.36h-301.44zM974.23 1160.95h238.85v6.36H974.23zM1261.31 1160.95h114.83v6.36h-114.83zM861.7 1211.83h114.83v6.37H861.7z"/><path fill="#fdac19" d="M1013.28 1211.83h227.37v6.37h-227.37z"/><path fill="#fff" d="M861.7 1243.2h114.83v6.36H861.7zM1013.28 1243.2h339.89v6.36h-339.89zM793.43 1050.97h6.37v426.39h-6.37z"/><path fill="#f26a40" d="M262.4 1320.45c28 1.75 38.73 29.11 14.51 47.93 21.1 1.44 42.71 4.59 60.91 5.32 1 24.32 1 54.61 0 78.93-29.72-29.73-65.3-8.83-56 26.23 10.5 29.73 43.5 15.5 52.47 14-1.19 50.1 4.26 51.87-.41 51.87-32.09 0-110.79-2.29-159.78-4.28-1.8-40 3.12-70.12-3.89-70.9-11.89-1.32-54.4 23.35-53-24.15 1.55-52.2 46.53-28.56 61.26-18.91-.83-28 2.62-23.85 2.62-53.55 0-17.92 2.34-7.79 56.62-6.14-12.93-19.58-15.49-48.86 24.69-46.35Z"/><path fill="#fdac19" d="M1111 238.65c-.68 0 0 1.74 0 1.74-30.48-12.4-240.61-20.61-247.3 25.82-10.8 74.92-21.7 127.14 35.16 149.62 36.55 14.45 116.88 10.62 168.59 5.81l41.46 30.81-1-35.47c2.21-.33 4-.62 5.13-.84 56.53-10.76 88.55-178.83-2.04-177.49Z"/><path fill="#fff" d="M959.83 301.66a9.61 9.61 0 0 0-.33-2 6.72 6.72 0 0 1-.23-1 20.32 20.32 0 0 0-.37-2.8l-.73-4.33a28.17 28.17 0 0 0-.42-3.74q-.4-2.54-.88-5.36l-.86-5.16a22.37 22.37 0 0 1-.38-2.7 9.82 9.82 0 0 0-.38-2.72c-.44-1.46-1.19-2.2-2.24-2.2a4.94 4.94 0 0 0-1.1.12 2 2 0 0 0-1.26.84 3.05 3.05 0 0 0-.89 1 3.69 3.69 0 0 0-.56 1.81v3.73h.8a5.51 5.51 0 0 1 .26 1.74l.06.38c.1.42.32 1.36.66 2.83s.68 3.06 1 4.78.66 3.4 1 5a19.56 19.56 0 0 1 .41 2.89 29 29 0 0 0 .33 4.07c.22 1.5.47 2.83.78 4.12a9.41 9.41 0 0 1 .39 2.61c.05 1.22.08 2.37.08 3.46 0 1.31-.09 3.06-.27 5.21s-.28 4.49-.28 6.76q0 2.4-.13 5.89l-8.11-.36c-1.16 0-2.66.1-4.59.29s-3.36.27-4.9.28a13.93 13.93 0 0 1-4 .13l-3.45-.61c-.81-.27-1.74-.56-2.8-.86s-1.89-.55-2.61-.79l-1.74-.64v-3.81a38.82 38.82 0 0 1 .55-5.47c0-.28.1-1.45.28-3.51s.28-4.69.28-7.42c0-3 .09-5.68.27-8.05.17-2.17.26-3.6.28-4.29a13.55 13.55 0 0 0 .48-3.25c0-1.26.08-2.46.08-3.59s-.1-2.74-.29-4.67-.27-3.59-.27-5.15 0-3.11-.08-4.32c0-1-.14-3.3-2.06-3.3h-.34a3.62 3.62 0 0 0-1.9 1l-.3.41a10.75 10.75 0 0 0-.82 3c-.13.84-.26 2.65.1 8.61 0 3.26 0 6.08-.08 8.44a25.94 25.94 0 0 1-.43 4.9v.37q0 1.15-.24 4.53c-.16 2.32-.24 4.64-.24 6.88s-.09 4.83-.27 7.83-.28 5.8-.27 7.83q-.4 3.35-.75 6.88c-.25 2.38-.37 4.19-.37 5.35a15.74 15.74 0 0 1-.33 3.14 9.42 9.42 0 0 1-.61 2.17 6.46 6.46 0 0 0-.64 2.42c-.06.74-.09 1.26-.09 1.54 0 .56.1 1.75.29 3.58a55.3 55.3 0 0 1 .27 5.78c0 2.24.09 4.48.28 6.67s.27 3.66.27 4.74a32.17 32.17 0 0 1-.26 4.08 29.88 29.88 0 0 0-.29 3.6 14.63 14.63 0 0 1-.33 2.71 22.41 22.41 0 0 1-.64 2.62 12.4 12.4 0 0 0-1.73 5.61l.09.5q.22.68.39 1.14v1.77l.83-.32a2.83 2.83 0 0 0 3.68-.08 2.55 2.55 0 0 0 .88-1.63l2.18-.81-1.72-.44v-.11a15.26 15.26 0 0 0 .09-1.69 2.71 2.71 0 0 1 .18-1 7.76 7.76 0 0 0 .31-1.05 4.27 4.27 0 0 0 .58-1.41v-.33a10.51 10.51 0 0 1 .24-1.48 14.54 14.54 0 0 0 .31-2.89 18 18 0 0 1 .26-2.68 22.81 22.81 0 0 0 .29-2.45 10.5 10.5 0 0 0 .44-3.24v-4.23c0-1.13-.08-2.88-.24-5.26s-.23-4.37-.23-6.23v-8.8a9.66 9.66 0 0 0 .69-2.59 25.41 25.41 0 0 0 .34-3.9v-2.58a8.14 8.14 0 0 1 1.23.28 26.09 26.09 0 0 0 3.21.81 20 20 0 0 0 3 .38 9 9 0 0 0 2.49.52 9.62 9.62 0 0 1 2.28.43l.5.09c.55 0 1.66-.08 3.33-.25s3-.23 4.42-.24q1.28-.12 2.64-.12h.66c1.19 0 2.33.08 3.41.16s2 .15 2.77.23l1 .1a3.74 3.74 0 0 0 1.56.52c-.07 2.2-.1 4.29-.1 6.24 0 2.66-.09 5.4-.27 8.13s-.28 4.69-.28 5.5a34.4 34.4 0 0 1-.27 3.5 43.36 43.36 0 0 0-.29 4.74 28.53 28.53 0 0 1-.26 3.91c-.2 1.49-.29 2.38-.29 2.66A9.63 9.63 0 0 1 952 370a12.79 12.79 0 0 0-.3 2.49c0 .81 0 1.84.08 3.08a20 20 0 0 0 .47 3.61 17.62 17.62 0 0 0 .3 2.73 10.5 10.5 0 0 1 .25 1.53v.56l.46.46a1.93 1.93 0 0 0 2.84.3 8.31 8.31 0 0 0 1-.85 3.79 3.79 0 0 0 .94-2.56c.06-.8.09-1.77.09-2.92a30.28 30.28 0 0 0-.29-3.54 27.57 27.57 0 0 1-.27-3.6 22 22 0 0 1 .52-4v-.32c0-.27.09-1.09.26-2.46a48.94 48.94 0 0 0 .29-5.78 51.28 51.28 0 0 1 .27-5.65c.19-1.76.28-2.78.28-3.07s.1-1.78.28-4.44.28-5.89.28-9.18v-5.73c0-2.08.08-4.13.16-6.18l.23-5.81q.12-2.78.12-4.71c0-3 0-5.6-.07-7.72a20.77 20.77 0 0 0-.36-4.58ZM997.79 272.65c-.66 0-1.7 0-3.11-.12a39.3 39.3 0 0 1-8.59-2.13l-3.88-.71c-.77-.14-3-.28-6.49-.48l-5-.29-1.69-.67a1.91 1.91 0 0 0-1.3-.74 7.27 7.27 0 0 0-1 0 3.86 3.86 0 0 0-2.43 1.39l-.23.31a3.11 3.11 0 0 0 .28 3.78 4.71 4.71 0 0 0 2 1 9.91 9.91 0 0 0 2.82.39l10.6.54.23 1.25v18.31a17.42 17.42 0 0 1-.22 2.38 22 22 0 0 0-.26 3.25c0 .66-.08 2-.23 4s-.24 4.38-.24 6.78-.08 5.47-.24 9.33-.24 7.52-.24 10.8c0 3-.08 5.7-.23 8.14-.13 2-.21 3.35-.23 4.08a6.38 6.38 0 0 0-.41 2.24 48.15 48.15 0 0 0-.06 3.14 41.27 41.27 0 0 0-.42 4.16 85.65 85.65 0 0 0-.08 2.64A10.26 10.26 0 0 1 977 357a13.21 13.21 0 0 0-.22 2.1 5.38 5.38 0 0 1-.19.86 23.08 23.08 0 0 1-.89 3.89 24.41 24.41 0 0 0-.34 4.23c0 1.4-.08 3.07-.24 5s-.24 3.81-.24 5.27c0 2.45 0 4 .08 4.72.13 1.73.88 2.29 1.52 2.45a4 4 0 0 0 1.6.37 2.26 2.26 0 0 0 1.81-.78 4.64 4.64 0 0 0 .88-1.3 3.55 3.55 0 0 0 .06-2.45 17.74 17.74 0 0 0-.26-2.19 14.56 14.56 0 0 1-.21-2.24c0-.93 0-2 .08-3.22a16.66 16.66 0 0 1 .36-3v-.35a19.56 19.56 0 0 1 .22-2.77 18.69 18.69 0 0 0 .26-2.85 14.57 14.57 0 0 1 .28-2.7 24.8 24.8 0 0 1 .6-2.46 14.42 14.42 0 0 0 .47-3.58c.05-1.45.08-2.76.08-3.94a39.64 39.64 0 0 1 .3-4.3c.21-1.8.42-3.41.64-4.85.21-1.69.35-3.2.4-4.54s.08-2.23.08-2.72L984 335a8 8 0 0 1-.26-2.15c0-1.33-.07-2.56-.07-3.7 0-1.42 0-3.24.07-5.47s.19-4.24.4-6.26q0-2.81.24-6.44c.16-2.49.24-4.58.24-6.24 0-1.39.07-3 .23-5s.24-3.65.22-4.56a39.22 39.22 0 0 0 .42-5.64q.07-3.66.08-6.85V276c.52.2 1.14.4 1.86.63a21.42 21.42 0 0 0 4 1 9.8 9.8 0 0 0 2.24.37 5.77 5.77 0 0 1 2.24.14 2.28 2.28 0 0 0 2.18 1.33h.53a4 4 0 0 0 2.25-1.51l.22-.36a5.06 5.06 0 0 0 .6-2.6c-.15-1.46-1.43-2.27-3.9-2.35ZM1068.93 287.72a33.15 33.15 0 0 1-.34-4 22 22 0 0 0-.46-4.06c-.3-1.53-.61-3-1-4.53l-1.35-4a4 4 0 0 0-2.19-2.36l-.66-.15a9.63 9.63 0 0 0-1.93.15 3.63 3.63 0 0 0-1.89 1c-.35.35-.68.72-1 1.09a3.09 3.09 0 0 0-.81 2v3.37a8.26 8.26 0 0 1-.4 1.48c-.33 1-.66 2.24-1 3.54a19.18 19.18 0 0 0-.71 4.52 10.31 10.31 0 0 1-.1 1.23 5.07 5.07 0 0 1-.46 1.51 16.71 16.71 0 0 0-1 3.57 23.11 23.11 0 0 0-.46 4.55 25.62 25.62 0 0 1-.42 3.51l-.91 5.79c-.32 2-.63 3.9-1 5.63-.39 2.18-.58 2.88-.59 2.94q-.49 1.08-1.32 3.33a14 14 0 0 0-.89 4.79 15.16 15.16 0 0 1-.39 3.51 14.3 14.3 0 0 1-.85 2.65 7.89 7.89 0 0 0-.76 2.69 22.38 22.38 0 0 1-1.18 3.32 21.64 21.64 0 0 0-1.12 3.44c-.36 1.39-.7 2.58-1 3.56l-.07.48a12.36 12.36 0 0 1-.39 2.91 16 16 0 0 1-.73 2.33 4.93 4.93 0 0 0-.88 2.36 7.68 7.68 0 0 1-.55 1.88l-.15.66c0 1 0 1.91-.11 2.84a6.16 6.16 0 0 1-.45 2 16 16 0 0 0-1 3.45v-.72a4.92 4.92 0 0 0-.56-2.44 1.41 1.41 0 0 1-.15-.34l.07-.56-.46-.47a6.72 6.72 0 0 1-.56-2 24.15 24.15 0 0 1-.4-4.45c0-1.73-.11-4-.32-6.63s-.31-4.91-.31-6.92a43.33 43.33 0 0 0-.38-5.92c-.21-1.6-.33-2.56-.34-2.88a10.92 10.92 0 0 0-.41-2.76 7.08 7.08 0 0 1-.3-1.36 14.31 14.31 0 0 0-.48-3.19c-.3-1.23-.62-2.35-.94-3.39s-.64-2.09-1-3.31-.69-2.4-1.09-3.61a22.45 22.45 0 0 1-1-3.29 23.75 23.75 0 0 0-1.68-4.71l-1-5.1c-.35-1.87-.68-3.51-1-5-.31-1-.64-2.19-1-3.63s-.73-2.79-1.06-3.82-.78-2.35-1.37-4a31.82 31.82 0 0 1-1.28-4.71l-.13-.41a32.91 32.91 0 0 1-1.56-3.55 5.51 5.51 0 0 0-1.19-2.16 5.82 5.82 0 0 0-.85-1.33l-.48-.58h-.76a2.85 2.85 0 0 0-2 .9 3 3 0 0 0-.82 1.37 7.79 7.79 0 0 0-.92 2 11.19 11.19 0 0 0-.51 3.37 9.79 9.79 0 0 1-.31 2.5 9.38 9.38 0 0 0-.41 2.26c0 .67-.1 2.45-.31 5.35s-.32 6.41-.32 10.18q0 2.83-.16 7.63c-.1 3.23-.2 6.83-.28 10.8s-.14 8.11-.19 12.41-.08 8.51-.08 12.58-.07 8.32-.2 12.63-.28 8.29-.43 11.91l-.4 9c-.11 2.4-.16 3.67-.16 3.84a9.18 9.18 0 0 1-.31 2.07 13.7 13.7 0 0 0-.4 3.13c-.39 1.75-.37 2.85.06 3.66a2.48 2.48 0 0 0 2.24 1.52h.17a4.64 4.64 0 0 0 2.94-1.09l.44-.49v-.63a8.09 8.09 0 0 1 .3-1.37 10.23 10.23 0 0 0 .42-2.75c0-.3 0-.85.07-1.65a4.94 4.94 0 0 1 .41-1.73l.15-.66c0-.31.06-1.5.19-3.55s.28-4.69.44-7.7.31-6.29.44-9.81.2-6.92.2-10.16c0-3 0-5.9.08-8.69s.12-5.24.19-7.34.2-4.41.36-7V286.7c0-.78 0-1.54.08-2.28 0 .14.11.29.16.44a9.88 9.88 0 0 1 .7 3.19l.08.48c.31 1 .75 2.52 1.32 4.58a59.06 59.06 0 0 1 1.38 6.3c.67 2 1.2 3.75 1.6 5.18a7 7 0 0 0 1.11 2.63c.08.36.2.83.41 1.48l.91 2.89c.31 1 .64 2.19 1 3.63s.68 2.6 1 3.59a19.53 19.53 0 0 0 .38 3.38 14.21 14.21 0 0 1 .33 2.55 9 9 0 0 0 .36 2.13 8 8 0 0 1 .27 1.91 28.35 28.35 0 0 0 .37 3.3 40.67 40.67 0 0 1 .35 5.49c0 2.1.1 4.52.32 7.19s.31 4.73.31 6.37a26.65 26.65 0 0 0 .38 4.73 16.77 16.77 0 0 1 .33 2.08v.52l.31.42c.23.32.31.51.32.46a26.82 26.82 0 0 0 .51 3.29l1 5.11c.32 1.72.74 3.51 1.26 5.3a13.32 13.32 0 0 1 .69 3.21v.59l.47.47a4.39 4.39 0 0 1 .35 1.38 2.25 2.25 0 0 0 1.49 1.73 2.88 2.88 0 0 0 3.91-.39c.7-.76 1.09-.86 1.15-.87l1.33-.22v-1.82c.08-.81.21-1.11.18-1.11l.46-.45v-.66a13.9 13.9 0 0 1 .33-2.6 23 23 0 0 0 .38-4.22 20.86 20.86 0 0 1 .29-3.56 14.67 14.67 0 0 0 .34-2.54c0-.29 0-.87.12-1.73a11.74 11.74 0 0 1 .45-2.36 8.2 8.2 0 0 0 .7-2.95c0-.93.08-1.75.08-2.47a5.48 5.48 0 0 1 .38-1.79c.27-.74.54-1.41.8-2a4.17 4.17 0 0 0 .86-2.05 4.35 4.35 0 0 1 .28-1.11l.47-.46v-.66a5.53 5.53 0 0 1 .24-1.59 8.55 8.55 0 0 0 .39-2.53 9.36 9.36 0 0 1 .77-2.81c.59-1.58 1.23-3.4 2-5.69q.46-2.5 1.2-5.5a23 23 0 0 0 .8-4.69c.31-1 .64-2.37 1-4.08s.71-3.32 1-4.54a36.11 36.11 0 0 0 .89-4l1.3-6.78q.72-3.74 1.36-7.32c.42-2.4.72-4.22.88-5.45.31-2.32.72-4.61 1.24-6.82l.06-.27c.09.48.19 1 .29 1.41 0 1.05-.06 2.91-.16 5.6l-.36 8.88c-.13 3.2-.24 6.37-.32 9.49s-.11 5.63-.11 7.49c0 5.37 0 9.57-.12 12.6a62.89 62.89 0 0 1-.56 7.33l-.91 3.92a15.08 15.08 0 0 0-.48 3.25c0 .31-.12 1.32-.34 3a46.27 46.27 0 0 0-.35 6.3 71.07 71.07 0 0 0-.57 8.3q-.07 4.57-.08 8.15V378a8.73 8.73 0 0 0-.59 2.57c-.08.94-.13 1.78-.13 2.51v.66l.47.46a4.61 4.61 0 0 1 .54.65 2.9 2.9 0 0 0 2.64 1.17h.48l.39-.26c1.08-.69 2.07-1.5 2.07-2.68 0-.33.13-1.92.35-4.78s.37-6.41.37-10.2.1-7.46.31-11.16.32-6.36.32-7.78a40 40 0 0 1 .42-5.44c.28-2 .58-3.74.9-5.12.32-1.73.63-4 .93-6.9s.44-6.6.44-11.06q0-2.5.24-6.73l.48-8.64c.15-2.91.28-5.55.39-7.94a23.29 23.29 0 0 0-.08-4.83 36.11 36.11 0 0 0-.44-4.78ZM1109.92 379a4.07 4.07 0 0 0-2.9-.86c-.55 0-1.55-.08-3-.23a16 16 0 0 0-4.84.23h-4.63c-1.57 0-2.57.43-3 1.18a3.29 3.29 0 0 1-.57.29 2.55 2.55 0 0 1-1 .23c.06-.18.12-.37.2-.58a6.81 6.81 0 0 0 .71-3.09v-5.16a13.29 13.29 0 0 1 .46-3.26v-.42a32.8 32.8 0 0 1 .31-4 38.07 38.07 0 0 0 .33-4.87q0-1.72.27-6.57c.19-3.27.28-6.58.28-9.84 0-3.48.11-6.76.32-9.75.18-2.72.29-4.48.31-5.27a14.28 14.28 0 0 0 .56-3.84 18.86 18.86 0 0 1 .29-2 22.11 22.11 0 0 0 .35-3.84 35.61 35.61 0 0 1 .3-4.13 17.52 17.52 0 0 1 .72-3.58l.08-6.4a8.14 8.14 0 0 1 .27-1.75 12 12 0 0 0 .36-3 13.45 13.45 0 0 1 .51-3.09v-.4c0-.3.11-1.28.31-2.94a49.85 49.85 0 0 0 .33-5.93v-7.69a3.79 3.79 0 0 0 .55-1.66 11.1 11.1 0 0 1 .28-1.61 14.91 14.91 0 0 0 .35-3c.45-2.11.45-2.74.28-3.27s-.75-1.43-2.5-1.43h-.58l-1.45.11-.11 1.47a2.31 2.31 0 0 1-.22.62c-.22.5-.48 1-.88 1.79a23.85 23.85 0 0 0-1 4.34c-.27 1.83-.56 4.85-.89 9.11 0 2.9-.1 5.53-.31 7.82s-.32 3.94-.32 4.54v2.09a6.73 6.73 0 0 1-.43 2.13l-.1.3v.31a10.53 10.53 0 0 1-.5 4.58l-.14.66a16.56 16.56 0 0 1-.26 1.92 20.79 20.79 0 0 0-.3 3.3 30.17 30.17 0 0 1-.29 3.83 28.5 28.5 0 0 0-.34 3.86 17.8 17.8 0 0 1-.29 2.9 7.56 7.56 0 0 1-.62 2.2l-.2.36v.4c0 .58 0 1.89-.08 3.93a66.35 66.35 0 0 1-.55 6.69v12.36c0 1.42-.09 3.19-.27 5.25s-.29 4.13-.29 5.93c0 1.46 0 2.88-.07 4.26v.57h-.52V368.25a6.88 6.88 0 0 1-.42 2l-.1.53c0 .88 0 2-.07 3.47a10.49 10.49 0 0 1-.47 3.05l-.09.53a11.64 11.64 0 0 1-.28 2.48c-.19.86-.35 1.1-.28 1.07a2.36 2.36 0 0 0-.91 2 3.15 3.15 0 0 0 1.65 2.3l.4.25h3.39a12.61 12.61 0 0 0 2.77-.4 27.8 27.8 0 0 0 3.07-.88 23.1 23.1 0 0 1 2.75-.78 11.7 11.7 0 0 1 2.22-.31 6.76 6.76 0 0 0 2.23.54c.93.07 1.46.07 1.89.09v.49l1.53.06a2.42 2.42 0 0 1 .69.2 6.51 6.51 0 0 0 3.56.34 2.15 2.15 0 0 0 2-2.13v-1.74a3.2 3.2 0 0 0-.81-2.41Z"/><path fill="#fcd4ca" d="M468.37 1599.18s9 50.81 4.05 63.28c-2 5 11.56 21 11.56 21s12.51 32.21 49.89 6.3c14.11-9.79 19-16.78 4.72-32.56-14.7-16.28-13.74-58.11-13.74-58.11Z"/><path fill="#8cc7ec" d="M466.65 1658.26s34.68 32.18 54.09 30.46c23.63-2.1 16.77-38.14 20.48-32.56 6.41 9.65 36.76 33.61 36.76 33.61s24.16 12.31 57.24 10.21c13.84-.88 2.9 17.5 2.9 17.5l-174.62-5.13Z"/><path fill="#005288" d="M638.12 1717.48H463.5v-5.13l176.17-.48-1.55 5.61z"/><path fill="#fcd4ca" d="M432.68 1586.37 422 1566.5c-10.15 6.73-19.91 13.74-28.88 19.87Z"/><path fill="#005288" d="M467.23 1626.48s10 11.89 28.52 10.71c40.66 2.14 35.61-34 35.61-34L562.62 1030l-135.08-1.43a1254.58 1254.58 0 0 0 .8 155c8.53 126.65 29.07 344.32 38.89 442.91Z"/><path fill="#fcd4ca" d="M423.71 1554.4s4.33-10.74-5.84-8.17c-4.08 1-50 43-50 43s-3.49 15.88 16.68 36c4.54 4.54 22.85 17.15 23.88 6.91 1.57-15.77 36.82-46.26 36.82-46.26Z"/><path fill="#005288" d="m451.06 1719.92-54.74-12.98-54.55-107.67 6.7-6.37 55.15 105.54 50.03 14.46-2.59 7.02z"/><path fill="#8cc7ec" d="M373.82 1576.07s5.24 22.36 14.51 36c7.82 11.56 23.88 14.45 23.88 14.45l7.21 53 34.7 31.54s-1.44 9.14-3.16 7.89c-13.93-10.15-45.71-13.4-52.55-24.9-17.22-28.92-52.86-99.09-52.86-99.09Z"/><path d="M540 1376.13q1.46 12.34 2.4 24.74l1.4-25.64a13.26 13.26 0 0 1-3.8.9ZM516 1485.54a11.31 11.31 0 0 1-1.15-5.92c2.28-41.32-6-81.55-12.61-122.1-6.44-39.46-9.05-77.26-4.52-117.08 8-70.25 18.31-140.28 21.15-210.92l-91.32-1a1254.58 1254.58 0 0 0 .8 155c8.53 126.72 29.07 344.39 38.89 443a35.25 35.25 0 0 0 24.94 10.77c-1.2-33.19.36-66.15 10.77-97.72a335.15 335.15 0 0 0 13.05-54.03Z" style="mix-blend-mode:multiply" fill="#005288" opacity=".2"/><path d="M450.33 1028.79v.2a44.66 44.66 0 0 1 6.6 23.24l-23.68 34.1c0 11.82 60.39 161.64 109.15 194.72a54.89 54.89 0 0 1 5.88 4.65l14.34-255.7Z" style="mix-blend-mode:multiply" fill="#015288"/><path fill="#005288" d="M722.49 1358c-54.11-162.59-135.73-365.27-135.73-365.27l-83.71.35s-119.17 33.12-50.88 133.05c35.64 52.22 148.62 220.14 148.62 220.14l-117.16 131-95.81 74.24c-15.06 26.86 38.35 57.51 59.92 64.7 3.7 1.24 22.82-12 46.2-29.85h5.38c94.9-70.17 237.68-184.67 223.17-228.36Z"/><path d="M579.78 1450.62c9.66-16.94 25.63-27.41 41.62-37.76-2.33-5.45-.78-12.92 4.82-15.48 13.71-6.26-11.52-30.27-1.14-40 3.24-3 35.65 6 39.23 4.36-5.61-11.48-10.78-23.1-17.21-34.23-8.29-14.36-17-28.63-23-44.16-6.25-16.19-7.25-30.71-6.07-47.92.66-9.71.79-19.18-1.69-28.68-.65-2.48-1.8-5.33-1.54-5.17-8-5-15.12-10.3-21.4-17.4-18.44-20.83-33.68-44.42-46.61-69-20-38.08-36.86-78.8-48.21-120.69-21 7.27-106.7 43.42-46.43 131.62 35.64 52.22 148.62 220.14 148.62 220.14l-117.16 131-95.81 74.24c-7.92 14.12 3.09 29.28 18.44 41.54a284 284 0 0 1 26.9-24.56c26.62-21 57-36 86.51-52.37 18.88-10.5 36.64-22.3 54.15-34.59-.99-10.63.48-21.26 5.98-30.89Z" style="mix-blend-mode:multiply" fill="#005288" opacity=".2"/><path fill="#fcd4ca" d="m471.9 702.68.78.08c18.19 2.2 36.28 5.3 54.41 5l43.66-18.36-20.28 49.3c163.63 62.3 159.42 72.23 220.31 66.7 9.5-.86 23.5 8.18 33.69-11.76 1.9-3.72 4.49.54 3.79 3.24-8.75 33.46 8.22 4.44 14.35 10 3.89 3.53-2.39 20.91-2.39 20.91l-17 10.73s-91.62 6.73-304.93-29.34c-9.65-1.65-14.08-57.3-26.39-106.5Z"/><g style="isolation:isolate"><path fill="#015288" d="M878.91 736.84a3.1 3.1 0 0 1 0 .44 2.8 2.8 0 0 1 0 .48 5.11 5.11 0 0 1-.13.53c-.06.18-.13.38-.21.58l-.18.39-.12.26-.27.48c0 .07-.07.14-.12.22s-.22.39-.34.58l-.09.13c-.15.25-.32.5-.49.75-.18.25-.36.51-.56.77l-.63.81-.7.84c-.5.56-1 1.14-1.6 1.73l-.88.88S747.55 868.34 718 896.62l-.82.68-.79.63c-.52.39-1 .75-1.51 1.06-.49.31-1 .59-1.39.82a9 9 0 0 1-1.23.55 5 5 0 0 1-.56.17 3.22 3.22 0 0 1-.5.11h-.45a1.72 1.72 0 0 1-.74-.15 1.07 1.07 0 0 1-.28-.19l6.39 5.75a.19.19 0 0 0 .07.06h.14l.08.05h2.24a.06.06 0 0 0 .05 0h.18a.07.07 0 0 0 .06 0H720.3l.06-.05h.35a.13.13 0 0 0 .06 0h.53l.07-.06h.13l.07-.05h.14l.07-.06h.08l.1-.07.1-.07.11-.08.1-.07.16-.12a.91.91 0 0 1 .16-.11l.15-.13.17-.12a.39.39 0 0 1 .1-.08l.1-.09a.2.2 0 0 0 .1-.08l.11-.08.09-.07.09-.08.09-.08.1-.07.08-.07.08-.07.08-.06.07-.07.08-.06.08-.07h.06l.08-.07.08-.07.07-.07.08-.06a.32.32 0 0 1 .09-.08s0 0 .07-.06L725 902l.09-.07a.3.3 0 0 1 .08-.08l.09-.08.09-.09.1-.08a.94.94 0 0 1 .1-.1l.11-.11.12-.11.12-.12.12-.11 152.37-147.64.26-.25.26-.25.25-.25a1.27 1.27 0 0 1 .1-.12 1.14 1.14 0 0 0 .11-.11 1 1 0 0 0 .14-.15l.15-.15.14-.15.14-.14a.39.39 0 0 1 .08-.1l.08-.08a.81.81 0 0 1 .09-.1l.07-.08.09-.1.07-.08a.7.7 0 0 0 .08-.1l.08-.08.08-.09.07-.08.08-.09.07-.09.07-.08.08-.09.06-.09.09-.09.08-.1.07-.09.08-.1.06-.06a.76.76 0 0 0 .08-.11l.08-.1.08-.09a.85.85 0 0 1 .11-.14l.1-.14.11-.13.05-.08.13-.19.15-.19.13-.2.11-.16c.16-.23.3-.45.44-.67l.17-.28.29-.5.12-.24.2-.41c.05-.1.08-.18.12-.27l.15-.34a.16.16 0 0 1 0-.06.79.79 0 0 0 0-.09v-.16a.14.14 0 0 0 0-.07V745.24a.11.11 0 0 1 0-.05.43.43 0 0 1 0-.05V743.54l-2.09-3.46-3.44-3.91a1.34 1.34 0 0 1 .35.67Z"/><path fill="#fff" d="M830.24 731.13c1.07-1 2.17-2 3.24-2.86a32.4 32.4 0 0 1 3.06-2.21 15.93 15.93 0 0 1 2.59-1.35 3 3 0 0 1 1.75-.25L878 735.77a1.32 1.32 0 0 1 1 1.28 5.92 5.92 0 0 1-.24 3 20 20 0 0 1-2.19 3.38 37.63 37.63 0 0 1-3.53 3.88L720.13 895.52a37.43 37.43 0 0 1-3.87 3.29 17 17 0 0 1-3.26 1.91 4.77 4.77 0 0 1-2.73-.05 1.31 1.31 0 0 1-1-1.2L703.7 858a3.84 3.84 0 0 1 .44-1.87 16.17 16.17 0 0 1 1.5-2.62 36 36 0 0 1 2.33-3c.89-1 1.88-2.11 2.93-3.14Z"/><path fill="#80caff" d="M830.55 735.27 714.52 848.21l7.67 37.57 141.53-137.32-33.17-13.19"/></g><path d="m537.89 554.61 10.81-26.43s-6.5-41.37 0-52.87c3.46-6.09 24-14.42 24-14.42s6.76-12.12 13.22-14.42c20.31-7.24 49.2 20.93 66.08 18 34.84-6 36.11 21.44 34.84 31.23-1 7.94-18 26.44-18 26.44l-129.75 45.69Z"/><path fill="#fcd4ca" d="M667.66 512.56c-4.31-7.88-31-3.78-34.65 1.14-7.18 9.57-39.84 26.49-39.84 26.49s3.76-13.78-2-19.52c-6.65-6.66-13.87 12.34-13.93 18.45A34.92 34.92 0 0 0 580 552.2l-40.86 9.62-9.6 20.42L580 625.5l21.62-22.83s24.89 13.41 32.45 9.61c22.58-11.34 34.84-94.92 34.84-94.92Z"/><path d="m580 552.2-40.86 9.62-9.6 20.42L580 625.5l20.36-21.5c-15.6-12.79-27.71-21.15-20.36-51.8Z" style="mix-blend-mode:multiply" fill="#fcd4ca" opacity=".48"/><path fill="#fff" d="m589.26 628.37-77.4-34.85s10-17.2 21.74-9.27c67.7 45.54 55.66 44.12 55.66 44.12Z"/><path fill="#8cc7ec" d="M420 987.1c3-9.32 6.88-23.26 11-39.06-.56-70.75-3.84-208.12-3.77-212.66C429.58 638.11 513 591.2 513 591.2c7.27.27 67.69 27.25 74.13 34.91 13.62 16.16 11.74 42 15.27 65.31 7 46.3 11.73 193.87 10.86 371.47 0 0-44.36 4.08-72.39 7.71-47.1-4.08-66.62-20.69-66.62-20.69s-81.32 20.92-54.25-62.81Z"/><path d="M612.48 904.56c-14 7.18-29 12.69-43.6 11.83-25.88-1.53-38.7-14.62-47.17-38.17-3.59-10-6.77-20.36-11.39-29.93-.3-.62-.69-1.52-1.12-2.53-.71 2.24-1.37 4.49-2 6.77-3.46 12.94-24.09 10.49-23.54-3.18.41-10.1-1.78-22.45-13.31-25.27-11.15-2.73-24.44 1.28-32.71 9.21a106.29 106.29 0 0 0-8.21 8.92c.36 18.91.71 38.42 1 56.81 5 8.14 9.17 16.39 11.16 26a37.58 37.58 0 0 1 10.9-4.1c13.8-2.77 26.41 4 36.54 12.82 23.29 20.3 40.27 51.77 72.11 59.79a11.45 11.45 0 0 1 5.56 3.07 51.94 51.94 0 0 1 31.35 11.9 85.55 85.55 0 0 1 15.28 17.09c.04-42.82-.26-83.59-.85-121.03Z" style="mix-blend-mode:multiply" fill="#8bc7ed" opacity=".2"/><path d="M420 987.1c3-9.32 6.88-23.26 11-39.06-.56-70.75-3.84-208.12-3.77-212.66C429.58 638.11 513 591.2 513 591.2c2.71.1 12.8 3.91 24.73 9-14.82 12.8-25.96 30.8-33.37 47.8-11.67 26.88-45.23 64.78-43.24 94.65.49 7.35 21.75 10.13 21.41 17.58-.26.23-.52.45-.84.71-1.15.94-1.8 1.48-2 1.67-.8.61-23 33.77-13.95 44.55-39 52.77-35.88 186.36-7.19 244.93-22.15 1.18-57.82-5.38-38.55-64.99Z" style="mix-blend-mode:multiply" fill="#80caff" opacity=".28"/><path d="M460.14 806.29c-.72.45 0 9.27 0 9.27 9.51 2.51 49 11.33 79.13-2.19 47.47-21.32 48.69-23.58 48.38-24-9.25-12.84-35.31-28.44-67.84-23-22.62 3.81-46.01 31.18-59.67 39.92Z" style="mix-blend-mode:multiply" fill="#80caff"/><path fill="#fcd4ca" d="m564.36 788.61 5 58.1s42.41-2.09 98.51 4.45c9.62 1.12 33.6-18.92 33.6-18.92l52.61-10.55 10.94 6.1-2.2 9.4L676.71 868s-107 62.66-142.34 49.5C505 906.56 471.92 809 471.92 809Z"/><path d="m754.12 821.69-52.61 10.55a173 173 0 0 1-18.12 13c-3.32 6.16-9.6 10.55-18.9 10.19-16.21-.63-30.31 8-45.94 11.27-11.85 2.47-23-.1-33.72 6-16.54 9.49-36.78 11.44-46.37-8.7-9.07-19-15.21-42.68-18-65.78L471.92 809s33.08 97.56 62.45 108.5c35.3 13.16 142.34-49.5 142.34-49.5l86.15-30.81 2.2-9.4Z" style="mix-blend-mode:multiply" fill="#fcd4ca" opacity=".2"/><path fill="#80caff" d="M507.77 807c22.66-3.42 63.56-17.26 79.88-17.59-20-63.47-27.16-112.63-56.35-127.19-10.31-5.15-21.49 9.17-33.22 70.39-3.91 20.4-46.95 53.75-37.94 83 23.86-13.17 26.49-5.47 47.63-8.61Z"/><path fill="#015288" d="M1657.36 433.87c1.73-7.58 3.26-15.5 4.56-23.56l-2-.32c-1.29 8-2.82 15.9-4.53 23.44ZM1649.28 456.49c-2.41 7.81-5.1 15.37-8 22.46l1.84.76c2.92-7.16 5.64-14.76 8.07-22.63ZM1602.81 538.45a119.07 119.07 0 0 1-18.57 14.69l1.09 1.69a121.88 121.88 0 0 0 18.85-15ZM1563.76 565.51l-.69-1.88a114 114 0 0 1-22.94 5.76l.28 2a115.88 115.88 0 0 0 23.35-5.88ZM1631.1 500.48a178.67 178.67 0 0 1-12.72 20.08l1.6 1.17a173.25 173.25 0 0 0 12.87-20.31ZM1616.54 480a173.33 173.33 0 0 0-20.76 12.17l1.12 1.64a169.79 169.79 0 0 1 20.51-12ZM1578.28 508.57l-1.34-1.48a164.28 164.28 0 0 0-16.5 17.53l1.55 1.25a163 163 0 0 1 16.29-17.3ZM1709.66 468.66l.48-1.94a112.92 112.92 0 0 0-23.9-3.11v2a111.46 111.46 0 0 1 23.42 3.05ZM1782.67 666.79a126.72 126.72 0 0 1 23.48-3.31l-.08-2a127.86 127.86 0 0 0-23.85 3.37Z"/><path fill="#015288" d="M1662.21 465.24a152.75 152.75 0 0 0-23.4 5.64l.62 1.9a148.44 148.44 0 0 1 23.09-5.56ZM1766.6 508.94l-1.75 1a102.54 102.54 0 0 1 9 21.84l1.92-.55a105 105 0 0 0-9.17-22.29ZM1732.67 475.33l-1 1.76a83.21 83.21 0 0 1 18.91 14l1.41-1.41a85 85 0 0 0-19.32-14.35ZM1873.65 682.89l-1.22 1.6a119 119 0 0 1 17.12 16.36l1.51-1.3a121.62 121.62 0 0 0-17.41-16.66ZM1830.1 663.13l-.37 2a96.57 96.57 0 0 1 22.52 7.1l.83-1.81a99.73 99.73 0 0 0-22.98-7.29ZM1914.09 735.67a172.4 172.4 0 0 0-8.92-16.63l-1.69 1a174 174 0 0 1 8.49 15.75c.71-.03 1.42-.1 2.12-.12ZM1766.87 649.14c-2.15 7.36-4.6 15-7.31 22.73l1.89.65c2.7-7.73 5.18-15.42 7.33-22.83ZM1780.32 554.85l-2 .2a177.18 177.18 0 0 1 .77 23.77l2 .06a181.17 181.17 0 0 0-.77-24.03ZM1777 602.55c-1 7.54-2.47 15.43-4.24 23.47l2 .43c1.78-8.08 3.22-16 4.26-23.62ZM1546.75 544.4a152.66 152.66 0 0 0-10.45 21.68l1.86.72a150.22 150.22 0 0 1 10.31-21.39Z"/><path fill="#f26a40" d="M1602.58 764.13c-.89 0 0 2.3 0 2.3-40.28-16.39-317.92-27.24-326.76 34.12-14.27 99-28.67 168 46.46 197.69 48.29 19.1 154.43 14 222.76 7.67l54.79 40.73-1.3-46.88c2.92-.43 5.23-.81 6.76-1.1 74.71-14.22 117-236.29-2.71-234.53Z"/><path fill="#fff" d="M1430.19 837a2.25 2.25 0 0 1-.12-.61 3.47 3.47 0 0 0-1.09-2.88l-1-1a16.13 16.13 0 0 0-3.18-3.17 31 31 0 0 0-3.44-2.2l-2.41-1.32a5.81 5.81 0 0 0-2.69-.71h-6l-.56.11c-.75.27-1.38.48-1.87.6a2.56 2.56 0 0 0-2 2.6 19.42 19.42 0 0 1-.25 2 24.58 24.58 0 0 0-.29 3.7 43.83 43.83 0 0 1-.3 4.64 45.8 45.8 0 0 0-.32 5c0 1.11-.1 2.78-.27 5s-.28 4.66-.28 7-.09 5.64-.27 10.12-.27 8.94-.27 13.21q0 3-.12 6.56l-.23 7.15q-.12 3.6-.16 6.85v5.43c-.3 3.45-.49 7.5-.54 12s-.08 8.34-.08 11.45c0 2.86 0 5.49.08 7.85 0 2.62.11 5.1 2.13 5.1h1.53l.38-.23a3.17 3.17 0 0 0 1.3-1.66 10.49 10.49 0 0 0 .44-3c.08-1.27.13-3.13.16-5.6s0-5.74 0-9.9v-7.25c0-2.45.08-4.75.15-6.89s.16-4 .24-5.62.11-2.65.12-3.4a22.63 22.63 0 0 0 .31-3.35c0-1.49.08-3.19.11-5.13l.08-6.18v-1.74a3.23 3.23 0 0 0 .66.12 6.23 6.23 0 0 0 3.35-.49 13.46 13.46 0 0 0 2.55-1.35 9.42 9.42 0 0 0 2.33-1.3 12.23 12.23 0 0 0 1.33-1.13c.18-.13.28-.19.26-.21a4.34 4.34 0 0 0 2.3-1 6.52 6.52 0 0 0 1.79-1.89 13.13 13.13 0 0 0 2-3.28 21.07 21.07 0 0 0 1.46-3.81 21.83 21.83 0 0 0 1.4-3.46 9.29 9.29 0 0 0 .48-2.38 16.08 16.08 0 0 1 .32-1.91c.23-1.13.49-2.25.81-3.43.32-1.46.61-3.15.84-5a45.12 45.12 0 0 0 .37-5.56c0-2.36-.06-4.05-.17-5.14a5.25 5.25 0 0 0-1.37-3.31Zm-20.66 39.72v-19.29c0-1.09.11-3 .34-5.66s.51-5.32.82-8c0-2.48.1-4.84.27-7s.28-3.74.28-4.33a9.11 9.11 0 0 1 0-.92c.19-.07.48-.17.92-.29h3.13a6.55 6.55 0 0 1 1.61.26 7.4 7.4 0 0 1 1.77.69 8.34 8.34 0 0 0 .78.37V834h2.27a7.74 7.74 0 0 0 1 1.24 8.66 8.66 0 0 1 .9 1.25c.43.66.79 1.27 1.08 1.82a7.66 7.66 0 0 1 .67 1.88 8.25 8.25 0 0 1 .31 1.87v.4l.19.35a4.89 4.89 0 0 1 .27 2.05 16.83 16.83 0 0 1-.43 3.7v.34a23.68 23.68 0 0 1-.33 3.6 8.65 8.65 0 0 1-.65 2.48l-.19.36v.41a10.18 10.18 0 0 1-.25 1.95 15.88 15.88 0 0 0-.3 2.56 3.19 3.19 0 0 1-.18 1.11 6.18 6.18 0 0 0-.31 1.19 15.59 15.59 0 0 0-1.63 4.53 12.06 12.06 0 0 1-1.26 2.42 2.81 2.81 0 0 0-2.26 2.3h-.16a2.81 2.81 0 0 0-1.87.71 2.62 2.62 0 0 0-.69 1c-1 .62-1.67 1-2 1.23l-2.31.84a3.48 3.48 0 0 0-1.84 1.28ZM1488.69 858.65a10.12 10.12 0 0 0-.32-1.95 5.5 5.5 0 0 1-.22-1 20.25 20.25 0 0 0-.37-2.76l-.72-4.25a27.74 27.74 0 0 0-.4-3.66c-.27-1.67-.56-3.42-.86-5.27l-.86-5.06a22.53 22.53 0 0 1-.37-2.65 9.07 9.07 0 0 0-.38-2.67c-.43-1.45-1.18-2.19-2.22-2.19a4.64 4.64 0 0 0-1.08.12 2 2 0 0 0-1.25.82 3.13 3.13 0 0 0-.88 1 3.59 3.59 0 0 0-.56 1.79v3.69h.84a5.4 5.4 0 0 1 .25 1.67v.4c.1.41.32 1.33.65 2.77s.67 3 1 4.69.65 3.33.93 4.88a19.84 19.84 0 0 1 .4 2.82 27.87 27.87 0 0 0 .33 4c.22 1.48.46 2.79.77 4.05a9.63 9.63 0 0 1 .38 2.56c0 1.2.08 2.33.08 3.39 0 1.31-.09 3-.26 5.12s-.28 4.41-.28 6.63c0 1.56 0 3.48-.13 5.76l-7.93-.35c-1.15 0-2.66.09-4.52.28s-3.29.26-4.8.28a13.67 13.67 0 0 1-3.91.12l-3.38-.6c-.8-.27-1.71-.54-2.75-.83s-1.86-.56-2.57-.78l-1.68-.63v-3.72a38.38 38.38 0 0 1 .54-5.36c0-.28.09-1.43.27-3.45s.28-4.6.28-7.29c0-2.89.09-5.55.27-7.89.15-2.13.25-3.53.27-4.22a13.47 13.47 0 0 0 .47-3.18c0-1.24.08-2.42.08-3.53s-.1-2.68-.29-4.59-.26-3.5-.26-5 0-3-.08-4.24c0-1-.15-3.27-2-3.27h-.34a3.65 3.65 0 0 0-1.89 1l-.28.4a10.5 10.5 0 0 0-.82 3c-.12.82-.25 2.61.1 8.45 0 3.2 0 6-.07 8.29a26.81 26.81 0 0 1-.43 4.8v.36c0 .77-.08 2.25-.23 4.45s-.24 4.55-.24 6.76-.09 4.72-.27 7.68-.27 5.66-.26 7.68q-.39 3.29-.75 6.77c-.24 2.37-.35 4.1-.35 5.25a15.86 15.86 0 0 1-.32 3.07 10.22 10.22 0 0 1-.6 2.13 6.39 6.39 0 0 0-.64 2.37c0 .73-.08 1.25-.08 1.53 0 .54.09 1.72.28 3.51a52.91 52.91 0 0 1 .27 5.66c0 2.2.09 4.41.27 6.56s.27 3.59.27 4.65a31.18 31.18 0 0 1-.26 4 30.63 30.63 0 0 0-.28 3.54 14.72 14.72 0 0 1-.32 2.65 23.65 23.65 0 0 1-.63 2.57 12.12 12.12 0 0 0-1.7 5.52l.08.5.39 1.12v1.76l.83-.31a2.84 2.84 0 0 0 3.65-.09 2.58 2.58 0 0 0 .86-1.6l2.22-.83-1.76-.44v-.09a14.54 14.54 0 0 0 .08-1.66 2.64 2.64 0 0 1 .18-1 5.27 5.27 0 0 0 .3-1 3.77 3.77 0 0 0 .57-1.39v-.33a11.94 11.94 0 0 1 .25-1.44 15 15 0 0 0 .3-2.85 18.39 18.39 0 0 1 .25-2.63 21.55 21.55 0 0 0 .28-2.39 10.38 10.38 0 0 0 .44-3.19v-4.16q0-1.66-.24-5.16t-.23-6.12v-8.63a9 9 0 0 0 .69-2.55 25.64 25.64 0 0 0 .32-3.82V887a7.43 7.43 0 0 1 1.17.26 25.63 25.63 0 0 0 3.16.8 19.4 19.4 0 0 0 2.91.37 8.48 8.48 0 0 0 2.44.51 9.49 9.49 0 0 1 2.23.43l.5.08q.83 0 3.27-.24c1.5-.15 2.91-.22 4.35-.23.82-.08 1.67-.12 2.56-.12h.68c1.17 0 2.28.07 3.35.15s2 .15 2.7.23l1 .09a3.89 3.89 0 0 0 1.51.52c-.06 2.14-.09 4.18-.09 6.09 0 2.6-.1 5.29-.27 8s-.28 4.6-.28 5.4a32.45 32.45 0 0 1-.26 3.44 41.93 41.93 0 0 0-.28 4.65 28.73 28.73 0 0 1-.26 3.82c-.19 1.47-.29 2.35-.29 2.63a9.54 9.54 0 0 1-.24 1.83 13.16 13.16 0 0 0-.3 2.45c0 .8 0 1.8.08 3a20.26 20.26 0 0 0 .46 3.55 15.65 15.65 0 0 0 .31 2.68c.14.77.23 1.26.24 1.49v.66l.46.46a1.91 1.91 0 0 0 2.82.29 6.7 6.7 0 0 0 1-.84 3.72 3.72 0 0 0 .93-2.53c0-.78.08-1.73.08-2.87a26.89 26.89 0 0 0-.29-3.47 28 28 0 0 1-.25-3.53 20.61 20.61 0 0 1 .51-3.95v-.33c0-.27.09-1.07.26-2.41a47.84 47.84 0 0 0 .28-5.68 49.8 49.8 0 0 1 .27-5.54c.19-1.72.28-2.73.28-3s.09-1.74.27-4.36.27-5.77.27-9v-5.62c0-2.04.08-4.06.16-6.07l.23-5.71c.08-1.81.12-3.35.12-4.61 0-3 0-5.5-.08-7.59a19.58 19.58 0 0 0-.34-4.53ZM1539.41 840.31A5.3 5.3 0 0 0 1538 837a1.53 1.53 0 0 1-.12-.61 3.51 3.51 0 0 0-1.1-2.88l-1-1a16.13 16.13 0 0 0-3.18-3.17 31 31 0 0 0-3.43-2.2l-2.42-1.32a5.78 5.78 0 0 0-2.69-.71h-6l-.56.11c-.76.27-1.39.48-1.88.6a2.56 2.56 0 0 0-2 2.6c0 .27-.1.93-.26 2a24.58 24.58 0 0 0-.29 3.7 41.32 41.32 0 0 1-.3 4.64 43.64 43.64 0 0 0-.33 5c0 1.11-.09 2.78-.26 5s-.28 4.66-.28 7-.08 5.64-.27 10.12-.27 8.94-.27 13.21q0 3-.12 6.56l-.23 7.15q-.12 3.6-.16 6.85v5.43c-.32 3.45-.5 7.5-.55 12s-.08 8.34-.08 11.45c0 2.86 0 5.49.08 7.85.06 2.62.11 5.1 2.13 5.1h1.53l.38-.23a3.11 3.11 0 0 0 1.29-1.66 9.92 9.92 0 0 0 .45-3c.08-1.27.14-3.13.16-5.6s0-5.74 0-9.9v-7.25q0-3.68.16-6.89c.07-2.15.15-4 .23-5.62s.11-2.65.11-3.4a21.1 21.1 0 0 0 .32-3.35c.05-1.49.09-3.19.11-5.13l.08-6.18v-1.74a3.23 3.23 0 0 0 .66.12 6.23 6.23 0 0 0 3.35-.49 13.46 13.46 0 0 0 2.55-1.35 9.42 9.42 0 0 0 2.33-1.3 12.23 12.23 0 0 0 1.33-1.13c.17-.13.28-.19.26-.21a4.34 4.34 0 0 0 2.3-1 6.52 6.52 0 0 0 1.79-1.89 13.12 13.12 0 0 0 2-3.28 21.68 21.68 0 0 0 1.45-3.81 20.82 20.82 0 0 0 1.39-3.46 8.61 8.61 0 0 0 .49-2.38 18.65 18.65 0 0 1 .32-1.91c.23-1.13.49-2.25.81-3.43.32-1.46.61-3.15.84-5a45.12 45.12 0 0 0 .37-5.56c.08-2.36.02-4.05-.08-5.14Zm-22.09 36.41v-19.29c0-1.09.12-3 .34-5.66s.51-5.32.83-8c0-2.48.09-4.84.27-7s.27-3.74.27-4.33v-.92c.2-.07.5-.17.93-.29h3.13a6.55 6.55 0 0 1 1.61.26 7.4 7.4 0 0 1 1.77.69c.51.22.74.39.79.37V834h2.26a7.74 7.74 0 0 0 1 1.24 9.2 9.2 0 0 1 .91 1.25c.42.66.77 1.27 1.07 1.82a7.27 7.27 0 0 1 .67 1.88 8.25 8.25 0 0 1 .31 1.87v.4l.19.35a4.7 4.7 0 0 1 .27 2.05 17.43 17.43 0 0 1-.42 3.7v.34a21.46 21.46 0 0 1-.34 3.6 8.11 8.11 0 0 1-.64 2.48l-.19.36v.41a10.18 10.18 0 0 1-.25 1.95 15.88 15.88 0 0 0-.3 2.56 3 3 0 0 1-.18 1.11 8.27 8.27 0 0 0-.32 1.19 16.35 16.35 0 0 0-1.62 4.53 13 13 0 0 1-1.25 2.42 2.77 2.77 0 0 0-1.49.78 2.71 2.71 0 0 0-.77 1.52h-.17a2.79 2.79 0 0 0-1.87.71 2.62 2.62 0 0 0-.69 1c-1 .62-1.66 1-2 1.23l-2.31.84a3.44 3.44 0 0 0-1.84 1.28Z"/><path fill="#fdac19" d="M1599.22 889.55a14.86 14.86 0 0 0-.84-2.33 3.29 3.29 0 0 0-1.7-2.18h-.07v-.14a20.34 20.34 0 0 1-.48-2.12 18.64 18.64 0 0 0-.85-2.16c-.23-.47-.79-1.67-2-1.84l-.22-.23a3.34 3.34 0 0 0-2.36-1.33s0 0-.07-.14c-.58-.68-1.12-1.24-1.69-1.24a2.38 2.38 0 0 1-.4-.66l-.44-.9h-.65a5.46 5.46 0 0 1-.61-.9 13.46 13.46 0 0 0-2.15-3 4.71 4.71 0 0 0-2.8-1.76 12 12 0 0 0-1.6-.19h-.1a7.47 7.47 0 0 0-.39-1.09c-.22-.54-.73-1.73-1.84-2a3.43 3.43 0 0 1-.22-.3 12 12 0 0 1-1-1.77c-.31-.64-.67-1.51-1.07-2.61a5.29 5.29 0 0 0-1.42-2.35c-.27-.53-.53-1-.79-1.54a3.68 3.68 0 0 0-1.34-1.56l-.12-.21a3.52 3.52 0 0 0-.92-1.15 4.39 4.39 0 0 0-.56-.84c-.22-.27-.46-.56-.69-.87a10.47 10.47 0 0 0-1.18-1.26 1.33 1.33 0 0 1-.12-.24 2.82 2.82 0 0 0-1.51-1.56 4.57 4.57 0 0 0-.42-.82c-.24-1.38-.75-3-2.11-3.62l-.12-.22c-.27-.57-.51-1.17-.65-1.52-.29-2.06-.52-3.69-2.14-3.69s-1.82 1.66-1.94 3.63a8.89 8.89 0 0 0 0 5 6 6 0 0 0 1.11 2.95 26 26 0 0 1 1.75 3.32l.32.46a11.68 11.68 0 0 1 1.77 2.43c.79 1.36 1.24 2.13 1.92 2.41v.06a3.69 3.69 0 0 0 1 1.27c.15.24.38.65.69 1.21a11.53 11.53 0 0 0 2.46 3.19 9.31 9.31 0 0 1 1.87 2.56 21 21 0 0 1 1.36 3 19.81 19.81 0 0 0 1.4 2.35c.5.74 1 1.43 1.44 2.12a4.64 4.64 0 0 0 2 1.87 3.08 3.08 0 0 0 1.19.37l.63.2a3.09 3.09 0 0 1 1.08.8c.57.68 1.32 1.64 2.27 2.87a28.71 28.71 0 0 0 2.51 3l1.75 2.07c.84 1 1.53 1.6 2.42 1.6a2.24 2.24 0 0 1 .45.07 2.44 2.44 0 0 1 .48.58 11.48 11.48 0 0 1 1 2.33 3.66 3.66 0 0 1-.45 1c-.07.11-.13.18-.13.22h-.68l-.47.71a1.38 1.38 0 0 1-1 .61 12 12 0 0 1-2.21.23 5.24 5.24 0 0 0-3.08 1c-.43.3-.64.39-.61.4h-.81l-.47.71a18 18 0 0 0-1.28 2.27l-.06.12-.53.8c-.21.36-.36.58-.45.71a4.23 4.23 0 0 0-1.67 1.56c-.51.71-1 1.41-1.58 2.3a9.77 9.77 0 0 1-1 1.72l-.24.32h-.79l-.36 1.09a12 12 0 0 1-1.46 2.63 10.59 10.59 0 0 1-2.3 2.62 15.61 15.61 0 0 0-3 3.07 13.54 13.54 0 0 1-.88 1.08h-.64l-.36 1.1a4.72 4.72 0 0 1-1.26 1.69 17.85 17.85 0 0 0-2.73 3.58c-1.37 1.51-2.28 2.51-2.74 3a6 6 0 0 0-1.09 4.07 8.76 8.76 0 0 0 .33 2.41c.2.73.59 2.11 2 2.11h2.49l.36-1.09a8.43 8.43 0 0 1 .93-1.9c.35-.57.69-1.11 1-1.61a3.5 3.5 0 0 0 1.73-1.1c.11-.13.21-.23.29-.31a3.65 3.65 0 0 0 1.36-1.54 3.6 3.6 0 0 0 1.36-1.56 3.25 3.25 0 0 0 1.22-1.22h.44l.43-.89a12.77 12.77 0 0 1 1.11-1.83l.3-.38h.66l.43-.9a20 20 0 0 1 1-1.83l.25-.39a4.63 4.63 0 0 0 1.49-1.33c.5-.6 1.08-1.22 1.72-1.87l.32-.46c.66-1.45 1.34-2.79 2-4a9.43 9.43 0 0 1 .74-1.16 3 3 0 0 0 1.76-1.44l.07-.1.82-.09.17-1.15a5.33 5.33 0 0 1 .91-.07 5.27 5.27 0 0 0 2.92-1.05 3.5 3.5 0 0 1 1-.5 4.68 4.68 0 0 0 2.85-1.3 25.83 25.83 0 0 0 2.43-2.2 5.47 5.47 0 0 1 1.33-1.2 4.24 4.24 0 0 0 1.6-1.59l.32-.17a2.53 2.53 0 0 0 1-2.19 4.91 4.91 0 0 0 .2-1.38v-2.1a10.84 10.84 0 0 0-.3-2.61ZM1350 881.14h.67l.48-.72a1.33 1.33 0 0 1 1-.6 12 12 0 0 1 2.21-.24 5.26 5.26 0 0 0 3.08-1c.43-.3.64-.38.61-.39h.81l.47-.72a17.92 17.92 0 0 0 1.28-2.26l.06-.13.53-.8a8 8 0 0 1 .44-.71 4.12 4.12 0 0 0 1.68-1.56c.51-.7 1-1.41 1.57-2.3a10.84 10.84 0 0 1 1-1.72c.1-.14.18-.23.24-.31h.69l.36-1.1a12.34 12.34 0 0 1 1.47-2.62 10.41 10.41 0 0 1 2.3-2.62 15.3 15.3 0 0 0 3-3.07c.44-.58.72-.9.88-1.09h.64l.36-1.09a4.86 4.86 0 0 1 1.26-1.69 17.56 17.56 0 0 0 2.73-3.59c1.37-1.5 2.29-2.51 2.75-3a6 6 0 0 0 1.08-4.06 8.89 8.89 0 0 0-.33-2.42c-.2-.73-.58-2.1-1.95-2.1h-2.51l-.36 1.09a9.65 9.65 0 0 1-.93 1.9c-.35.56-.69 1.1-1 1.61a3.57 3.57 0 0 0-1.72 1.09l-.29.32a3.53 3.53 0 0 0-1.36 1.54 3.59 3.59 0 0 0-1.37 1.55 3.32 3.32 0 0 0-1.21 1.23h-.44l-.44.89a12.77 12.77 0 0 1-1.11 1.83 3.21 3.21 0 0 1-.3.37h-.65l-.44.91a20.28 20.28 0 0 1-1 1.83c-.09.15-.17.28-.25.39a4.69 4.69 0 0 0-1.48 1.32c-.5.6-1.08 1.23-1.72 1.87l-.32.46c-.66 1.46-1.34 2.79-2 4a9.42 9.42 0 0 1-.73 1.16 3 3 0 0 0-1.76 1.44.61.61 0 0 0-.07.1l-.82.09-.18 1.15a6.52 6.52 0 0 1-.91.06 5.41 5.41 0 0 0-2.91 1 3 3 0 0 1-1 .51 4.76 4.76 0 0 0-2.86 1.3 30.38 30.38 0 0 0-2.43 2.2 5.25 5.25 0 0 1-1.32 1.2 4.37 4.37 0 0 0-1.55 1.56l-.31.17a2.52 2.52 0 0 0-1.06 2.19 5.23 5.23 0 0 0-.19 1.38v2.1a10.8 10.8 0 0 0 .37 2.64 12.13 12.13 0 0 0 .84 2.32 3.22 3.22 0 0 0 1.7 2.19h.07a.74.74 0 0 0 0 .14 21.6 21.6 0 0 1 .48 2.12 17.76 17.76 0 0 0 .85 2.17c.23.47.79 1.66 1.94 1.84a1 1 0 0 1 .22.23 3.45 3.45 0 0 0 2.37 1.33s0 0 .06.13c.58.68 1.13 1.24 1.69 1.24a2.74 2.74 0 0 1 .4.67l.43.89h.66a5.94 5.94 0 0 1 .6.91 13.7 13.7 0 0 0 2.16 3 4.64 4.64 0 0 0 2.8 1.75 10 10 0 0 0 1.59.21h.1c.11.36.24.73.39 1.09.23.54.74 1.73 1.85 2l.22.3a15.6 15.6 0 0 1 1 1.77c.31.65.67 1.52 1.07 2.61a5.06 5.06 0 0 0 1.42 2.35c.26.54.52 1 .78 1.54a3.77 3.77 0 0 0 1.34 1.57s.07.12.12.19a3.49 3.49 0 0 0 .92 1.15 4.42 4.42 0 0 0 .55.83c.23.27.47.56.7.87a9.72 9.72 0 0 0 1.18 1.27l.12.25a2.81 2.81 0 0 0 1.5 1.56 4.64 4.64 0 0 0 .43.81c.24 1.38.75 3 2.11 3.63l.11.21c.27.58.52 1.17.66 1.52.29 2.06.52 3.7 2.13 3.7s1.83-1.67 1.94-3.63a8.83 8.83 0 0 0 0-5 6.12 6.12 0 0 0-1.11-2.95 24.44 24.44 0 0 1-1.76-3.31l-.32-.46a12.45 12.45 0 0 1-1.77-2.43c-.79-1.36-1.23-2.14-1.91-2.41v-.06a3.63 3.63 0 0 0-1-1.27c-.15-.24-.38-.65-.69-1.21a11.24 11.24 0 0 0-2.46-3.19 9 9 0 0 1-1.87-2.57 22.42 22.42 0 0 1-1.37-3 18.19 18.19 0 0 0-1.39-2.35c-.5-.74-1-1.44-1.44-2.13a4.76 4.76 0 0 0-2-1.87 3.18 3.18 0 0 0-1.19-.37l-.64-.2a3.19 3.19 0 0 1-1.08-.8c-.56-.67-1.32-1.63-2.26-2.86a28.89 28.89 0 0 0-2.51-3l-1.75-2.08c-.84-1-1.54-1.59-2.43-1.59a3 3 0 0 1-.44-.08 2 2 0 0 1-.49-.58 11.3 11.3 0 0 1-1-2.33 3.54 3.54 0 0 1 .45-1 1.33 1.33 0 0 0 .19-.17Z"/><path fill="#0086ca" d="M1262 646.87c-66-41.24-86.14-128.48-44.92-194.48a141.15 141.15 0 1 1 152.2 212.12A140.2 140.2 0 0 1 1262 646.87Z"/><path fill="#fff" d="M1316.69 559.42a38 38 0 1 1 28.91 4.77 37.77 37.77 0 0 1-28.91-4.77Z"/><path fill="#015288" d="M1244.11 670.32c77.55 48.47 184.7 22.08 233.13-55.45a165.54 165.54 0 0 0-52.66-228.13c-77.55-48.44-184.85-21.43-233.29 56.1s-24.7 179.06 52.82 227.48Zm-35.2-140.82c-1.5-70.71 57.92-124.42 128.64-125.93s123.06 51.17 124.57 121.87-51.82 128.24-122.53 129.74-129.15-54.98-130.68-125.68Z"/><path fill="#015288" d="M1336.68 627.11c-2.43 0-4.9-.09-7.35-.27l.15-2c2.42.19 4.83.3 7.27.28h.61v2h-.7Zm8.74-.37-.18-2c2.61-.23 5.25-.56 7.83-1l.32 2c-2.62.42-5.31.77-7.97 1Zm-24.08-.82c-2.64-.42-5.29-.94-7.9-1.57l.47-1.94c2.55.61 5.15 1.12 7.74 1.54Zm39.92-1.85-.47-1.93c2.53-.65 5.08-1.39 7.55-2.23l.65 1.89c-2.53.85-5.12 1.63-7.73 2.27Zm-55.56-1.92c-2.53-.84-5.07-1.79-7.53-2.82l.77-1.84c2.41 1 4.89 1.94 7.39 2.76Zm70.8-3.24-.79-1.83c2.4-1 4.8-2.19 7.1-3.41l.93 1.76a89.328 89.328 0 0 1-7.24 3.48Zm-85.62-3a95.497 95.497 0 0 1-7-4l-.28-.16 1.05-1.7.3.18c2.2 1.38 4.51 2.69 6.83 3.91Zm99.81-4.52-1.07-1.68c2.21-1.42 4.39-2.93 6.47-4.51l1.2 1.59c-2.11 1.59-4.29 3.15-6.6 4.59Zm-113.69-4.2c-2.14-1.59-4.25-3.31-6.25-5.06l1.32-1.51c2 1.74 4 3.4 6.13 5Zm126.51-5.53-1.33-1.48c1.95-1.75 3.85-3.59 5.66-5.5l1.45 1.38c-1.86 1.94-3.81 3.82-5.8 5.6Zm-138.58-5.09a98.13 98.13 0 0 1-5.34-6l1.53-1.27c1.67 2 3.43 4 5.25 5.88Zm149.64-6.57-1.55-1.25c1.64-2 3.22-4.16 4.69-6.34l1.65 1.13c-1.51 2.22-3.12 4.38-4.79 6.46Zm-159.85-5.85c-1.53-2.2-3-4.49-4.31-6.79l1.73-1c1.3 2.26 2.72 4.5 4.21 6.65Zm168.91-7.43-1.73-1c1.3-2.28 2.53-4.63 3.64-7l1.8.85c-1.13 2.43-2.34 4.83-3.71 7.15Zm-177-6.48c-1.14-2.4-2.21-4.9-3.16-7.39l1.86-.72c1 2.46 2 4.89 3.11 7.25Zm183.83-8.07-1.87-.71c.91-2.43 1.75-5 2.47-7.48l1.92.56c-.72 2.57-1.57 5.14-2.5 7.63Zm-189.55-6.95c-.75-2.57-1.41-5.2-1.94-7.81l2-.39c.53 2.54 1.17 5.11 1.91 7.64Zm194-8.52-2-.38c.52-2.57.93-5.2 1.23-7.79l2 .22c-.3 2.65-.73 5.33-1.25 7.95Zm-197.22-7.22c-.33-2.67-.56-5.36-.68-8l2-.09c.11 2.61.34 5.25.66 7.86Zm199.08-8.74-2-.08v-3.43c0-1.49 0-3-.1-4.45l2-.1c.08 1.53.11 3 .11 4.55q.03 1.77-.03 3.51ZM1239 523.48l-2-.07c.1-2.68.31-5.38.62-8l2 .24c-.36 2.56-.56 5.2-.62 7.83Zm195-8.57c-.33-2.58-.77-5.21-1.3-7.77l2-.41c.55 2.62 1 5.3 1.32 7.94Zm-193.23-7.07-2-.4c.53-2.62 1.16-5.25 1.9-7.82l1.92.56c-.59 2.5-1.27 5.08-1.78 7.66Zm190-8.35c-.74-2.52-1.59-5-2.52-7.47l1.85-.71c1 2.49 1.83 5 2.59 7.62Zm-185.67-6.8-1.86-.71c.93-2.49 2-5 3.14-7.41l1.81.86c-1.07 2.37-2.11 4.81-3.04 7.26Zm180-7.91c-1.13-2.35-2.37-4.7-3.69-7l1.73-1c1.34 2.31 2.61 4.7 3.76 7.11Zm-173.3-6.34-1.73-1c.63-1.1 1.28-2.17 1.95-3.24s1.54-2.4 2.33-3.57l1.65 1.13c-.78 1.14-1.54 2.31-2.29 3.5s-1.21 2.11-1.83 3.18Zm165.38-7.28a90.82 90.82 0 0 0-4.76-6.28l1.55-1.27c1.69 2.06 3.32 4.23 4.84 6.41Zm-156.47-5.73-1.56-1.26a92.57 92.57 0 0 1 5.32-6l1.45 1.37c-1.72 1.86-3.48 3.86-5.13 5.89Zm146.54-6.43a94.41 94.41 0 0 0-5.71-5.43l1.31-1.51c2 1.77 4 3.63 5.84 5.55Zm-135.59-5-1.33-1.48c2-1.79 4.09-3.5 6.22-5.12l1.2 1.6a112.3 112.3 0 0 0-6.09 5Zm123.74-5.39a95.799 95.799 0 0 0-6.5-4.46l1.06-1.69c2.26 1.42 4.5 2.94 6.64 4.53Zm-111.18-4.11-1.07-1.68c2.25-1.43 4.59-2.8 6.95-4l.93 1.77c-2.3 1.2-4.6 2.53-6.81 3.93Zm97.84-4.27a98.636 98.636 0 0 0-7.14-3.37l.77-1.83c2.46 1 4.91 2.19 7.28 3.43Zm-83.91-3.08-.79-1.85c2.46-1 5-2 7.51-2.87l.65 1.9c-2.52.86-4.96 1.81-7.37 2.84Zm69.38-3.07c-2.49-.82-5-1.54-7.58-2.16l.47-1.95c2.6.64 5.2 1.38 7.74 2.21Zm-54.45-2-.48-1.94c2.59-.64 5.24-1.2 7.87-1.64l.33 2c-2.58.5-5.18 1.01-7.72 1.64Zm39.14-1.75c-2.58-.41-5.22-.72-7.83-.92l.15-2c2.66.21 5.35.52 8 .95Zm-23.6-.84-.17-2c2.68-.23 5.38-.35 8-.37v2c-2.55.08-5.21.21-7.83.43Z"/><path fill="#fe6a3c" d="M1302 582.89c30.77 19.24 74.51 11.25 93.73-19.54s9.12-76.91-21.66-96.14-73.76-5.65-93 25.13a65.7 65.7 0 0 0 20.93 90.55Zm.38-55a34.44 34.44 0 1 1 35.16 33.69 34.44 34.44 0 0 1-35.12-33.69Z"/><path fill="#015288" d="m1607.91 330.63 3.64-3.6c4.74-4.67 9.63-9.5 14.75-14.1l1.22 1.35c-5.09 4.57-10 9.39-14.69 14l-3.66 3.6ZM1581.87 315.32l-.28-5.09c-.39-6.65-.78-13.52-.84-20.42h1.8c.08 6.85.46 13.69.84 20.33l.28 5.1ZM1621.67 369.51l.62-1.68 4.79 1.8c6.21 2.34 12.62 4.76 19.13 6.88l-.55 1.72c-6.56-2.13-13-4.56-19.22-6.92Z"/><path fill="#040e31" d="m1500 499.28-41.42-1c-2.4-.08-5.47 2.6-6.83 5.95l-9.4 23.05a8.24 8.24 0 0 0-.63 2.61l-102.29-3c-2.51-.08-4.53.76-4.55 1.87s2 2.07 4.5 2.12l102.11 3a7.73 7.73 0 0 0 .57 3.27l8.9 23.68c1.28 3.42 4.3 6.28 6.7 6.34l39.58 1a165.59 165.59 0 0 0 2.76-68.89Z" opacity=".29"/><path fill="#f9a729" d="M1487 422.52c-3.31 2.35-6.13 1-6.25-3.11l-.85-28a15.42 15.42 0 0 1 5.79-11.68L1570 319.5c3.31-2.35 6.12-.95 6.26 3.11l.88 28a15.45 15.45 0 0 1-5.81 11.66Z"/><path fill="#f9a729" d="M1485.34 420.72c-3.32 2.35-2.93 5.47.86 6.95l26.19 10.09a15.44 15.44 0 0 0 12.92-1.62l84.26-60.2c3.31-2.36 2.92-5.48-.87-6.94l-26.13-10a15.51 15.51 0 0 0-12.92 1.62Z"/><path fill="#040e31" d="M1342.42 525.87c-3.43 2.48-6.74 3.73-7.39 2.81-.64-.91 1.62-3.61 5.1-6.07l228.25-162.3c3.45-2.44 6.8-3.71 7.44-2.82.66.89-1.63 3.61-5.11 6.09Z"/><path fill="#f26a40" d="M1711.61 264.42c-169.89 12.05-299.07 25.76-463.36 0-19.78-3.1-19.9-77.94 0-80.12 212.41-23.27 382.06-5.55 463.36 0 19.98 1.37 19.97 78.7 0 80.12Z"/><path fill="#fff" d="M1616.25 254.21h-.16c-56-1.18-351.77-2.06-354.74-2.07h-1.88l-5.73-55.14 2.16-.14c51.51-3.45 115.4-5.19 189.9-5.19 92.76 0 169.65 2.78 170.41 2.8l1.57.07.37 1.51c1.16 4.65 11 45.59 3.23 55.58a6.35 6.35 0 0 1-5.13 2.58Zm-353-6.22c25.4.06 299.25.93 353 2.06l.06 2.08v-2.08a2.19 2.19 0 0 0 1.86-1c4.8-6.14.45-33.56-3.61-50.49-11.41-.38-83.32-2.75-168.7-2.75-73.38 0-136.43 1.69-187.48 5.05ZM1667.61 212.39a12.67 12.67 0 1 0-20.5 14.89c3.82 5.28 11.9 7 17.43 3.85l11.9 16.65 2.89-2.09-13.21-15.76c4.19-4.33 5.16-12.51 1.49-17.54Zm-4.92 14.8a9.09 9.09 0 1 1 2-12.7 9.09 9.09 0 0 1-2 12.7Z"/></g></svg>